<svg width="847" height="624" viewBox="0 0 847 624" fill="none" xmlns="http://www.w3.org/2000/svg">
<g filter="url(#filter0_d_511_2)">
<path d="M168.655 143V105.156L152.195 44.5214H171.187L178.221 77.8635L185.115 44.5214H204.107L187.647 105.156V143H168.655ZM276.882 123.445C276.882 130.573 275.288 135.731 272.099 138.92C269.004 142.015 263.846 143.563 256.624 143.563H250.434C243.212 143.563 238.007 142.015 234.818 138.92C231.723 135.731 230.175 130.573 230.175 123.445V64.0765C230.175 56.8547 231.723 51.6963 234.818 48.6013C238.007 45.5062 243.212 43.9587 250.434 43.9587H256.624C263.846 43.9587 269.004 45.5062 272.099 48.6013C275.288 51.6963 276.882 56.8547 276.882 64.0765V123.445ZM250.012 62.6696C249.543 62.6696 249.308 62.9041 249.308 63.3731V124.148C249.308 124.617 249.543 124.852 250.012 124.852H257.046C257.515 124.852 257.749 124.617 257.749 124.148V63.3731C257.749 62.9041 257.515 62.6696 257.046 62.6696H250.012ZM354.393 123.445C354.393 130.573 352.798 135.731 349.609 138.92C346.514 142.015 341.356 143.563 334.134 143.563H326.537C319.315 143.563 314.11 142.015 310.921 138.92C307.826 135.731 306.279 130.573 306.279 123.445V63.2324H303.606L305.575 44.5214H325.412V124.148C325.412 124.617 325.646 124.852 326.115 124.852H334.556C335.025 124.852 335.26 124.617 335.26 124.148V44.5214H354.393V123.445ZM427.451 143V44.5214H446.584V105.86L454.463 58.5898H467.828L475.284 103.327V44.5214H494.417V143H467.968L461.075 89.9623L454.322 143H427.451ZM523.888 143V63.2324H521.215L523.184 44.5214H543.021V143H523.888ZM572.468 143.141V63.3731H569.795L571.764 44.6621H591.601V124.289H618.471L617.346 143H591.601V143.141H572.468ZM647.838 143.141V63.3731H645.165L647.134 44.6621H666.971V124.289H693.841L692.716 143H666.971V143.141H647.838ZM38.9963 330.141V250.373H36.3233L38.2929 231.662H58.1293V311.289H84.9999L83.8744 330H58.1293V330.141H38.9963ZM111.693 330L123.37 250.232H120.416L122.385 231.521H155.165L169.655 330H150.663L148.553 315.932H132.796L130.686 330H111.693ZM135.469 297.221H145.88L140.674 262.05L135.469 297.221ZM197.705 330V250.232H195.032L197.002 231.521H216.838L232.876 284.981V231.521H252.009V330H232.876L216.838 276.54V330H197.705ZM328.163 309.882C328.163 317.01 326.568 322.169 323.379 325.357C320.284 328.452 315.126 330 307.904 330H281.456V250.232H278.783L280.752 231.521H307.904C315.126 231.521 320.284 233.069 323.379 236.164C326.568 239.259 328.163 244.417 328.163 251.639V309.882ZM308.326 311.289C308.795 311.289 309.03 311.055 309.03 310.586V250.936C309.03 250.467 308.795 250.232 308.326 250.232H300.589V311.289H308.326ZM401.222 330L412.898 250.232H409.944L411.913 231.521H444.693L459.183 330H440.191L438.081 315.932H422.324L420.214 330H401.222ZM424.997 297.221H435.408L430.202 262.05L424.997 297.221ZM487.233 330V250.232H484.56L486.53 231.521H499.754L513.682 231.381L520.434 284.559L527.328 231.521H553.776V330H534.643V271.194L527.187 315.932H513.822L506.366 271.194V330H487.233ZM628.619 310.445C628.619 317.573 627.025 322.731 623.836 325.92C620.741 329.015 615.582 330.563 608.361 330.563H602.171C594.949 330.563 589.743 329.015 586.555 325.92C583.46 322.731 581.912 317.573 581.912 310.445V251.076C581.912 243.855 583.46 238.696 586.555 235.601C589.743 232.506 594.949 230.959 602.171 230.959H608.361C615.582 230.959 620.741 232.506 623.836 235.601C627.025 238.696 628.619 243.855 628.619 251.076V310.445ZM601.748 249.67C601.28 249.67 601.045 249.904 601.045 250.373V311.148C601.045 311.617 601.28 311.852 601.748 311.852H608.783C609.252 311.852 609.486 311.617 609.486 311.148V250.373C609.486 249.904 609.252 249.67 608.783 249.67H601.748ZM658.032 330V250.232H655.359L657.328 231.521H677.165L693.203 284.981V231.521H712.336V330H693.203L677.165 276.54V330H658.032ZM763.837 290.187L764.962 271.476H788.597V310.445C788.597 317.573 787.003 322.731 783.814 325.92C780.719 329.015 775.561 330.563 768.339 330.563H760.742C753.52 330.563 748.315 329.015 745.126 325.92C742.031 322.731 740.483 317.573 740.483 310.445V251.076C740.483 243.855 742.031 238.696 745.126 235.601C748.315 232.506 753.52 230.959 760.742 230.959H768.339C775.561 230.959 780.719 232.506 783.814 235.601C787.003 238.696 788.597 243.855 788.597 251.076V265.004L769.464 262.894V250.373C769.464 249.904 769.23 249.67 768.761 249.67H760.32C759.851 249.67 759.616 249.904 759.616 250.373V311.148C759.616 311.617 759.851 311.852 760.32 311.852H768.761C769.23 311.852 769.464 311.617 769.464 311.148V290.187H763.837Z" fill="#D1D1D1"/>
</g>
<g filter="url(#filter1_d_511_2)">
<path d="M41.3978 565V458.643H23.953V433.695H84.1656V458.643H66.9084V565H41.3978ZM123.431 565V458.643H119.867L122.493 433.695H148.942V490.719H159.258V433.695H184.769V565H159.258V515.667H148.942V565H123.431ZM223.925 565V458.643H220.361L222.987 433.695H276.634L275.133 458.643H249.435V486.78H272.507L271.007 511.728H249.435V540.052H276.634L275.133 565H223.925ZM398.66 523.733V540.615C398.66 541.24 398.972 541.553 399.597 541.553H405.037C405.662 541.553 405.975 541.24 405.975 540.615L406.163 515.667L384.966 506.476C380.214 504.35 377.025 502.161 375.4 499.91C373.899 497.659 373.149 494.22 373.149 489.594V459.018C373.149 449.389 375.212 442.511 379.339 438.385C383.466 434.258 390.156 432.195 399.41 432.195H407.288C416.042 432.57 422.294 434.883 426.046 439.135C429.797 443.262 431.673 449.89 431.673 459.018V482.466L406.163 479.652V458.08C406.163 457.455 405.85 457.143 405.225 457.143H399.597C398.972 457.143 398.66 457.455 398.66 458.08V485.654L419.856 494.846C424.608 496.847 427.734 499.035 429.235 501.411C430.86 503.662 431.673 507.101 431.673 511.728V539.677C431.673 548.806 429.797 555.496 426.046 559.748C422.294 563.875 416.042 566.125 407.288 566.501H399.785C390.281 566.501 383.466 564.437 379.339 560.311C375.212 556.059 373.149 549.181 373.149 539.677V523.733H398.66ZM481.95 565V458.643H464.505V433.695H524.718V458.643H507.461V565H481.95ZM552.909 565L568.478 458.643H564.539L567.165 433.695H610.871L630.191 565H604.868L602.054 546.242H581.046L578.232 565H552.909ZM584.61 521.294H598.49L591.55 474.4L584.61 521.294ZM668.485 565V458.643H664.921L667.547 433.695H701.874C711.503 433.695 718.381 435.821 722.507 440.073C726.759 444.2 728.885 451.015 728.885 460.519V503.287C728.885 512.916 726.822 519.794 722.695 523.92L734.325 565H708.814L699.06 530.11H693.996V565H668.485ZM702.437 458.643H693.996V505.163H702.437C703.062 505.163 703.374 504.85 703.374 504.225V459.581C703.374 458.956 703.062 458.643 702.437 458.643ZM790.009 523.733V540.615C790.009 541.24 790.322 541.553 790.947 541.553H796.387C797.012 541.553 797.325 541.24 797.325 540.615L797.512 515.667L776.316 506.476C771.564 504.35 768.375 502.161 766.749 499.91C765.249 497.659 764.499 494.22 764.499 489.594V459.018C764.499 449.389 766.562 442.511 770.689 438.385C774.815 434.258 781.506 432.195 790.759 432.195H798.638C807.391 432.57 813.644 434.883 817.396 439.135C821.147 443.262 823.023 449.89 823.023 459.018V482.466L797.512 479.652V458.08C797.512 457.455 797.2 457.143 796.574 457.143H790.947C790.322 457.143 790.009 457.455 790.009 458.08V485.654L811.206 494.846C815.957 496.847 819.084 499.035 820.584 501.411C822.21 503.662 823.023 507.101 823.023 511.728V539.677C823.023 548.806 821.147 555.496 817.396 559.748C813.644 563.875 807.391 566.125 798.638 566.501H791.135C781.631 566.501 774.815 564.437 770.689 560.311C766.562 556.059 764.499 549.181 764.499 539.677V523.733H790.009Z" fill="white"/>
</g>
<defs>
<filter id="filter0_d_511_2" x="24.5996" y="43.959" width="775.722" height="310.051" filterUnits="userSpaceOnUse" color-interpolation-filters="sRGB">
<feFlood flood-opacity="0" result="BackgroundImageFix"/>
<feColorMatrix in="SourceAlpha" type="matrix" values="0 0 0 0 0 0 0 0 0 0 0 0 0 0 0 0 0 0 127 0" result="hardAlpha"/>
<feOffset dy="11.7236"/>
<feGaussianBlur stdDeviation="5.86182"/>
<feComposite in2="hardAlpha" operator="out"/>
<feColorMatrix type="matrix" values="0 0 0 0 0 0 0 0 0 0 0 0 0 0 0 0 0 0 0.25 0"/>
<feBlend mode="normal" in2="BackgroundImageFix" result="effect1_dropShadow_511_2"/>
<feBlend mode="normal" in="SourceGraphic" in2="effect1_dropShadow_511_2" result="shape"/>
</filter>
<filter id="filter1_d_511_2" x="0.505852" y="408.748" width="845.964" height="181.199" filterUnits="userSpaceOnUse" color-interpolation-filters="sRGB">
<feFlood flood-opacity="0" result="BackgroundImageFix"/>
<feColorMatrix in="SourceAlpha" type="matrix" values="0 0 0 0 0 0 0 0 0 0 0 0 0 0 0 0 0 0 127 0" result="hardAlpha"/>
<feOffset/>
<feGaussianBlur stdDeviation="11.7236"/>
<feComposite in2="hardAlpha" operator="out"/>
<feColorMatrix type="matrix" values="0 0 0 0 1 0 0 0 0 1 0 0 0 0 1 0 0 0 0.8 0"/>
<feBlend mode="normal" in2="BackgroundImageFix" result="effect1_dropShadow_511_2"/>
<feBlend mode="normal" in="SourceGraphic" in2="effect1_dropShadow_511_2" result="shape"/>
</filter>
</defs>
</svg>
