<svg width="74" height="116" viewBox="0 0 74 116" fill="none" xmlns="http://www.w3.org/2000/svg">
<path d="M28.9426 106.242H28.8374C28.5467 106.242 28.311 106.006 28.311 105.716C28.311 105.425 28.5467 105.189 28.8374 105.189H36.9429H45.0483C45.339 105.189 45.5747 105.425 45.5747 105.716C45.5747 106.006 45.339 106.242 45.0483 106.242H44.9431C44.5943 106.242 44.3115 106.525 44.3115 106.874V111.817C44.3115 112.439 44.1343 113.047 43.8007 113.571C43.2009 114.514 42.1613 115.084 41.0442 115.084H32.8415C31.7244 115.084 30.6848 114.514 30.085 113.571C29.7514 113.047 29.5742 112.439 29.5742 111.817V106.874C29.5742 106.525 29.2915 106.242 28.9426 106.242Z" fill="url(#paint0_linear_457_72)" stroke="black" stroke-width="0.168182"/>
<path d="M42.8011 83.0137L44.0624 104.961L41.792 83.0137" stroke="#494440" stroke-width="0.168182" stroke-linejoin="round"/>
<path d="M31.0301 83.0137C31.2992 83.0809 30.105 104.877 30.105 104.877L32.0391 83.0137" stroke="#494440" stroke-width="0.168182" stroke-linejoin="round"/>
<path d="M24.2016 74.9779L25.4965 77.2801C26.916 79.8036 31.0295 83.1815 31.0295 83.1815H42.8864C42.8864 83.1815 47.084 79.8036 48.5035 77.2801L49.7984 74.9779L55.4141 67.534L64.4721 57.2232C66.6079 54.7921 68.4087 52.0861 69.8268 49.1773L70.5537 47.6861C72.0317 44.6543 73.0442 41.417 73.5571 38.0834L73.6607 37.4098C74.1179 34.4384 74.113 31.4142 73.6463 28.4443C73.1613 25.3576 72.1835 22.3688 70.7504 19.5923L69.6058 17.3745C67.6564 13.5975 64.8952 10.2987 61.5203 7.71482C59.3756 6.07276 57.0105 4.74054 54.4947 3.75733L51.9243 2.75283C48.6097 1.45746 45.1225 0.656875 41.5748 0.376793L39.8551 0.241025C37.9546 0.0909918 36.0454 0.0909918 34.1449 0.241025L32.4252 0.376793C28.8775 0.656875 25.3903 1.45746 22.0757 2.75283L19.5053 3.75733C16.9895 4.74054 14.6244 6.07276 12.4797 7.71482C9.10483 10.2987 6.34364 13.5975 4.39421 17.3745L3.24955 19.5923C1.81649 22.3688 0.838745 25.3576 0.353692 28.4443C-0.113008 31.4142 -0.117876 34.4384 0.339262 37.4098L0.442898 38.0834C0.955763 41.417 1.96826 44.6543 3.44625 47.6861L4.17323 49.1773C5.59127 52.0861 7.39214 54.7921 9.5279 57.2232L18.5859 67.534L24.2016 74.9779Z" fill="url(#paint1_linear_457_72)"/>
<path d="M36.9993 0.146484L33.9899 7.31169C32.3521 11.2113 31.4088 15.3672 31.2027 19.5917L30.0197 31.6343C29.9049 33.9883 30.1197 46.5071 30.4627 48.8389L33.8649 71.9745L34.5179 78.6349V79.2077C34.5179 79.9225 33.9805 80.523 33.27 80.6019C32.6237 80.6737 32.0127 80.2919 31.794 79.6795L31.5142 78.8961L29.9402 73.9116C29.423 72.274 28.7903 70.6752 28.0466 69.1272L22.7643 58.1313L19.5281 50.5083C17.7827 46.3968 16.8115 41.9984 16.6635 37.5342L16.4897 32.2907C16.2398 24.7503 18.5341 17.345 23.0034 11.2667L24.2455 9.57741C27.4493 5.22036 31.8948 1.93306 36.9993 0.146484L34.0185 0.858319C30.2086 1.76813 26.6118 3.40919 23.4276 5.69037C20.8253 7.55474 18.5354 9.82037 16.6434 12.4027L16.4788 12.6273C12.1786 18.4965 10.0074 25.6562 10.3235 32.9252L10.5819 38.8678C10.7789 43.3988 11.8238 47.8527 13.6624 51.9987L17.5404 60.7432L23.156 70.6685L28.9124 79.303C29.146 79.6535 28.9254 80.1269 28.5068 80.1735C28.3434 80.1916 28.1802 80.1373 28.0603 80.0249L26.6201 78.6747C26.3145 78.3882 26.0473 78.0632 25.8253 77.708L21.5889 70.9297L14.1449 61.3962L10.4767 56.3804C8.66335 53.901 7.17229 51.2013 6.03928 48.3461L4.46695 44.3839C2.34058 39.0254 1.72904 33.1853 2.69926 27.5026L2.74214 27.2514C3.54179 22.5677 5.42968 18.1371 8.25391 14.3161C11.2628 10.2453 15.2419 6.9915 19.8291 4.8508L21.7892 3.93607C24.9476 2.46214 28.302 1.45108 31.7488 0.934053L36.9993 0.146484Z" fill="url(#paint2_linear_457_72)"/>
<path d="M36.9993 0.146484L40.0086 7.31169C41.6465 11.2113 42.5897 15.3672 42.7958 19.5917L43.8947 31.6343C44.0095 33.9883 43.8788 46.5071 43.5359 48.8389L40.1336 71.9745L39.4806 78.6349V79.2077C39.4806 79.9225 40.0181 80.523 40.7285 80.6019C41.3748 80.6737 41.9858 80.2919 42.2045 79.6795L42.4843 78.8961L44.0583 73.9116C44.5755 72.274 45.2083 70.6752 45.9519 69.1272L51.2343 58.1313L54.4704 50.5083C56.2159 46.3968 57.187 41.9984 57.335 37.5342L57.5088 32.2907C57.7588 24.7503 55.4645 17.345 50.9951 11.2667L49.753 9.57741C46.5493 5.22036 42.1037 1.93306 36.9993 0.146484L39.9801 0.858319C43.7899 1.76813 47.3868 3.40919 50.5709 5.69037C53.1733 7.55474 55.4632 9.82037 57.3552 12.4027L57.5197 12.6273C61.8199 18.4965 63.9911 25.6562 63.675 32.9252L63.4167 38.8678C63.2197 43.3988 62.1748 47.8527 60.3361 51.9987L56.4581 60.7432L50.8425 70.6685L45.0861 79.303C44.8525 79.6535 45.0731 80.1269 45.4917 80.1735C45.6551 80.1916 45.8183 80.1373 45.9382 80.0249L47.3784 78.6747C47.684 78.3882 47.9512 78.0632 48.1732 77.708L52.4096 70.9297L59.8536 61.3962L63.5219 56.3804C65.3352 53.901 66.8262 51.2013 67.9592 48.3461L69.5316 44.3839C71.658 39.0254 72.2695 33.1853 71.2993 27.5026L71.2564 27.2514C70.4567 22.5677 68.5688 18.1371 65.7446 14.3161C62.7357 10.2453 58.7567 6.9915 54.1695 4.8508L52.2093 3.93607C49.0509 2.46214 45.6966 1.45108 42.2497 0.934053L36.9993 0.146484Z" fill="url(#paint3_linear_457_72)"/>
<path d="M36.9993 0.146484L33.9899 7.31169C32.3521 11.2113 31.4088 15.3672 31.2027 19.5917L30.0197 31.6343C29.9049 33.9883 30.1197 46.5071 30.4627 48.8389L33.8649 71.9745L34.5179 78.6349V79.2077C34.5179 79.9225 33.9805 80.523 33.27 80.6019C32.6237 80.6737 32.0127 80.2919 31.794 79.6795L31.5142 78.8961L29.9402 73.9116C29.423 72.274 28.7903 70.6752 28.0466 69.1272L22.7643 58.1313L19.5281 50.5083C17.7827 46.3968 16.8115 41.9984 16.6635 37.5342L16.4897 32.2907C16.2398 24.7503 18.5341 17.345 23.0034 11.2667L24.2455 9.57741C27.4493 5.22036 31.8948 1.93306 36.9993 0.146484ZM36.9993 0.146484L34.0185 0.858319C30.2086 1.76813 26.6118 3.40919 23.4276 5.69037C20.8253 7.55474 18.5354 9.82037 16.6434 12.4027L16.4788 12.6273C12.1786 18.4965 10.0074 25.6562 10.3235 32.9252L10.5819 38.8678C10.7789 43.3988 11.8238 47.8527 13.6624 51.9987L17.5404 60.7432L23.156 70.6685L28.9124 79.3031C29.146 79.6535 28.9254 80.1269 28.5068 80.1735C28.3434 80.1916 28.1802 80.1373 28.0603 80.0249L26.6201 78.6747C26.3145 78.3882 26.0473 78.0632 25.8253 77.708L21.5889 70.9297L14.1449 61.3962L10.4767 56.3804C8.66335 53.901 7.17229 51.2013 6.03928 48.3461L4.46695 44.3839C2.34058 39.0254 1.72904 33.1853 2.69926 27.5026L2.74214 27.2514C3.54179 22.5677 5.42968 18.1371 8.25391 14.3161C11.2628 10.2453 15.2419 6.9915 19.8291 4.8508L21.7892 3.93607C24.9476 2.46214 28.302 1.45108 31.7488 0.934053L36.9993 0.146484ZM36.9993 0.146484L40.0086 7.31169C41.6465 11.2113 42.5897 15.3672 42.7958 19.5917L43.8947 31.6343C44.0095 33.9883 43.8788 46.5071 43.5359 48.8389L40.1336 71.9745L39.4806 78.6349V79.2077C39.4806 79.9225 40.0181 80.523 40.7285 80.6019C41.3748 80.6737 41.9858 80.2919 42.2045 79.6795L42.4843 78.8961L44.0583 73.9116C44.5755 72.274 45.2083 70.6752 45.9519 69.1272L51.2343 58.1313L54.4704 50.5083C56.2159 46.3968 57.187 41.9984 57.335 37.5342L57.5088 32.2907C57.7588 24.7503 55.4645 17.345 50.9951 11.2667L49.753 9.57741C46.5493 5.22036 42.1037 1.93306 36.9993 0.146484ZM36.9993 0.146484L39.9801 0.858319C43.7899 1.76813 47.3868 3.40919 50.5709 5.69037C53.1733 7.55474 55.4632 9.82037 57.3552 12.4027L57.5197 12.6273C61.8199 18.4965 63.9911 25.6562 63.675 32.9252L63.4167 38.8678C63.2197 43.3988 62.1748 47.8527 60.3361 51.9987L56.4581 60.7432L50.8425 70.6685L45.0861 79.3031C44.8525 79.6535 45.0731 80.1269 45.4917 80.1735C45.6551 80.1916 45.8183 80.1373 45.9382 80.0249L47.3784 78.6747C47.684 78.3882 47.9512 78.0632 48.1732 77.708L52.4096 70.9297L59.8536 61.3962L63.5219 56.3804C65.3352 53.901 66.8262 51.2013 67.9592 48.3461L69.5316 44.3839C71.6579 39.0254 72.2695 33.1853 71.2993 27.5026L71.2564 27.2514C70.4567 22.5677 68.5688 18.1371 65.7446 14.3161C62.7357 10.2453 58.7567 6.9915 54.1695 4.8508L52.2093 3.93607C49.0509 2.46214 45.6966 1.45108 42.2497 0.934053L36.9993 0.146484Z" stroke="white" stroke-width="0.0969799"/>
<defs>
<linearGradient id="paint0_linear_457_72" x1="36.9429" y1="105.189" x2="36.9429" y2="115.084" gradientUnits="userSpaceOnUse">
<stop stop-color="#CEBFA9"/>
<stop offset="1" stop-color="#7A684C"/>
</linearGradient>
<linearGradient id="paint1_linear_457_72" x1="38.273" y1="83.9218" x2="38.273" y2="-5.87252" gradientUnits="userSpaceOnUse">
<stop stop-color="#FFEE57"/>
<stop offset="0.463542" stop-color="#F3FFA9"/>
</linearGradient>
<linearGradient id="paint2_linear_457_72" x1="36.9993" y1="0.146484" x2="36.9993" y2="80.6106" gradientUnits="userSpaceOnUse">
<stop stop-color="#777777"/>
<stop offset="1" stop-color="#2F2F2F"/>
</linearGradient>
<linearGradient id="paint3_linear_457_72" x1="36.9993" y1="0.146484" x2="36.9993" y2="80.6106" gradientUnits="userSpaceOnUse">
<stop stop-color="#777777"/>
<stop offset="1" stop-color="#2F2F2F"/>
</linearGradient>
</defs>
</svg>
