<svg width="54" height="89" viewBox="0 0 54 89" fill="none" xmlns="http://www.w3.org/2000/svg">
<path d="M17.497 86.9789L17.2294 86.6363C17.1637 86.5522 17.1751 86.4315 17.2554 86.3612C17.3328 86.2935 17.4487 86.2951 17.5242 86.3648L17.9972 86.8013C18.0442 86.8448 18.0684 86.9076 18.0626 86.9715C18.0499 87.1109 17.9049 87.1974 17.7761 87.1423L17.6253 87.0776C17.5749 87.056 17.5308 87.0221 17.497 86.9789Z" fill="#8F7C7D" stroke="#6C645E" stroke-width="0.0348918" stroke-linejoin="round"/>
<path d="M18.5264 78.8453V78.8398C18.5264 78.772 18.5754 78.7141 18.6424 78.7029L19.2591 78.6001L18.9872 78.8448C18.9366 78.8904 18.8757 78.9228 18.8097 78.9393L18.6863 78.9701C18.6511 78.9789 18.6138 78.9725 18.5837 78.9524C18.5479 78.9285 18.5264 78.8883 18.5264 78.8453Z" fill="#645250"/>
<path d="M20.1663 77.5023V77.6544C20.1663 77.6684 20.1674 77.6824 20.1695 77.6963L20.1707 77.7045C20.1898 77.8284 20.2683 77.9352 20.3809 77.9903L21.0211 78.3559C21.0752 78.3824 21.0777 78.2775 21.1047 78.2237C21.1273 78.1784 21.1161 78.1235 21.0774 78.0908L20.9165 77.9546L20.3769 77.415C20.3537 77.3919 20.3224 77.3789 20.2896 77.3789C20.2215 77.3789 20.1663 77.4341 20.1663 77.5023Z" fill="#645250"/>
<path d="M18.5264 78.8453V78.8398C18.5264 78.772 18.5754 78.7141 18.6424 78.7029L19.2591 78.6001L18.9872 78.8448C18.9366 78.8904 18.8757 78.9228 18.8097 78.9393L18.6863 78.9701C18.6511 78.9789 18.6138 78.9725 18.5837 78.9524C18.5479 78.9285 18.5264 78.8883 18.5264 78.8453Z" stroke="#6C645E" stroke-width="0.0348918" stroke-linejoin="round"/>
<path d="M20.1663 77.5023V77.6544C20.1663 77.6684 20.1674 77.6824 20.1695 77.6963L20.1707 77.7045C20.1898 77.8284 20.2683 77.9352 20.3809 77.9903L21.0211 78.3559C21.0752 78.3824 21.0777 78.2775 21.1047 78.2237C21.1273 78.1784 21.1161 78.1235 21.0774 78.0908L20.9165 77.9546L20.3769 77.415C20.3537 77.3919 20.3224 77.3789 20.2896 77.3789C20.2215 77.3789 20.1663 77.4341 20.1663 77.5023Z" stroke="#6C645E" stroke-width="0.0348918" stroke-linejoin="round"/>
<path d="M17.4258 85.4734L17.8096 85.7874L18.2457 85.8398L18.2981 85.6479L17.6002 85.3164L17.4258 85.4734Z" fill="#645250" stroke="#6C645E" stroke-width="0.0348918" stroke-linejoin="round"/>
<path d="M17.6709 85.8741V84.7227L18.3164 84.8448L18.0373 85.4903L18.0198 85.909L17.6709 85.8741Z" fill="#EDCEC1" stroke="black" stroke-width="0.0484609" stroke-linejoin="bevel"/>
<path d="M17.4268 85.4922L17.6742 85.6721C17.7645 85.7378 17.8654 85.7874 17.9725 85.8189C18.0618 85.8452 18.1545 85.8586 18.2476 85.8586H18.4038L18.1072 86.3819L18.177 87.01L17.6524 86.7264C17.5787 86.6866 17.5348 86.6075 17.5401 86.5239C17.5454 86.4378 17.4988 86.3569 17.4217 86.3183L17.3245 86.2697C17.3149 86.2649 17.3132 86.2521 17.3211 86.2449L17.4966 86.0853L17.4684 85.9583C17.4407 85.834 17.4268 85.7071 17.4268 85.5798V85.4922Z" fill="#A29B99"/>
<path d="M18.1072 86.3819L18.4038 85.8586H18.2476C18.1545 85.8586 18.0618 85.8452 17.9725 85.8189V85.8189C17.8654 85.7874 17.7645 85.7378 17.6742 85.6721L17.4268 85.4922V85.5798C17.4268 85.7071 17.4407 85.834 17.4684 85.9583L17.4966 86.0853M18.1072 86.3819L18.0849 86.3757C17.8919 86.3221 17.7095 86.2356 17.5458 86.1201L17.4966 86.0853M18.1072 86.3819L18.177 87.01L17.6524 86.7264C17.5787 86.6866 17.5348 86.6075 17.5401 86.5239V86.5239C17.5454 86.4378 17.4988 86.3569 17.4217 86.3183L17.3245 86.2697C17.3149 86.2649 17.3132 86.2521 17.3211 86.2449L17.4966 86.0853" stroke="#6C645E" stroke-width="0.0348918" stroke-linejoin="round"/>
<path d="M18.4385 86.5035L18.0547 86.1895H18.3687L18.6478 86.329L18.8746 86.5907L18.4385 86.5035Z" fill="#645250" stroke="#6C645E" stroke-width="0.0348918" stroke-linejoin="round"/>
<path d="M17.8271 87.2903V87.2352C17.8271 87.1911 17.8479 87.1497 17.8831 87.1232C17.9327 87.0861 18.0008 87.0859 18.0506 87.1229L19.1519 87.9415C19.2122 87.9862 19.2291 88.0691 19.1913 88.1339C19.1583 88.1905 19.0919 88.2185 19.0283 88.2026L18.955 88.1843C18.9359 88.1795 18.9174 88.1725 18.9 88.1633L18.719 88.0685C18.6132 88.0131 18.5134 87.947 18.4211 87.8712L18.0714 87.5839L17.942 87.5008C17.8704 87.4547 17.8271 87.3754 17.8271 87.2903Z" fill="#8F7C7D" stroke="#6C645E" stroke-width="0.0348918" stroke-linejoin="round"/>
<path d="M19.8563 77.95L20.1081 76.3293C20.1108 76.312 20.1279 76.3009 20.1447 76.3055L20.1568 76.3088C20.2544 76.3354 20.3567 76.3398 20.4562 76.3217C20.4754 76.3182 20.4919 76.3356 20.4875 76.3546L20.1008 77.9977C20.0876 78.054 20.0373 78.0938 19.9795 78.0938C19.903 78.0938 19.8446 78.0255 19.8563 77.95Z" fill="#EDCEC1" stroke="#6C645E" stroke-width="0.0174459" stroke-linejoin="round"/>
<path d="M18.7871 85.7533L19.2407 84.8461L18.6301 84.6367L18.3684 85.2473L18.2986 85.5439L18.1416 86.3988L18.6126 86.5732L18.7871 85.7533Z" fill="#EDCEC1" stroke="black" stroke-width="0.0484609" stroke-linejoin="bevel"/>
<path d="M20.1676 78.2849L20.418 76.678C20.4257 76.6292 20.4801 76.6035 20.5226 76.6287L20.6236 76.6886C20.6344 76.6949 20.6467 76.6983 20.6592 76.6983H20.7889C20.8189 76.6983 20.8417 76.7253 20.8367 76.7549L20.5673 78.3498C20.5423 78.4974 20.3713 78.5679 20.2496 78.4806C20.1876 78.4361 20.1559 78.3604 20.1676 78.2849Z" fill="#EDCEC1" stroke="#6C645E" stroke-width="0.0174459" stroke-linejoin="round"/>
<path d="M19.625 77.0537L19.7297 76.4375H19.8344H20.0437V76.7219L20.3403 76.9609L20.2879 77.2749L20.2182 77.6587L19.625 77.0537Z" fill="#D0C5BE"/>
<path d="M20.2879 77.2749L20.2182 77.6587L19.625 77.0537L19.7297 76.4375H19.8344M20.2879 77.2749L19.9216 76.8404L19.8344 76.4375M20.2879 77.2749L20.3403 76.9609L20.0437 76.7219V76.4375H19.8344" stroke="black" stroke-width="0.0348918" stroke-linejoin="bevel"/>
<path d="M18.5783 76.5238L19.2412 76.8553L19.3982 77.8322L19.1016 78.7045L18.4089 78.775C18.1868 78.7976 17.9716 78.8649 17.7763 78.973C17.4378 79.1602 17.0443 79.2228 16.6644 79.1497L16.3452 79.0884L17.043 78.8092C16.8023 78.7061 16.5403 78.6622 16.2791 78.6813L15.9614 78.7045L16.5894 78.1637L16.2929 78.1114L15.8916 78.2335L16.1882 77.7974L16.5894 77.6578L16.2405 77.5357L15.8916 77.2391L16.1636 77.2051C16.4455 77.1699 16.7192 77.087 16.9732 76.96C16.8923 76.96 16.8118 76.9476 16.7346 76.9233L16.2405 76.768L16.7007 76.5332C16.9605 76.4007 17.2467 76.3283 17.5383 76.3214C17.7304 76.3168 17.9222 76.3407 18.1073 76.3924L18.5783 76.5238Z" fill="url(#paint0_linear_457_32)"/>
<path d="M17.2524 76.8902L16.9732 76.96M16.9732 76.96V76.96C16.8923 76.96 16.8118 76.9476 16.7346 76.9233L16.2405 76.768L16.7007 76.5332C16.9605 76.4007 17.2467 76.3283 17.5383 76.3214V76.3214C17.7304 76.3168 17.9222 76.3407 18.1073 76.3924L18.5783 76.5238L19.2412 76.8553L19.3982 77.8322L19.1016 78.7045L18.4089 78.775C18.1868 78.7976 17.9716 78.8649 17.7763 78.973V78.973C17.4378 79.1602 17.0443 79.2228 16.6644 79.1497L16.3452 79.0884L17.043 78.8092M16.9732 76.96V76.96C16.7192 77.087 16.4455 77.1699 16.1636 77.2051L15.8916 77.2391L16.2405 77.5357L16.5894 77.6578L16.1882 77.7974L15.8916 78.2335L16.2929 78.1114L16.5894 78.1637M16.5894 78.1637L16.7179 78.1894C16.9798 78.2418 17.2479 78.2566 17.5141 78.2335V78.2335M16.5894 78.1637L15.9614 78.7045L16.2791 78.6813C16.5403 78.6622 16.8023 78.7061 17.043 78.8092V78.8092M17.043 78.8092L17.4268 78.7569" stroke="#342F29" stroke-width="0.0348918" stroke-linejoin="bevel"/>
<path d="M19.0489 78.1992H19.3804L19.2757 78.583H19.0838L18.9616 78.5132L18.9268 78.3213L19.0489 78.1992Z" fill="#EDCEC1" stroke="#342F29" stroke-width="0.0174459" stroke-linejoin="bevel"/>
<path d="M18.9276 77.065L18.9974 76.873L19.3288 76.9254L19.8173 76.9428L20.0267 77.1522L20.1662 77.2917L20.3058 77.9372L19.8173 78.2687L19.3812 78.1989L18.8403 77.85V77.6756L18.6484 77.536L18.9276 77.065Z" fill="#EDCEC1"/>
<path d="M20.0267 77.1522L19.8173 76.9428L19.3288 76.9254L18.9974 76.873L18.9276 77.065L18.6484 77.536L18.8403 77.6756V77.85L19.3812 78.1989L19.8173 78.2687L20.3058 77.9372L20.1662 77.2917L20.0267 77.1522ZM20.0267 77.1522L19.8522 77.536L19.8697 77.5185L20.0267 77.1522Z" stroke="#342F29" stroke-width="0.0174459" stroke-linejoin="bevel"/>
<path d="M19.2245 77.0996C19.2385 77.0996 19.3117 77.1578 19.3466 77.1868L18.9803 77.5183L18.8232 77.5881" stroke="#342F29" stroke-width="0.0697836" stroke-linejoin="round"/>
<path d="M19.3079 77.481L19.3238 77.4953C19.3695 77.5365 19.4399 77.5328 19.4811 77.4871C19.5223 77.4414 19.5186 77.3709 19.4729 77.3298L19.4569 77.3154C19.4112 77.2742 19.3408 77.2779 19.2996 77.3237C19.2584 77.3694 19.2621 77.4398 19.3079 77.481Z" fill="#6A4D46"/>
<path d="M18.8961 76.3959L18.8043 76.5156C18.6529 76.713 18.6771 76.9932 18.86 77.1618L18.9927 77.0485C18.8599 76.8055 18.9966 76.503 19.2667 76.4422L19.4655 76.3975C19.5559 76.3771 19.64 76.335 19.7105 76.2748L19.7404 76.2492C19.8499 76.1557 19.9292 76.0319 19.9684 75.8935L19.994 75.8032L19.6037 76.1026C19.5153 76.1703 19.4066 76.2061 19.2953 76.2039C19.1393 76.2008 18.9911 76.272 18.8961 76.3959Z" fill="url(#paint1_linear_457_32)" stroke="#342F29" stroke-width="0.0174459" stroke-linejoin="bevel"/>
<path d="M18.2831 76.7842L18.3145 76.9317C18.3663 77.175 18.5951 77.3387 18.8421 77.309V77.1346C18.5711 77.0778 18.4299 76.7773 18.559 76.5324L18.6541 76.3523C18.6973 76.2703 18.7199 76.1789 18.7199 76.0862V76.0469C18.7199 75.903 18.6773 75.7622 18.5975 75.6425L18.5455 75.5645L18.5196 76.0557C18.5138 76.1668 18.4703 76.2727 18.3963 76.3559C18.2927 76.4726 18.2506 76.6315 18.2831 76.7842Z" fill="url(#paint2_linear_457_32)" stroke="#342F29" stroke-width="0.0174459" stroke-linejoin="bevel"/>
<path d="M17.6711 82.9264L18.4561 81.8448L19.0667 81.0772L19.1889 80.5712L19.0667 80.4666L19.2761 80.2747L19.3808 79.9606L19.2412 79.1058H18.5783V79.0186L18.8748 78.9837L19.5552 77.9195L19.7471 78.2509L20.0088 77.6752L20.0612 77.4135L20.2007 77.3438L20.2356 77.7276L20.5322 77.9718L21.073 78.3556L20.8637 78.6821L20.9858 78.7743L20.6508 79.1232C20.6676 79.1372 20.7764 79.5477 20.8288 79.7513L20.8637 80.6934C20.8462 80.7748 20.8113 80.9411 20.8113 80.9551V81.5482L20.759 82.2112L20.5322 82.9962L20.2356 84.4268L20.1833 85.3863L19.7297 84.8804L19.1889 85.4212L18.8574 84.6536L17.9851 85.1421L17.7757 84.8455L17.2873 85.1072V84.3745L16.9209 84.4268L17.6711 82.9264Z" fill="#D0C5BE"/>
<path d="M19.2412 79.1058L19.3808 79.9606L19.2761 80.2747L19.0667 80.4666L19.1889 80.5712L19.0667 81.0772L18.4561 81.8448L17.6711 82.9264L16.9209 84.4268L17.2873 84.3745V85.1072L17.7757 84.8455L17.9851 85.1421L18.8574 84.6536L19.1889 85.4212L19.7297 84.8804L20.1833 85.3863L20.2356 84.4268L20.5322 82.9962L20.759 82.2112L20.8113 81.5482C20.8113 81.3563 20.8113 80.969 20.8113 80.9551C20.8113 80.9411 20.8462 80.7748 20.8637 80.6934L20.8288 79.7513C20.7764 79.5477 20.6676 79.1372 20.6508 79.1232M19.2412 79.1058L19.311 78.9488M19.2412 79.1058H18.5783V79.0186L18.8748 78.9837L19.5552 77.9195L19.7471 78.2509M19.7471 78.2509L19.468 78.7045L19.4506 79.0534M19.7471 78.2509L20.0088 77.6752M20.0088 77.6752C20.0379 77.8148 20.0995 78.0974 20.1135 78.1114C20.1257 78.1235 20.5629 78.4547 20.8637 78.6821M20.0088 77.6752L20.0612 77.4135L20.2007 77.3438L20.2356 77.7276L20.5322 77.9718L21.073 78.3556L20.8637 78.6821M20.1484 79.9257L20.5671 79.2105L20.6508 79.1232M20.6508 79.1232L20.9858 78.7743C20.9492 78.7467 20.9079 78.7155 20.8637 78.6821" stroke="black" stroke-width="0.0348918" stroke-linejoin="bevel"/>
<path d="M20.6232 80.9674L20.8464 80.8848L20.8115 81.2511L20.8464 81.5303L20.2881 81.5652L19.2588 81.4954V81.1813V80.9371L19.4152 80.9892C19.6231 81.0585 19.8422 81.088 20.061 81.0762L20.1114 81.0735C20.2864 81.064 20.4589 81.0283 20.6232 80.9674Z" fill="#9A908B"/>
<path d="M20.8115 81.2511L20.8464 81.5303L20.2881 81.5652L19.2588 81.4954V81.1813M20.8115 81.2511L20.3967 81.314C20.2896 81.3302 20.1813 81.3364 20.0731 81.3325L19.9598 81.3285C19.8186 81.3235 19.6786 81.3013 19.5428 81.2625L19.2588 81.1813M20.8115 81.2511L20.8464 80.8848L20.6232 80.9674C20.4589 81.0283 20.2864 81.064 20.1114 81.0735L20.061 81.0762C19.8422 81.088 19.6231 81.0585 19.4152 80.9892L19.2588 80.9371V81.1813" stroke="#6C645E" stroke-width="0.0348918" stroke-linejoin="round"/>
<path d="M19.678 81.4084V81.8024C19.678 81.9396 19.6167 82.0696 19.511 82.1569C19.3689 82.2743 19.1705 82.2955 19.0068 82.2109L18.9883 82.2013C18.8532 82.1314 18.7642 81.9962 18.7533 81.8445L18.6267 81.8174C18.5524 81.8015 18.4893 81.7526 18.4553 81.6846C18.4335 81.641 18.4249 81.5919 18.4306 81.5435L18.4374 81.486C18.4499 81.3797 18.5004 81.2815 18.5796 81.2095L18.6835 81.115C18.7827 81.0248 18.9177 80.9851 19.0499 81.0071H19.1372L19.0865 80.8855C19.0644 80.8324 19.0765 80.7712 19.1171 80.7305C19.1604 80.6873 19.2264 80.6766 19.281 80.704L19.3265 80.7267C19.3731 80.75 19.4095 80.7896 19.4289 80.8379L19.4686 80.9373H19.6431C19.6453 80.9373 19.6479 80.9379 19.6508 80.939C19.7687 80.9833 19.7734 81.1504 19.7303 81.2688L19.678 81.4084Z" fill="#C6BAB7"/>
<path d="M19.678 81.4084V81.8024C19.678 81.9396 19.6167 82.0696 19.511 82.1569V82.1569C19.3689 82.2743 19.1705 82.2955 19.0068 82.2109L18.9883 82.2013C18.8532 82.1314 18.7642 81.9962 18.7533 81.8445V81.8445M19.678 81.4084L19.5964 81.3792C19.4893 81.341 19.392 81.2794 19.3116 81.199V81.199M19.678 81.4084L19.7303 81.2688V81.2688C19.7734 81.1504 19.7687 80.9833 19.6508 80.939C19.6479 80.9379 19.6453 80.9373 19.6431 80.9373C19.6227 80.9373 19.5394 80.9373 19.4686 80.9373M19.1372 81.199L18.909 81.4271C18.7991 81.5371 18.7423 81.6894 18.7533 81.8445V81.8445M19.1372 81.199H19.3116M19.1372 81.199L19.0499 81.0071M19.3116 81.199L19.3768 81.0035C19.39 80.964 19.427 80.9373 19.4686 80.9373V80.9373M19.3116 81.199L19.1372 81.0071M18.7533 81.8445L18.6267 81.8174C18.5524 81.8015 18.4893 81.7526 18.4553 81.6846V81.6846C18.4335 81.641 18.4249 81.5919 18.4306 81.5435L18.4374 81.486C18.4499 81.3797 18.5004 81.2815 18.5796 81.2095L18.6835 81.115C18.7827 81.0248 18.9177 80.9851 19.0499 81.0071V81.0071M19.0499 81.0071H19.1372M19.4686 80.9373L19.4289 80.8379C19.4095 80.7896 19.3731 80.75 19.3265 80.7267L19.281 80.704C19.2264 80.6766 19.1604 80.6873 19.1171 80.7305V80.7305C19.0765 80.7712 19.0644 80.8324 19.0865 80.8855L19.1372 81.0071" stroke="black" stroke-width="0.0348918" stroke-linejoin="round"/>
<path d="M18.0551 86.7826V86.1895L18.1074 86.2475C18.1768 86.3246 18.2582 86.3898 18.3486 86.4407C18.443 86.4938 18.5458 86.5304 18.6526 86.549L18.8925 86.5907C18.8468 86.7165 18.769 86.8281 18.6669 86.9145L18.596 86.9745C18.6072 87.1097 18.666 87.2365 18.762 87.3324L18.9378 87.5082C18.9541 87.5246 18.9716 87.5398 18.9901 87.5536L19.2521 87.7501C19.3233 87.8035 19.3377 87.9045 19.2843 87.9757C19.2474 88.025 19.1857 88.0489 19.1253 88.0374L19.0243 88.0181C18.9198 87.9982 18.8317 87.9286 18.788 87.8317L18.784 87.8227C18.7326 87.7084 18.6231 87.631 18.4982 87.6206L18.4833 87.6194C18.3578 87.6089 18.2462 87.5353 18.1871 87.4241L17.9854 87.0443L18.0551 86.7826Z" fill="#A29B99"/>
<path d="M18.0551 86.7826V86.1895L18.1074 86.2475C18.1768 86.3246 18.2582 86.3898 18.3486 86.4407V86.4407C18.443 86.4938 18.5458 86.5304 18.6526 86.549L18.8925 86.5907V86.5907C18.8468 86.7165 18.769 86.8281 18.6669 86.9145L18.596 86.9745M18.0551 86.7826L18.1649 86.8338C18.2659 86.881 18.3713 86.9184 18.4795 86.9454L18.596 86.9745M18.0551 86.7826L17.9854 87.0443L18.1871 87.4241C18.2462 87.5353 18.3578 87.6089 18.4833 87.6194L18.4982 87.6206C18.6231 87.631 18.7326 87.7084 18.784 87.8227L18.788 87.8317C18.8317 87.9286 18.9198 87.9982 19.0243 88.0181L19.1253 88.0374C19.1857 88.0489 19.2474 88.025 19.2843 87.9757V87.9757C19.3377 87.9045 19.3233 87.8035 19.2521 87.7501L18.9901 87.5536C18.9716 87.5398 18.9541 87.5246 18.9378 87.5082L18.762 87.3324C18.666 87.2365 18.6072 87.1097 18.596 86.9745V86.9745" stroke="#6C645E" stroke-width="0.0348918" stroke-linejoin="round"/>
<path d="M20.1161 76.2923L20.1466 75.9111C20.1477 75.8964 20.1641 75.8882 20.1766 75.8961L20.1973 75.6784C20.1991 75.6594 20.2213 75.6498 20.2364 75.6616C20.2422 75.5653 20.2573 75.3762 20.2713 75.3902C20.2772 75.3961 20.298 75.4127 20.3236 75.4326L20.3411 74.8145L20.6551 75.0238L20.533 75.5395L20.5155 75.7722C20.5252 75.7732 20.5324 75.7818 20.5316 75.7915L20.5155 76.0008L20.5017 76.3048C20.4998 76.347 20.4611 76.3779 20.4195 76.3703L20.1365 76.3188C20.1239 76.3165 20.115 76.3051 20.1161 76.2923Z" fill="#C2BEC1"/>
<path d="M20.5155 76.0008V76.0008C20.4016 76.0008 20.29 75.9683 20.1939 75.9071L20.1766 75.8961M20.5155 76.0008L20.5017 76.3048C20.4998 76.347 20.4611 76.3779 20.4195 76.3703L20.1365 76.3188C20.1239 76.3165 20.115 76.3051 20.1161 76.2923L20.1466 75.9111C20.1477 75.8964 20.1641 75.8882 20.1766 75.8961V75.8961M20.5155 76.0008L20.5316 75.7915C20.5324 75.7818 20.5252 75.7732 20.5155 75.7722V75.7722M20.1766 75.8961L20.1973 75.6784C20.1991 75.6594 20.2213 75.6498 20.2364 75.6616V75.6616M20.2364 75.6616V75.6616C20.3162 75.7236 20.4119 75.7619 20.5124 75.7719L20.5155 75.7722M20.2364 75.6616C20.2422 75.5653 20.2573 75.3762 20.2713 75.3902C20.2772 75.3961 20.298 75.4127 20.3236 75.4326M20.533 75.5395V75.5395C20.4638 75.5215 20.3987 75.4904 20.3421 75.4469C20.3358 75.442 20.3296 75.4372 20.3236 75.4326M20.533 75.5395L20.5155 75.7722M20.533 75.5395L20.6551 75.0238L20.3411 74.8145L20.3236 75.4326" stroke="#494440" stroke-width="0.0348918" stroke-linejoin="round"/>
<path d="M20.7853 74.7428L20.7063 75.0585L20.3574 74.8317L20.4447 74.6049L20.4559 74.5562C20.4817 74.4443 20.5594 74.3514 20.665 74.3061C20.7152 74.2846 20.7696 74.2748 20.8241 74.2774L21.0712 74.2891C21.0931 74.2902 21.1122 74.3046 21.1191 74.3255C21.1306 74.36 21.105 74.3956 21.0686 74.3956H20.8017C20.7876 74.3956 20.7761 74.407 20.7761 74.4211C20.7761 74.4357 20.7883 74.4473 20.8029 74.4467L21.1043 74.433C21.1359 74.4315 21.1633 74.4543 21.1678 74.4856C21.1729 74.5215 21.146 74.5539 21.1098 74.5555L20.8501 74.5668C20.8303 74.5677 20.8246 74.5943 20.8424 74.6031C20.8447 74.6043 20.8473 74.605 20.8499 74.6051L21.0968 74.6188C21.1278 74.6206 21.148 74.6522 21.1365 74.681C21.1296 74.6983 21.1129 74.7096 21.0943 74.7096H20.8278C20.8077 74.7096 20.7901 74.7233 20.7853 74.7428Z" fill="#EDCEC1" stroke="#494440" stroke-width="0.0348918" stroke-linejoin="round"/>
<path d="M20.9952 75.0573L20.9163 75.373L20.5674 75.1462L20.6546 74.9194L20.6658 74.8707C20.6917 74.7587 20.7694 74.6658 20.875 74.6206C20.9251 74.5991 20.9795 74.5892 21.034 74.5918L21.2811 74.6036C21.3031 74.6046 21.3221 74.6191 21.3291 74.6399C21.3406 74.6744 21.3149 74.71 21.2786 74.71H21.0117C20.9975 74.71 20.9861 74.7215 20.9861 74.7356C20.9861 74.7502 20.9983 74.7618 21.0128 74.7611L21.3143 74.7474C21.3458 74.746 21.3733 74.7688 21.3778 74.8C21.3829 74.8359 21.3559 74.8684 21.3197 74.87L21.0601 74.8813C21.0403 74.8821 21.0346 74.9087 21.0523 74.9176C21.0547 74.9188 21.0572 74.9194 21.0598 74.9196L21.3068 74.9333C21.3378 74.935 21.358 74.9667 21.3464 74.9955C21.3395 75.0127 21.3228 75.024 21.3043 75.024H21.0378C21.0177 75.024 21.0001 75.0377 20.9952 75.0573Z" fill="#EDCEC1" stroke="#494440" stroke-width="0.0348918" stroke-linejoin="round"/>
<path d="M20.8629 76.3502V76.6991C20.7249 76.6991 20.5873 76.669 20.4616 76.6119L20.4928 76.3158C20.4948 76.2967 20.5127 76.2835 20.5314 76.2871L20.5608 76.0908C20.5636 76.0718 20.5834 76.0605 20.6012 76.0676L20.5701 75.775C20.5682 75.7575 20.5839 75.7431 20.6012 75.7466V75.4605L20.4965 75.1813L20.4268 75.0243L20.4442 74.8848C20.4997 74.8848 20.5525 74.9085 20.5894 74.95L20.6544 75.0231C20.6646 75.0346 20.6803 75.0394 20.6952 75.0357L20.7137 75.0311C20.7311 75.0267 20.7496 75.029 20.7654 75.0375L20.8265 75.07C20.9296 75.125 20.9815 75.2437 20.9517 75.3568L20.9152 75.4954L20.8978 75.7745V76.106L20.8629 76.3502Z" fill="#C2BEC1"/>
<path d="M20.8629 76.3502V76.6991V76.6991C20.7249 76.6991 20.5873 76.669 20.4616 76.6119V76.6119L20.4928 76.3158C20.4948 76.2967 20.5127 76.2835 20.5314 76.2871V76.2871M20.8629 76.3502L20.5314 76.2871M20.8629 76.3502L20.8978 76.106M20.5314 76.2871L20.5608 76.0908C20.5636 76.0718 20.5834 76.0605 20.6012 76.0676V76.0676M20.8978 76.106L20.8902 76.1068C20.7921 76.1177 20.6928 76.1042 20.6012 76.0676V76.0676M20.8978 76.106V75.7745M20.6012 76.0676L20.5701 75.775C20.5682 75.7575 20.5839 75.7431 20.6012 75.7466V75.7466M20.8978 75.7745H20.8831C20.7885 75.7745 20.694 75.7652 20.6012 75.7466V75.7466M20.8978 75.7745L20.9152 75.4954M20.6012 75.7466V75.4605M20.6012 75.4605L20.9152 75.4954M20.6012 75.4605L20.4965 75.1813L20.4268 75.0243L20.4442 74.8848V74.8848C20.4997 74.8848 20.5525 74.9085 20.5894 74.95L20.6544 75.0231C20.6646 75.0346 20.6803 75.0394 20.6952 75.0357L20.7137 75.0311C20.7311 75.0267 20.7496 75.029 20.7654 75.0375L20.8265 75.07C20.9296 75.125 20.9815 75.2437 20.9517 75.3568L20.9152 75.4954" stroke="#494440" stroke-width="0.0348918" stroke-linejoin="round"/>
<path d="M21.3384 75.646H21.2644C21.0601 75.646 20.8945 75.4804 20.8945 75.2761C20.8945 75.0718 21.0601 74.9062 21.2644 74.9062H26.9601H32.6559C32.8601 74.9062 33.0257 75.0718 33.0257 75.2761C33.0257 75.4804 32.8601 75.646 32.6559 75.646H32.5819C32.3368 75.646 32.1381 75.8447 32.1381 76.0898V79.5636C32.1381 80.0002 32.0136 80.4278 31.7791 80.7962C31.3577 81.4585 30.6271 81.8595 29.8422 81.8595H24.0781C23.2931 81.8595 22.5626 81.4585 22.1411 80.7962C21.9067 80.4278 21.7822 80.0002 21.7822 79.5636V76.0898C21.7822 75.8447 21.5835 75.646 21.3384 75.646Z" fill="url(#paint3_linear_457_32)" stroke="black" stroke-width="0.118182"/>
<path d="M31.0773 59.3223L31.9636 74.745L30.3682 59.3223" stroke="#494440" stroke-width="0.118182" stroke-linejoin="round"/>
<path d="M22.8044 59.3223C22.9935 59.3695 22.1543 74.6859 22.1543 74.6859L23.5134 59.3223" stroke="#494440" stroke-width="0.118182" stroke-linejoin="round"/>
<path d="M18.0065 53.6762L18.9165 55.2939C19.9139 57.0672 22.8045 59.4409 22.8045 59.4409H31.1364C31.1364 59.4409 34.0861 57.0672 35.0835 55.2939L35.9935 53.6762L39.9396 48.4453L46.3047 41.1999C47.8055 39.4916 49.071 37.5901 50.0675 35.5461L50.5783 34.4982C51.6169 32.3677 52.3284 30.0929 52.6888 27.7503L52.7616 27.277C53.0828 25.189 53.0794 23.0639 52.7515 20.9769C52.4106 18.8079 51.7235 16.7077 50.7165 14.7566L49.9122 13.1981C48.5423 10.544 46.602 8.22594 44.2305 6.41024C42.7234 5.25636 41.0614 4.32021 39.2935 3.62931L37.4874 2.92344C35.1582 2.01318 32.7077 1.45061 30.2147 1.25379L29.0063 1.15839C27.6708 1.05296 26.3292 1.05296 24.9937 1.15839L23.7853 1.25379C21.2923 1.45061 18.8418 2.01318 16.5126 2.92344L14.7065 3.62931C12.9386 4.32021 11.2766 5.25636 9.76952 6.41024C7.39799 8.22594 5.4577 10.544 4.08783 13.1981L3.28347 14.7566C2.27645 16.7077 1.58939 18.8079 1.24854 20.9769C0.920589 23.0639 0.917168 25.189 1.2384 27.277L1.31123 27.7503C1.67162 30.0929 2.3831 32.3677 3.42169 34.4982L3.93254 35.5461C4.929 37.5901 6.19447 39.4916 7.69528 41.1999L14.0604 48.4453L18.0065 53.6762Z" fill="url(#paint4_linear_457_32)" stroke="black" stroke-width="0.254918"/>
<path d="M26.9997 1.0918L24.885 6.12681C23.7341 8.86705 23.0713 11.7874 22.9265 14.756L22.0952 23.2183C22.0145 24.8726 22.1655 33.6695 22.4065 35.3081L24.7973 51.5655L25.2561 56.2458V56.6483C25.2561 57.1506 24.8784 57.5726 24.3792 57.628C23.925 57.6785 23.4957 57.4102 23.342 56.9799L23.1454 56.4294L22.0393 52.9268C21.6759 51.776 21.2313 50.6525 20.7087 49.5647L16.9968 41.8379L14.7227 36.4812C13.4962 33.592 12.8138 30.5012 12.7098 27.3643L12.5876 23.6796C12.412 18.3809 14.0242 13.1773 17.1648 8.90602L18.0377 7.71893C20.2889 4.65722 23.4128 2.34723 26.9997 1.0918L24.9051 1.592C22.228 2.23133 19.7004 3.38451 17.4629 4.9875C15.6342 6.2976 14.0251 7.88966 12.6956 9.70427L12.58 9.86208C9.5582 13.9864 8.03252 19.0175 8.25461 24.1255L8.43617 28.3014C8.5746 31.4853 9.30885 34.6151 10.6009 37.5285L13.326 43.6733L17.2721 50.6478L21.3171 56.7153C21.4813 56.9616 21.3262 57.2943 21.0321 57.327C20.9172 57.3397 20.8026 57.3016 20.7183 57.2226L19.7063 56.2738C19.4915 56.0725 19.3038 55.8441 19.1478 55.5945L16.1708 50.8314L10.9399 44.1321L8.36225 40.6076C7.08802 38.8652 6.04025 36.9682 5.24408 34.9618L4.1392 32.1775C2.64499 28.4121 2.21527 24.3082 2.89704 20.315L2.92717 20.1385C3.48909 16.8473 4.81572 13.7339 6.80031 11.0488C8.91465 8.18826 11.7108 5.90181 14.9342 4.39753L16.3116 3.75475C18.531 2.71902 20.8881 2.00854 23.3102 1.64522L26.9997 1.0918Z" fill="url(#paint5_linear_457_32)"/>
<path d="M26.9997 1.0918L29.1145 6.12681C30.2654 8.86705 30.9282 11.7874 31.073 14.756L31.8452 23.2183C31.9259 24.8726 31.834 33.6695 31.593 35.3081L29.2022 51.5655L28.7434 56.2458V56.6483C28.7434 57.1506 29.1211 57.5726 29.6203 57.628C30.0745 57.6785 30.5038 57.4102 30.6575 56.9799L30.8541 56.4294L31.9602 52.9268C32.3236 51.776 32.7682 50.6525 33.2908 49.5647L37.0027 41.8379L39.2768 36.4812C40.5033 33.592 41.1857 30.5012 41.2897 27.3643L41.4119 23.6796C41.5875 18.3809 39.9753 13.1773 36.8347 8.90602L35.9618 7.71893C33.7106 4.65722 30.5867 2.34723 26.9997 1.0918L29.0944 1.592C31.7715 2.23133 34.2991 3.38451 36.5366 4.9875C38.3653 6.2976 39.9744 7.88966 41.3039 9.70427L41.4195 9.86208C44.4413 13.9864 45.967 19.0175 45.7449 24.1255L45.5633 28.3014C45.4249 31.4853 44.6906 34.6151 43.3986 37.5285L40.6735 43.6733L36.7274 50.6478L32.6824 56.7153C32.5182 56.9616 32.6733 57.2943 32.9674 57.327C33.0822 57.3397 33.1969 57.3016 33.2812 57.2226L34.2932 56.2738C34.5079 56.0725 34.6957 55.8441 34.8517 55.5945L37.8287 50.8314L43.0596 44.1321L45.6372 40.6076C46.9115 38.8652 47.9592 36.9682 48.7554 34.9618L49.8603 32.1775C51.3545 28.4121 51.7842 24.3082 51.1024 20.315L51.0723 20.1385C50.5104 16.8473 49.1838 13.7339 47.1992 11.0488C45.0848 8.18826 42.2887 5.90181 39.0653 4.39753L37.6879 3.75475C35.4685 2.71902 33.1114 2.00854 30.6893 1.64522L26.9997 1.0918Z" fill="url(#paint6_linear_457_32)"/>
<path d="M26.9997 1.0918L24.885 6.12681C23.7341 8.86705 23.0713 11.7874 22.9265 14.756L22.0952 23.2183C22.0145 24.8726 22.1655 33.6695 22.4065 35.3081L24.7973 51.5655L25.2561 56.2458V56.6483C25.2561 57.1506 24.8784 57.5726 24.3792 57.628C23.925 57.6785 23.4957 57.4102 23.342 56.9799L23.1454 56.4294L22.0393 52.9268C21.6759 51.776 21.2313 50.6525 20.7087 49.5647L16.9968 41.8379L14.7227 36.4812C13.4962 33.592 12.8138 30.5012 12.7098 27.3643L12.5876 23.6796C12.412 18.3809 14.0242 13.1773 17.1648 8.90602L18.0377 7.71893C20.2889 4.65722 23.4128 2.34723 26.9997 1.0918ZM26.9997 1.0918L24.9051 1.592C22.228 2.23133 19.7004 3.38451 17.4629 4.9875C15.6342 6.2976 14.0251 7.88966 12.6956 9.70427L12.58 9.86208C9.5582 13.9864 8.03252 19.0175 8.25461 24.1255L8.43617 28.3014C8.5746 31.4853 9.30885 34.6151 10.6009 37.5285L13.326 43.6733L17.2721 50.6478L21.3171 56.7153C21.4813 56.9616 21.3262 57.2943 21.0321 57.327C20.9172 57.3397 20.8026 57.3016 20.7183 57.2226L19.7063 56.2738C19.4915 56.0725 19.3038 55.8441 19.1478 55.5945L16.1708 50.8314L10.9399 44.1321L8.36225 40.6076C7.08802 38.8652 6.04025 36.9682 5.24408 34.9618L4.1392 32.1775C2.64499 28.4121 2.21527 24.3082 2.89704 20.315L2.92717 20.1385C3.48909 16.8473 4.81572 13.7339 6.80031 11.0488C8.91465 8.18826 11.7108 5.90181 14.9342 4.39753L16.3116 3.75475C18.531 2.71902 20.8881 2.00854 23.3102 1.64522L26.9997 1.0918ZM26.9997 1.0918L29.1144 6.12681C30.2654 8.86705 30.9282 11.7874 31.073 14.756L31.8452 23.2183C31.9259 24.8726 31.834 33.6695 31.593 35.3081L29.2022 51.5655L28.7434 56.2458V56.6483C28.7434 57.1506 29.1211 57.5726 29.6203 57.628C30.0745 57.6785 30.5038 57.4102 30.6575 56.9799L30.8541 56.4294L31.9602 52.9268C32.3236 51.776 32.7682 50.6525 33.2908 49.5647L37.0027 41.8379L39.2768 36.4812C40.5033 33.592 41.1857 30.5012 41.2897 27.3643L41.4119 23.6796C41.5875 18.3809 39.9753 13.1773 36.8347 8.90602L35.9618 7.71893C33.7106 4.65722 30.5867 2.34723 26.9997 1.0918ZM26.9997 1.0918L29.0944 1.592C31.7715 2.23133 34.2991 3.38451 36.5366 4.9875C38.3653 6.2976 39.9744 7.88966 41.3039 9.70427L41.4195 9.86208C44.4413 13.9864 45.967 19.0175 45.7449 24.1255L45.5633 28.3014C45.4249 31.4853 44.6906 34.6151 43.3986 37.5285L40.6735 43.6733L36.7274 50.6478L32.6824 56.7153C32.5182 56.9616 32.6733 57.2943 32.9674 57.327C33.0822 57.3397 33.1969 57.3016 33.2812 57.2226L34.2932 56.2738C34.5079 56.0725 34.6957 55.8441 34.8517 55.5945L37.8287 50.8314L43.0596 44.1321L45.6372 40.6076C46.9115 38.8652 47.9592 36.9682 48.7554 34.9618L49.8603 32.1775C51.3545 28.4121 51.7842 24.3082 51.1024 20.315L51.0723 20.1385C50.5104 16.8473 49.1838 13.7339 47.1992 11.0488C45.0848 8.18826 42.2887 5.90181 39.0653 4.39753L37.6879 3.75475C35.4685 2.71902 33.1114 2.00854 30.6893 1.64522L26.9997 1.0918Z" stroke="black" stroke-width="0.068148"/>
<defs>
<linearGradient id="paint0_linear_457_32" x1="16.0312" y1="77.9369" x2="19.3633" y2="77.9369" gradientUnits="userSpaceOnUse">
<stop stop-color="#5E7565"/>
<stop offset="0.296875" stop-color="#AAC8B4"/>
<stop offset="0.572917" stop-color="#AAC8B4"/>
<stop offset="0.911458" stop-color="#F5E7E2"/>
</linearGradient>
<linearGradient id="paint1_linear_457_32" x1="19.9105" y1="75.9204" x2="18.781" y2="76.9081" gradientUnits="userSpaceOnUse">
<stop stop-color="#5E7565"/>
<stop offset="0.296875" stop-color="#AAC8B4"/>
<stop offset="0.572917" stop-color="#AAC8B4"/>
<stop offset="0.911458" stop-color="#F5E7E2"/>
</linearGradient>
<linearGradient id="paint2_linear_457_32" x1="18.5804" y1="75.704" x2="18.5978" y2="77.2044" gradientUnits="userSpaceOnUse">
<stop stop-color="#5E7565"/>
<stop offset="0.296875" stop-color="#AAC8B4"/>
<stop offset="0.572917" stop-color="#AAC8B4"/>
<stop offset="0.911458" stop-color="#F5E7E2"/>
</linearGradient>
<linearGradient id="paint3_linear_457_32" x1="26.9601" y1="74.9062" x2="26.9601" y2="81.8595" gradientUnits="userSpaceOnUse">
<stop stop-color="#CEBFA9"/>
<stop offset="1" stop-color="#7A684C"/>
</linearGradient>
<linearGradient id="paint4_linear_457_32" x1="26.8247" y1="1" x2="26.8247" y2="59.1528" gradientUnits="userSpaceOnUse">
<stop stop-color="white"/>
<stop offset="1" stop-color="#A7A7A7"/>
</linearGradient>
<linearGradient id="paint5_linear_457_32" x1="26.9997" y1="1.0918" x2="26.9997" y2="57.6341" gradientUnits="userSpaceOnUse">
<stop stop-color="#85FFBD"/>
<stop offset="1" stop-color="#4AC181"/>
</linearGradient>
<linearGradient id="paint6_linear_457_32" x1="26.9997" y1="1.0918" x2="26.9997" y2="57.6341" gradientUnits="userSpaceOnUse">
<stop stop-color="#85FFBD"/>
<stop offset="1" stop-color="#4AC181"/>
</linearGradient>
</defs>
</svg>
