<svg width="1920" height="659" viewBox="0 0 1920 659" fill="none" xmlns="http://www.w3.org/2000/svg">
<path d="M1825.2 103.257L1862.08 94.0932C1862.08 62.482 1878.62 33.1763 1905.68 16.8439L1920 8.20508V653.864H-0.00012207V29.1778L7.49023 97.5887L26.4602 103.197C49.661 110.057 66.302 130.413 68.4109 154.515L69.3051 154.823C97.7555 164.622 121.839 184.14 137.321 209.942L143.778 200.679C154.124 185.833 171.076 176.985 189.171 176.985H191.212C211.877 176.985 230.597 189.177 238.953 208.077C243.637 218.673 244.663 230.526 241.87 241.769L233.923 273.754C229.754 290.537 240.705 307.332 257.744 310.286C261.647 310.962 265.645 310.853 269.505 309.966L285.212 306.355C299.655 303.035 314.62 302.673 329.206 305.291L346.049 308.314L346.417 307.702C354.553 294.141 369.208 285.844 385.022 285.844C399.993 285.844 413.984 293.285 422.353 305.698L438.928 330.286C447.414 328.001 456.369 328.141 464.779 330.689L468.39 331.784L472.143 328.594C482.588 319.715 495.942 315.001 509.647 315.355C540.566 316.153 564.912 341.994 563.868 372.907L563.266 390.707L569.46 390.043C591.008 387.735 611.759 398.91 621.69 418.171C650.625 405.726 683.906 408.885 709.984 426.55L714.569 429.656L730.284 431.228C748.033 433.003 763.041 445.132 768.499 462.114C789.078 448.817 814.479 445.287 837.904 452.468L869.368 462.114C883.298 442.849 908.215 435 930.672 442.804L963.246 454.124L971.953 448.476C998.579 431.206 1033.92 436.642 1054.13 461.115C1063.28 452.216 1078.35 454.24 1084.83 465.239L1088.58 471.602L1105.72 459.249C1129.78 441.912 1160.68 437.132 1188.85 446.39C1206.17 452.085 1221.44 462.767 1232.72 477.096L1246.88 495.071L1247.61 493.728C1261.59 468.322 1281.14 446.416 1304.8 429.656L1304.74 426.694C1303.84 381.914 1349.66 351.283 1390.69 369.235L1405.64 351.723C1420.4 334.443 1441.27 323.543 1463.88 321.304C1473.93 320.308 1484.08 321.052 1493.89 323.502L1495.08 323.801C1515.77 328.972 1534.11 340.946 1547.17 357.798L1557.97 371.732L1567.64 355.534C1584.28 327.663 1618.55 315.798 1648.86 327.416C1653.83 329.322 1659.01 330.627 1664.3 331.301L1679.81 333.282L1677.53 324.418C1676.39 320.026 1674.69 315.8 1672.47 311.847C1657.38 285.023 1668.6 251.033 1696.7 238.47L1705.78 234.411L1703.7 225.96C1694.45 188.303 1726.35 153.291 1764.7 159.009C1774.04 131.321 1796.84 110.303 1825.2 103.257Z" fill="#CFC2F4" stroke="#B7ADD6" stroke-width="8.97196"/>
</svg>
