<svg width="1920" height="557" viewBox="0 0 1920 557" fill="none" xmlns="http://www.w3.org/2000/svg">
<path d="M1852.54 3.4194L1867.11 0.130859H1920V556.259H0V43.6324H25.7054C66.7484 34.7173 96.5623 81.89 70.8965 115.136L50.9165 141.017H51.8948C72.1766 141.017 89.5082 155.63 92.9351 175.62L96.1841 172.686C104.038 165.592 109.482 156.223 111.757 145.887C120.238 107.353 167.475 92.7496 196.224 119.774L205.149 128.164L227.01 117.095C238.058 111.501 250.817 110.308 262.71 113.755C289.696 121.577 304.554 150.478 295.213 176.976L291.18 188.417C289.234 193.937 285.724 198.773 281.079 202.334L258.538 219.616V257.68L264.634 254.406C277.901 247.281 293.324 245.279 307.971 248.782L314.45 236.371C329.338 207.853 366.444 199.825 391.789 219.638C417.115 239.436 418.302 277.347 394.263 298.69L387.559 304.642V315.517H417.219C423.808 276.926 467.513 257.432 500.629 278.314L501.724 279.005C506.26 281.864 509.874 285.971 512.135 290.832L518.558 304.642H524.09C563.385 304.642 598.063 330.327 609.516 367.917L628.301 376.815C630.34 333.381 681.056 310.88 714.626 338.515L722.719 345.177C755.934 341.062 787.957 359.058 801.712 389.57L805.767 398.565L812.345 394.132C833.26 380.037 861.76 386.887 873.986 408.947C903.198 384.94 945.126 384.316 975.04 407.443L982.739 413.396C991.978 372.195 1037.73 350.915 1075.19 370.395L1087.54 376.815C1103.76 338.497 1156.83 335.314 1177.52 371.418L1183.44 381.758L1208.65 354.075L1220.9 337.128C1250.57 296.075 1315.38 315.342 1317.8 365.938C1317.83 366.484 1318.56 366.645 1318.81 366.16L1322.47 359.14C1337.46 330.363 1371.24 316.865 1401.94 327.381C1409.64 312.617 1421.9 300.736 1436.91 293.507L1454.83 284.868C1472.01 239.555 1535.69 236.007 1556.17 279.925L1560.87 294.536C1563.98 304.182 1568.55 313.293 1574.43 321.549L1583.16 333.823C1583.52 334.328 1584.25 334.381 1584.68 333.934L1594.89 323.277C1595.1 323.054 1595.23 322.763 1595.25 322.456C1598.2 274.862 1658.24 255.907 1687.99 293.177L1689.17 294.66C1689.32 294.855 1689.64 294.745 1689.64 294.495V268.061C1634.73 239.52 1665.26 156.074 1725.63 169.711L1742.85 173.602C1742.96 173.627 1743.07 173.581 1743.13 173.489C1753.73 158.22 1770.08 147.508 1788.35 144.098L1796.39 142.598C1796.61 142.555 1796.7 142.279 1796.54 142.113L1782.17 127.039C1751.1 94.4506 1775.91 40.6455 1820.87 43.1236C1821.01 43.1315 1821.13 43.0168 1821.13 42.8742C1821.13 24.0454 1834.18 7.56664 1852.54 3.4194Z" fill="white"/>
</svg>
