<svg width="1920" height="721" viewBox="0 0 1920 721" fill="none" xmlns="http://www.w3.org/2000/svg">
<path d="M28.4265 7.28474L0 5V716.028H1920L1918.2 30.2934L1866.42 112.664C1847.56 83.609 1809.43 74.0994 1779.14 90.8927L1768.19 96.9626C1731.79 75.2209 1685.58 101.443 1685.58 143.838V162.009C1661.37 162.009 1643.25 184.22 1648.11 207.939L1654.33 238.271C1616.1 238.271 1585.12 269.257 1585.12 307.48V352.664C1531.89 324.708 1466.11 347.464 1441.53 402.336L1406.51 480.514L1258.46 446.189C1241.13 442.171 1225.27 445.432 1217.21 461.296C1206.44 482.498 1194.42 511.916 1194.42 511.916L1119.26 486.406C1061.71 466.871 998.687 471.53 944.63 499.316L933.209 505.187L894.945 478.804C847.353 445.99 787.094 437.484 732.279 455.841L716.85 438.403C682.26 399.307 629.244 381.956 578.233 393.037L555.996 357.808C536.716 327.263 495.452 319.712 466.605 341.449L432.304 323.398C424.135 319.099 417.577 312.272 413.609 303.937C403.432 282.559 377.821 273.519 356.48 283.774L343.814 289.86V218.103C343.814 207.821 340.988 197.737 335.644 188.952C325.468 172.222 307.303 162.009 287.72 162.009H274.605C253.219 141.718 218.915 144.647 201.279 168.271L194.233 177.71L190.35 163.669C179.453 124.256 143.59 96.9626 102.698 96.9626C107.59 51.495 74.0096 10.9484 28.4265 7.28474Z" fill="#B1A4D8"/>
<path d="M1920 27.4299L1918.2 30.2934M1918.2 30.2934L1866.42 112.664V112.664C1847.56 83.609 1809.43 74.0994 1779.14 90.8927L1768.19 96.9626V96.9626C1731.79 75.2209 1685.58 101.443 1685.58 143.838V162.009V162.009C1661.37 162.009 1643.25 184.22 1648.11 207.939L1654.33 238.271V238.271C1616.1 238.271 1585.12 269.257 1585.12 307.48V352.664V352.664C1531.89 324.708 1466.11 347.464 1441.53 402.336L1406.51 480.514L1258.46 446.189C1241.13 442.171 1225.27 445.432 1217.21 461.296C1206.44 482.498 1194.42 511.916 1194.42 511.916L1119.26 486.406C1061.71 466.871 998.687 471.53 944.63 499.316L933.209 505.187L894.945 478.804C847.353 445.99 787.095 437.484 732.279 455.841V455.841L716.85 438.403C682.26 399.307 629.244 381.956 578.233 393.037V393.037L555.996 357.808C536.716 327.263 495.452 319.712 466.605 341.449V341.449L432.304 323.398C424.135 319.099 417.577 312.272 413.609 303.937V303.937C403.432 282.559 377.821 273.519 356.48 283.774L343.814 289.86V218.103C343.814 207.821 340.988 197.737 335.644 188.952V188.952C325.468 172.222 307.303 162.009 287.72 162.009H274.605V162.009C253.219 141.718 218.915 144.647 201.279 168.271L194.233 177.71L190.35 163.669C179.453 124.256 143.59 96.9626 102.698 96.9626V96.9626V96.9626C107.59 51.495 74.0096 10.9484 28.4265 7.28474L0 5V716.028H1920L1918.2 30.2934Z" stroke="#B1A4D8" stroke-width="8.97196"/>
</svg>
