<svg width="1920" height="2259" viewBox="0 0 1920 2259" fill="none" xmlns="http://www.w3.org/2000/svg">
<path d="M-0.943726 1863.86L-104.934 1690.44L-355 660.265L-76.6914 570.655C-21.4816 552.878 38.9378 563.352 84.9429 598.674L332.493 788.74C404.709 844.186 507.244 835.627 569.267 768.975L785.574 536.527C852.101 465.036 964.027 461.129 1035.38 527.807L1334.2 807.063C1406.75 874.872 1520.95 869.517 1586.84 795.215L1700.06 667.546C1774.28 583.86 1906.62 589.401 1973.58 678.998L2275 1082.31V1748.75L1866.24 2150.21C1802.9 2212.42 1703.21 2217.91 1633.41 2163.04L1326.96 1922.12C1265.34 1873.67 1179.15 1871.65 1115.33 1917.16L958.303 2029.14C899.451 2071.1 820.964 2072.96 760.195 2033.82L536.151 1889.52C488.272 1858.68 428.46 1852.83 375.515 1873.81L215.512 1937.2C135.134 1969.05 43.5183 1938.01 -0.943726 1863.86Z" fill="url(#paint0_linear_468_4)" fill-opacity="0.55"/>
<path d="M-0.943726 1456.86L-104.934 1283.44L-355 253.265L-76.6914 163.655C-21.4816 145.878 38.9378 156.352 84.9429 191.674L332.493 381.74C404.709 437.186 507.244 428.627 569.267 361.975L785.574 129.527C852.101 58.0357 964.027 54.1288 1035.38 120.807L1334.2 400.063C1406.75 467.872 1520.95 462.517 1586.84 388.215L1700.06 260.546C1774.28 176.86 1906.62 182.401 1973.58 271.998L2275 675.306V1341.75L1866.24 1743.21C1802.9 1805.42 1703.21 1810.91 1633.41 1756.04L1326.96 1515.12C1265.34 1466.67 1179.15 1464.65 1115.33 1510.16L958.303 1622.14C899.451 1664.1 820.964 1665.96 760.195 1626.82L536.151 1482.52C488.272 1451.68 428.46 1445.83 375.515 1466.81L215.512 1530.2C135.134 1562.05 43.5183 1531.01 -0.943726 1456.86Z" fill="url(#paint1_linear_468_4)" fill-opacity="0.55"/>
<defs>
<linearGradient id="paint0_linear_468_4" x1="960" y1="407" x2="960" y2="2259" gradientUnits="userSpaceOnUse">
<stop stop-color="#060E15"/>
<stop offset="1" stop-color="#02070C"/>
</linearGradient>
<linearGradient id="paint1_linear_468_4" x1="960" y1="0" x2="960" y2="1852" gradientUnits="userSpaceOnUse">
<stop stop-color="#060E15"/>
<stop offset="1" stop-color="#02070C"/>
</linearGradient>
</defs>
</svg>
