<svg width="1870" height="374" viewBox="0 0 1870 374" fill="none" xmlns="http://www.w3.org/2000/svg">
<path d="M421.088 159.333L0 227V373.5H1158L893.5 176L863.086 152.447C839.388 134.094 811.564 121.811 782.035 116.667C760.517 112.919 738.504 113.034 717.026 117.005L698.778 120.38C683.949 123.122 669.359 127.028 655.143 132.061L651.173 133.467C614.658 146.394 576.207 153 537.472 153H500.418C473.848 153 447.321 155.118 421.088 159.333Z" fill="url(#paint0_linear_457_4)"/>
<path d="M1906.91 161.605L1930 185V331.5H772L1007.01 156.017C1026.16 141.723 1049.41 134 1073.3 134H1084.88C1109.43 134 1132.78 123.418 1148.96 104.964C1168.55 82.6264 1198.36 72.1008 1227.63 77.1838L1282.22 86.6639C1324.41 93.9909 1367.84 86.368 1405.02 65.1092L1429.23 51.2629C1486.3 18.6251 1553.58 8.69265 1617.65 23.4451L1688.7 39.8037C1771.52 58.8735 1847.2 101.119 1906.91 161.605Z" fill="url(#paint1_linear_457_4)"/>
<defs>
<linearGradient id="paint0_linear_457_4" x1="734.5" y1="132" x2="579" y2="373.5" gradientUnits="userSpaceOnUse">
<stop stop-color="#0D7724"/>
<stop offset="0.338542" stop-color="#2A5A35"/>
<stop offset="0.953125" stop-color="#0B521B"/>
</linearGradient>
<linearGradient id="paint1_linear_457_4" x1="1195.5" y1="90.0001" x2="1351" y2="331.5" gradientUnits="userSpaceOnUse">
<stop stop-color="#0D7724"/>
<stop offset="0.338542" stop-color="#2A5A35"/>
<stop offset="0.953125" stop-color="#0B521B"/>
</linearGradient>
</defs>
</svg>
