<svg width="365" height="372" viewBox="0 0 365 372" fill="none" xmlns="http://www.w3.org/2000/svg">
<path d="M4.83643 181.309C4.83643 279.019 84.0461 358.229 181.756 358.229C279.466 358.229 358.676 279.019 358.676 181.309C358.676 83.599 279.466 4.3894 181.756 4.3894C84.0461 4.3894 4.83643 83.599 4.83643 181.309Z" fill="#E6D8B1"/>
<path d="M123.764 42.5781H67.5L24.8993 98.7377H150.927C158.87 98.7377 165.309 92.2985 165.309 84.3554V83.8969C165.309 76.207 158.961 69.9731 151.271 69.9731C143.706 69.9731 137.461 63.8405 137.461 56.2756C137.461 48.7107 131.329 42.5781 123.764 42.5781Z" fill="#B7A786"/>
<path d="M242.795 44.8242H295.932L336.033 100.984H215.632C207.689 100.984 201.25 94.5446 201.25 86.6015V86.143C201.25 78.4531 207.598 72.2191 215.288 72.2191C222.853 72.2191 229.098 66.0866 229.098 58.5217C229.098 50.9568 235.23 44.8242 242.795 44.8242Z" fill="#B7A786"/>
<path d="M134.424 48.1938H61.9781L45.5 69.5345H106.906C111.868 69.5345 115.891 73.5575 115.891 78.52C115.891 83.4826 119.914 87.5056 124.877 87.5056H131.616H283.247C289.45 87.5056 294.479 82.4769 294.479 76.2737C294.479 70.0704 289.45 65.0417 283.247 65.0417H151.272C146.619 65.0417 142.848 61.2702 142.848 56.6178C142.848 51.9654 139.076 48.1938 134.424 48.1938Z" fill="#D4C29C"/>
<path d="M234.952 307.651H307.959L298 315.514L262.663 318.223C257.801 318.596 254.046 322.649 254.046 327.525C254.046 332.678 249.869 336.854 244.717 336.854H238.322H92.9007C91.6581 336.854 90.4397 336.511 89.3802 335.862C83.5799 332.308 86.0984 323.376 92.9007 323.376H219.227C223.57 323.376 227.09 319.856 227.09 315.514C227.09 311.172 230.61 307.651 234.952 307.651Z" fill="#D4C29C"/>
<path d="M145.652 96.4913H330.979C333.77 96.4913 336.033 98.7542 336.033 101.546C336.033 104.337 333.77 106.6 330.979 106.6H175.417C172.315 106.6 169.801 109.114 169.801 112.216C169.801 115.318 167.286 117.832 164.185 117.832H96.2315C92.1994 117.832 88.9308 114.563 88.9308 110.531C88.9308 106.499 85.6621 103.23 81.63 103.23H41.5668C37.2016 103.23 34.5053 98.4683 36.7512 94.7251C37.7661 93.0335 39.5941 91.9985 41.5668 91.9985H107.463C111.496 91.9985 114.764 95.2672 114.764 99.2993C114.764 103.331 118.033 106.6 122.065 106.6H135.543C138.335 106.6 140.598 104.337 140.598 101.546C140.598 98.7542 142.861 96.4913 145.652 96.4913Z" fill="#D4C29C"/>
<path d="M153.516 246.999H41.0033C35.2172 246.999 30.5266 251.69 30.5266 257.476C30.5266 262.966 34.7654 267.526 40.2414 267.925L132.956 274.685C135.998 274.907 138.353 277.44 138.353 280.49C138.353 283.705 140.959 286.311 144.173 286.311H270.328C274.36 286.311 277.629 283.042 277.629 279.01C277.629 274.978 280.897 271.709 284.93 271.709H324.803C330.386 271.709 334.912 267.184 334.912 261.601C334.912 256.018 330.386 251.492 324.803 251.492H263.589C257.076 251.492 251.795 256.772 251.795 263.285C251.795 269.799 246.515 275.079 240.002 275.079H181.596C173.842 275.079 167.556 268.793 167.556 261.039C167.556 253.285 161.27 246.999 153.516 246.999Z" fill="#D4C29C"/>
<path d="M81.9287 98.7374H23.6355L18 117.374H63.4335C68.2123 117.374 72.0862 121.248 72.0862 126.027C72.0862 130.806 75.9602 134.68 80.739 134.68H91.247H179.913C183.014 134.68 185.529 132.165 185.529 129.064C185.529 125.962 188.043 123.448 191.145 123.448H349L340.529 106.6H171.822C168.846 106.6 166.434 109.012 166.434 111.987C166.434 114.962 164.022 117.374 161.047 117.374H100.565C95.419 117.374 91.247 113.202 91.247 108.056C91.247 102.909 87.0751 98.7374 81.9287 98.7374Z" fill="#E6AE56"/>
<path d="M229.895 38.0852H282L299.971 48.1939H242.25C238.839 48.1939 236.073 50.9597 236.073 54.3715C236.073 57.7833 233.307 60.549 229.895 60.549H191.707C188.295 60.549 185.529 57.7833 185.529 54.3715C185.529 50.9597 188.295 48.1939 191.707 48.1939H219.787C222.578 48.1939 224.841 45.931 224.841 43.1396C224.841 40.3481 227.104 38.0852 229.895 38.0852Z" fill="#D4C29C"/>
<path d="M138.918 24.6072H97.5004L79.5293 34.7159H126.001C129.102 34.7159 131.617 37.2303 131.617 40.3319C131.617 43.4335 134.131 45.9478 137.233 45.9478H169.805C172.907 45.9478 175.421 43.4335 175.421 40.3319C175.421 37.2303 172.907 34.7159 169.805 34.7159H149.026C146.235 34.7159 143.972 32.453 143.972 29.6615C143.972 26.8701 141.709 24.6072 138.918 24.6072Z" fill="#D4C29C"/>
<path d="M36.7053 204.318H14.8031L5 214.427H23.7886C26.8903 214.427 29.4046 216.941 29.4046 220.043C29.4046 223.144 31.919 225.659 35.0206 225.659H67.5931C70.6947 225.659 73.2091 223.144 73.2091 220.043C73.2091 216.941 70.6947 214.427 67.5931 214.427H46.8141C44.0226 214.427 41.7597 212.164 41.7597 209.372C41.7597 206.581 39.4968 204.318 36.7053 204.318Z" fill="#D4C29C"/>
<path d="M138.919 143.665H3.57422V191.963H206.872C213.696 191.963 219.227 186.431 219.227 179.607C219.227 172.784 213.696 167.252 206.872 167.252H162.506C155.993 167.252 150.712 161.972 150.712 155.459C150.712 148.945 145.432 143.665 138.919 143.665Z" fill="#D4C29C"/>
<path d="M287.741 113.339H345.024L355.5 151.528H224.842C218.019 151.528 212.487 145.996 212.487 139.173C212.487 132.349 218.019 126.817 224.842 126.817H274.263C277.985 126.817 281.002 123.8 281.002 120.078C281.002 116.356 284.019 113.339 287.741 113.339Z" fill="#D4C29C"/>
<path d="M108.593 144.788H13.6829L3.57422 161.636H93.9912C98.0233 161.636 101.292 164.905 101.292 168.937C101.292 172.969 104.561 176.238 108.593 176.238H132.18C136.212 176.238 139.48 172.969 139.48 168.937C139.48 164.905 136.212 161.636 132.18 161.636H125.441C120.788 161.636 117.017 157.865 117.017 153.212C117.017 148.56 113.245 144.788 108.593 144.788Z" fill="#E6AE56"/>
<path d="M254.606 204.318H357L343.984 252.615L261.622 252.615C257.299 252.615 254.628 247.899 256.853 244.191C259.077 240.484 256.407 235.767 252.083 235.767H231.019C226.987 235.767 223.719 232.499 223.719 228.467C223.719 224.434 226.987 221.166 231.019 221.166H237.759C242.411 221.166 246.182 217.394 246.182 212.742C246.182 208.089 249.954 204.318 254.606 204.318Z" fill="#E6AE56"/>
<path d="M169.801 132.433H9.50029L7.25391 156.02H197.319C203.833 156.02 209.113 150.74 209.113 144.227C209.113 137.713 214.393 132.433 220.906 132.433H223.714C231.778 132.433 238.316 138.971 238.316 147.035V148.158C238.316 156.842 245.356 163.883 254.04 163.883H357L353.631 139.172H282.12C273.436 139.172 266.396 132.132 266.396 123.448C266.396 114.763 259.355 107.723 250.671 107.723H194.511C187.688 107.723 182.156 113.255 182.156 120.078C182.156 126.902 176.625 132.433 169.801 132.433Z" fill="white"/>
<path d="M202.382 228.741V231.628C202.382 233.986 200.544 235.935 198.191 236.074C195.837 236.213 193.999 238.162 193.999 240.52V243.858C193.999 248.348 197.696 251.958 202.184 251.851L210.192 251.66C212.685 251.6 214.737 253.605 214.737 256.098C214.737 258.55 216.725 260.537 219.177 260.537H262.97C265.487 260.537 267.527 258.497 267.527 255.98C267.527 253.514 269.489 251.495 271.954 251.424L278.106 251.247C282.276 251.126 285.595 247.711 285.595 243.538V239.294C285.595 237.135 283.77 235.426 281.616 235.566C279.461 235.707 277.636 233.998 277.636 231.839V228.288C277.636 224.387 274.474 221.225 270.574 221.225H209.898C205.747 221.225 202.382 224.59 202.382 228.741Z" fill="#F8A15F"/>
<path d="M260.227 227.964H220.915C215.643 227.964 211.368 232.239 211.368 237.512C211.368 242.784 215.643 247.059 220.915 247.059H260.227C265.5 247.059 269.774 242.784 269.774 237.512C269.774 232.239 265.5 227.964 260.227 227.964Z" fill="#D78343"/>
<path d="M248.992 231.334H232.144C228.732 231.334 225.966 234.1 225.966 237.512C225.966 240.923 228.732 243.689 232.144 243.689H248.992C252.404 243.689 255.169 240.923 255.169 237.512C255.169 234.1 252.404 231.334 248.992 231.334Z" fill="#982A1F"/>
<path d="M66.4676 235.767H26.0327C19.8295 235.767 14.8008 240.796 14.8008 246.999C14.8008 253.202 19.8295 258.231 26.0327 258.231H92.8626C98.1354 258.231 102.41 253.957 102.41 248.684C102.41 243.411 106.684 239.137 111.957 239.137H120.942C128.076 239.137 133.859 233.354 133.859 226.22C133.859 219.086 128.076 213.303 120.942 213.303H88.9315C82.7282 213.303 77.6995 218.332 77.6995 224.535C77.6995 230.739 72.6708 235.767 66.4676 235.767Z" fill="#E6AE56"/>
<path d="M96.7955 177.361H4.5L5.81689 205.441H60.8533C65.8159 205.441 69.8388 209.464 69.8388 214.426C69.8388 219.389 73.8618 223.412 78.8244 223.412H199.473C206.659 223.412 212.484 217.586 212.484 210.401C212.484 203.207 218.322 197.379 225.515 197.389L350.637 197.578V171.745H204.06C196.927 171.745 191.144 177.528 191.144 184.662C191.144 191.795 185.361 197.578 178.227 197.578H117.013C111.43 197.578 106.904 193.052 106.904 187.47C106.904 181.887 102.378 177.361 96.7955 177.361Z" fill="white"/>
<path d="M250.77 268.233C226.952 268.095 185.255 268.225 165.297 268.297C159.095 268.32 154.077 273.367 154.077 279.57C154.077 285.773 159.106 290.802 165.31 290.802H235.509C240.781 290.802 245.056 295.077 245.056 300.349C245.056 305.622 249.33 309.897 254.603 309.897H280.436C285.709 309.897 289.983 305.622 289.983 300.349C289.983 295.077 285.709 290.802 280.436 290.802H273.223C266.971 290.802 261.904 285.734 261.904 279.483C261.904 273.3 256.952 268.269 250.77 268.233Z" fill="#E6AE56"/>
<path d="M270.331 284.064H222.027C216.754 284.064 212.482 288.339 212.482 293.611C212.482 298.884 216.757 303.158 222.03 303.158H270.327C275.6 303.158 279.874 298.884 279.874 293.611C279.874 288.339 275.604 284.064 270.331 284.064Z" fill="white"/>
<path opacity="0.5" d="M303.56 120.387L286.011 37.2473L320.434 76.9183C335.611 94.4079 346.588 115.135 352.529 137.516C360.64 168.076 359.016 200.405 347.882 229.997L340.389 249.913C330.03 277.446 312.339 301.622 289.23 319.825C271.223 334.01 250.398 344.194 228.145 349.698L224.225 350.668C171.004 363.831 114.456 351.851 71 318.423H142.96C179.951 318.423 215.858 305.928 244.858 282.964C293.686 244.298 316.422 181.327 303.56 120.387Z" fill="#C1AB7D"/>
<path d="M95.6715 291.927H39.5119L30.5264 269.463H120.382C126.585 269.463 131.614 274.492 131.614 280.695C131.614 286.898 136.642 291.927 142.846 291.927H152.954C159.158 291.927 164.186 296.955 164.186 303.159C164.186 309.362 159.158 314.391 152.954 314.391H118.135C111.932 314.391 106.903 309.362 106.903 303.159C106.903 296.955 101.875 291.927 95.6715 291.927Z" fill="white"/>
<path d="M3.57422 181.309C3.57422 279.019 82.7839 358.229 180.494 358.229C278.204 358.229 357.414 279.019 357.414 181.309C357.414 83.599 278.204 4.3894 180.494 4.3894C82.7839 4.3894 3.57422 83.599 3.57422 181.309Z" stroke="#A48262" stroke-width="7.10744"/>
</svg>
