<svg width="253" height="255" viewBox="0 0 253 255" fill="none" xmlns="http://www.w3.org/2000/svg">
<path d="M243.999 124.292C243.999 191.093 189.845 245.247 123.044 245.247C56.2419 245.247 2.08838 191.093 2.08838 124.292C2.08838 57.4897 56.2419 3.33618 123.044 3.33618C189.845 3.33618 243.999 57.4897 243.999 124.292Z" fill="#B12506"/>
<path d="M160.633 45.2388H203.831H217L235 77.2055H188.712C184.417 77.2055 180.936 73.7242 180.936 69.4298C180.936 65.1354 177.455 61.6541 173.16 61.6541H160.633C156.1 61.6541 152.425 57.9794 152.425 53.4465C152.425 48.9135 156.1 45.2388 160.633 45.2388Z" fill="#FF7B01" fill-opacity="0.64"/>
<path d="M205.777 97.0764H240.552C244.008 108.596 240.552 132.067 240.552 133.795C240.552 135.523 241.456 152.946 238 161.442H218.953H196.922C192.389 161.442 188.714 157.767 188.714 153.234C188.714 148.701 192.389 145.027 196.922 145.027H199.082H211.177C215.471 145.027 218.953 141.545 218.953 137.251C218.953 132.956 215.471 129.475 211.177 129.475H199.082H179.642C174.394 129.475 170.139 125.22 170.139 119.972C170.139 114.723 174.394 110.468 179.642 110.468H192.386C196.084 110.468 199.082 107.47 199.082 103.772C199.082 100.074 202.079 97.0764 205.777 97.0764Z" fill="#FF7B01" fill-opacity="0.64"/>
<path d="M170.339 182.61H230.563L217 199.457H170.35C165.698 199.457 161.926 195.686 161.926 191.034C161.926 186.382 165.687 182.61 170.339 182.61Z" fill="#FF7B01" fill-opacity="0.64"/>
<path d="M123 216H204L188.5 228H123C119.686 228 117 225.314 117 222C117 218.686 119.686 216 123 216Z" fill="#FF7B01" fill-opacity="0.64"/>
<path d="M102.55 64.678H18L4 102.693H113.58H164.43C170.203 102.693 174.884 98.0121 174.884 92.2385C174.884 86.4649 170.203 81.7845 164.43 81.7845H119.657C114.933 81.7845 111.104 77.9551 111.104 73.2312C111.104 68.5074 107.274 64.678 102.55 64.678Z" fill="#FF7B01" fill-opacity="0.64"/>
<path d="M85.9004 28.3918H50L32.5 45.6712H85.9004C90.6719 45.6712 94.54 41.8031 94.54 37.0315C94.54 32.26 90.6719 28.3918 85.9004 28.3918Z" fill="#FF7B01" fill-opacity="0.64"/>
<path d="M101.312 115.653H2L9.86813 167.216L26 194.274H110.753H138.756C144.395 194.274 148.967 189.703 148.967 184.064C148.967 178.424 144.395 173.853 138.756 173.853H90.6505C84.0246 173.853 78.6532 168.482 78.6532 161.856C78.6532 155.23 84.0246 149.858 90.6505 149.858H139.267C144.624 149.858 148.967 145.515 148.967 140.158C148.967 134.801 144.624 130.458 139.267 130.458H116.117C112.029 130.458 108.715 127.144 108.715 123.056C108.715 118.967 105.401 115.653 101.312 115.653Z" fill="#FF7B01" fill-opacity="0.64"/>
<path d="M206.403 82.6406L194.405 25.8003L205.708 36.4141C218.736 48.6485 228.851 63.6521 235.306 80.3179C246.643 109.588 245.995 142.146 233.502 170.942L232.907 172.314C224.934 190.692 212.477 206.775 196.677 219.09C184.298 228.74 170.136 235.862 155.01 240.049C120.79 249.522 84.1183 243.335 54.9074 223.151L47.5 218.033H96.6051C121.895 218.033 146.443 209.49 166.27 193.79C199.652 167.355 215.197 124.304 206.403 82.6406Z" fill="#8D1010" fill-opacity="0.5"/>
<path d="M244.867 124.292C244.867 191.093 190.714 245.247 123.912 245.247C57.1101 245.247 2.95654 191.093 2.95654 124.292C2.95654 57.4897 57.1101 3.33618 123.912 3.33618C190.714 3.33618 244.867 57.4897 244.867 124.292Z" stroke="#5A1C1C" stroke-width="4.85917"/>
</svg>
