<svg width="120" height="119" viewBox="0 0 120 119" fill="none" xmlns="http://www.w3.org/2000/svg">
<path d="M116.476 59.1237C116.476 91.029 90.6112 116.893 58.7059 116.893C26.8006 116.893 0.936172 91.029 0.936172 59.1237C0.936172 27.2184 26.8006 1.354 58.7059 1.354C90.6112 1.354 116.476 27.2184 116.476 59.1237Z" fill="#383838"/>
<path d="M104.358 61.5024H116.828L114.5 40.9641H91.1552C88.3194 40.9641 86.0206 43.2629 86.0206 46.0987C86.0206 48.9344 88.3194 51.2333 91.1552 51.2333H94.0892C96.925 51.2333 99.2238 53.5321 99.2238 56.3678C99.2238 59.2036 101.523 61.5024 104.358 61.5024Z" fill="#676766"/>
<path d="M70.984 104.046H97.0237L107.66 93.0432H70.984C67.9457 93.0432 65.4827 95.5062 65.4827 98.5445C65.4827 101.583 67.9457 104.046 70.984 104.046Z" fill="#676766"/>
<path d="M39.0779 106.246L24.5 106.247L5.33623 83.5075H27.7084C29.7339 83.5075 31.3759 85.1496 31.3759 87.1751C31.3759 89.2006 33.018 90.8427 35.0435 90.8427H49.347C51.5751 90.8427 53.3813 92.6489 53.3813 94.877C53.3813 97.1051 51.5751 98.9113 49.347 98.9113H46.413C44.3874 98.9113 42.7454 100.553 42.7454 102.579C42.7454 104.604 41.1034 106.246 39.0779 106.246Z" fill="#676766"/>
<path d="M48.4272 79.4731H113.5L116 69.5707H48.4272C45.6928 69.5707 43.476 71.7874 43.476 74.5219C43.476 77.2564 45.6928 79.4731 48.4272 79.4731Z" fill="#676766"/>
<path d="M58.8807 44.6306H4.23398L0.199657 61.8682H38.8925C41.4244 61.8682 43.4769 59.8156 43.4769 57.2837C43.4769 54.7518 45.5295 52.6992 48.0614 52.6992H58.8807C61.1088 52.6992 62.915 50.893 62.915 48.6649C62.915 46.4368 61.1088 44.6306 58.8807 44.6306Z" fill="#676766"/>
<path d="M27.1543 36.9285H6L10.1001 27.7596H27.1543C29.6862 27.7596 31.7388 29.8121 31.7388 32.344C31.7388 34.8759 29.6862 36.9285 27.1543 36.9285Z" fill="#676766"/>
<path d="M88.6702 31H109L92 10.5L65 1.5V8.73421C65 11.468 67.2162 13.6842 69.95 13.6842H70.479C72.9206 13.6842 74.9 15.6636 74.9 18.1053C74.9 20.5469 76.8794 22.5263 79.3211 22.5263H80.1965C82.5364 22.5263 84.4333 24.4232 84.4333 26.7632C84.4333 29.1031 86.3302 31 88.6702 31Z" fill="#676766"/>
<path d="M42.3765 8.6896H28.8065L17.5 18.2253H30.8237C33.9633 18.2253 36.5084 20.7704 36.5084 23.91C36.5084 27.0496 39.0536 29.5947 42.1931 29.5947H55.0296C58.1692 29.5947 60.7144 27.0496 60.7144 23.91C60.7144 20.7704 58.1692 18.2253 55.0296 18.2253H51.9122C49.279 18.2253 47.1444 16.0906 47.1444 13.4574C47.1444 10.8242 45.0097 8.6896 42.3765 8.6896Z" fill="#676766"/>
<path d="M98.4545 38.9534L92.783 12.0833L101.737 21.4012C107.177 27.0626 111.288 33.8647 113.771 41.3134C117.789 53.3664 117.331 66.4632 112.483 78.2065L110.825 82.2217C107.249 90.8828 101.483 98.4655 94.0922 104.226C88.0418 108.942 81.057 112.316 73.6019 114.125L73.1227 114.241C60.4362 117.318 47.0749 115.894 35.3214 110.213L23.5005 104.5L46.3579 104.165C58.2672 103.99 69.7854 99.8874 79.1228 92.4932C95.2028 79.7598 102.691 59.0223 98.4545 38.9534Z" fill="#181818" fill-opacity="0.5"/>
<path d="M116.884 59.1237C116.884 91.029 91.0199 116.893 59.1146 116.893C27.2093 116.893 1.34486 91.029 1.34486 59.1237C1.34486 27.2184 27.2093 1.354 59.1146 1.354C91.0199 1.354 116.884 27.2184 116.884 59.1237Z" stroke="#808080" stroke-width="2.3208"/>
</svg>
