<svg width="848" height="848" viewBox="0 0 848 848" fill="none" xmlns="http://www.w3.org/2000/svg">
<path d="M48.55 429.766C51.9706 636.885 222.647 802.016 429.766 798.595C636.885 795.174 802.015 624.498 798.595 417.379C795.174 210.26 624.498 45.13 417.379 48.5506C210.26 51.9712 45.1294 222.647 48.55 429.766Z" fill="white" fill-opacity="0.01"/>
<path d="M6.88077 430.455C10.6815 660.587 200.322 844.065 430.454 840.265C660.586 836.464 844.064 646.824 840.264 416.692C836.463 186.559 646.823 3.08124 416.69 6.88192C186.558 10.6826 3.08009 200.323 6.88077 430.455Z" fill="#FFF500" fill-opacity="0.01"/>
<path d="M145.534 426.537C148.092 581.406 275.712 704.88 430.581 702.322C585.45 699.764 708.924 572.144 706.366 417.275C703.808 262.405 576.188 138.932 421.319 141.49C266.449 144.048 142.976 271.668 145.534 426.537Z" fill="#898989"/>
<path d="M314.312 273.483L214.163 275.137L178.11 275.732L164.311 350.09L250.439 348.668C260.395 348.504 268.333 340.299 268.168 330.344C268.004 320.388 275.941 312.184 285.897 312.019L314.94 311.539C325.449 311.366 333.828 302.706 333.654 292.197C333.481 281.688 324.821 273.309 314.312 273.483Z" fill="#434343"/>
<path d="M603.042 349.9L700 348.532C708.452 375.106 701.338 429.652 701.404 433.658C701.471 437.664 699.133 478.107 691.446 497.935L636.033 498.58L584.957 499.424C574.448 499.597 565.788 491.219 565.614 480.71C565.441 470.201 573.819 461.541 584.328 461.367L589.336 461.285L617.377 460.822C627.333 460.657 635.271 452.453 635.106 442.497C634.942 432.541 626.738 424.604 616.782 424.768L588.74 425.231L543.673 425.976C531.505 426.176 521.478 416.475 521.277 404.307C521.076 392.138 530.777 382.111 542.946 381.91L572.508 381.422C581.071 381.281 587.898 374.224 587.756 365.661C587.615 357.084 594.464 350.022 603.042 349.9Z" fill="#5A5A5A"/>
<path d="M530.853 576.444L658.88 574.33L635.999 620.876L531.239 620.876C519.111 620.876 509.224 611.151 509.024 599.026C508.821 586.757 518.585 576.647 530.853 576.444Z" fill="#5A5A5A"/>
<path d="M429.866 628.205L233.074 631.455L298.65 659.423L430.346 657.248C438.366 657.116 444.76 650.507 444.628 642.487C444.495 634.467 437.886 628.073 429.866 628.205Z" fill="#5A5A5A"/>
<path d="M471.254 277.234L669.499 277.234L706.445 361.174L446.971 365.459L329.085 367.406C315.7 367.627 304.67 356.956 304.449 343.571C304.228 330.185 314.899 319.155 328.284 318.934L432.247 317.217C443.108 317.038 451.768 308.088 451.588 297.227C451.407 286.239 460.264 277.234 471.254 277.234Z" fill="#5A5A5A"/>
<path d="M508.316 192.146L604.458 190.558L605.12 230.617L508.977 232.205C497.915 232.388 488.8 223.568 488.617 212.506C488.434 201.444 497.254 192.328 508.316 192.146Z" fill="#434343"/>
<path d="M345.883 159.226C331.886 163.895 317.384 171.254 314.627 171.3L243.984 200.515L206.937 262.235L346.143 259.936C353.334 259.817 359.066 253.892 358.948 246.701C358.829 239.511 364.562 233.586 371.752 233.467L389.779 233.169C401.394 232.977 410.654 223.406 410.463 211.791C410.271 200.175 400.699 190.915 389.084 191.107L382.074 191.223C372.118 191.387 363.914 183.449 363.749 173.494C363.585 163.538 355.329 156.076 345.883 159.226Z" fill="#5A5A5A"/>
<path d="M361.557 396.924L149.559 400.425L151.533 519.966L187.621 582.117L386.454 578.833L451.376 577.761C464.449 577.545 474.872 566.772 474.656 553.699C474.44 540.625 463.667 530.202 450.594 530.418L252.266 533.693C236.904 533.947 224.246 521.7 223.992 506.339C223.738 490.978 235.986 478.319 251.347 478.065L450.859 474.77C463.279 474.565 473.18 464.331 472.975 451.911C472.77 439.491 462.536 429.59 450.116 429.795L396.448 430.681C386.97 430.838 379.159 423.281 379.003 413.803C378.846 404.324 371.036 396.768 361.557 396.924Z" fill="#434343"/>
<path d="M612.647 307.215L590.662 204.813L647.436 276.426C688.397 328.094 707.264 393.863 699.921 459.386C690.328 544.99 637.297 619.607 559.608 656.814L545.92 663.369C478.101 695.849 399.993 699.373 329.524 673.131L277.514 653.764L338.097 652.763C421.669 651.383 500.443 613.466 553.654 549.008C609.245 481.666 630.977 392.593 612.647 307.215Z" fill="#313030" fill-opacity="0.5"/>
<path d="M143.535 426.57C146.093 581.44 273.713 704.913 428.583 702.355C583.452 699.797 706.925 572.177 704.367 417.308C701.81 262.439 574.19 138.965 419.32 141.523C264.451 144.081 140.978 271.701 143.535 426.57Z" stroke="#3D3D3D" stroke-width="30"/>
</svg>
