<svg width="1920" height="801" viewBox="0 0 1920 801" fill="none" xmlns="http://www.w3.org/2000/svg">
<path d="M1805.73 611.155L1841.91 630.299C1865.97 643.031 1892.78 649.687 1920 649.687L1920 372.341C1920 338 1908.22 304.697 1886.63 277.991C1864.86 251.069 1834.45 232.501 1800.56 225.434L1731.93 211.121C1688.95 202.16 1644.66 201.443 1601.42 209.011L1475.58 231.034C1369.34 249.625 1260.25 243.614 1156.7 213.463L1123.14 203.691C1051 182.685 975.967 173.337 900.877 176.001L616.478 186.091L499.311 179.649C407.218 174.585 317.011 151.514 233.795 111.742L-0.00366211 0L0 800.5L479.082 751.095C535.783 745.247 591.566 732.551 645.212 713.282L846.759 640.889C943.998 605.963 1049.97 603.673 1148.63 634.366L1155.15 636.394C1257.81 668.334 1368.45 663.019 1467.59 621.384L1522.04 598.511C1613.72 560.005 1717.84 564.646 1805.73 611.155Z" fill="url(#paint0_linear_457_148)" fill-opacity="0.01"/>
<defs>
<linearGradient id="paint0_linear_457_148" x1="960" y1="0" x2="960" y2="509.766" gradientUnits="userSpaceOnUse">
<stop stop-color="#5A5A5A"/>
<stop offset="1" stop-color="white"/>
</linearGradient>
</defs>
</svg>
