<svg width="352" height="350" viewBox="0 0 352 350" fill="none" xmlns="http://www.w3.org/2000/svg">
<path d="M341.193 173.245C341.193 266.634 265.487 342.34 172.098 342.34C78.71 342.34 3.00357 266.634 3.00357 173.245C3.00357 79.8568 78.71 4.15039 172.098 4.15039C265.487 4.15039 341.193 79.8568 341.193 173.245Z" fill="#628BC9"/>
<path d="M243.927 88.9587H28L10.8237 122.238H213.869C222.466 122.238 229.435 129.207 229.435 137.804C229.435 146.401 236.404 153.37 245.001 153.37H342L333.566 117.944H272.912C264.908 117.944 258.42 111.455 258.42 103.451C258.42 95.4472 251.931 88.9587 243.927 88.9587Z" fill="#4B74B1"/>
<path d="M96.8887 207.044H8L16.8778 239.25H129.597C140.269 239.25 148.92 230.599 148.92 219.927C148.92 209.255 157.572 200.603 168.243 200.603H328.385C335.599 200.603 341.646 195.152 342.392 187.977C343.253 179.691 336.771 172.472 328.44 172.44L132.315 171.687C122.524 171.649 114.568 179.575 114.568 189.365C114.568 199.129 106.653 207.044 96.8887 207.044Z" fill="#355B94"/>
<path d="M93.0982 223.148H34.0549C25.1616 223.148 17.9521 230.357 17.9521 239.25C17.9521 248.144 25.1616 255.353 34.0549 255.353H93.0982C101.992 255.353 109.201 248.144 109.201 239.25C109.201 230.357 101.992 223.148 93.0982 223.148Z" fill="#4B74B1"/>
<path d="M260.035 36.3547H231.58C222.687 36.3547 215.478 43.5642 215.478 52.4575C215.478 61.3508 222.687 68.5602 231.58 68.5602H304.25L298.801 58.9448C290.89 44.9835 276.082 36.3547 260.035 36.3547Z" fill="#4B74B1"/>
<path d="M149.009 298.294H61.5L91.5 322.985H176.92C186.999 322.985 195.17 314.814 195.17 304.735C195.17 294.656 203.341 286.485 213.42 286.485H264.412C271.823 286.485 277.831 280.478 277.831 273.067C277.831 265.655 271.823 259.648 264.412 259.648H187.655C176.983 259.648 168.332 268.299 168.332 278.971C168.332 289.643 159.681 298.294 149.009 298.294Z" fill="#4B74B1"/>
<path d="M273.451 193.088H341.082L338 218.853H273.451C266.336 218.853 260.568 213.085 260.568 205.97C260.568 198.856 266.336 193.088 273.451 193.088Z" fill="#B7C7FE"/>
<path d="M125.308 48.1639H66.2646L113 13L167.649 6.66224C174.258 5.89585 180.057 11.0617 180.057 17.7144C180.057 23.8592 175.076 28.8406 168.931 28.8406H144.631C139.295 28.8406 134.97 33.1663 134.97 38.5022C134.97 43.8382 130.644 48.1639 125.308 48.1639Z" fill="#B7C7FE"/>
<path d="M173.611 50.313H59.8186L31.9072 80.3714H173.611C181.912 80.3714 188.64 73.6426 188.64 65.3422C188.64 57.0418 181.912 50.313 173.611 50.313Z" fill="#355B94"/>
<path d="M197.228 128.677H9.36244L5.0459 165.177H197.228C207.307 165.177 215.477 157.006 215.477 146.927C215.477 136.848 207.307 128.677 197.228 128.677Z" fill="#355B94"/>
<path d="M131.747 259.648H27.3833L53.4996 294H131.747C141.233 294 148.923 286.31 148.923 276.824C148.923 267.338 141.233 259.648 131.747 259.648Z" fill="#B7C7FE"/>
<path d="M89.3415 110.428H16.0876L7.49951 139.413H89.3415C97.3455 139.413 103.834 132.925 103.834 124.921C103.834 116.917 97.3455 110.428 89.3415 110.428Z" fill="#B7C7FE"/>
<path d="M288.631 115.017L271.858 35.5546L295.575 59.9204C311.343 76.1201 323.472 95.499 331.15 116.762C344.566 153.915 343.658 194.734 328.602 231.253L324.487 241.235C314.139 266.336 297.437 288.311 276.024 305.002C258.104 318.969 237.358 328.867 215.226 334.006L211.748 334.813C170.976 344.281 128.154 338.615 91.2473 318.871L64 304.295H135.134C170.489 304.295 204.808 292.352 232.525 270.403C279.194 233.448 300.925 173.262 288.631 115.017Z" fill="#273D56" fill-opacity="0.5"/>
<path d="M342.407 173.245C342.407 266.634 266.701 342.34 173.312 342.34C79.9238 342.34 4.21744 266.634 4.21744 173.245C4.21744 79.8568 79.9238 4.15039 173.312 4.15039C266.701 4.15039 342.407 79.8568 342.407 173.245Z" stroke="#392B8B" stroke-width="6.79309"/>
</svg>
