<svg width="108" height="542" viewBox="0 0 108 542" fill="none" xmlns="http://www.w3.org/2000/svg">
<path d="M39.5083 86.0911L38.1697 74.0434C37.4412 67.4874 39.1373 60.8915 42.9378 55.5H58.1648L60.3743 59.0599C63.7346 64.4737 65.1058 70.8883 64.2525 77.2027L62.8289 87.7373L60.5895 83.3518C59.8894 81.9809 59.3341 80.5407 58.9325 79.0547C58.4229 77.1693 58.1648 75.2248 58.1648 73.2717V69.6295L57.3932 75.32C57.1799 76.893 57.3945 78.4944 58.0145 79.9557C58.6509 81.456 58.8599 83.1031 58.6181 84.7148L58.3368 86.5902C58.2223 87.3539 58.1648 88.125 58.1648 88.8971V93.2245C55.4901 90.3715 53.7881 86.7445 53.303 82.864L53.2263 82.2501L52.1288 76.6257L51.1686 71.0013V72.1846C51.1686 74.0431 51.3574 75.8968 51.7322 77.7171L52.1288 79.6437L52.8147 85.4052C53.3522 88.0029 53.1343 90.7002 52.187 93.178L51.8545 94.0475L50.8942 98.0258L48.425 94.3219L47.5492 89.9431C47.041 87.4021 47.059 84.7839 47.6019 82.2501L48.425 77.7231L47.9103 78.8382C47.161 80.4619 46.6799 82.1963 46.486 83.974L46.4739 84.0852C46.1357 87.1852 44.9076 90.1211 42.9378 92.5386L42.3891 84.3078L42.7377 79.1662C42.8707 77.2039 43.2144 75.2615 43.7628 73.3726L44.1724 71.9616C42.8355 73.9223 42.1147 76.2489 42.1147 78.622C42.1147 80.9862 41.405 83.2959 40.0775 85.2522L39.5083 86.0911Z" fill="#F08726" stroke="#7B2323" stroke-width="0.823079"/>
<path d="M43.6666 58.1047L44.9955 55.9121H56.7929L60.634 62.4967L61.5176 64.576C62.4762 66.8314 63.0426 69.2339 63.1923 71.68C63.3152 73.6873 63.1562 75.7018 62.72 77.665L61.7314 82.1135L60.7274 79.3166C60.12 77.6245 59.7757 75.8493 59.7066 74.0528L59.6405 72.3337C59.5723 70.559 59.0652 68.8289 58.1647 67.298C57.3515 68.6534 56.8444 70.1702 56.6789 71.7422L56.3387 74.9746C56.1851 76.4335 56.2478 77.9071 56.5249 79.3477C56.7032 80.2749 56.7929 81.217 56.7929 82.1612V84.034V89.5212L56.1129 87.8437C55.1985 85.5883 54.5883 83.2212 54.2983 80.8048L53.9122 77.5865L53.4738 75.1207C53.0365 72.6607 52.2651 70.272 51.1812 68.0208L51.0314 67.7096C50.1337 69.8641 49.837 72.2217 50.173 74.5314L50.757 78.5468L50.7647 78.5975C51.2138 81.5616 51.1741 84.5793 50.6471 87.5305L50.0711 90.7558L49.3852 82.9365L49.4814 79.1858C49.5082 78.1412 49.2369 77.1107 48.6993 76.2147C47.8866 76.8469 47.2257 77.653 46.7652 78.5739L44.0352 84.034L44.3404 82.9004C44.7762 81.2817 45.0627 79.6266 45.1964 77.9556L45.5442 73.6083V69.6301C43.42 70.7807 41.7789 72.6549 40.9189 74.9124L40.057 77.175L39.8061 74.9669C39.5177 72.4296 39.6141 69.8632 40.0919 67.3546C40.3426 66.0386 40.6971 64.7445 41.1521 63.4845L41.3248 63.0064C41.9413 61.299 42.7258 59.6571 43.6666 58.1047Z" fill="#FFC700" stroke="#D9A900" stroke-width="0.548719"/>
<g filter="url(#filter0_d_457_176)">
<path d="M63.1218 46.5633H52.9335V50.7585H60.7246H62.8736C63.4163 50.7585 63.9367 50.5429 64.3205 50.1592C64.7042 49.7754 64.9198 49.255 64.9198 48.7123V46.5633H63.1218Z" fill="white"/>
<path d="M48.139 46.5633H37.9507H36.1528V48.7123C36.1528 49.255 36.3684 49.7754 36.7521 50.1592C37.1358 50.5429 37.6563 50.7585 38.199 50.7585H40.348H48.139V46.5633Z" fill="white"/>
<path d="M40.348 50.7585V52.9743C40.348 53.8365 40.7789 54.6416 41.4963 55.1199C41.9199 55.4023 42.4176 55.553 42.9267 55.553H48.139V50.7585H40.348Z" fill="white"/>
<path d="M60.7246 52.9743V50.7585H52.9335V55.553H58.1459C58.655 55.553 59.1527 55.4023 59.5763 55.1199C60.2937 54.6416 60.7246 53.8365 60.7246 52.9743Z" fill="white"/>
<path fill-rule="evenodd" clip-rule="evenodd" d="M41.7255 8.72181C41.2704 9.43949 40.9019 10.2076 40.5939 10.9996L39.8174 12.9962C38.5837 16.1686 37.9507 19.5427 37.9507 22.9465V24.3887V46.5633H48.139V39.3278C48.139 38.9625 48.2241 38.6021 48.3875 38.2753C48.6153 37.8198 48.9846 37.4505 49.44 37.2228C49.7668 37.0594 50.1272 36.9743 50.4926 36.9743H50.58C50.9454 36.9743 51.3057 37.0594 51.6325 37.2228C52.088 37.4505 52.4573 37.8198 52.6851 38.2753C52.8485 38.6021 52.9335 38.9625 52.9335 39.3278V46.5633H63.1218V24.3887V22.9465C63.1218 19.5427 62.4889 16.1686 61.2552 12.9962L60.4746 10.9891C60.1693 10.2039 59.8097 9.43977 59.3689 8.72181H50.5363H41.7255ZM47.5397 18.9949L47.8908 18.6438C48.4335 18.1011 49.5477 17.575 50.3151 17.575H50.7361C51.5035 17.575 52.6391 18.1011 53.1818 18.6438L53.5328 18.9949C54.3003 19.7624 54.7315 20.8033 54.7315 21.8886V22.6936C54.7315 23.779 54.3003 24.8199 53.5328 25.5873L53.1818 25.9384C52.6391 26.4811 51.5035 26.8358 50.7361 26.8358H50.3151C49.5477 26.8358 48.4335 26.4811 47.8908 25.9384L47.5397 25.5873C46.7723 24.8199 46.3411 23.779 46.3411 22.6936V21.8886C46.3411 20.8033 46.7723 19.7624 47.5397 18.9949Z" fill="white"/>
<path d="M37.9507 46.5633V24.3887M37.9507 46.5633H48.139M37.9507 46.5633H36.1528M37.9507 24.3887V22.9465C37.9507 19.5427 38.5837 16.1686 39.8174 12.9962L40.5939 10.9996C40.9019 10.2076 41.2704 9.43949 41.7255 8.72181V8.72181M37.9507 24.3887L27.1631 35.7757V43.9846C27.1631 44.8468 27.594 45.6519 28.3114 46.1302C28.735 46.4126 29.2327 46.5633 29.7418 46.5633H36.1528M48.139 46.5633V39.3278C48.139 38.9625 48.2241 38.6021 48.3875 38.2753C48.6153 37.8198 48.9846 37.4505 49.44 37.2228C49.7668 37.0594 50.1272 36.9743 50.4926 36.9743H50.58C50.9454 36.9743 51.3057 37.0594 51.6325 37.2228C52.088 37.4505 52.4573 37.8198 52.6851 38.2753C52.8485 38.6021 52.9335 38.9625 52.9335 39.3278V46.5633M48.139 46.5633V50.7585M48.139 55.553L49.0052 56.8523C49.2129 57.1638 49.5626 57.3509 49.937 57.3509H51.1356C51.51 57.3509 51.8596 57.1638 52.0673 56.8523L52.9335 55.553M48.139 55.553V50.7585M48.139 55.553H42.9267C42.4176 55.553 41.9199 55.4023 41.4963 55.1199C40.7789 54.6416 40.348 53.8365 40.348 52.9743V50.7585M40.348 50.7585H38.199C37.6563 50.7585 37.1358 50.5429 36.7521 50.1592C36.3684 49.7754 36.1528 49.255 36.1528 48.7123V46.5633M40.348 50.7585H48.139M63.1218 46.5633V24.3887M63.1218 46.5633H52.9335M63.1218 46.5633H64.9198M63.1218 24.3887V22.9465C63.1218 19.5427 62.4889 16.1686 61.2552 12.9962L60.4746 10.9891C60.1692 10.2039 59.8097 9.43977 59.3689 8.72181V8.72181M63.1218 24.3887L73.9095 35.7757V43.9846C73.9095 44.8468 73.4786 45.6519 72.7612 46.1302C72.3376 46.4126 71.8399 46.5633 71.3308 46.5633H64.9198M52.9335 46.5633V50.7585M52.9335 55.553V50.7585M52.9335 55.553H58.1459C58.655 55.553 59.1527 55.4023 59.5763 55.1199C60.2937 54.6416 60.7246 53.8365 60.7246 52.9743V50.7585M60.7246 50.7585H62.8736C63.4163 50.7585 63.9367 50.5429 64.3205 50.1592C64.7042 49.7754 64.9198 49.255 64.9198 48.7123V46.5633M60.7246 50.7585H52.9335M59.3689 8.72181C58.8778 7.92203 58.3923 7.19678 57.8063 6.40382C57.0955 5.44193 56.2641 4.57677 55.381 3.77014V3.77014C54.4169 2.88952 53.2185 2.30672 51.9305 2.09205C51.5629 2.03079 51.1909 2 50.8182 2H50.5363H50.2543C49.8817 2 49.5097 2.03079 49.1421 2.09205C47.8541 2.30672 46.6557 2.88952 45.6916 3.77014V3.77014C44.8088 4.5764 43.991 5.45324 43.2893 6.42124C42.7366 7.18386 42.2319 7.92301 41.7255 8.72181M59.3689 8.72181H50.5363H41.7255M47.8908 18.6438L47.5397 18.9949C46.7723 19.7624 46.3411 20.8033 46.3411 21.8886V22.6936C46.3411 23.779 46.7723 24.8199 47.5397 25.5873L47.8908 25.9384C48.4335 26.4811 49.5477 26.8358 50.3151 26.8358H50.7361C51.5035 26.8358 52.6391 26.4811 53.1818 25.9384L53.5328 25.5873C54.3003 24.8199 54.7315 23.779 54.7315 22.6936V21.8886C54.7315 20.8033 54.3003 19.7624 53.5328 18.9949L53.1818 18.6438C52.6391 18.1011 51.5035 17.575 50.7361 17.575H50.3151C49.5477 17.575 48.4335 18.1011 47.8908 18.6438Z" stroke="#383535" stroke-width="0.823079"/>
</g>
<g filter="url(#filter1_d_457_176)">
<path d="M47.8895 18.643L47.5385 18.9941C46.771 19.7616 46.3398 20.8025 46.3398 21.8879V22.6928C46.3398 23.7782 46.771 24.8191 47.5385 25.5866L47.8895 25.9376C48.4322 26.4803 49.5464 26.835 50.3139 26.835H50.7348C51.5023 26.835 52.6378 26.4803 53.1805 25.9376L53.5316 25.5866C54.299 24.8191 54.7302 23.7782 54.7302 22.6928V21.8879C54.7302 20.8025 54.299 19.7616 53.5316 18.9941L53.1805 18.643C52.6378 18.1004 51.5023 17.5742 50.7348 17.5742H50.3139C49.5464 17.5742 48.4322 18.1004 47.8895 18.643Z" fill="url(#paint0_linear_457_176)"/>
<path d="M47.8895 18.643L47.5385 18.9941C46.771 19.7616 46.3398 20.8025 46.3398 21.8879V22.6928C46.3398 23.7782 46.771 24.8191 47.5385 25.5866L47.8895 25.9376C48.4322 26.4803 49.5464 26.835 50.3139 26.835H50.7348C51.5023 26.835 52.6378 26.4803 53.1805 25.9376L53.5316 25.5866C54.299 24.8191 54.7302 23.7782 54.7302 22.6928V21.8879C54.7302 20.8025 54.299 19.7616 53.5316 18.9941L53.1805 18.643C52.6378 18.1004 51.5023 17.5742 50.7348 17.5742H50.3139C49.5464 17.5742 48.4322 18.1004 47.8895 18.643Z" stroke="#2E2D5F" stroke-width="1.68378"/>
</g>
<path d="M27.1631 35.7757V43.9846C27.1631 44.8468 27.594 45.6519 28.3114 46.1302C28.735 46.4126 29.2327 46.5633 29.7418 46.5633H36.1528H37.9507V24.3887L27.1631 35.7757Z" fill="url(#paint1_linear_457_176)"/>
<path d="M73.9095 43.9846V35.7757L63.1218 24.3887V46.5633H64.9198H71.3308C71.8399 46.5633 72.3376 46.4126 72.7612 46.1302C73.4786 45.6519 73.9095 44.8468 73.9095 43.9846Z" fill="url(#paint2_linear_457_176)"/>
<path d="M48.139 39.3278V46.5633V50.7585V55.553L49.0052 56.8523C49.2129 57.1638 49.5626 57.3509 49.937 57.3509H51.1356C51.51 57.3509 51.8596 57.1638 52.0673 56.8523L52.9335 55.553V50.7585V46.5633V39.3278C52.9335 38.9625 52.8485 38.6021 52.6851 38.2753C52.4573 37.8198 52.088 37.4505 51.6325 37.2228C51.3057 37.0594 50.9454 36.9743 50.58 36.9743H50.4926C50.1272 36.9743 49.7668 37.0594 49.44 37.2228C48.9846 37.4505 48.6153 37.8198 48.3875 38.2753C48.2241 38.6021 48.139 38.9625 48.139 39.3278Z" fill="url(#paint3_linear_457_176)"/>
<path d="M45.6916 3.77014C44.8088 4.5764 43.9909 5.45324 43.2893 6.42124C42.7366 7.18386 42.2319 7.92301 41.7255 8.72181H50.5363H59.3689C58.8778 7.92203 58.3923 7.19678 57.8063 6.40382C57.0955 5.44193 56.2641 4.57677 55.381 3.77014C54.4169 2.88952 53.2185 2.30672 51.9305 2.09205C51.5629 2.03079 51.1909 2 50.8182 2H50.5363H50.2543C49.8817 2 49.5096 2.03079 49.1421 2.09205C47.8541 2.30672 46.6557 2.88952 45.6916 3.77014Z" fill="url(#paint4_linear_457_176)"/>
<path d="M27.1631 35.7757V43.9846C27.1631 44.8468 27.594 45.6519 28.3114 46.1302C28.735 46.4126 29.2327 46.5633 29.7418 46.5633H36.1528H37.9507V24.3887L27.1631 35.7757Z" stroke="#383535" stroke-width="0.823079"/>
<path d="M73.9095 43.9846V35.7757L63.1218 24.3887V46.5633H64.9198H71.3308C71.8399 46.5633 72.3376 46.4126 72.7612 46.1302C73.4786 45.6519 73.9095 44.8468 73.9095 43.9846Z" stroke="#383535" stroke-width="0.823079"/>
<path d="M48.139 39.3278V46.5633V50.7585V55.553L49.0052 56.8523C49.2129 57.1638 49.5626 57.3509 49.937 57.3509H51.1356C51.51 57.3509 51.8596 57.1638 52.0673 56.8523L52.9335 55.553V50.7585V46.5633V39.3278C52.9335 38.9625 52.8485 38.6021 52.6851 38.2753C52.4573 37.8198 52.088 37.4505 51.6325 37.2228C51.3057 37.0594 50.9454 36.9743 50.58 36.9743H50.4926C50.1272 36.9743 49.7668 37.0594 49.44 37.2228C48.9846 37.4505 48.6153 37.8198 48.3875 38.2753C48.2241 38.6021 48.139 38.9625 48.139 39.3278Z" stroke="#383535" stroke-width="0.823079"/>
<path d="M45.6916 3.77014C44.8088 4.5764 43.9909 5.45324 43.2893 6.42124C42.7366 7.18386 42.2319 7.92301 41.7255 8.72181H50.5363H59.3689C58.8778 7.92203 58.3923 7.19678 57.8063 6.40382C57.0955 5.44193 56.2641 4.57677 55.381 3.77014C54.4169 2.88952 53.2185 2.30672 51.9305 2.09205C51.5629 2.03079 51.1909 2 50.8182 2H50.5363H50.2543C49.8817 2 49.5096 2.03079 49.1421 2.09205C47.8541 2.30672 46.6557 2.88952 45.6916 3.77014Z" stroke="#383535" stroke-width="0.823079"/>
<path d="M62.6911 23.2617L58.7129 27.2399V46.1708" stroke="#D7D7D7" stroke-width="0.27436"/>
<path d="M38.4105 23.2617L42.3887 27.2399V46.1708" stroke="#D7D7D7" stroke-width="0.27436"/>
<path d="M40.9698 11.1914H50.7573H60.0855" stroke="#D7D7D7" stroke-width="0.27436"/>
<path d="M40.1693 93.5948V57.758C40.1693 55.8551 41.7119 54.3125 43.6148 54.3125C45.3034 54.3125 46.7432 55.5363 47.0153 57.2029L52.8371 92.8651C53.2907 95.6434 53.488 98.4575 53.4266 101.272L52.1807 158.38C51.5642 186.635 59.5914 214.404 75.1883 237.973C96.1413 269.635 103.203 308.5 94.728 345.51L79.1258 413.64C76.6725 424.353 76.4183 435.453 78.3786 446.267L86.788 492.656C91.4464 518.354 71.7017 542 45.585 542C23.1822 542 4.74771 524.368 3.75186 501.987L0.837364 436.487C0.283125 424.031 1.84246 411.572 5.44919 399.637L30.3048 317.387C38.4725 290.359 38.6977 261.552 30.9533 234.4C24.83 212.931 23.6683 190.352 27.5559 168.368L39.5691 100.435C39.9684 98.177 40.1693 95.8881 40.1693 93.5948Z" fill="url(#paint5_linear_457_176)" fill-opacity="0.1"/>
<defs>
<filter id="filter0_d_457_176" x="25.6545" y="0.490452" width="49.7642" height="58.3687" filterUnits="userSpaceOnUse" color-interpolation-filters="sRGB">
<feFlood flood-opacity="0" result="BackgroundImageFix"/>
<feColorMatrix in="SourceAlpha" type="matrix" values="0 0 0 0 0 0 0 0 0 0 0 0 0 0 0 0 0 0 127 0" result="hardAlpha"/>
<feOffset/>
<feGaussianBlur stdDeviation="0.548719"/>
<feComposite in2="hardAlpha" operator="out"/>
<feColorMatrix type="matrix" values="0 0 0 0 0 0 0 0 0 0 0 0 0 0 0 0 0 0 0.5 0"/>
<feBlend mode="normal" in2="BackgroundImageFix" result="effect1_dropShadow_457_176"/>
<feBlend mode="normal" in="SourceGraphic" in2="effect1_dropShadow_457_176" result="shape"/>
</filter>
<filter id="filter1_d_457_176" x="44.4006" y="15.635" width="12.2691" height="13.1402" filterUnits="userSpaceOnUse" color-interpolation-filters="sRGB">
<feFlood flood-opacity="0" result="BackgroundImageFix"/>
<feColorMatrix in="SourceAlpha" type="matrix" values="0 0 0 0 0 0 0 0 0 0 0 0 0 0 0 0 0 0 127 0" result="hardAlpha"/>
<feOffset/>
<feGaussianBlur stdDeviation="0.548719"/>
<feComposite in2="hardAlpha" operator="out"/>
<feColorMatrix type="matrix" values="0 0 0 0 0 0 0 0 0 0 0 0 0 0 0 0 0 0 0.5 0"/>
<feBlend mode="normal" in2="BackgroundImageFix" result="effect1_dropShadow_457_176"/>
<feBlend mode="normal" in="SourceGraphic" in2="effect1_dropShadow_457_176" result="shape"/>
</filter>
<linearGradient id="paint0_linear_457_176" x1="50.535" y1="17.5742" x2="50.535" y2="26.835" gradientUnits="userSpaceOnUse">
<stop stop-color="#4779FB"/>
<stop offset="1" stop-color="#B9CDFF"/>
</linearGradient>
<linearGradient id="paint1_linear_457_176" x1="50.5363" y1="2" x2="50.5363" y2="57.3509" gradientUnits="userSpaceOnUse">
<stop stop-color="#FFEA31"/>
<stop offset="0.625" stop-color="#A5A827"/>
<stop offset="1" stop-color="#848623"/>
</linearGradient>
<linearGradient id="paint2_linear_457_176" x1="50.5363" y1="2" x2="50.5363" y2="57.3509" gradientUnits="userSpaceOnUse">
<stop stop-color="#FFEA31"/>
<stop offset="0.625" stop-color="#A5A827"/>
<stop offset="1" stop-color="#848623"/>
</linearGradient>
<linearGradient id="paint3_linear_457_176" x1="50.5363" y1="2" x2="50.5363" y2="57.3509" gradientUnits="userSpaceOnUse">
<stop stop-color="#FFEA31"/>
<stop offset="0.625" stop-color="#A5A827"/>
<stop offset="1" stop-color="#848623"/>
</linearGradient>
<linearGradient id="paint4_linear_457_176" x1="50.5363" y1="2" x2="50.5363" y2="57.3509" gradientUnits="userSpaceOnUse">
<stop stop-color="#FFEA31"/>
<stop offset="0.625" stop-color="#A5A827"/>
<stop offset="1" stop-color="#848623"/>
</linearGradient>
<linearGradient id="paint5_linear_457_176" x1="54" y1="54.3125" x2="54" y2="493.167" gradientUnits="userSpaceOnUse">
<stop stop-color="#74A2E7" stop-opacity="0.49"/>
<stop offset="1" stop-color="#739FE0" stop-opacity="0"/>
</linearGradient>
</defs>
</svg>
