<svg width="60" height="349" viewBox="0 0 60 349" fill="none" xmlns="http://www.w3.org/2000/svg">
<path d="M31.6653 35.6622L31.1135 30.6962C30.8132 27.9939 31.5123 25.2751 33.0789 23.0527H39.3553L40.2661 24.5201C41.6512 26.7516 42.2163 29.3957 41.8646 31.9984L41.2778 36.3407L40.3548 34.533C40.0662 33.968 39.8373 33.3743 39.6718 32.7618C39.4617 31.9847 39.3553 31.1831 39.3553 30.3781V28.8768L39.0373 31.2224C38.9494 31.8708 39.0378 32.5308 39.2934 33.1332C39.5557 33.7516 39.6418 34.4305 39.5422 35.0949L39.4262 35.8679C39.379 36.1827 39.3553 36.5005 39.3553 36.8188V38.6025C38.2528 37.4265 37.5513 35.9315 37.3513 34.332L37.3197 34.0789L36.8674 31.7606L36.4715 29.4423V29.93C36.4715 30.696 36.5494 31.4601 36.7039 32.2105L36.8674 33.0046L37.1501 35.3794C37.3716 36.4502 37.2818 37.562 36.8913 38.5833L36.7543 38.9417L36.3585 40.5815L35.3407 39.0548L34.9797 37.2499C34.7702 36.2025 34.7776 35.1233 35.0014 34.0789L35.3407 32.2129L35.1285 32.6726C34.8196 33.3418 34.6214 34.0568 34.5414 34.7895L34.5364 34.8353C34.397 36.1131 33.8908 37.3233 33.0789 38.3197L32.8527 34.9271L32.9964 32.8078C33.0512 31.9989 33.1929 31.1983 33.4189 30.4197L33.5878 29.8381C33.0367 30.6463 32.7396 31.6053 32.7396 32.5834C32.7396 33.5579 32.4471 34.51 31.8999 35.3164L31.6653 35.6622Z" fill="#F08726" stroke="#7B2323" stroke-width="0.339267"/>
<path d="M33.379 24.1264L33.9267 23.2227H38.7896L40.3728 25.9368L40.737 26.7938C41.1321 27.7235 41.3656 28.7138 41.4273 29.7221C41.478 30.5494 41.4124 31.3798 41.2326 32.189L40.8252 34.0227L40.4113 32.8698C40.1609 32.1723 40.019 31.4406 39.9906 30.7001L39.9633 29.9915C39.9352 29.26 39.7262 28.5468 39.355 27.9158C39.0198 28.4745 38.8108 29.0998 38.7425 29.7477L38.6023 31.0801C38.539 31.6814 38.5649 32.2888 38.6791 32.8826C38.7526 33.2648 38.7896 33.6531 38.7896 34.0423V34.8143V37.0761L38.5092 36.3846C38.1323 35.455 37.8808 34.4793 37.7613 33.4832L37.6021 32.1567L37.4214 31.1403C37.2412 30.1263 36.9232 29.1417 36.4764 28.2138L36.4147 28.0855C36.0447 28.9736 35.9224 29.9453 36.0609 30.8974L36.3016 32.5525L36.3048 32.5734C36.4899 33.7952 36.4735 35.039 36.2563 36.2555L36.0189 37.585L35.7361 34.3619L35.7758 32.8159C35.7868 32.3853 35.675 31.9606 35.4534 31.5912C35.1184 31.8518 34.846 32.1841 34.6562 32.5637L33.5309 34.8143L33.6567 34.347C33.8363 33.6798 33.9544 32.9976 34.0095 32.3088L34.1529 30.5169V28.8771C33.2773 29.3514 32.6009 30.1239 32.2464 31.0544L31.8911 31.9871L31.7877 31.0769C31.6688 30.031 31.7086 28.9732 31.9055 27.9392C32.0088 27.3967 32.155 26.8633 32.3425 26.3439L32.4137 26.1469C32.6678 25.4431 32.9912 24.7663 33.379 24.1264Z" fill="#FFC700" stroke="#D9A900" stroke-width="0.226178"/>
<g filter="url(#filter0_d_457_163)">
<path d="M41.3981 19.3687H37.1986V21.0979H40.41H41.2958C41.5195 21.0979 41.734 21.009 41.8922 20.8509C42.0503 20.6927 42.1392 20.4782 42.1392 20.2545V19.3687H41.3981Z" fill="white"/>
<path d="M35.2223 19.3687H31.0228H30.2817V20.2545C30.2817 20.4782 30.3705 20.6927 30.5287 20.8509C30.6869 21.009 30.9014 21.0979 31.1251 21.0979H32.0109H35.2223V19.3687Z" fill="white"/>
<path d="M32.0109 21.0979V22.0112C32.0109 22.3666 32.1885 22.6985 32.4842 22.8956C32.6588 23.012 32.864 23.0741 33.0738 23.0741H35.2223V21.0979H32.0109Z" fill="white"/>
<path d="M40.41 22.0112V21.0979H37.1986V23.0741H39.347C39.5569 23.0741 39.762 23.012 39.9367 22.8956C40.2324 22.6985 40.41 22.3666 40.41 22.0112Z" fill="white"/>
<path fill-rule="evenodd" clip-rule="evenodd" d="M32.5787 3.77068C32.3911 4.0665 32.2392 4.38311 32.1122 4.70957L31.7922 5.53255C31.2837 6.84018 31.0228 8.23098 31.0228 9.63401V10.2285V19.3687H35.2223V16.3862C35.2223 16.2356 35.2574 16.0871 35.3247 15.9524C35.4186 15.7647 35.5708 15.6124 35.7586 15.5186C35.8933 15.4512 36.0418 15.4161 36.1924 15.4161H36.2284C36.379 15.4161 36.5276 15.4512 36.6623 15.5186C36.85 15.6124 37.0023 15.7647 37.0961 15.9524C37.1635 16.0871 37.1986 16.2356 37.1986 16.3862V19.3687H41.3981V10.2285V9.63401C41.3981 8.23098 41.1372 6.84018 40.6287 5.53255L40.3069 4.70524C40.1811 4.38158 40.0329 4.06662 39.8512 3.77068H36.2104H32.5787ZM34.9753 8.00517L35.12 7.86046C35.3437 7.63677 35.8029 7.4199 36.1193 7.4199H36.2928C36.6091 7.4199 37.0772 7.63677 37.3009 7.86046L37.4456 8.00517C37.7619 8.32151 37.9396 8.75057 37.9396 9.19795V9.52975C37.9396 9.97713 37.7619 10.4062 37.4456 10.7225L37.3009 10.8672C37.0772 11.0909 36.6091 11.2371 36.2928 11.2371H36.1193C35.8029 11.2371 35.3437 11.0909 35.12 10.8672L34.9753 10.7225C34.6589 10.4062 34.4812 9.97713 34.4812 9.52975V9.19795C34.4812 8.75057 34.6589 8.32151 34.9753 8.00517Z" fill="white"/>
<path d="M31.0228 19.3687V10.2285M31.0228 19.3687H35.2223M31.0228 19.3687H30.2817M31.0228 10.2285V9.63401C31.0228 8.23098 31.2837 6.84018 31.7922 5.53255L32.1122 4.70957C32.2392 4.38311 32.3911 4.0665 32.5787 3.77068V3.77068M31.0228 10.2285L26.5762 14.9221V18.3057C26.5762 18.6611 26.7538 18.993 27.0495 19.1901C27.2241 19.3065 27.4292 19.3687 27.6391 19.3687H30.2817M35.2223 19.3687V16.3862C35.2223 16.2356 35.2574 16.0871 35.3247 15.9524C35.4186 15.7647 35.5708 15.6124 35.7586 15.5186C35.8933 15.4512 36.0418 15.4161 36.1924 15.4161H36.2284C36.379 15.4161 36.5276 15.4512 36.6623 15.5186C36.85 15.6124 37.0023 15.7647 37.0961 15.9524C37.1635 16.0871 37.1986 16.2356 37.1986 16.3862V19.3687M35.2223 19.3687V21.0979M35.2223 23.0741L35.5793 23.6097C35.6649 23.7381 35.8091 23.8152 35.9634 23.8152H36.4575C36.6118 23.8152 36.7559 23.7381 36.8415 23.6097L37.1986 23.0741M35.2223 23.0741V21.0979M35.2223 23.0741H33.0738C32.864 23.0741 32.6588 23.012 32.4842 22.8956C32.1885 22.6985 32.0109 22.3666 32.0109 22.0112V21.0979M32.0109 21.0979H31.1251C30.9014 21.0979 30.6869 21.009 30.5287 20.8509C30.3705 20.6927 30.2817 20.4782 30.2817 20.2545V19.3687M32.0109 21.0979H35.2223M41.3981 19.3687V10.2285M41.3981 19.3687H37.1986M41.3981 19.3687H42.1392M41.3981 10.2285V9.63401C41.3981 8.23098 41.1372 6.84018 40.6287 5.53255L40.3069 4.70524C40.1811 4.38158 40.0329 4.06662 39.8512 3.77068V3.77068M41.3981 10.2285L45.8447 14.9221V18.3057C45.8447 18.6611 45.6671 18.993 45.3714 19.1901C45.1968 19.3065 44.9916 19.3687 44.7818 19.3687H42.1392M37.1986 19.3687V21.0979M37.1986 23.0741V21.0979M37.1986 23.0741H39.347C39.5569 23.0741 39.762 23.012 39.9367 22.8956C40.2324 22.6985 40.41 22.3666 40.41 22.0112V21.0979M40.41 21.0979H41.2958C41.5195 21.0979 41.734 21.009 41.8922 20.8509C42.0503 20.6927 42.1392 20.4782 42.1392 20.2545V19.3687M40.41 21.0979H37.1986M39.8512 3.77068C39.6487 3.44102 39.4486 3.14207 39.2071 2.81522C38.9141 2.41874 38.5714 2.06212 38.2074 1.72964V1.72964C37.81 1.36665 37.316 1.12643 36.7851 1.03794C36.6336 1.01269 36.4803 1 36.3266 1H36.2104H36.0942C35.9406 1 35.7873 1.01269 35.6357 1.03794C35.1048 1.12643 34.6109 1.36665 34.2135 1.72964V1.72964C33.8496 2.06197 33.5125 2.4234 33.2233 2.8224C32.9955 3.13675 32.7874 3.44142 32.5787 3.77068M39.8512 3.77068H36.2104H32.5787M35.12 7.86046L34.9753 8.00517C34.6589 8.32151 34.4812 8.75057 34.4812 9.19795V9.52975C34.4812 9.97713 34.6589 10.4062 34.9753 10.7225L35.12 10.8672C35.3437 11.0909 35.8029 11.2371 36.1193 11.2371H36.2928C36.6091 11.2371 37.0772 11.0909 37.3009 10.8672L37.4456 10.7225C37.7619 10.4062 37.9396 9.97713 37.9396 9.52975V9.19795C37.9396 8.75057 37.7619 8.32151 37.4456 8.00517L37.3009 7.86046C37.0772 7.63677 36.6091 7.4199 36.2928 7.4199H36.1193C35.8029 7.4199 35.3437 7.63677 35.12 7.86046Z" stroke="#383535" stroke-width="0.339267"/>
</g>
<g filter="url(#filter1_d_457_163)">
<path d="M35.1202 7.86048L34.9755 8.00519C34.6592 8.32153 34.4814 8.75059 34.4814 9.19797V9.52977C34.4814 9.97715 34.6592 10.4062 34.9755 10.7225L35.1202 10.8673C35.3439 11.0909 35.8032 11.2372 36.1195 11.2372H36.293C36.6094 11.2372 37.0774 11.0909 37.3011 10.8673L37.4458 10.7225C37.7622 10.4062 37.9399 9.97715 37.9399 9.52977V9.19797C37.9399 8.75059 37.7622 8.32153 37.4458 8.00519L37.3011 7.86048C37.0774 7.63679 36.6094 7.41992 36.293 7.41992H36.1195C35.8032 7.41992 35.3439 7.63679 35.1202 7.86048Z" fill="url(#paint0_linear_457_163)"/>
<path d="M35.1202 7.86048L34.9755 8.00519C34.6592 8.32153 34.4814 8.75059 34.4814 9.19797V9.52977C34.4814 9.97715 34.6592 10.4062 34.9755 10.7225L35.1202 10.8673C35.3439 11.0909 35.8032 11.2372 36.1195 11.2372H36.293C36.6094 11.2372 37.0774 11.0909 37.3011 10.8673L37.4458 10.7225C37.7622 10.4062 37.9399 9.97715 37.9399 9.52977V9.19797C37.9399 8.75059 37.7622 8.32153 37.4458 8.00519L37.3011 7.86048C37.0774 7.63679 36.6094 7.41992 36.293 7.41992H36.1195C35.8032 7.41992 35.3439 7.63679 35.1202 7.86048Z" stroke="#2E2D5F" stroke-width="0.694043"/>
</g>
<path d="M26.5762 14.9221V18.3057C26.5762 18.6611 26.7538 18.993 27.0495 19.1901C27.2241 19.3065 27.4292 19.3687 27.6391 19.3687H30.2817H31.0228V10.2285L26.5762 14.9221Z" fill="url(#paint1_linear_457_163)"/>
<path d="M45.8447 18.3057V14.9221L41.3981 10.2285V19.3687H42.1392H44.7818C44.9916 19.3687 45.1968 19.3065 45.3714 19.1901C45.6671 18.993 45.8447 18.6611 45.8447 18.3057Z" fill="url(#paint2_linear_457_163)"/>
<path d="M35.2223 16.3862V19.3687V21.0979V23.0741L35.5793 23.6097C35.6649 23.7381 35.8091 23.8152 35.9634 23.8152H36.4575C36.6118 23.8152 36.7559 23.7381 36.8415 23.6097L37.1986 23.0741V21.0979V19.3687V16.3862C37.1986 16.2356 37.1635 16.0871 37.0961 15.9524C37.0023 15.7647 36.85 15.6124 36.6623 15.5186C36.5276 15.4512 36.379 15.4161 36.2284 15.4161H36.1924C36.0418 15.4161 35.8933 15.4512 35.7586 15.5186C35.5708 15.6124 35.4186 15.7647 35.3247 15.9524C35.2574 16.0871 35.2223 16.2356 35.2223 16.3862Z" fill="url(#paint3_linear_457_163)"/>
<path d="M34.2135 1.72964C33.8496 2.06197 33.5125 2.4234 33.2233 2.8224C32.9954 3.13675 32.7874 3.44142 32.5787 3.77068H36.2104H39.8512C39.6487 3.44102 39.4486 3.14207 39.2071 2.81522C38.9141 2.41874 38.5714 2.06212 38.2074 1.72964C37.81 1.36665 37.316 1.12643 36.7851 1.03794C36.6336 1.01269 36.4802 1 36.3266 1H36.2104H36.0942C35.9406 1 35.7873 1.01269 35.6357 1.03794C35.1048 1.12643 34.6109 1.36665 34.2135 1.72964Z" fill="url(#paint4_linear_457_163)"/>
<path d="M26.5762 14.9221V18.3057C26.5762 18.6611 26.7538 18.993 27.0495 19.1901C27.2241 19.3065 27.4292 19.3687 27.6391 19.3687H30.2817H31.0228V10.2285L26.5762 14.9221Z" stroke="#383535" stroke-width="0.339267"/>
<path d="M45.8447 18.3057V14.9221L41.3981 10.2285V19.3687H42.1392H44.7818C44.9916 19.3687 45.1968 19.3065 45.3714 19.1901C45.6671 18.993 45.8447 18.6611 45.8447 18.3057Z" stroke="#383535" stroke-width="0.339267"/>
<path d="M35.2223 16.3862V19.3687V21.0979V23.0741L35.5793 23.6097C35.6649 23.7381 35.8091 23.8152 35.9634 23.8152H36.4575C36.6118 23.8152 36.7559 23.7381 36.8415 23.6097L37.1986 23.0741V21.0979V19.3687V16.3862C37.1986 16.2356 37.1635 16.0871 37.0961 15.9524C37.0023 15.7647 36.85 15.6124 36.6623 15.5186C36.5276 15.4512 36.379 15.4161 36.2284 15.4161H36.1924C36.0418 15.4161 35.8933 15.4512 35.7586 15.5186C35.5708 15.6124 35.4186 15.7647 35.3247 15.9524C35.2574 16.0871 35.2223 16.2356 35.2223 16.3862Z" stroke="#383535" stroke-width="0.339267"/>
<path d="M34.2135 1.72964C33.8496 2.06197 33.5125 2.4234 33.2233 2.8224C32.9954 3.13675 32.7874 3.44142 32.5787 3.77068H36.2104H39.8512C39.6487 3.44102 39.4486 3.14207 39.2071 2.81522C38.9141 2.41874 38.5714 2.06212 38.2074 1.72964C37.81 1.36665 37.316 1.12643 36.7851 1.03794C36.6336 1.01269 36.4802 1 36.3266 1H36.2104H36.0942C35.9406 1 35.7873 1.01269 35.6357 1.03794C35.1048 1.12643 34.6109 1.36665 34.2135 1.72964Z" stroke="#383535" stroke-width="0.339267"/>
<path d="M41.2208 9.76367L39.5811 11.4035V19.2066" stroke="#D7D7D7" stroke-width="0.113089"/>
<path d="M31.2127 9.76367L32.8525 11.4035V19.2066" stroke="#D7D7D7" stroke-width="0.113089"/>
<path d="M32.2676 4.78906H36.3019H40.147" stroke="#D7D7D7" stroke-width="0.113089"/>
<path d="M33.7002 51.5626V24.5954C33.7002 23.7143 34.4145 23 35.2956 23C36.1059 23 36.7875 23.6073 36.8805 24.4122L40.019 51.5626L43.4345 91.5072L52.2949 151.351C53.4345 159.048 52.9732 166.898 50.9398 174.409L36.1666 228.977C33.5809 238.528 33.5468 248.59 36.0676 258.159L50.2045 311.819C54.7731 329.16 39.8041 345.386 22.1514 342.226C9.6195 339.984 0.883807 328.53 2.03519 315.851L9.9262 228.957C10.3282 224.53 11.2508 220.166 12.6748 215.956L30.4618 163.362C32.6038 157.029 33.6055 150.365 33.4205 143.682L32.2201 100.312L33.7002 51.5626Z" fill="url(#paint5_linear_457_163)" fill-opacity="0.1"/>
<defs>
<filter id="filter0_d_457_163" x="25.9539" y="0.377722" width="20.5131" height="24.059" filterUnits="userSpaceOnUse" color-interpolation-filters="sRGB">
<feFlood flood-opacity="0" result="BackgroundImageFix"/>
<feColorMatrix in="SourceAlpha" type="matrix" values="0 0 0 0 0 0 0 0 0 0 0 0 0 0 0 0 0 0 127 0" result="hardAlpha"/>
<feOffset/>
<feGaussianBlur stdDeviation="0.226178"/>
<feComposite in2="hardAlpha" operator="out"/>
<feColorMatrix type="matrix" values="0 0 0 0 0 0 0 0 0 0 0 0 0 0 0 0 0 0 0.5 0"/>
<feBlend mode="normal" in2="BackgroundImageFix" result="effect1_dropShadow_457_163"/>
<feBlend mode="normal" in="SourceGraphic" in2="effect1_dropShadow_457_163" result="shape"/>
</filter>
<filter id="filter1_d_457_163" x="33.6824" y="6.61991" width="5.05706" height="5.41643" filterUnits="userSpaceOnUse" color-interpolation-filters="sRGB">
<feFlood flood-opacity="0" result="BackgroundImageFix"/>
<feColorMatrix in="SourceAlpha" type="matrix" values="0 0 0 0 0 0 0 0 0 0 0 0 0 0 0 0 0 0 127 0" result="hardAlpha"/>
<feOffset/>
<feGaussianBlur stdDeviation="0.226178"/>
<feComposite in2="hardAlpha" operator="out"/>
<feColorMatrix type="matrix" values="0 0 0 0 0 0 0 0 0 0 0 0 0 0 0 0 0 0 0.5 0"/>
<feBlend mode="normal" in2="BackgroundImageFix" result="effect1_dropShadow_457_163"/>
<feBlend mode="normal" in="SourceGraphic" in2="effect1_dropShadow_457_163" result="shape"/>
</filter>
<linearGradient id="paint0_linear_457_163" x1="36.2107" y1="7.41992" x2="36.2107" y2="11.2372" gradientUnits="userSpaceOnUse">
<stop stop-color="#4779FB"/>
<stop offset="1" stop-color="#B9CDFF"/>
</linearGradient>
<linearGradient id="paint1_linear_457_163" x1="36.2104" y1="1" x2="36.2104" y2="23.8152" gradientUnits="userSpaceOnUse">
<stop stop-color="#31FF45"/>
<stop offset="0.916667" stop-color="#27A86A"/>
<stop offset="1" stop-color="#238650"/>
</linearGradient>
<linearGradient id="paint2_linear_457_163" x1="36.2104" y1="1" x2="36.2104" y2="23.8152" gradientUnits="userSpaceOnUse">
<stop stop-color="#31FF45"/>
<stop offset="0.916667" stop-color="#27A86A"/>
<stop offset="1" stop-color="#238650"/>
</linearGradient>
<linearGradient id="paint3_linear_457_163" x1="36.2104" y1="1" x2="36.2104" y2="23.8152" gradientUnits="userSpaceOnUse">
<stop stop-color="#31FF45"/>
<stop offset="0.916667" stop-color="#27A86A"/>
<stop offset="1" stop-color="#238650"/>
</linearGradient>
<linearGradient id="paint4_linear_457_163" x1="36.2104" y1="1" x2="36.2104" y2="23.8152" gradientUnits="userSpaceOnUse">
<stop stop-color="#31FF45"/>
<stop offset="0.916667" stop-color="#27A86A"/>
<stop offset="1" stop-color="#238650"/>
</linearGradient>
<linearGradient id="paint5_linear_457_163" x1="40.2467" y1="23" x2="40.2467" y2="316.357" gradientUnits="userSpaceOnUse">
<stop stop-color="#74A2E7" stop-opacity="0.49"/>
<stop offset="1" stop-color="#739FE0" stop-opacity="0"/>
</linearGradient>
</defs>
</svg>
