<svg width="182" height="360" viewBox="0 0 182 360" fill="none" xmlns="http://www.w3.org/2000/svg">
<!-- <path d="M51 312.5L46.1209 268.588C43.4658 244.692 49.6476 220.651 63.5 201H119L127.054 213.975C139.301 233.708 144.299 257.088 141.189 280.103L136 318.5L127.838 302.516C125.286 297.519 123.262 292.27 121.798 286.853C119.941 279.981 119 272.894 119 265.775V252.5L116.188 273.241C115.41 278.974 116.193 284.811 118.452 290.137C120.772 295.606 121.534 301.609 120.652 307.484L119.627 314.319C119.21 317.103 119 319.913 119 322.727V338.5C109.251 328.101 103.048 314.881 101.28 300.738L101 298.5L97 278L93.5 257.5V261.813C93.5 268.587 94.1883 275.343 95.5543 281.978L97 289L99.5 310C101.459 319.468 100.665 329.299 97.2118 338.331L96 341.5L92.5 356L83.5 342.5L80.308 326.54C78.4556 317.278 78.521 307.735 80.5 298.5L83.5 282L81.6242 286.064C78.8928 291.982 77.1396 298.304 76.4327 304.783L76.3885 305.189C75.1559 316.488 70.6797 327.189 63.5 336L61.5 306L62.7705 287.26C63.2554 280.107 64.5081 273.028 66.5069 266.143L68 261C63.1273 268.147 60.5 276.626 60.5 285.276C60.5 293.893 57.9133 302.312 53.0748 309.442L51 312.5Z" fill="#F08726" stroke="#7B2323" stroke-width="3"/> -->
<!-- <path d="M66.1565 210.492L71 202.5H114L128 226.5L131.221 234.078C134.715 242.299 136.779 251.056 137.325 259.972C137.773 267.288 137.193 274.631 135.603 281.786L132 298L128.341 287.806C126.127 281.638 124.872 275.168 124.62 268.62L124.379 262.354C124.13 255.886 122.282 249.58 119 244C116.036 248.94 114.188 254.469 113.584 260.198L112.344 271.98C111.784 277.298 112.013 282.669 113.023 287.919C113.673 291.299 114 294.732 114 298.174V305V325L111.521 318.886C108.189 310.665 105.965 302.038 104.908 293.23L103.5 281.5L101.902 272.513C100.308 263.546 97.4969 254.84 93.5461 246.634L93 245.5C89.728 253.353 88.6467 261.946 89.8712 270.365L92 285L92.028 285.185C93.6649 295.989 93.5201 306.988 91.5992 317.744L89.5 329.5L87 301L87.3505 287.329C87.4482 283.522 86.4594 279.766 84.5 276.5C81.5376 278.804 79.1288 281.742 77.4505 285.099L67.5 305L68.6124 300.868C70.2008 294.968 71.2451 288.936 71.7324 282.845L73 267V252.5C65.2577 256.694 59.2762 263.525 56.1416 271.753L53 280L52.0854 271.952C51.0345 262.704 51.3858 253.35 53.1274 244.206C54.041 239.41 55.3331 234.693 56.9916 230.1L57.6209 228.357C59.8681 222.135 62.7273 216.15 66.1565 210.492Z" fill="#FFC700" stroke="#D9A900" stroke-width="2"/> -->
<g filter="url(#filter0_d_96_618)">
<path d="M137.064 168.427H99.9294V183.717H128.327H136.159C138.137 183.717 140.034 182.932 141.433 181.533C142.832 180.134 143.618 178.237 143.618 176.259V168.427H137.064Z" fill="white"/>
<path d="M82.4542 168.427H45.3193H38.7661V176.259C38.7661 178.237 39.5519 180.134 40.9505 181.533C42.3492 182.932 44.2461 183.717 46.2241 183.717H54.0569H82.4542V168.427Z" fill="white"/>
<path d="M54.0569 183.717V191.794C54.0569 194.936 55.6275 197.871 58.2423 199.614C59.7863 200.643 61.6003 201.193 63.4559 201.193H82.4542V183.717H54.0569Z" fill="white"/>
<path d="M128.327 191.794V183.717H99.9294V201.193H118.928C120.783 201.193 122.597 200.643 124.141 199.614C126.756 197.871 128.327 194.936 128.327 191.794Z" fill="white"/>
<path fill-rule="evenodd" clip-rule="evenodd" d="M59.0777 30.5C57.4192 33.1158 56.0758 35.9155 54.9532 38.8022L52.1231 46.0795C47.6265 57.6423 45.3193 69.9406 45.3193 82.347V87.6035V168.427H82.4542V142.054C82.4542 140.723 82.7643 139.409 83.3599 138.218C84.1899 136.558 85.536 135.212 87.1962 134.382C88.3873 133.786 89.7008 133.476 91.0325 133.476H91.3511C92.6828 133.476 93.9963 133.786 95.1874 134.382C96.8476 135.212 98.1937 136.558 99.0237 138.218C99.6193 139.409 99.9294 140.723 99.9294 142.054V168.427H137.064V87.6035V82.347C137.064 69.9406 134.757 57.6423 130.26 46.0795L127.416 38.7639C126.303 35.9019 124.992 33.1168 123.385 30.5H91.1918H59.0777ZM80.2698 67.9439L81.5494 66.6643C83.5274 64.6863 87.5884 62.7686 90.3857 62.7686H91.92C94.7173 62.7686 98.8562 64.6863 100.834 66.6643L102.114 67.9439C104.911 70.7412 106.483 74.5351 106.483 78.4911V81.4251C106.483 85.3811 104.911 89.175 102.114 91.9723L100.834 93.2519C98.8562 95.2299 94.7173 96.5229 91.92 96.5229H90.3857C87.5884 96.5229 83.5274 95.2299 81.5494 93.2519L80.2698 91.9723C77.4725 89.175 75.901 85.3811 75.901 81.4251V78.4911C75.901 74.5351 77.4725 70.7412 80.2698 67.9439Z" fill="white"/>
<path d="M45.3193 168.427V87.6035M45.3193 168.427H82.4542M45.3193 168.427H38.7661M45.3193 87.6035V82.347C45.3193 69.9406 47.6265 57.6423 52.1231 46.0795L54.9532 38.8022C56.0758 35.9155 57.4192 33.1158 59.0777 30.5V30.5M45.3193 87.6035L6 129.107V159.028C6 162.17 7.57059 165.105 10.1854 166.848C11.7293 167.877 13.5434 168.427 15.399 168.427H38.7661M82.4542 168.427V142.054C82.4542 140.723 82.7643 139.409 83.3599 138.218C84.1899 136.558 85.536 135.212 87.1962 134.382C88.3873 133.786 89.7008 133.476 91.0325 133.476H91.3511C92.6828 133.476 93.9963 133.786 95.1874 134.382C96.8476 135.212 98.1937 136.558 99.0237 138.218C99.6193 139.409 99.9294 140.723 99.9294 142.054V168.427M82.4542 168.427V183.717M82.4542 201.193L85.6114 205.928C86.3683 207.064 87.6428 207.746 89.0075 207.746H93.3762C94.7409 207.746 96.0153 207.064 96.7723 205.928L99.9294 201.193M82.4542 201.193V183.717M82.4542 201.193H63.4559C61.6003 201.193 59.7863 200.643 58.2423 199.614C55.6275 197.871 54.0569 194.936 54.0569 191.794V183.717M54.0569 183.717H46.2241C44.2461 183.717 42.3492 182.932 40.9505 181.533C39.5519 180.134 38.7661 178.237 38.7661 176.259V168.427M54.0569 183.717H82.4542M137.064 168.427V87.6035M137.064 168.427H99.9294M137.064 168.427H143.618M137.064 87.6035V82.347C137.064 69.9406 134.757 57.6423 130.26 46.0795L127.416 38.7639C126.303 35.9019 124.992 33.1168 123.385 30.5V30.5M137.064 87.6035L176.384 129.107V159.028C176.384 162.17 174.813 165.105 172.198 166.848C170.654 167.877 168.84 168.427 166.985 168.427H143.618M99.9294 168.427V183.717M99.9294 201.193V183.717M99.9294 201.193H118.928C120.783 201.193 122.597 200.643 124.141 199.614C126.756 197.871 128.327 194.936 128.327 191.794V183.717M128.327 183.717H136.159C138.137 183.717 140.034 182.932 141.433 181.533C142.832 180.134 143.618 178.237 143.618 176.259V168.427M128.327 183.717H99.9294M123.385 30.5C121.595 27.5849 119.826 24.9415 117.69 22.0513C115.099 18.5453 112.069 15.3919 108.85 12.4519V12.4519C105.336 9.24218 100.968 7.11795 96.2735 6.33552C94.9337 6.11222 93.5778 6 92.2195 6H91.1918H90.1641C88.8059 6 87.4499 6.11222 86.1101 6.33552C81.4155 7.11795 77.0476 9.24218 73.5335 12.4519V12.4519C70.3161 15.3906 67.335 18.5866 64.7778 22.1148C62.7631 24.8944 60.9236 27.5885 59.0777 30.5M123.385 30.5H91.1918H59.0777M81.5494 66.6643L80.2698 67.9439C77.4725 70.7412 75.901 74.5351 75.901 78.4911V81.4251C75.901 85.3811 77.4725 89.175 80.2698 91.9723L81.5494 93.2519C83.5274 95.2299 87.5884 96.5229 90.3857 96.5229H91.92C94.7173 96.5229 98.8562 95.2299 100.834 93.2519L102.114 91.9723C104.911 89.175 106.483 85.3811 106.483 81.4251V78.4911C106.483 74.5351 104.911 70.7412 102.114 67.9439L100.834 66.6643C98.8562 64.6863 94.7173 62.7686 91.92 62.7686H90.3857C87.5884 62.7686 83.5274 64.6863 81.5494 66.6643Z" stroke="#383535" stroke-width="3"/>
</g>
<g filter="url(#filter1_d_96_618)">
<path d="M81.5493 66.6643L80.2697 67.9438C77.4724 70.7412 75.9009 74.5351 75.9009 78.4911V81.4251C75.9009 85.3811 77.4724 89.175 80.2697 91.9723L81.5493 93.2519C83.5273 95.2299 87.5883 96.5228 90.3856 96.5228H91.9199C94.7172 96.5228 98.8561 95.2299 100.834 93.2519L102.114 91.9723C104.911 89.175 106.482 85.3811 106.482 81.4251V78.4911C106.482 74.5351 104.911 70.7412 102.114 67.9438L100.834 66.6643C98.8561 64.6863 94.7172 62.7686 91.9199 62.7686H90.3856C87.5883 62.7686 83.5273 64.6863 81.5493 66.6643Z" fill="url(#paint0_linear_96_618)"/>
<path d="M81.5493 66.6643L80.2697 67.9438C77.4724 70.7412 75.9009 74.5351 75.9009 78.4911V81.4251C75.9009 85.3811 77.4724 89.175 80.2697 91.9723L81.5493 93.2519C83.5273 95.2299 87.5883 96.5228 90.3856 96.5228H91.9199C94.7172 96.5228 98.8561 95.2299 100.834 93.2519L102.114 91.9723C104.911 89.175 106.482 85.3811 106.482 81.4251V78.4911C106.482 74.5351 104.911 70.7412 102.114 67.9438L100.834 66.6643C98.8561 64.6863 94.7172 62.7686 91.9199 62.7686H90.3856C87.5883 62.7686 83.5273 64.6863 81.5493 66.6643Z" stroke="#2E2D5F" stroke-width="6.13714"/>
</g>
<path d="M6 129.107V159.028C6 162.17 7.57059 165.105 10.1854 166.848C11.7293 167.877 13.5434 168.427 15.399 168.427H38.7661H45.3193V87.6035L6 129.107Z" fill="url(#paint1_linear_96_618)"/>
<path d="M176.384 159.028V129.107L137.064 87.6035V168.427H143.618H166.985C168.84 168.427 170.654 167.877 172.198 166.848C174.813 165.105 176.384 162.17 176.384 159.028Z" fill="url(#paint2_linear_96_618)"/>
<path d="M82.4542 142.054V168.427V183.717V201.193L85.6114 205.928C86.3683 207.064 87.6428 207.746 89.0075 207.746H93.3762C94.7409 207.746 96.0153 207.064 96.7723 205.928L99.9294 201.193V183.717V168.427V142.054C99.9294 140.723 99.6193 139.409 99.0237 138.218C98.1937 136.558 96.8476 135.212 95.1874 134.382C93.9963 133.786 92.6828 133.476 91.3511 133.476H91.0325C89.7008 133.476 88.3873 133.786 87.1962 134.382C85.536 135.212 84.1899 136.558 83.3599 138.218C82.7643 139.409 82.4542 140.723 82.4542 142.054Z" fill="url(#paint3_linear_96_618)"/>
<path d="M73.5335 12.4519C70.3161 15.3906 67.335 18.5866 64.7777 22.1148C62.763 24.8944 60.9236 27.5885 59.0776 30.5H91.1918H123.385C121.595 27.5849 119.826 24.9415 117.69 22.0513C115.099 18.5453 112.069 15.3919 108.85 12.4519C105.336 9.24218 100.968 7.11796 96.2735 6.33553C94.9337 6.11223 93.5777 6 92.2194 6H91.1918H90.1641C88.8058 6 87.4499 6.11223 86.1101 6.33553C81.4155 7.11796 77.0476 9.24218 73.5335 12.4519Z" fill="url(#paint4_linear_96_618)"/>
<path d="M6 129.107V159.028C6 162.17 7.57059 165.105 10.1854 166.848C11.7293 167.877 13.5434 168.427 15.399 168.427H38.7661H45.3193V87.6035L6 129.107Z" stroke="#383535" stroke-width="3"/>
<path d="M176.384 159.028V129.107L137.064 87.6035V168.427H143.618H166.985C168.84 168.427 170.654 167.877 172.198 166.848C174.813 165.105 176.384 162.17 176.384 159.028Z" stroke="#383535" stroke-width="3"/>
<path d="M82.4542 142.054V168.427V183.717V201.193L85.6114 205.928C86.3683 207.064 87.6428 207.746 89.0075 207.746H93.3762C94.7409 207.746 96.0153 207.064 96.7723 205.928L99.9294 201.193V183.717V168.427V142.054C99.9294 140.723 99.6193 139.409 99.0237 138.218C98.1937 136.558 96.8476 135.212 95.1874 134.382C93.9963 133.786 92.6828 133.476 91.3511 133.476H91.0325C89.7008 133.476 88.3873 133.786 87.1962 134.382C85.536 135.212 84.1899 136.558 83.3599 138.218C82.7643 139.409 82.4542 140.723 82.4542 142.054Z" stroke="#383535" stroke-width="3"/>
<path d="M73.5335 12.4519C70.3161 15.3906 67.335 18.5866 64.7777 22.1148C62.763 24.8944 60.9236 27.5885 59.0776 30.5H91.1918H123.385C121.595 27.5849 119.826 24.9415 117.69 22.0513C115.099 18.5453 112.069 15.3919 108.85 12.4519C105.336 9.24218 100.968 7.11796 96.2735 6.33553C94.9337 6.11223 93.5777 6 92.2194 6H91.1918H90.1641C88.8058 6 87.4499 6.11223 86.1101 6.33553C81.4155 7.11796 77.0476 9.24218 73.5335 12.4519Z" stroke="#383535" stroke-width="3"/>
<path d="M135.5 83.5L121 98V167" stroke="#D7D7D7"/>
<path d="M47 83.5L61.5 98V167" stroke="#D7D7D7"/>
<path d="M56.3258 39.5H91.9998H126" stroke="#D7D7D7"/>
<defs>
<filter id="filter0_d_96_618" x="0.5" y="0.5" width="181.384" height="212.746" filterUnits="userSpaceOnUse" color-interpolation-filters="sRGB">
<feFlood flood-opacity="0" result="BackgroundImageFix"/>
<feColorMatrix in="SourceAlpha" type="matrix" values="0 0 0 0 0 0 0 0 0 0 0 0 0 0 0 0 0 0 127 0" result="hardAlpha"/>
<feOffset/>
<feGaussianBlur stdDeviation="2"/>
<feComposite in2="hardAlpha" operator="out"/>
<feColorMatrix type="matrix" values="0 0 0 0 0 0 0 0 0 0 0 0 0 0 0 0 0 0 0.5 0"/>
<feBlend mode="normal" in2="BackgroundImageFix" result="effect1_dropShadow_96_618"/>
<feBlend mode="normal" in="SourceGraphic" in2="effect1_dropShadow_96_618" result="shape"/>
</filter>
<filter id="filter1_d_96_618" x="68.8325" y="55.7002" width="44.7188" height="47.8916" filterUnits="userSpaceOnUse" color-interpolation-filters="sRGB">
<feFlood flood-opacity="0" result="BackgroundImageFix"/>
<feColorMatrix in="SourceAlpha" type="matrix" values="0 0 0 0 0 0 0 0 0 0 0 0 0 0 0 0 0 0 127 0" result="hardAlpha"/>
<feOffset/>
<feGaussianBlur stdDeviation="2"/>
<feComposite in2="hardAlpha" operator="out"/>
<feColorMatrix type="matrix" values="0 0 0 0 0 0 0 0 0 0 0 0 0 0 0 0 0 0 0.5 0"/>
<feBlend mode="normal" in2="BackgroundImageFix" result="effect1_dropShadow_96_618"/>
<feBlend mode="normal" in="SourceGraphic" in2="effect1_dropShadow_96_618" result="shape"/>
</filter>
<linearGradient id="paint0_linear_96_618" x1="91.1917" y1="62.7686" x2="91.1917" y2="96.5228" gradientUnits="userSpaceOnUse">
<stop stop-color="#4779FB"/>
<stop offset="1" stop-color="#B9CDFF"/>
</linearGradient>
<linearGradient id="paint1_linear_96_618" x1="91.1918" y1="6" x2="91.1918" y2="207.746" gradientUnits="userSpaceOnUse">
<stop stop-color="#FF5631"/>
<stop offset="0.916667" stop-color="#A83E27"/>
<stop offset="1" stop-color="#863423"/>
</linearGradient>
<linearGradient id="paint2_linear_96_618" x1="91.1918" y1="6" x2="91.1918" y2="207.746" gradientUnits="userSpaceOnUse">
<stop stop-color="#FF5631"/>
<stop offset="0.916667" stop-color="#A83E27"/>
<stop offset="1" stop-color="#863423"/>
</linearGradient>
<linearGradient id="paint3_linear_96_618" x1="91.1918" y1="6" x2="91.1918" y2="207.746" gradientUnits="userSpaceOnUse">
<stop stop-color="#FF5631"/>
<stop offset="0.916667" stop-color="#A83E27"/>
<stop offset="1" stop-color="#863423"/>
</linearGradient>
<linearGradient id="paint4_linear_96_618" x1="91.1918" y1="6" x2="91.1918" y2="207.746" gradientUnits="userSpaceOnUse">
<stop stop-color="#FF5631"/>
<stop offset="0.916667" stop-color="#A83E27"/>
<stop offset="1" stop-color="#863423"/>
</linearGradient>
</defs>
</svg>
