<svg width="104" height="161" viewBox="0 0 104 161" fill="none" xmlns="http://www.w3.org/2000/svg">
<path d="M9 113.5L4.12089 69.588C1.46581 45.6923 7.64761 21.6511 21.5 2H77L85.0535 14.9751C97.3013 34.7076 102.299 58.0879 99.1888 81.1032L94 119.5L85.8378 103.516C83.2862 98.5188 81.2621 93.2697 79.7982 87.8534C77.9409 80.9813 77 73.8938 77 66.7751V53.5L74.1877 74.2409C73.4103 79.9742 74.1926 85.811 76.4522 91.1373C78.7721 96.6056 79.5336 102.609 78.6525 108.484L77.6271 115.319C77.2096 118.103 77 120.913 77 123.727V139.5C67.2512 129.101 61.0477 115.881 59.2797 101.738L59 99.5L55 79L51.5 58.5V62.8127C51.5 69.5867 52.1883 76.3432 53.5543 82.978L55 90L57.5 111C59.4589 120.468 58.6649 130.299 55.2118 139.331L54 142.5L50.5 157L41.5 143.5L38.308 127.54C36.4556 118.278 36.521 108.735 38.5 99.5L41.5 83L39.6242 87.0643C36.8928 92.9822 35.1396 99.3041 34.4327 105.783L34.3885 106.189C33.1559 117.488 28.6797 128.189 21.5 137L19.5 107L20.7705 88.2599C21.2554 81.1074 22.5081 74.0277 24.5069 67.143L26 62C21.1273 69.1466 18.5 77.6265 18.5 86.2761C18.5 94.8933 15.9133 103.312 11.0748 110.442L9 113.5Z" fill="#F08726" stroke="#7B2323" stroke-width="3"/>
<path d="M24.1565 11.4917L29 3.5H72L86 27.5L89.2208 35.0784C92.7146 43.2991 94.7789 52.056 95.3248 60.9716C95.7727 68.2878 95.1932 75.6306 93.6031 82.7859L90 99L86.3406 88.8059C84.1266 82.6385 82.8718 76.1679 82.62 69.6199L82.379 63.3543C82.1302 56.8857 80.2821 50.5796 77 45C74.0359 49.9402 72.1875 55.4688 71.5844 61.1984L70.3442 72.98C69.7845 78.2975 70.0132 83.6685 71.0229 88.9192C71.6728 92.2988 72 95.7324 72 99.1739V106V126L69.5214 119.886C66.1886 111.665 63.9645 103.038 62.9076 94.23L61.5 82.5L59.9022 73.5125C58.3082 64.5462 55.4969 55.8396 51.5461 47.6343L51 46.5C47.728 54.3528 46.6467 62.946 47.8712 71.3646L50 86L50.028 86.1848C51.6649 96.9886 51.5201 107.988 49.5992 118.744L47.5 130.5L45 102L45.3505 88.329C45.4482 84.5219 44.4594 80.7657 42.5 77.5C39.5376 79.8041 37.1288 82.7423 35.4505 86.099L25.5 106L26.6124 101.868C28.2008 95.9685 29.2451 89.9356 29.7324 83.8453L31 68V53.5C23.2577 57.6937 17.2762 64.525 14.1416 72.7533L11 81L10.0854 72.9519C9.03451 63.7036 9.38577 54.3497 11.1274 45.2063C12.041 40.4096 13.3331 35.6929 14.9916 31.1003L15.6209 29.3575C17.8681 23.1345 20.7273 17.1499 24.1565 11.4917Z" fill="#FFC700" stroke="#D9A900" stroke-width="2"/>
</svg>
