<svg width="558" height="224" viewBox="0 0 558 224" fill="none" xmlns="http://www.w3.org/2000/svg">
<path d="M137.193 196.361L139.359 188.55L130.281 178.874L122.381 180.575L137.193 196.361Z" fill="#E26097"/>
<path d="M179.166 155.778L173.891 155.467L165.753 146.799L165.761 141.5L169.361 140.026L180.851 152.263L179.166 155.778Z" fill="#E26097"/>
<path d="M180.107 144.84L179.379 150.336L175.311 146.003L171.243 141.669L176.757 141.271L178.432 143.056L180.107 144.84Z" fill="#A6429D"/>
<path d="M175.398 165.345L177.126 159.813L161.439 143.222L155.79 144.607L132.183 166.74L130.207 173.972L130.689 179.388L139.022 188.202L144.423 189.007L151.791 187.478L175.398 165.345Z" fill="white" stroke="#D1D1D1" stroke-width="0.688572"/>
<path d="M152.221 173.097L157.151 173.785L156.709 178.469L151.779 177.781L152.221 173.097Z" fill="#8FB2DC" stroke="#486A92" stroke-width="0.688572" stroke-linejoin="bevel"/>
<path d="M145.962 178.933L150.892 179.621L150.451 184.305L145.521 183.617L145.962 178.933Z" fill="#8FB2DC" stroke="#486A92" stroke-width="0.688572"/>
<path d="M169.306 174.094L167.398 172.064C167.233 171.889 167.243 171.611 167.42 171.444L168.731 170.208C168.899 170.05 169.158 170.046 169.327 170.199L172.083 172.704C172.13 172.746 172.186 172.778 172.246 172.797L175.897 173.927C175.968 173.949 176.032 173.989 176.084 174.044L204.252 204.004C204.33 204.087 204.372 204.197 204.369 204.311L204.314 206.785C204.312 206.903 204.261 207.016 204.174 207.098L189.225 221.194C189.154 221.261 189.063 221.302 188.966 221.313L186.016 221.622C185.881 221.636 185.747 221.586 185.654 221.488L156.615 190.601C156.525 190.505 156.483 190.372 156.502 190.24L156.929 187.304C156.948 187.172 156.907 187.039 156.816 186.943L154.373 184.345C154.208 184.169 154.218 183.891 154.396 183.724L155.442 182.738C155.619 182.571 155.897 182.577 156.062 182.753L157.97 184.783C158.089 184.91 158.274 184.952 158.439 184.891L159.769 184.398C159.825 184.377 159.876 184.345 159.919 184.304L168.712 176.014C168.755 175.973 168.79 175.924 168.814 175.869L169.386 174.57C169.457 174.408 169.425 174.221 169.306 174.094Z" fill="white" stroke="#D1D1D1" stroke-width="0.688572"/>
<path d="M180.274 193.036L184.118 197.126L179.779 201.218L175.935 197.128L180.274 193.036Z" fill="#C0E7FD"/>
<path d="M173.547 185.88L177.391 189.969L173.052 194.061L169.208 189.971L173.547 185.88Z" fill="#C0E7FD"/>
<path d="M187.002 200.193L190.846 204.282L186.507 208.374L182.663 204.285L187.002 200.193Z" fill="#C0E7FD"/>
<path d="M197.333 211.184L193.489 207.094L189.15 211.186L192.994 215.275L197.333 211.184Z" fill="#C0E7FD"/>
<path d="M185.818 187.808L189.663 191.897L186.047 195.307L182.203 191.218L185.818 187.808Z" fill="#C0E7FD"/>
<path d="M179.091 180.651L182.935 184.741L179.32 188.151L175.475 184.061L179.091 180.651Z" fill="#C0E7FD"/>
<path d="M192.546 194.964L196.39 199.054L192.774 202.464L188.93 198.374L192.546 194.964Z" fill="#C0E7FD"/>
<path d="M174.248 198.719L178.092 202.809L174.476 206.219L170.632 202.129L174.248 198.719Z" fill="#C0E7FD"/>
<path d="M167.521 191.563L171.365 195.652L167.749 199.062L165.827 197.017L163.905 194.973L167.521 191.563Z" fill="#C0E7FD"/>
<path d="M180.975 205.876L184.819 209.966L181.204 213.375L177.36 209.286L180.975 205.876Z" fill="#C0E7FD"/>
<path d="M161.514 185.173L165.358 189.262L161.743 192.672L159.1 189.861L158.622 187.901L161.514 185.173Z" fill="#C0E7FD"/>
<path d="M171.385 183.579L167.54 179.49L163.201 183.582L167.046 187.671L171.385 183.579Z" fill="#C0E7FD"/>
<path d="M169.469 177.671L173.313 181.761L176.929 178.351L174.286 175.539L172.361 174.943L169.469 177.671Z" fill="#C0E7FD"/>
<path d="M199.261 209.365L195.417 205.275L199.033 201.866L201.676 204.677L202.154 206.637L199.261 209.365Z" fill="#C0E7FD"/>
<path d="M191.306 216.867L187.462 212.777L183.847 216.187L186.489 218.998L188.414 219.594L191.306 216.867Z" fill="#C0E7FD"/>
<path d="M171.385 183.579C171.192 183.375 168.742 180.768 167.54 179.49M171.385 183.579L167.046 187.671L163.201 183.582L167.54 179.49M171.385 183.579L167.54 179.49M177.391 189.969C177.199 189.765 174.748 187.158 173.547 185.88M177.391 189.969L173.052 194.061L169.208 189.971L173.547 185.88M177.391 189.969L173.547 185.88M193.489 207.094L197.333 211.184M193.489 207.094L189.15 211.186L192.994 215.275L197.333 211.184M193.489 207.094C193.681 207.298 196.131 209.906 197.333 211.184M182.935 184.741C182.743 184.536 180.292 181.929 179.091 180.651M182.935 184.741L179.32 188.151L175.475 184.061L179.091 180.651M182.935 184.741L179.091 180.651M171.365 195.652C171.173 195.448 168.722 192.841 167.521 191.563M171.365 195.652L167.749 199.062L165.827 197.017L163.905 194.973L167.521 191.563M171.365 195.652L167.521 191.563M169.469 177.671L173.313 181.761L176.929 178.351L174.286 175.539L172.361 174.943L169.469 177.671ZM161.514 185.173L165.358 189.262L161.743 192.672L159.1 189.861L158.622 187.901L161.514 185.173ZM184.118 197.126L180.274 193.036L175.935 197.128L179.779 201.218L184.118 197.126ZM190.846 204.282L187.002 200.193L182.663 204.285L186.507 208.374L190.846 204.282ZM189.663 191.897L185.818 187.808L182.203 191.218L186.047 195.307L189.663 191.897ZM196.39 199.054L192.546 194.964L188.93 198.374L192.774 202.464L196.39 199.054ZM178.092 202.809L174.248 198.719L170.632 202.129L174.476 206.219L178.092 202.809ZM184.819 209.966L180.975 205.876L177.36 209.286L181.204 213.375L184.819 209.966ZM199.261 209.365L195.417 205.275L199.033 201.866L201.676 204.677L202.154 206.637L199.261 209.365ZM191.306 216.867L187.462 212.777L183.847 216.187L186.489 218.998L188.414 219.594L191.306 216.867Z" stroke="#81ABC4" stroke-width="0.688572" stroke-linejoin="bevel"/>
<path d="M146.924 149.826L148.832 151.855C148.997 152.031 149.275 152.038 149.452 151.87L150.764 150.634C150.931 150.476 150.951 150.217 150.808 150.039L148.477 147.133C148.438 147.084 148.409 147.026 148.394 146.965L147.487 143.248C147.47 143.175 147.433 143.108 147.382 143.054L119.214 113.093C119.136 113.011 119.029 112.962 118.915 112.958L116.446 112.864C116.328 112.859 116.212 112.903 116.126 112.985L101.176 127.08C101.105 127.147 101.058 127.236 101.042 127.332L100.556 130.262C100.534 130.396 100.575 130.533 100.668 130.632L129.707 161.518C129.797 161.614 129.927 161.664 130.06 161.653L133.012 161.403C133.145 161.392 133.275 161.441 133.365 161.538L135.808 164.136C135.973 164.311 136.251 164.318 136.428 164.151L137.474 163.165C137.651 162.997 137.661 162.719 137.496 162.544L135.588 160.514C135.469 160.387 135.437 160.2 135.508 160.039L136.08 158.739C136.104 158.685 136.139 158.635 136.182 158.594L144.975 150.304C145.018 150.263 145.069 150.231 145.125 150.211L146.455 149.717C146.62 149.656 146.805 149.699 146.924 149.826Z" fill="white" stroke="#D1D1D1" stroke-width="0.688572"/>
<path d="M128.717 137.71L124.873 133.62L120.534 137.712L124.378 141.801L128.717 137.71Z" fill="#C0E7FD"/>
<path d="M135.444 144.866L131.6 140.777L127.261 144.869L131.105 148.958L135.444 144.866Z" fill="#C0E7FD"/>
<path d="M121.99 130.553L118.146 126.463L113.807 130.555L117.651 134.645L121.99 130.553Z" fill="#C0E7FD"/>
<path d="M111.658 119.562L115.503 123.652L111.164 127.744L107.32 123.654L111.658 119.562Z" fill="#C0E7FD"/>
<path d="M134.261 132.481L130.417 128.392L126.801 131.802L130.645 135.891L134.261 132.481Z" fill="#C0E7FD"/>
<path d="M140.988 139.638L137.144 135.548L133.529 138.958L137.373 143.048L140.988 139.638Z" fill="#C0E7FD"/>
<path d="M127.534 125.325L123.69 121.235L120.074 124.645L123.918 128.734L127.534 125.325Z" fill="#C0E7FD"/>
<path d="M122.691 143.393L118.847 139.303L115.231 142.713L119.075 146.803L122.691 143.393Z" fill="#C0E7FD"/>
<path d="M129.418 150.549L125.574 146.46L121.958 149.87L123.88 151.914L125.802 153.959L129.418 150.549Z" fill="#C0E7FD"/>
<path d="M115.963 136.236L112.119 132.147L108.503 135.556L112.348 139.646L115.963 136.236Z" fill="#C0E7FD"/>
<path d="M135.425 156.939L131.58 152.85L127.965 156.26L130.607 159.071L132.532 159.667L135.425 156.939Z" fill="#C0E7FD"/>
<path d="M137.607 147.167L141.451 151.256L137.112 155.348L133.268 151.258L137.607 147.167Z" fill="#C0E7FD"/>
<path d="M143.379 149.438L139.535 145.348L143.151 141.938L145.794 144.75L146.272 146.71L143.379 149.438Z" fill="#C0E7FD"/>
<path d="M113.587 117.744L117.431 121.833L121.047 118.424L118.404 115.612L116.479 115.016L113.587 117.744Z" fill="#C0E7FD"/>
<path d="M105.632 125.245L109.476 129.335L105.861 132.745L103.218 129.933L102.74 127.973L105.632 125.245Z" fill="#C0E7FD"/>
<path d="M137.607 147.167C137.799 147.371 140.25 149.978 141.451 151.256M137.607 147.167L133.268 151.258L137.112 155.348L141.451 151.256M137.607 147.167L141.451 151.256M131.6 140.777C131.792 140.981 134.243 143.588 135.444 144.866M131.6 140.777L127.261 144.869L131.105 148.958L135.444 144.866M131.6 140.777L135.444 144.866M115.503 123.652L111.658 119.562M115.503 123.652L111.164 127.744L107.32 123.654L111.658 119.562M115.503 123.652C115.31 123.447 112.86 120.84 111.658 119.562M137.144 135.548C137.337 135.753 139.787 138.36 140.988 139.638M137.144 135.548L133.529 138.958L137.373 143.048L140.988 139.638M137.144 135.548L140.988 139.638M125.574 146.46C125.766 146.664 128.217 149.271 129.418 150.549M125.574 146.46L121.958 149.87L123.88 151.914L125.802 153.959L129.418 150.549M125.574 146.46L129.418 150.549M143.379 149.438L139.535 145.348L143.151 141.938L145.794 144.75L146.272 146.71L143.379 149.438ZM135.425 156.939L131.58 152.85L127.965 156.26L130.607 159.071L132.532 159.667L135.425 156.939ZM124.873 133.62L128.717 137.71L124.378 141.801L120.534 137.712L124.873 133.62ZM118.146 126.463L121.99 130.553L117.651 134.645L113.807 130.555L118.146 126.463ZM130.417 128.392L134.261 132.481L130.645 135.891L126.801 131.802L130.417 128.392ZM123.69 121.235L127.534 125.325L123.918 128.734L120.074 124.645L123.69 121.235ZM118.847 139.303L122.691 143.393L119.075 146.803L115.231 142.713L118.847 139.303ZM112.119 132.147L115.963 136.236L112.348 139.646L108.503 135.556L112.119 132.147ZM113.587 117.744L117.431 121.833L121.047 118.424L118.404 115.612L116.479 115.016L113.587 117.744ZM105.632 125.245L109.476 129.335L105.861 132.745L103.218 129.933L102.74 127.973L105.632 125.245Z" stroke="#81ABC4" stroke-width="0.688572" stroke-linejoin="bevel"/>
<path d="M168.579 168.601L157.581 172.773C151.571 175.052 145.138 170.613 145.138 164.185C145.138 160.571 147.258 157.292 150.554 155.809L158.044 152.438C163.463 150 169.639 149.869 175.156 152.076L182 154.814C189.332 157.746 197.378 158.399 205.086 156.686L207.768 156.09C217.125 154.011 226.889 154.772 235.81 158.277L244.36 161.636C267.888 170.879 294.474 167.805 315.272 153.435C331.638 142.128 351.789 137.696 371.39 141.093L375.092 141.735C403.695 146.693 432.851 136.73 452.439 115.306L557.861 0V121.892L464.63 186.717C437.89 205.31 402.94 207.203 374.348 191.607L368.194 188.25C349.502 178.055 327.227 176.763 307.481 184.731C288.56 192.366 267.271 191.512 249.021 182.387L234.852 175.303C226.618 171.186 217.217 170.029 208.23 172.026L201.877 173.437C196.325 174.671 190.512 173.811 185.555 171.023L183.2 169.698C178.73 167.184 173.375 166.782 168.579 168.601Z" fill="url(#paint0_linear_457_81)"/>
<defs>
<linearGradient id="paint0_linear_457_81" x1="166.523" y1="171.076" x2="501.192" y2="171.076" gradientUnits="userSpaceOnUse">
<stop stop-color="#D5D4FB" stop-opacity="0.1"/>
<stop offset="1" stop-color="#D9D9D9" stop-opacity="0"/>
</linearGradient>
</defs>
</svg>
