<svg width="1425" height="876" viewBox="0 0 1425 876" fill="none" xmlns="http://www.w3.org/2000/svg">
<path d="M1353.54 20.4434L1374.01 52.5683L1355.22 64.5371L1334.75 32.4122L1353.54 20.4434Z" fill="url(#paint0_linear_457_122)"/>
<path d="M1351.36 14.1719L1354.83 19.6216L1333.46 33.235L1329.99 27.7853L1351.36 14.1719Z" fill="url(#paint1_linear_457_122)"/>
<path d="M1380.54 60.2988L1389.68 74.6403L1368.6 88.071L1359.46 73.7295L1380.54 60.2988Z" fill="url(#paint2_linear_457_122)"/>
<path d="M1351.25 21.9043L1387.34 78.553" stroke="#D3D3D3" stroke-width="1.36036"/>
<path d="M1337.48 30.6758L1373.57 87.3245" stroke="#D3D3D3" stroke-width="1.36036"/>
<path d="M1344.08 26.4727L1380.17 83.1214" stroke="#D3D3D3" stroke-width="1.36036"/>
<path d="M1391.12 73.7266L1394.77 79.4631L1370.82 94.7211L1367.17 88.9845L1391.12 73.7266Z" fill="url(#paint3_linear_457_122)"/>
<path d="M1376.16 51.1973L1381.55 59.6587L1358.46 74.3685L1353.07 65.9071L1376.16 51.1973Z" fill="url(#paint4_linear_457_122)"/>
<path d="M1349.08 12.8033L1351.36 14.1716L1329.99 27.785L1329.72 25.1376L1329.85 25.0292C1335.69 20.1208 1342.15 16.0096 1349.08 12.8033Z" fill="url(#paint5_linear_457_122)"/>
<path d="M1365.68 83.4804L1358.22 88.2314M1350.76 92.9824L1347.56 87.9629M1350.76 92.9824L1353.96 98.0019M1350.76 92.9824L1358.22 88.2314M1358.22 88.2314L1355.02 83.2119M1358.22 88.2314L1361.42 93.2509" stroke="#CFCFCF" stroke-width="1.36036"/>
<path d="M1341.29 56.2734L1338.56 58.0094L1335.12 60.2021L1331.82 62.3035L1329.24 63.9481L1333.28 70.2942L1337.33 76.6403L1341.37 82.9864L1345.41 89.3325L1347.99 87.6879L1351.29 85.5865L1354.73 83.3937L1357.46 81.6578L1353.42 75.3117L1349.37 68.9656L1345.33 62.6195L1341.29 56.2734Z" fill="url(#paint6_linear_457_122)"/>
<path d="M1338.56 58.0094L1341.29 56.2734L1345.33 62.6195M1338.56 58.0094L1354.73 83.3937M1338.56 58.0094L1335.12 60.2021M1354.73 83.3937L1357.46 81.6578L1353.42 75.3117M1354.73 83.3937L1351.29 85.5865M1331.82 62.3035L1329.24 63.9481L1333.28 70.2942M1331.82 62.3035L1347.99 87.6879M1331.82 62.3035L1335.12 60.2021M1347.99 87.6879L1345.41 89.3325L1341.37 82.9864M1347.99 87.6879L1351.29 85.5865M1335.12 60.2021L1351.29 85.5865M1349.37 68.9656L1337.33 76.6403M1349.37 68.9656L1345.33 62.6195M1349.37 68.9656L1353.42 75.3117M1337.33 76.6403L1333.28 70.2942M1337.33 76.6403L1341.37 82.9864M1345.33 62.6195L1333.28 70.2942M1353.42 75.3117L1341.37 82.9864" stroke="url(#paint7_linear_457_122)" stroke-width="1.36036"/>
<path d="M1363.85 91.6973L1361.13 93.4332L1357.69 95.626L1354.39 97.7274L1351.81 99.3719L1355.85 105.718L1359.89 112.064L1363.94 118.41L1367.98 124.756L1370.65 123.255L1373.86 121.01L1377.3 118.818L1380.03 117.082L1375.98 110.736L1371.94 104.389L1367.9 98.0434L1363.85 91.6973Z" fill="url(#paint8_linear_457_122)"/>
<path d="M1361.13 93.4332L1363.85 91.6973L1367.9 98.0434M1361.13 93.4332L1377.3 118.818M1361.13 93.4332L1357.69 95.626M1377.3 118.818L1380.03 117.082L1375.98 110.736M1377.3 118.818L1373.86 121.01M1354.39 97.7274L1351.81 99.3719L1355.85 105.718M1354.39 97.7274L1370.65 123.255M1354.39 97.7274L1357.69 95.626M1370.65 123.255L1367.98 124.756L1363.94 118.41M1370.65 123.255L1373.86 121.01M1357.69 95.626L1373.86 121.01M1371.94 104.389L1359.89 112.064M1371.94 104.389L1367.9 98.0434M1371.94 104.389L1375.98 110.736M1359.89 112.064L1355.85 105.718M1359.89 112.064L1363.94 118.41M1367.9 98.0434L1355.85 105.718M1375.98 110.736L1363.94 118.41" stroke="url(#paint9_linear_457_122)" stroke-width="1.36036"/>
<path d="M1386.76 70.0508L1394.36 65.2085M1401.81 60.4575L1398.62 55.438M1401.81 60.4575L1405.01 65.477M1401.81 60.4575L1394.36 65.2085M1394.36 65.2085L1391.16 60.189M1394.36 65.2085L1397.55 70.228" stroke="#CFCFCF" stroke-width="1.36036"/>
<path d="M1372.55 36.3574L1375.27 34.6215L1378.72 32.4287L1382.02 30.3273L1384.6 28.6828L1388.64 35.0288L1392.68 41.3749L1396.73 47.721L1400.77 54.0671L1398.19 55.7117L1394.89 57.8131L1391.45 60.0059L1388.72 61.7418L1384.68 55.3957L1380.64 49.0496L1376.59 42.7035L1372.55 36.3574Z" fill="url(#paint10_linear_457_122)"/>
<path d="M1375.27 34.6215L1372.55 36.3574L1376.59 42.7035M1375.27 34.6215L1391.45 60.0059M1375.27 34.6215L1378.72 32.4287M1391.45 60.0059L1388.72 61.7418L1384.68 55.3957M1391.45 60.0059L1394.89 57.8131M1382.02 30.3273L1384.6 28.6828L1388.64 35.0288M1382.02 30.3273L1398.19 55.7117M1382.02 30.3273L1378.72 32.4287M1398.19 55.7117L1400.77 54.0671L1396.73 47.721M1398.19 55.7117L1394.89 57.8131M1378.72 32.4287L1394.89 57.8131M1380.64 49.0496L1392.68 41.3749M1380.64 49.0496L1376.59 42.7035M1380.64 49.0496L1384.68 55.3957M1392.68 41.3749L1388.64 35.0288M1392.68 41.3749L1396.73 47.721M1376.59 42.7035L1388.64 35.0288M1384.68 55.3957L1396.73 47.721" stroke="url(#paint11_linear_457_122)" stroke-width="1.36036"/>
<path d="M1395.12 71.7812L1397.84 70.0453L1401.28 67.8525L1404.58 65.7512L1407.16 64.1066L1411.21 70.4527L1415.25 76.7988L1419.29 83.1449L1423.34 89.491L1420.85 91.2789L1417.46 93.2369L1414.01 95.4297L1411.29 97.1656L1407.25 90.8195L1403.2 84.4734L1399.16 78.1273L1395.12 71.7812Z" fill="url(#paint12_linear_457_122)"/>
<path d="M1397.84 70.0453L1395.12 71.7812L1399.16 78.1273M1397.84 70.0453L1414.01 95.4297M1397.84 70.0453L1401.28 67.8525M1414.01 95.4297L1411.29 97.1656L1407.25 90.8195M1414.01 95.4297L1417.46 93.2369M1404.58 65.7512L1407.16 64.1066L1411.21 70.4527M1404.58 65.7512L1420.85 91.2789M1404.58 65.7512L1401.28 67.8525M1420.85 91.2789L1423.34 89.491L1419.29 83.1449M1420.85 91.2789L1417.46 93.2369M1401.28 67.8525L1417.46 93.2369M1403.2 84.4734L1415.25 76.7988M1403.2 84.4734L1399.16 78.1273M1403.2 84.4734L1407.25 90.8195M1415.25 76.7988L1411.21 70.4527M1415.25 76.7988L1419.29 83.1449M1399.16 78.1273L1411.21 70.4527M1407.25 90.8195L1419.29 83.1449" stroke="url(#paint13_linear_457_122)" stroke-width="1.36036"/>
<path d="M1362.93 110.892L1394.91 47.645C1398.03 41.4731 1397.21 34.0419 1392.83 28.6894C1386.47 20.9055 1374.86 20.088 1367.46 26.9026L1316.42 73.9292C1299.66 89.3644 1277.3 97.2276 1254.57 95.6728L1172.69 90.071C1113.17 85.9998 1053.96 101.485 1004.06 134.171L951.573 168.554C901.739 201.196 845.545 222.89 786.704 232.199L714.578 243.611C640.816 255.281 565.277 247.118 495.711 219.959L451.013 202.508C350.619 163.313 239.015 164.119 139.197 204.759L-0.000244141 261.432L308.968 876.001L494.992 825.763C581.077 802.514 642.357 726.418 646.716 637.356L649.487 580.757C653.991 488.729 737.409 420.996 828.401 435.485C885.986 444.655 943.836 420.68 978.053 373.464L1074.45 240.445C1107.11 195.384 1161.42 171.301 1216.74 177.355L1236.39 179.505C1288.75 185.235 1339.17 157.896 1362.93 110.892Z" fill="url(#paint14_linear_457_122)" fill-opacity="0.1"/>
<defs>
<linearGradient id="paint0_linear_457_122" x1="1361.58" y1="33.0638" x2="1342.65" y2="45.124" gradientUnits="userSpaceOnUse">
<stop stop-color="white"/>
<stop offset="1" stop-color="#9B9B9B"/>
</linearGradient>
<linearGradient id="paint1_linear_457_122" x1="1354.7" y1="19.7062" x2="1333.46" y2="33.235" gradientUnits="userSpaceOnUse">
<stop stop-color="#C8C8C8"/>
<stop offset="1" stop-color="#363636"/>
</linearGradient>
<linearGradient id="paint2_linear_457_122" x1="1384.13" y1="65.933" x2="1362.89" y2="79.4662" gradientUnits="userSpaceOnUse">
<stop stop-color="white"/>
<stop offset="1" stop-color="#9B9B9B"/>
</linearGradient>
<linearGradient id="paint3_linear_457_122" x1="1394.62" y1="79.5579" x2="1370.82" y2="94.7211" gradientUnits="userSpaceOnUse">
<stop stop-color="#C8C8C8"/>
<stop offset="1" stop-color="#363636"/>
</linearGradient>
<linearGradient id="paint4_linear_457_122" x1="1381.41" y1="59.7501" x2="1358.46" y2="74.3685" gradientUnits="userSpaceOnUse">
<stop stop-color="#C8C8C8"/>
<stop offset="1" stop-color="#363636"/>
</linearGradient>
<linearGradient id="paint5_linear_457_122" x1="1338.57" y1="17.6797" x2="1340.68" y2="20.9783" gradientUnits="userSpaceOnUse">
<stop stop-color="#FEFEFE"/>
<stop offset="1" stop-color="#047DB1"/>
</linearGradient>
<linearGradient id="paint6_linear_457_122" x1="1349.9" y1="68.5285" x2="1336.56" y2="77.0254" gradientUnits="userSpaceOnUse">
<stop stop-color="#93D6F3"/>
<stop offset="1" stop-color="#2691BF"/>
</linearGradient>
<linearGradient id="paint7_linear_457_122" x1="1336.56" y1="77.0254" x2="1349.76" y2="68.6198" gradientUnits="userSpaceOnUse">
<stop stop-color="white"/>
<stop offset="1" stop-color="#D0CFE3"/>
</linearGradient>
<linearGradient id="paint8_linear_457_122" x1="1372.51" y1="104.024" x2="1359.18" y2="112.521" gradientUnits="userSpaceOnUse">
<stop stop-color="#93D6F3"/>
<stop offset="1" stop-color="#2691BF"/>
</linearGradient>
<linearGradient id="paint9_linear_457_122" x1="1359.18" y1="112.521" x2="1372.37" y2="104.115" gradientUnits="userSpaceOnUse">
<stop stop-color="white"/>
<stop offset="1" stop-color="#D0CFE3"/>
</linearGradient>
<linearGradient id="paint10_linear_457_122" x1="1380.02" y1="49.3434" x2="1393.35" y2="40.8464" gradientUnits="userSpaceOnUse">
<stop stop-color="#93D6F3"/>
<stop offset="1" stop-color="#2691BF"/>
</linearGradient>
<linearGradient id="paint11_linear_457_122" x1="1393.35" y1="40.8464" x2="1380.16" y2="49.252" gradientUnits="userSpaceOnUse">
<stop stop-color="white"/>
<stop offset="1" stop-color="#D0CFE3"/>
</linearGradient>
<linearGradient id="paint12_linear_457_122" x1="1402.63" y1="84.8385" x2="1415.97" y2="76.3415" gradientUnits="userSpaceOnUse">
<stop stop-color="#93D6F3"/>
<stop offset="1" stop-color="#2691BF"/>
</linearGradient>
<linearGradient id="paint13_linear_457_122" x1="1415.97" y1="76.3415" x2="1402.77" y2="84.7471" gradientUnits="userSpaceOnUse">
<stop stop-color="white"/>
<stop offset="1" stop-color="#D0CFE3"/>
</linearGradient>
<linearGradient id="paint14_linear_457_122" x1="1400.04" y1="34.5468" x2="160.377" y2="619.229" gradientUnits="userSpaceOnUse">
<stop stop-color="#4C5BDD" stop-opacity="0.27"/>
<stop offset="1" stop-color="#D9D9D9" stop-opacity="0"/>
<stop offset="1" stop-color="#3245E9" stop-opacity="0"/>
</linearGradient>
</defs>
</svg>
