<svg width="757" height="448" viewBox="0 0 757 448" fill="none" xmlns="http://www.w3.org/2000/svg">
<path d="M584 223.548C584 344.19 486.2 441.989 365.558 441.989C244.916 441.989 147.116 344.19 147.116 223.548C147.116 102.906 244.916 5.10603 365.558 5.10603C486.2 5.10603 584 102.906 584 223.548Z" fill="#F8955C"/>
<path d="M304.51 91.0868H191.5L221 59.1904H304.51C313.318 59.1904 320.458 66.3306 320.458 75.1386C320.458 83.9465 313.318 91.0868 304.51 91.0868Z" fill="#C5703F"/>
<path d="M446.151 358.341L541 356L553.436 326.843H445.762C437.063 326.843 430.011 333.895 430.011 342.594C430.011 351.446 437.302 358.559 446.151 358.341Z" fill="#C5703F"/>
<path d="M257.359 264.437H154L151.269 235.315H166.523C177.246 235.315 185.939 226.622 185.939 215.899C185.939 205.177 194.631 196.484 205.354 196.484H274.694H344.034C353.224 196.484 360.675 203.935 360.675 213.126C360.675 222.317 353.224 229.767 344.034 229.767H292.029C282.455 229.767 274.694 237.529 274.694 247.102C274.694 256.676 266.932 264.437 257.359 264.437Z" fill="#C5703F"/>
<path d="M462.601 102.182H551L582.57 195.143H493.838C485.4 195.143 478.56 188.303 478.56 179.865C478.56 171.428 471.72 164.588 463.283 164.588H448.051H416.166C406.968 164.588 399.513 157.132 399.513 147.935C399.513 138.738 406.968 131.282 416.166 131.282H433.501C441.536 131.282 448.051 124.768 448.051 116.732C448.051 108.696 454.565 102.182 462.601 102.182Z" fill="#C5703F"/>
<path d="M269.152 141.011H165.142L152 175.681H330.866C340.44 175.681 348.201 167.92 348.2 158.346C348.2 148.773 355.961 141.011 365.535 141.011H374.549C383.74 141.011 391.191 133.561 391.191 124.37C391.191 115.179 383.74 107.728 374.549 107.728H302.436C293.245 107.728 285.794 115.179 285.794 124.37C285.794 133.561 278.343 141.011 269.152 141.011Z" fill="#D8A06D"/>
<path d="M406.438 48.0977H499.5L524 73.0601H431.4C425.273 73.0601 420.306 78.0272 420.306 84.1544C420.306 90.2817 415.339 95.2488 409.211 95.2488H401.584C391.244 95.2488 382.862 86.8668 382.862 76.527V71.6733C382.862 58.6528 393.417 48.0977 406.438 48.0977Z" fill="#D8A06D"/>
<path d="M333.635 290.787H160.979L205.357 372.608H378.706C390.961 372.608 400.895 362.674 400.895 350.419C400.895 338.165 390.961 328.231 378.706 328.231H371.079C360.739 328.231 352.357 319.849 352.357 309.509C352.357 299.169 343.975 290.787 333.635 290.787Z" fill="#FBA75E"/>
<path d="M429.326 300.494H568.699L586.728 214.512H391.883C380.011 214.512 370.387 224.136 370.387 236.008V238.781C370.387 249.121 378.769 257.503 389.109 257.503C399.449 257.503 407.831 265.885 407.831 276.225V278.998C407.831 290.87 417.455 300.494 429.326 300.494Z" fill="#FBA75E"/>
<path d="M352.36 412.824H299.492C289.905 412.824 284.832 424.163 291.219 431.311C293.324 433.666 296.333 435.013 299.492 435.013H352.36C358.487 435.013 363.454 430.046 363.454 423.918C363.454 417.791 358.487 412.824 352.36 412.824Z" fill="#D8A06D"/>
<path d="M515.83 147.115L494.419 45.6744L526.05 78.6099C549.018 102.525 565.949 131.574 575.435 163.346C586.588 200.699 587.041 240.431 576.742 278.028L575.005 284.372C565.811 317.938 548.471 348.714 524.525 373.968C489.068 411.363 441.172 434.516 389.842 439.076L377.139 440.204C324.465 444.883 272.042 428.846 231 395.5L319.042 394.012C363.974 393.252 407.406 377.725 442.636 349.828C503.518 301.616 531.868 223.1 515.83 147.115Z" fill="#C9854A" fill-opacity="0.5"/>
<path d="M585.559 223.548C585.559 344.19 487.759 441.989 367.117 441.989C246.475 441.989 148.675 344.19 148.675 223.548C148.675 102.906 246.475 5.10603 367.117 5.10603C487.759 5.10603 585.559 102.906 585.559 223.548Z" stroke="#E89658" stroke-width="8.77551"/>
<path d="M58.7367 263.164C25.9657 290.704 -23.295 342.242 6.60548 383.716C37.0061 425.885 156.165 415.35 223.351 405.563C254.668 401.001 285.334 393.303 315.803 384.746L352.695 374.386C432.325 352.024 509.034 320.334 581.229 279.973L623.582 256.296C640.288 246.956 656.217 236.29 671.216 224.4L693.001 207.132C738.284 171.237 786.144 100.558 733.276 77.2343C725.774 73.9244 717.885 71.1762 709.923 68.8949C654.061 52.8887 594.738 60.1248 536.81 64.7338L554.839 86.6292C570.539 84.9775 586.335 84.2414 602.041 85.8382C623.172 87.9866 654.393 92.7753 678.216 103.286C722.678 122.901 682.428 182.341 644.345 212.528L626.025 227.051C613.411 237.05 600.014 246.02 585.964 253.874L550.346 273.787C489.632 307.73 425.12 334.381 358.152 353.187L327.126 361.9C301.502 369.096 275.712 375.57 249.375 379.406C192.873 387.637 92.6612 396.497 67.0946 361.034C30.9399 310.884 136.026 239.47 136.026 239.47L134.639 211.734L110.524 227.015C92.7103 238.301 74.8799 249.598 58.7367 263.164Z" fill="#E9E4DC"/>
<path d="M86.0059 351.708C109.927 384.888 203.687 376.599 256.552 368.898C281.193 365.308 305.322 359.251 329.297 352.518L358.326 344.366C420.982 326.771 481.341 301.835 538.147 270.078L571.472 251.447C584.617 244.098 597.151 235.705 608.953 226.35L626.094 212.763C661.725 184.519 699.384 128.906 657.785 110.553C630.858 98.6736 597.609 95.9906 581.398 95.4125C574.846 95.1788 568.309 95.5146 561.77 95.9915L577.025 123.162C588.417 125.024 600.904 128.058 612.084 132.99C646.814 148.312 615.374 194.741 585.627 218.321L571.317 229.665C561.464 237.475 550.999 244.482 540.025 250.617L512.203 266.172C464.778 292.685 414.387 313.503 362.077 328.192L337.842 334.998C317.827 340.619 297.682 345.676 277.11 348.673C232.975 355.102 154.698 362.022 134.727 334.321C122.818 317.802 130.026 298.853 142.346 282.46L137.412 249.178C113.413 267.731 59.5073 314.952 86.0059 351.708Z" fill="#E9E4DC"/>
</svg>
