<svg width="1579" height="1660" viewBox="0 0 1579 1660" fill="none" xmlns="http://www.w3.org/2000/svg">
<path d="M762.929 1651.86C762.929 1651.86 746.135 1632.63 721.663 1632.63C721.663 1632.63 720.844 1617.69 704.143 1614.46C687.442 1611.23 684.182 1626.15 684.182 1626.15C684.182 1626.15 671.822 1619.6 655.261 1626.15C638.699 1632.7 642.036 1651.81 642.036 1651.81C642.036 1651.81 594.142 1650.27 586 1659.03H800.966C800.966 1659.03 796.624 1648.29 762.929 1651.86Z" fill="url(#paint0_linear_462_2)"/>
<path d="M1540.93 507.861C1540.93 507.861 1524.14 488.626 1499.66 488.626C1499.66 488.626 1498.84 473.686 1482.14 470.457C1465.44 467.228 1462.18 482.153 1462.18 482.153C1462.18 482.153 1449.82 475.602 1433.26 482.153C1416.7 488.703 1420.04 507.815 1420.04 507.815C1420.04 507.815 1372.14 506.27 1364 515.029H1578.97C1578.97 515.029 1574.62 504.292 1540.93 507.861Z" fill="url(#paint1_linear_462_2)"/>
<path d="M1338.04 1269.86C1338.04 1269.86 1354.83 1250.63 1379.3 1250.63C1379.3 1250.63 1380.12 1235.69 1396.82 1232.46C1413.52 1229.23 1416.78 1244.15 1416.78 1244.15C1416.78 1244.15 1429.14 1237.6 1445.71 1244.15C1462.27 1250.7 1458.93 1269.81 1458.93 1269.81C1458.93 1269.81 1506.82 1268.27 1514.97 1277.03H1300C1300 1277.03 1304.34 1266.29 1338.04 1269.86Z" fill="url(#paint2_linear_462_2)"/>
<path d="M176.929 426.861C176.929 426.861 160.135 407.626 135.663 407.626C135.663 407.626 134.844 392.686 118.143 389.457C101.442 386.228 98.1822 401.153 98.1822 401.153C98.1822 401.153 85.8225 394.602 69.2605 401.153C52.6985 407.703 56.0357 426.815 56.0357 426.815C56.0357 426.815 8.14194 425.27 0 434.029H214.966C214.966 434.029 210.624 423.292 176.929 426.861Z" fill="url(#paint3_linear_462_2)"/>
<path d="M519.037 869.861C519.037 869.861 535.831 850.626 560.303 850.626C560.303 850.626 561.122 835.686 577.823 832.457C594.524 829.228 597.784 844.153 597.784 844.153C597.784 844.153 610.143 837.602 626.705 844.153C643.267 850.703 639.93 869.815 639.93 869.815C639.93 869.815 687.824 868.27 695.966 877.029H481C481 877.029 485.342 866.292 519.037 869.861Z" fill="url(#paint4_linear_462_2)"/>
<path d="M365.116 1254.53H159.525H65L73.2549 1250.02C76.4114 1248.3 79.4254 1246.33 82.2685 1244.13L94.2215 1234.88C106.765 1225.17 123.663 1223.22 138.083 1229.83C140.584 1230.98 143.5 1229.49 144.04 1226.79L144.406 1224.96C145.804 1217.97 148.683 1211.36 152.848 1205.58L158.968 1197.08C164.51 1189.38 173.418 1184.82 182.904 1184.82C192.67 1184.82 201.803 1189.65 207.295 1197.73L218.603 1214.35L222.909 1200.72C224.727 1194.96 228.144 1189.84 232.762 1185.95L235.53 1183.62C243.234 1177.13 253.982 1175.65 263.151 1179.82C270.12 1182.99 275.348 1189.06 277.451 1196.42L285.951 1226.17L292.376 1219.03C295.148 1215.95 298.564 1213.52 302.38 1211.9L309.497 1208.89C319.457 1204.68 330.97 1209.05 335.62 1218.82C337.866 1223.53 338.198 1228.94 336.546 1233.9L333.214 1243.89L335.421 1244.33C345.719 1246.39 355.723 1249.83 365.116 1254.53Z" fill="url(#paint5_linear_462_2)"/>
<path d="M1305.77 61.441H1110.81H1073C1086.23 55.2162 1100.67 51.9886 1115.29 51.9886H1145.08V44.4928C1145.08 41.6417 1145.64 38.8194 1146.75 36.1917C1151.13 25.8026 1162.81 20.5909 1173.46 24.2782L1185.25 28.3574L1187.47 26.0431C1200.09 12.8674 1221.76 15.1784 1231.33 30.7205L1259.21 9.39593C1266.12 4.11619 1275.94 5.12068 1281.63 11.6889C1284.93 15.4991 1286.31 20.6137 1285.35 25.5651L1284.53 29.8632C1282.41 40.8939 1287.76 52.0113 1297.72 57.2234L1305.77 61.441Z" fill="url(#paint6_linear_462_2)"/>
<defs>
<linearGradient id="paint0_linear_462_2" x1="693.483" y1="1614" x2="693.483" y2="1659.03" gradientUnits="userSpaceOnUse">
<stop stop-color="white"/>
<stop offset="1" stop-color="#DFDFDF" stop-opacity="0.2"/>
</linearGradient>
<linearGradient id="paint1_linear_462_2" x1="1471.48" y1="470" x2="1471.48" y2="515.029" gradientUnits="userSpaceOnUse">
<stop stop-color="white"/>
<stop offset="1" stop-color="#DFDFDF" stop-opacity="0.2"/>
</linearGradient>
<linearGradient id="paint2_linear_462_2" x1="1407.48" y1="1232" x2="1407.48" y2="1277.03" gradientUnits="userSpaceOnUse">
<stop stop-color="white"/>
<stop offset="1" stop-color="#DFDFDF" stop-opacity="0.2"/>
</linearGradient>
<linearGradient id="paint3_linear_462_2" x1="107.483" y1="389" x2="107.483" y2="434.029" gradientUnits="userSpaceOnUse">
<stop stop-color="white"/>
<stop offset="1" stop-color="#DFDFDF" stop-opacity="0.2"/>
</linearGradient>
<linearGradient id="paint4_linear_462_2" x1="588.483" y1="832" x2="588.483" y2="877.029" gradientUnits="userSpaceOnUse">
<stop stop-color="white"/>
<stop offset="1" stop-color="#DFDFDF" stop-opacity="0.2"/>
</linearGradient>
<linearGradient id="paint5_linear_462_2" x1="215.058" y1="1173" x2="215.058" y2="1254.53" gradientUnits="userSpaceOnUse">
<stop stop-color="white"/>
<stop offset="1" stop-color="#DFDFDF" stop-opacity="0.2"/>
</linearGradient>
<linearGradient id="paint6_linear_462_2" x1="1189.38" y1="0" x2="1189.38" y2="61.441" gradientUnits="userSpaceOnUse">
<stop stop-color="white"/>
<stop offset="1" stop-color="#DFDFDF" stop-opacity="0.2"/>
</linearGradient>
</defs>
</svg>
