<svg width="1675" height="2264" viewBox="0 0 1675 2264" fill="none" xmlns="http://www.w3.org/2000/svg">
<path d="M1641.42 2219.28C1647.58 2219.28 1652.56 2224.27 1652.56 2230.42C1652.56 2236.58 1647.58 2241.56 1641.42 2241.56C1635.27 2241.56 1630.28 2236.58 1630.28 2230.42C1630.28 2224.27 1635.27 2219.28 1641.42 2219.28Z" fill="white"/>
<path d="M1618.37 2230.71V2230.14C1618.37 2217.25 1628.82 2206.8 1641.71 2206.8C1654.6 2206.8 1665.05 2217.25 1665.05 2230.14V2230.71C1665.05 2243.6 1654.6 2254.05 1641.71 2254.05C1628.82 2254.05 1618.37 2243.6 1618.37 2230.71Z" fill="white" fill-opacity="0.03"/>
<path d="M1641.42 2197C1659.89 2197 1674.85 2211.96 1674.85 2230.42C1674.85 2248.89 1659.89 2263.85 1641.42 2263.85C1622.96 2263.85 1608 2248.89 1608 2230.42C1608 2211.96 1622.96 2197 1641.42 2197Z" fill="white" fill-opacity="0.03"/>
<path d="M339.422 1835.28C345.575 1835.28 350.564 1840.27 350.564 1846.42C350.564 1852.58 345.575 1857.56 339.422 1857.56C333.269 1857.56 328.28 1852.58 328.28 1846.42C328.28 1840.27 333.269 1835.28 339.422 1835.28Z" fill="white"/>
<path d="M316.371 1846.71V1846.14C316.371 1833.25 326.821 1822.8 339.711 1822.8C352.601 1822.8 363.051 1833.25 363.051 1846.14V1846.71C363.051 1859.6 352.601 1870.05 339.711 1870.05C326.821 1870.05 316.371 1859.6 316.371 1846.71Z" fill="white" fill-opacity="0.03"/>
<path d="M339.425 1813C357.885 1813 372.85 1827.96 372.85 1846.42C372.85 1864.89 357.885 1879.85 339.425 1879.85C320.965 1879.85 306 1864.89 306 1846.42C306 1827.96 320.965 1813 339.425 1813Z" fill="white" fill-opacity="0.03"/>
<path d="M1492.42 1692.28C1498.58 1692.28 1503.56 1697.27 1503.56 1703.42C1503.56 1709.58 1498.58 1714.56 1492.42 1714.56C1486.27 1714.56 1481.28 1709.58 1481.28 1703.42C1481.28 1697.27 1486.27 1692.28 1492.42 1692.28Z" fill="white"/>
<path d="M1469.37 1703.71V1703.14C1469.37 1690.25 1479.82 1679.8 1492.71 1679.8C1505.6 1679.8 1516.05 1690.25 1516.05 1703.14V1703.71C1516.05 1716.6 1505.6 1727.05 1492.71 1727.05C1479.82 1727.05 1469.37 1716.6 1469.37 1703.71Z" fill="white" fill-opacity="0.03"/>
<path d="M1492.42 1670C1510.89 1670 1525.85 1684.96 1525.85 1703.42C1525.85 1721.89 1510.89 1736.85 1492.42 1736.85C1473.96 1736.85 1459 1721.89 1459 1703.42C1459 1684.96 1473.96 1670 1492.42 1670Z" fill="white" fill-opacity="0.03"/>
<path d="M1413.42 1259.28C1419.58 1259.28 1424.56 1264.27 1424.56 1270.42C1424.56 1276.58 1419.58 1281.56 1413.42 1281.56C1407.27 1281.56 1402.28 1276.58 1402.28 1270.42C1402.28 1264.27 1407.27 1259.28 1413.42 1259.28Z" fill="white"/>
<path d="M1390.37 1270.71V1270.14C1390.37 1257.25 1400.82 1246.8 1413.71 1246.8C1426.6 1246.8 1437.05 1257.25 1437.05 1270.14V1270.71C1437.05 1283.6 1426.6 1294.05 1413.71 1294.05C1400.82 1294.05 1390.37 1283.6 1390.37 1270.71Z" fill="white" fill-opacity="0.03"/>
<path d="M1413.42 1237C1431.89 1237 1446.85 1251.96 1446.85 1270.42C1446.85 1288.89 1431.89 1303.85 1413.42 1303.85C1394.96 1303.85 1380 1288.89 1380 1270.42C1380 1251.96 1394.96 1237 1413.42 1237Z" fill="white" fill-opacity="0.03"/>
<path d="M990.422 1418.28C996.575 1418.28 1001.56 1423.27 1001.56 1429.42C1001.56 1435.58 996.575 1440.56 990.422 1440.56C984.269 1440.56 979.28 1435.58 979.28 1429.42C979.28 1423.27 984.269 1418.28 990.422 1418.28Z" fill="white"/>
<path d="M967.371 1429.71V1429.14C967.371 1416.25 977.821 1405.8 990.711 1405.8C1003.6 1405.8 1014.05 1416.25 1014.05 1429.14V1429.71C1014.05 1442.6 1003.6 1453.05 990.711 1453.05C977.821 1453.05 967.371 1442.6 967.371 1429.71Z" fill="white" fill-opacity="0.03"/>
<path d="M990.425 1396C1008.89 1396 1023.85 1410.96 1023.85 1429.42C1023.85 1447.89 1008.89 1462.85 990.425 1462.85C971.965 1462.85 957 1447.89 957 1429.42C957 1410.96 971.965 1396 990.425 1396Z" fill="white" fill-opacity="0.03"/>
<path d="M396.422 958.281C402.575 958.281 407.564 963.27 407.564 969.423C407.564 975.576 402.575 980.565 396.422 980.565C390.269 980.565 385.28 975.576 385.28 969.423C385.28 963.27 390.269 958.281 396.422 958.281Z" fill="white"/>
<path d="M373.371 969.713V969.137C373.371 956.246 383.821 945.797 396.711 945.797C409.601 945.797 420.051 956.246 420.051 969.137V969.713C420.051 982.603 409.601 993.053 396.711 993.053C383.821 993.053 373.371 982.603 373.371 969.713Z" fill="white" fill-opacity="0.03"/>
<path d="M396.425 936C414.885 936 429.85 950.965 429.85 969.425C429.85 987.885 414.885 1002.85 396.425 1002.85C377.965 1002.85 363 987.885 363 969.425C363 950.965 377.965 936 396.425 936Z" fill="white" fill-opacity="0.03"/>
<path d="M1235.42 456.281C1241.58 456.281 1246.56 461.27 1246.56 467.423C1246.56 473.576 1241.58 478.565 1235.42 478.565C1229.27 478.565 1224.28 473.576 1224.28 467.423C1224.28 461.27 1229.27 456.281 1235.42 456.281Z" fill="white"/>
<path d="M1212.37 467.713V467.137C1212.37 454.246 1222.82 443.797 1235.71 443.797C1248.6 443.797 1259.05 454.246 1259.05 467.137V467.713C1259.05 480.603 1248.6 491.053 1235.71 491.053C1222.82 491.053 1212.37 480.603 1212.37 467.713Z" fill="white" fill-opacity="0.03"/>
<path d="M1235.42 434C1253.89 434 1268.85 448.965 1268.85 467.425C1268.85 485.885 1253.89 500.85 1235.42 500.85C1216.96 500.85 1202 485.885 1202 467.425C1202 448.965 1216.96 434 1235.42 434Z" fill="white" fill-opacity="0.03"/>
<path d="M786.422 686.281C792.575 686.281 797.564 691.27 797.564 697.423C797.564 703.576 792.575 708.565 786.422 708.565C780.269 708.565 775.28 703.576 775.28 697.423C775.28 691.27 780.269 686.281 786.422 686.281Z" fill="white"/>
<path d="M763.371 697.713V697.137C763.371 684.246 773.821 673.797 786.711 673.797C799.601 673.797 810.051 684.246 810.051 697.137V697.713C810.051 710.603 799.601 721.053 786.711 721.053C773.821 721.053 763.371 710.603 763.371 697.713Z" fill="white" fill-opacity="0.03"/>
<path d="M786.425 664C804.885 664 819.85 678.965 819.85 697.425C819.85 715.885 804.885 730.85 786.425 730.85C767.965 730.85 753 715.885 753 697.425C753 678.965 767.965 664 786.425 664Z" fill="white" fill-opacity="0.03"/>
<path d="M339.422 189.281C345.575 189.281 350.564 194.27 350.564 200.423C350.564 206.576 345.575 211.565 339.422 211.565C333.269 211.565 328.28 206.576 328.28 200.423C328.28 194.27 333.269 189.281 339.422 189.281Z" fill="white"/>
<path d="M316.371 200.713V200.137C316.371 187.246 326.821 176.797 339.711 176.797C352.601 176.797 363.051 187.246 363.051 200.137V200.713C363.051 213.603 352.601 224.053 339.711 224.053C326.821 224.053 316.371 213.603 316.371 200.713Z" fill="white" fill-opacity="0.03"/>
<path d="M339.425 167C357.885 167 372.85 181.965 372.85 200.425C372.85 218.885 357.885 233.85 339.425 233.85C320.965 233.85 306 218.885 306 200.425C306 181.965 320.965 167 339.425 167Z" fill="white" fill-opacity="0.03"/>
<path d="M896.422 89.2812C902.575 89.2812 907.564 94.2695 907.564 100.423C907.564 106.576 902.575 111.565 896.422 111.565C890.269 111.565 885.28 106.576 885.28 100.423C885.28 94.2695 890.269 89.2812 896.422 89.2812Z" fill="white"/>
<path d="M873.371 100.713V100.137C873.371 87.2465 883.821 76.7969 896.711 76.7969C909.601 76.7969 920.051 87.2465 920.051 100.137V100.713C920.051 113.603 909.601 124.053 896.711 124.053C883.821 124.053 873.371 113.603 873.371 100.713Z" fill="white" fill-opacity="0.03"/>
<path d="M896.425 67C914.885 67 929.85 81.9649 929.85 100.425C929.85 118.885 914.885 133.85 896.425 133.85C877.965 133.85 863 118.885 863 100.425C863 81.9649 877.965 67 896.425 67Z" fill="white" fill-opacity="0.03"/>
<path d="M214.422 676.281C220.575 676.281 225.564 681.27 225.564 687.423C225.564 693.576 220.575 698.565 214.422 698.565C208.269 698.565 203.28 693.576 203.28 687.423C203.28 681.27 208.269 676.281 214.422 676.281Z" fill="white"/>
<path d="M191.371 687.713V687.137C191.371 674.246 201.821 663.797 214.711 663.797C227.601 663.797 238.051 674.246 238.051 687.137V687.713C238.051 700.603 227.601 711.053 214.711 711.053C201.821 711.053 191.371 700.603 191.371 687.713Z" fill="white" fill-opacity="0.03"/>
<path d="M214.425 654C232.885 654 247.85 668.965 247.85 687.425C247.85 705.885 232.885 720.85 214.425 720.85C195.965 720.85 181 705.885 181 687.425C181 668.965 195.965 654 214.425 654Z" fill="white" fill-opacity="0.03"/>
<path d="M1608.42 22.2812C1614.58 22.2812 1619.56 27.2695 1619.56 33.4229C1619.56 39.5763 1614.58 44.5646 1608.42 44.5646C1602.27 44.5646 1597.28 39.5763 1597.28 33.4229C1597.28 27.2695 1602.27 22.2812 1608.42 22.2812Z" fill="white"/>
<path d="M1585.37 33.713V33.1367C1585.37 20.2465 1595.82 9.79688 1608.71 9.79688C1621.6 9.79688 1632.05 20.2465 1632.05 33.1367V33.713C1632.05 46.6032 1621.6 57.0529 1608.71 57.0529C1595.82 57.0529 1585.37 46.6032 1585.37 33.713Z" fill="white" fill-opacity="0.03"/>
<path d="M1608.42 0C1626.89 0 1641.85 14.9649 1641.85 33.425C1641.85 51.8851 1626.89 66.8499 1608.42 66.8499C1589.96 66.8499 1575 51.8851 1575 33.425C1575 14.9649 1589.96 0 1608.42 0Z" fill="white" fill-opacity="0.03"/>
<path d="M33.4219 1384.28C39.5753 1384.28 44.5636 1389.27 44.5636 1395.42C44.5636 1401.58 39.5753 1406.56 33.4219 1406.56C27.2686 1406.56 22.2803 1401.58 22.2803 1395.42C22.2803 1389.27 27.2686 1384.28 33.4219 1384.28Z" fill="white"/>
<path d="M10.3711 1395.71V1395.14C10.3711 1382.25 20.8207 1371.8 33.7109 1371.8C46.6012 1371.8 57.0508 1382.25 57.0508 1395.14V1395.71C57.0508 1408.6 46.6012 1419.05 33.7109 1419.05C20.8207 1419.05 10.3711 1408.6 10.3711 1395.71Z" fill="white" fill-opacity="0.03"/>
<path d="M33.425 1362C51.8851 1362 66.8499 1376.96 66.8499 1395.42C66.8499 1413.89 51.8851 1428.85 33.425 1428.85C14.9649 1428.85 0 1413.89 0 1395.42C0 1376.96 14.9649 1362 33.425 1362Z" fill="white" fill-opacity="0.03"/>
<path d="M953.422 2071.28C959.575 2071.28 964.564 2076.27 964.564 2082.42C964.564 2088.58 959.575 2093.56 953.422 2093.56C947.269 2093.56 942.28 2088.58 942.28 2082.42C942.28 2076.27 947.269 2071.28 953.422 2071.28Z" fill="white"/>
<path d="M930.371 2082.71V2082.14C930.371 2069.25 940.821 2058.8 953.711 2058.8C966.601 2058.8 977.051 2069.25 977.051 2082.14V2082.71C977.051 2095.6 966.601 2106.05 953.711 2106.05C940.821 2106.05 930.371 2095.6 930.371 2082.71Z" fill="white" fill-opacity="0.03"/>
<path d="M953.425 2049C971.885 2049 986.85 2063.96 986.85 2082.42C986.85 2100.89 971.885 2115.85 953.425 2115.85C934.965 2115.85 920 2100.89 920 2082.42C920 2063.96 934.965 2049 953.425 2049Z" fill="white" fill-opacity="0.03"/>
</svg>
