<svg width="892" height="892" viewBox="0 0 892 892" fill="none" xmlns="http://www.w3.org/2000/svg">
<path d="M0 445.911C0 692.182 199.641 891.823 445.911 891.823C692.182 891.823 891.823 692.182 891.823 445.911C891.823 199.641 692.182 0 445.911 0C199.641 0 0 199.641 0 445.911Z" fill="url(#paint0_radial_485_8)" fill-opacity="0.1"/>
<path d="M258.061 442.227C258.061 548.769 344.43 635.138 450.971 635.138C557.513 635.138 643.882 548.769 643.882 442.227C643.882 335.686 557.513 249.317 450.971 249.317C344.43 249.317 258.061 335.686 258.061 442.227Z" fill="#FFC90D"/>
<path d="M391.028 316.15H322.131H302L273 367.134H346.245C353.094 367.134 358.647 361.582 358.647 354.732C358.647 347.883 364.199 342.331 371.048 342.331H391.028C398.258 342.331 404.118 336.47 404.118 329.241C404.118 322.011 398.258 316.15 391.028 316.15Z" fill="#E1960C"/>
<path d="M319.036 398.823H262C256.488 417.196 259 454.629 259 457.385C259 460.141 262.988 487.929 268.5 501.479H298.023H333.16C340.39 501.479 346.25 495.618 346.25 488.389C346.25 481.159 340.39 475.298 333.16 475.298H329.715H310.424C303.575 475.298 298.023 469.746 298.023 462.897C298.023 456.048 303.575 450.496 310.424 450.496H329.715H360.719C369.09 450.496 375.876 443.71 375.876 435.338C375.876 426.967 369.09 420.181 360.719 420.181H340.394C334.496 420.181 329.715 415.4 329.715 409.502C329.715 403.604 324.934 398.823 319.036 398.823Z" fill="#E1960C"/>
<path d="M375.548 535.243H279.868L301.5 562.112H375.531C382.951 562.112 388.966 556.097 388.966 548.678C388.966 541.258 382.968 535.243 375.548 535.243Z" fill="#E1960C"/>
<path d="M451.314 588.292H324L355.5 608.272H451.314C456.831 608.272 461.304 603.799 461.304 598.282C461.304 592.765 456.831 588.292 451.314 588.292Z" fill="#E1960C"/>
<path d="M483.662 347.153H618.5L640 407.782H466.07H384.971C375.763 407.782 368.298 400.318 368.298 391.109C368.298 381.901 375.763 374.436 384.971 374.436H456.379C463.913 374.436 470.02 368.329 470.02 360.795C470.02 353.261 476.128 347.153 483.662 347.153Z" fill="#E1960C"/>
<path d="M510.218 289.28H569L594 316.838H510.218C502.608 316.838 496.439 310.669 496.439 303.059C496.439 295.449 502.608 289.28 510.218 289.28Z" fill="#E1960C"/>
<path d="M485.632 428.453H643.5L631.475 510.69L608 553.844H470.575H425.913C416.919 553.844 409.628 546.554 409.628 537.56C409.628 528.566 416.919 521.275 425.913 521.275H502.636C513.204 521.275 521.771 512.708 521.771 502.141C521.771 491.573 513.204 483.006 502.636 483.006H425.099C416.555 483.006 409.628 476.08 409.628 467.536C409.628 458.992 416.555 452.065 425.099 452.065H462.02C468.54 452.065 473.826 446.779 473.826 440.259C473.826 433.739 479.112 428.453 485.632 428.453Z" fill="#E1960C"/>
<path d="M583.787 375.801L564.652 285.147L579.595 299.512C626.673 344.769 647.735 411.422 635.9 475.644C626.454 526.903 596.365 572.686 552.805 601.308C488.922 643.283 406.17 643.144 342.428 600.955L328.5 591.737H408.672C449.006 591.737 488.158 578.112 519.779 553.072C573.02 510.912 597.812 442.25 583.787 375.801Z" fill="#99571A" fill-opacity="0.5"/>
<path d="M256.686 442.227C256.686 548.769 343.054 635.138 449.596 635.138C556.137 635.138 642.506 548.769 642.506 442.227C642.506 335.686 556.137 249.317 449.596 249.317C343.054 249.317 256.686 335.686 256.686 442.227Z" stroke="#3E2931" stroke-width="7.74983"/>
<defs>
<radialGradient id="paint0_radial_485_8" cx="0" cy="0" r="1" gradientUnits="userSpaceOnUse" gradientTransform="translate(445.912 445.912) rotate(90) scale(464.006)">
<stop offset="0.370896" stop-color="#FFB800"/>
<stop offset="1" stop-color="#F84006" stop-opacity="0"/>
</radialGradient>
</defs>
</svg>
