<svg width="194" height="196" viewBox="0 0 194 196" fill="none" xmlns="http://www.w3.org/2000/svg">
<path d="M189.3 96.0003C189.3 147.846 147.271 189.876 95.4245 189.876C43.5784 189.876 1.54877 147.846 1.54877 96.0003C1.54877 44.1541 43.5784 2.12451 95.4245 2.12451C147.271 2.12451 189.3 44.1541 189.3 96.0003Z" fill="#CB905A"/>
<path d="M25.9366 91.522H2L5.67334 124.897H47.3919C52 124.897 55.7356 121.161 55.7356 116.553C55.7356 111.945 52 108.209 47.3919 108.209H42.6241C38.016 108.209 34.2804 104.474 34.2804 99.8657C34.2804 95.2576 30.5447 91.522 25.9366 91.522Z" fill="#AD7D50"/>
<path d="M75.9979 27.7515H33.6833L16.3999 45.6308H75.9979C80.9351 45.6308 84.9376 41.6284 84.9376 36.6912C84.9376 31.7539 80.9351 27.7515 75.9979 27.7515Z" fill="#AD7D50"/>
<path d="M127.849 20.0039H154L182.679 56.9546H146.325C143.033 56.9546 140.365 54.2863 140.365 50.9948C140.365 47.7033 137.696 45.035 134.405 45.035H111.162C107.541 45.035 104.606 42.0999 104.606 38.4793C104.606 34.8586 107.541 31.9235 111.162 31.9235H115.93C119.221 31.9235 121.889 29.2552 121.889 25.9637C121.889 22.6722 124.558 20.0039 127.849 20.0039Z" fill="#AD7D50"/>
<path d="M117.42 62.9143H9.84581L3.29004 79.0058H117.42C121.864 79.0058 125.466 75.4036 125.466 70.96C125.466 66.5165 121.864 62.9143 117.42 62.9143Z" fill="#AD7D50"/>
<path d="M96.2604 113.573H189.5L190.5 85.5618H128.741C124.627 85.5618 121.292 88.8971 121.292 93.0115C121.292 97.1259 117.956 100.461 113.842 100.461H96.2604C92.6397 100.461 89.7046 103.396 89.7046 107.017C89.7046 110.638 92.6397 113.573 96.2604 113.573Z" fill="#AD7D50"/>
<path d="M150.799 127.281H185L178.512 142.18H150.799C146.685 142.18 143.35 138.845 143.35 134.73C143.35 130.616 146.685 127.281 150.799 127.281Z" fill="#AD7D50"/>
<path d="M53.0515 144.563H16L45.5 177L91.4921 189.857V180.62C91.4921 176.176 87.89 172.574 83.4464 172.574H82.5525C78.6027 172.574 75.4007 169.372 75.4007 165.422C75.4007 161.472 72.1988 158.271 68.249 158.271H66.759C62.9738 158.271 59.9052 155.202 59.9052 151.417C59.9052 147.632 56.8367 144.563 53.0515 144.563Z" fill="#AD7D50"/>
<path d="M123.678 173.171H149.5L165.993 157.676H142.452C137.35 157.676 133.214 153.54 133.214 148.438C133.214 143.336 129.078 139.2 123.976 139.2H103.117C98.0152 139.2 93.8794 143.336 93.8794 148.438C93.8794 153.54 98.0152 157.676 103.117 157.676H108.183C112.462 157.676 115.931 161.145 115.931 165.424C115.931 169.702 119.399 173.171 123.678 173.171Z" fill="#AD7D50"/>
<path d="M160.122 63.6747L150.811 19.5598L162.331 30.9782C173.263 41.8135 181.25 55.2583 185.537 70.0411C190.719 87.9116 190.266 106.945 184.24 124.549L182.783 128.806C177.369 144.621 167.645 158.608 154.708 169.193C142.454 179.219 127.766 185.824 112.134 188.339L102.72 189.853C78.7011 193.716 54.2819 185.877 37 168.755H74.9059C94.5339 168.755 113.586 162.125 128.974 149.94C154.883 129.423 166.947 96.0105 160.122 63.6747Z" fill="#595756" fill-opacity="0.5"/>
<path d="M189.971 96.0003C189.971 147.846 147.941 189.876 96.0949 189.876C44.2488 189.876 2.21916 147.846 2.21916 96.0003C2.21916 44.1541 44.2488 2.12451 96.0949 2.12451C147.941 2.12451 189.971 44.1541 189.971 96.0003Z" stroke="#705A3A" stroke-width="3.77129"/>
</svg>
