<svg width="1920" height="759" viewBox="0 0 1920 759" fill="none" xmlns="http://www.w3.org/2000/svg">
<path d="M114.267 569.421L78.0896 588.565C54.0295 601.297 27.2212 607.953 0 607.953C0 582.274 8.80754 557.372 24.9525 537.403L33.3707 526.991C55.1372 500.069 85.5425 481.501 119.434 474.434L188.068 460.121C231.044 451.16 275.331 450.443 318.574 458.011L444.419 480.034C550.657 498.625 659.742 492.614 763.294 462.463L796.853 452.691C868.995 431.685 944.028 422.337 1019.12 425.001L1303.52 435.091L1420.68 428.649C1512.78 423.585 1602.99 400.514 1686.2 360.742L1920 249V758.766L1440.92 709.36C1384.22 703.513 1328.43 690.816 1274.79 671.548L1073.24 599.155C976.002 564.228 870.029 561.938 771.372 592.632L764.854 594.66C662.189 626.6 551.545 621.284 452.415 579.65L397.957 556.777C306.276 518.271 202.159 522.912 114.267 569.421Z" fill="url(#paint0_linear_464_2)"/>
<path d="M419.807 459.12L146.388 449.802C112.222 448.638 79.5554 435.491 54.1084 412.663C35.3571 395.842 21.2901 374.445 13.2816 350.562L0 310.953V271.265C-4.58542 153.02 122.366 75.6258 225.374 133.869L230.002 136.485C245.301 145.136 261.966 151.105 279.278 154.134L444.419 183.034C550.657 201.625 659.742 195.614 763.294 165.463L905.76 123.98L1161.39 56.4677C1246.38 34.0203 1334.82 27.654 1422.15 37.6966L1495.24 46.1014C1586.53 56.5993 1674.9 84.8297 1755.36 129.207L1920 220V461.766L1405.86 408.746C1372.37 405.291 1338.66 404.239 1305.02 405.598L886.5 422.5L419.807 459.12Z" fill="url(#paint1_linear_464_2)"/>
<defs>
<linearGradient id="paint0_linear_464_2" x1="960" y1="249" x2="960" y2="564" gradientUnits="userSpaceOnUse">
<stop stop-color="#0E3356"/>
<stop offset="1" stop-color="#062E54"/>
</linearGradient>
<linearGradient id="paint1_linear_464_2" x1="960" y1="-48" x2="960" y2="267" gradientUnits="userSpaceOnUse">
<stop stop-color="#0E3356"/>
<stop offset="1" stop-color="#062E54" stop-opacity="0"/>
</linearGradient>
</defs>
</svg>
