<svg width="52" height="30" viewBox="0 0 52 30" fill="none" xmlns="http://www.w3.org/2000/svg">
<path d="M23.0083 6.25029H7.24672H0L0.632863 5.90509C0.874851 5.7731 1.10592 5.62201 1.32388 5.45327L2.24026 4.74382C3.20189 3.99933 4.49735 3.85032 5.6029 4.35703C5.79466 4.44492 6.01821 4.33085 6.05958 4.12401L6.08765 3.98366C6.19483 3.44773 6.41552 2.94095 6.73487 2.49741L7.204 1.84584C7.62895 1.25563 8.31183 0.90584 9.0391 0.90584C9.78782 0.90584 10.488 1.27644 10.909 1.89558L11.7759 3.17044L12.106 2.12502C12.2454 1.68368 12.5074 1.29105 12.8614 0.992931L13.0737 0.814178C13.6643 0.316827 14.4883 0.203535 15.1912 0.523041C15.7255 0.765898 16.1263 1.23101 16.2875 1.79532L16.9392 4.07628L17.4318 3.52899C17.6443 3.29284 17.9061 3.10627 18.1987 2.98248L18.7443 2.75165C19.5079 2.42859 20.3905 2.7639 20.747 3.5125C20.9193 3.87422 20.9447 4.28859 20.818 4.66867L20.5626 5.43504L20.7318 5.46888C21.5213 5.62678 22.2882 5.89023 23.0083 6.25029Z" fill="url(#paint0_linear_299_388)"/>
<path d="M43.3247 28.2011C43.3247 28.2011 39.687 24.0346 34.3861 24.0346C34.3861 24.0346 34.2087 20.7985 30.5911 20.0991C26.9734 19.3997 26.2673 22.6324 26.2673 22.6324C26.2673 22.6324 23.5901 21.2135 20.0026 22.6324C16.4151 24.0514 17.1379 28.191 17.1379 28.191C17.1379 28.191 6.76363 27.8564 5 29.7539H51.5639C51.5639 29.7539 50.6235 27.428 43.3247 28.2011Z" fill="url(#paint1_linear_299_388)"/>
<path d="M26.7003 14.6786C26.7003 14.6786 28.7756 12.3017 31.7997 12.3017C31.7997 12.3017 31.9008 10.4555 33.9646 10.0565C36.0284 9.65751 36.4313 11.5017 36.4313 11.5017C36.4313 11.5017 37.9586 10.6923 40.0052 11.5017C42.0518 12.3112 41.6394 14.6728 41.6394 14.6728C41.6394 14.6728 47.5578 14.4819 48.5639 15.5644H22C22 15.5644 22.5365 14.2376 26.7003 14.6786Z" fill="url(#paint2_linear_299_388)"/>
<defs>
<linearGradient id="paint0_linear_299_388" x1="11.5042" y1="0" x2="11.5042" y2="6.25029" gradientUnits="userSpaceOnUse">
<stop stop-color="white"/>
<stop offset="1" stop-color="#DFDFDF" stop-opacity="0.2"/>
</linearGradient>
<linearGradient id="paint1_linear_299_388" x1="28.2819" y1="20" x2="28.2819" y2="29.7539" gradientUnits="userSpaceOnUse">
<stop stop-color="white"/>
<stop offset="1" stop-color="#DFDFDF" stop-opacity="0.2"/>
</linearGradient>
<linearGradient id="paint2_linear_299_388" x1="35.2819" y1="10" x2="35.2819" y2="15.5644" gradientUnits="userSpaceOnUse">
<stop stop-color="white"/>
<stop offset="1" stop-color="#DFDFDF" stop-opacity="0.2"/>
</linearGradient>
</defs>
</svg>
