<svg width="188" height="768" viewBox="0 0 188 768" fill="none" xmlns="http://www.w3.org/2000/svg">
<path d="M149.239 552.201C149.239 552.201 152.877 548.035 158.178 548.035C158.178 548.035 158.355 544.799 161.973 544.099C165.591 543.4 166.297 546.632 166.297 546.632C166.297 546.632 168.974 545.213 172.561 546.632C176.149 548.051 175.426 552.191 175.426 552.191C175.426 552.191 185.8 551.856 187.564 553.754H141C141 553.754 141.94 551.428 149.239 552.201Z" fill="url(#paint0_linear_383_220)"/>
<path d="M149.239 194.201C149.239 194.201 152.877 190.035 158.178 190.035C158.178 190.035 158.355 186.799 161.973 186.099C165.591 185.4 166.297 188.632 166.297 188.632C166.297 188.632 168.974 187.213 172.561 188.632C176.149 190.051 175.426 194.191 175.426 194.191C175.426 194.191 185.8 193.856 187.564 195.754H141C141 195.754 141.94 193.428 149.239 194.201Z" fill="url(#paint1_linear_383_220)"/>
<path d="M38.3247 578.201C38.3247 578.201 34.687 574.035 29.3861 574.035C29.3861 574.035 29.2087 570.799 25.5911 570.099C21.9734 569.4 21.2673 572.632 21.2673 572.632C21.2673 572.632 18.5901 571.213 15.0026 572.632C11.4151 574.051 12.1379 578.191 12.1379 578.191C12.1379 578.191 1.76363 577.856 0 579.754H46.5639C46.5639 579.754 45.6235 577.428 38.3247 578.201Z" fill="url(#paint2_linear_383_220)"/>
<path d="M38.3247 220.201C38.3247 220.201 34.687 216.035 29.3861 216.035C29.3861 216.035 29.2087 212.799 25.5911 212.099C21.9734 211.4 21.2673 214.632 21.2673 214.632C21.2673 214.632 18.5901 213.213 15.0026 214.632C11.4151 216.051 12.1379 220.191 12.1379 220.191C12.1379 220.191 1.76363 219.856 0 221.754H46.5639C46.5639 221.754 45.6235 219.428 38.3247 220.201Z" fill="url(#paint3_linear_383_220)"/>
<path d="M188.008 669.66H143.475H123L124.788 668.684C125.472 668.311 126.125 667.885 126.741 667.408L129.33 665.403C132.047 663.3 135.707 662.879 138.831 664.31C139.372 664.559 140.004 664.236 140.121 663.652L140.2 663.256C140.503 661.741 141.127 660.309 142.029 659.056L143.354 657.215C144.555 655.548 146.484 654.559 148.539 654.559C150.655 654.559 152.633 655.606 153.823 657.356L156.272 660.958L157.205 658.004C157.599 656.757 158.339 655.648 159.339 654.805L159.939 654.3C161.607 652.895 163.936 652.575 165.922 653.478C167.431 654.164 168.564 655.478 169.019 657.073L170.86 663.517L172.252 661.971C172.853 661.304 173.592 660.777 174.419 660.427L175.961 659.775C178.118 658.862 180.612 659.809 181.619 661.924C182.106 662.946 182.178 664.117 181.82 665.191L181.098 667.356L181.576 667.452C183.807 667.898 185.974 668.642 188.008 669.66Z" fill="url(#paint4_linear_383_220)"/>
<path d="M188.008 311.66H143.475H123L124.788 310.684C125.472 310.311 126.125 309.885 126.741 309.408L129.33 307.403C132.047 305.3 135.707 304.879 138.831 306.31C139.372 306.559 140.004 306.236 140.121 305.652L140.2 305.256C140.503 303.741 141.127 302.309 142.029 301.056L143.354 299.215C144.555 297.548 146.484 296.559 148.539 296.559C150.655 296.559 152.633 297.606 153.823 299.356L156.272 302.958L157.205 300.004C157.599 298.757 158.339 297.648 159.339 296.805L159.939 296.3C161.607 294.895 163.936 294.575 165.922 295.478C167.431 296.164 168.564 297.478 169.019 299.073L170.86 305.517L172.252 303.971C172.853 303.304 173.592 302.777 174.419 302.427L175.961 301.775C178.118 300.862 180.612 301.809 181.619 303.924C182.106 304.946 182.178 306.117 181.82 307.191L181.098 309.356L181.576 309.452C183.807 309.898 185.974 310.642 188.008 311.66Z" fill="url(#paint5_linear_383_220)"/>
<path d="M42.3247 678.201C42.3247 678.201 38.687 674.035 33.3861 674.035C33.3861 674.035 33.2087 670.799 29.5911 670.099C25.9734 669.4 25.2673 672.632 25.2673 672.632C25.2673 672.632 22.5901 671.213 19.0026 672.632C15.4151 674.051 16.1379 678.191 16.1379 678.191C16.1379 678.191 5.76363 677.856 4 679.754H50.5639C50.5639 679.754 49.6235 677.428 42.3247 678.201Z" fill="url(#paint6_linear_383_220)"/>
<path d="M42.3247 320.201C42.3247 320.201 38.687 316.035 33.3861 316.035C33.3861 316.035 33.2087 312.799 29.5911 312.099C25.9734 311.4 25.2673 314.632 25.2673 314.632C25.2673 314.632 22.5901 313.213 19.0026 314.632C15.4151 316.051 16.1379 320.191 16.1379 320.191C16.1379 320.191 5.76363 319.856 4 321.754H50.5639C50.5639 321.754 49.6235 319.428 42.3247 320.201Z" fill="url(#paint7_linear_383_220)"/>
<path d="M149.239 716.201C149.239 716.201 152.877 712.035 158.178 712.035C158.178 712.035 158.355 708.799 161.973 708.099C165.591 707.4 166.297 710.632 166.297 710.632C166.297 710.632 168.974 709.213 172.561 710.632C176.149 712.051 175.426 716.191 175.426 716.191C175.426 716.191 185.8 715.856 187.564 717.754H141C141 717.754 141.94 715.428 149.239 716.201Z" fill="url(#paint8_linear_383_220)"/>
<path d="M149.239 358.201C149.239 358.201 152.877 354.035 158.178 354.035C158.178 354.035 158.355 350.799 161.973 350.099C165.591 349.4 166.297 352.632 166.297 352.632C166.297 352.632 168.974 351.213 172.561 352.632C176.149 354.051 175.426 358.191 175.426 358.191C175.426 358.191 185.8 357.856 187.564 359.754H141C141 359.754 141.94 357.428 149.239 358.201Z" fill="url(#paint9_linear_383_220)"/>
<path d="M18 460.66H62.5332H83.0083L81.2202 459.684C80.5365 459.311 79.8836 458.885 79.2678 458.408L76.6786 456.403C73.9616 454.3 70.3014 453.879 67.1777 455.31C66.6359 455.559 66.0043 455.236 65.8874 454.652L65.8081 454.256C65.5053 452.741 64.8817 451.309 63.9794 450.056L62.6539 448.215C61.4533 446.548 59.5238 445.559 57.469 445.559C55.3535 445.559 53.3752 446.606 52.1857 448.356L49.7363 451.958L48.8036 449.004C48.4098 447.757 47.6696 446.648 46.6693 445.805L46.0696 445.3C44.4009 443.895 42.0727 443.575 40.0867 444.478C38.5771 445.164 37.4447 446.478 36.9892 448.073L35.1478 454.517L33.7562 452.971C33.1557 452.304 32.4159 451.777 31.5892 451.427L30.0476 450.775C27.8901 449.862 25.3963 450.809 24.3891 452.924C23.9025 453.946 23.8306 455.117 24.1885 456.191L24.9103 458.356L24.4322 458.452C22.2015 458.898 20.0346 459.642 18 460.66Z" fill="url(#paint10_linear_383_220)"/>
<path d="M18 102.66H62.5332H83.0083L81.2202 101.684C80.5365 101.311 79.8836 100.885 79.2678 100.408L76.6786 98.4033C73.9616 96.2998 70.3014 95.8788 67.1777 97.3105C66.6359 97.5588 66.0043 97.2365 65.8874 96.6521L65.8081 96.2555C65.5053 94.7413 64.8817 93.3094 63.9794 92.0562L62.6539 90.2153C61.4533 88.5477 59.5238 87.5594 57.469 87.5594C55.3535 87.5594 53.3752 88.6065 52.1857 90.3558L49.7363 93.9578L48.8036 91.0041C48.4098 89.7571 47.6696 88.6478 46.6693 87.8055L46.0696 87.3004C44.4009 85.8952 42.0727 85.5751 40.0867 86.4778C38.5771 87.164 37.4447 88.4781 36.9892 90.0725L35.1478 96.5172L33.7562 94.9709C33.1557 94.3037 32.4159 93.7765 31.5892 93.4268L30.0476 92.7746C27.8901 91.8618 25.3963 92.8092 24.3891 94.9243C23.9025 95.9463 23.8306 97.1171 24.1885 98.191L24.9103 100.356L24.4322 100.452C22.2015 100.898 20.0346 101.642 18 102.66Z" fill="url(#paint11_linear_383_220)"/>
<path d="M97.3247 766.201C97.3247 766.201 93.687 762.035 88.3861 762.035C88.3861 762.035 88.2087 758.799 84.5911 758.099C80.9734 757.4 80.2673 760.632 80.2673 760.632C80.2673 760.632 77.5901 759.213 74.0026 760.632C70.4151 762.051 71.1379 766.191 71.1379 766.191C71.1379 766.191 60.7636 765.856 59 767.754H105.564C105.564 767.754 104.624 765.428 97.3247 766.201Z" fill="url(#paint12_linear_383_220)"/>
<path d="M97.3247 408.201C97.3247 408.201 93.687 404.035 88.3861 404.035C88.3861 404.035 88.2087 400.799 84.5911 400.099C80.9734 399.4 80.2673 402.632 80.2673 402.632C80.2673 402.632 77.5901 401.213 74.0026 402.632C70.4151 404.051 71.1379 408.191 71.1379 408.191C71.1379 408.191 60.7636 407.856 59 409.754H105.564C105.564 409.754 104.624 407.428 97.3247 408.201Z" fill="url(#paint13_linear_383_220)"/>
<path d="M156.42 496.309H114.19H106C108.865 494.96 111.993 494.261 115.16 494.261H121.612V492.638C121.612 492.02 121.736 491.409 121.975 490.84C122.923 488.589 125.454 487.46 127.762 488.259L130.314 489.143L130.795 488.641C133.53 485.787 138.224 486.288 140.296 489.654L146.336 485.035C147.832 483.892 149.959 484.109 151.192 485.532C151.907 486.357 152.204 487.465 151.998 488.538L151.819 489.469C151.36 491.858 152.52 494.266 154.676 495.395L156.42 496.309Z" fill="url(#paint14_linear_383_220)"/>
<path d="M156.42 138.309H114.19H106C108.865 136.96 111.993 136.261 115.16 136.261H121.612V134.638C121.612 134.02 121.736 133.409 121.975 132.84C122.923 130.589 125.454 129.46 127.762 130.259L130.314 131.143L130.795 130.641C133.53 127.787 138.224 128.288 140.296 131.654L146.336 127.035C147.832 125.892 149.959 126.109 151.192 127.532C151.907 128.357 152.204 129.465 151.998 130.538L151.819 131.469C151.36 133.858 152.52 136.266 154.676 137.395L156.42 138.309Z" fill="url(#paint15_linear_383_220)"/>
<defs>
<linearGradient id="paint0_linear_383_220" x1="164.282" y1="544" x2="164.282" y2="553.754" gradientUnits="userSpaceOnUse">
<stop stop-color="white"/>
<stop offset="1" stop-color="#DFDFDF" stop-opacity="0.2"/>
</linearGradient>
<linearGradient id="paint1_linear_383_220" x1="164.282" y1="186" x2="164.282" y2="195.754" gradientUnits="userSpaceOnUse">
<stop stop-color="white"/>
<stop offset="1" stop-color="#DFDFDF" stop-opacity="0.2"/>
</linearGradient>
<linearGradient id="paint2_linear_383_220" x1="23.2819" y1="570" x2="23.2819" y2="579.754" gradientUnits="userSpaceOnUse">
<stop stop-color="white"/>
<stop offset="1" stop-color="#DFDFDF" stop-opacity="0.2"/>
</linearGradient>
<linearGradient id="paint3_linear_383_220" x1="23.2819" y1="212" x2="23.2819" y2="221.754" gradientUnits="userSpaceOnUse">
<stop stop-color="white"/>
<stop offset="1" stop-color="#DFDFDF" stop-opacity="0.2"/>
</linearGradient>
<linearGradient id="paint4_linear_383_220" x1="155.504" y1="652" x2="155.504" y2="669.66" gradientUnits="userSpaceOnUse">
<stop stop-color="white"/>
<stop offset="1" stop-color="#DFDFDF" stop-opacity="0.2"/>
</linearGradient>
<linearGradient id="paint5_linear_383_220" x1="155.504" y1="294" x2="155.504" y2="311.66" gradientUnits="userSpaceOnUse">
<stop stop-color="white"/>
<stop offset="1" stop-color="#DFDFDF" stop-opacity="0.2"/>
</linearGradient>
<linearGradient id="paint6_linear_383_220" x1="27.2819" y1="670" x2="27.2819" y2="679.754" gradientUnits="userSpaceOnUse">
<stop stop-color="white"/>
<stop offset="1" stop-color="#DFDFDF" stop-opacity="0.2"/>
</linearGradient>
<linearGradient id="paint7_linear_383_220" x1="27.2819" y1="312" x2="27.2819" y2="321.754" gradientUnits="userSpaceOnUse">
<stop stop-color="white"/>
<stop offset="1" stop-color="#DFDFDF" stop-opacity="0.2"/>
</linearGradient>
<linearGradient id="paint8_linear_383_220" x1="164.282" y1="708" x2="164.282" y2="717.754" gradientUnits="userSpaceOnUse">
<stop stop-color="white"/>
<stop offset="1" stop-color="#DFDFDF" stop-opacity="0.2"/>
</linearGradient>
<linearGradient id="paint9_linear_383_220" x1="164.282" y1="350" x2="164.282" y2="359.754" gradientUnits="userSpaceOnUse">
<stop stop-color="white"/>
<stop offset="1" stop-color="#DFDFDF" stop-opacity="0.2"/>
</linearGradient>
<linearGradient id="paint10_linear_383_220" x1="50.5041" y1="443" x2="50.5041" y2="460.66" gradientUnits="userSpaceOnUse">
<stop stop-color="white"/>
<stop offset="1" stop-color="#DFDFDF" stop-opacity="0.2"/>
</linearGradient>
<linearGradient id="paint11_linear_383_220" x1="50.5041" y1="85" x2="50.5041" y2="102.66" gradientUnits="userSpaceOnUse">
<stop stop-color="white"/>
<stop offset="1" stop-color="#DFDFDF" stop-opacity="0.2"/>
</linearGradient>
<linearGradient id="paint12_linear_383_220" x1="82.2819" y1="758" x2="82.2819" y2="767.754" gradientUnits="userSpaceOnUse">
<stop stop-color="white"/>
<stop offset="1" stop-color="#DFDFDF" stop-opacity="0.2"/>
</linearGradient>
<linearGradient id="paint13_linear_383_220" x1="82.2819" y1="400" x2="82.2819" y2="409.754" gradientUnits="userSpaceOnUse">
<stop stop-color="white"/>
<stop offset="1" stop-color="#DFDFDF" stop-opacity="0.2"/>
</linearGradient>
<linearGradient id="paint14_linear_383_220" x1="131.21" y1="483" x2="131.21" y2="496.309" gradientUnits="userSpaceOnUse">
<stop stop-color="white"/>
<stop offset="1" stop-color="#DFDFDF" stop-opacity="0.2"/>
</linearGradient>
<linearGradient id="paint15_linear_383_220" x1="131.21" y1="125" x2="131.21" y2="138.309" gradientUnits="userSpaceOnUse">
<stop stop-color="white"/>
<stop offset="1" stop-color="#DFDFDF" stop-opacity="0.2"/>
</linearGradient>
</defs>
</svg>
