<svg width="18" height="18" viewBox="0 0 18 18" fill="none" xmlns="http://www.w3.org/2000/svg">
<g clip-path="url(#clip0_180_2359)">
<path d="M0.5625 11.1377C0.711684 11.1377 0.854758 11.197 0.960248 11.3024C1.06574 11.4079 1.125 11.551 1.125 11.7002V14.5127C1.125 14.8111 1.24353 15.0972 1.4545 15.3082C1.66548 15.5192 1.95163 15.6377 2.25 15.6377H15.75C16.0484 15.6377 16.3345 15.5192 16.5455 15.3082C16.7565 15.0972 16.875 14.8111 16.875 14.5127V11.7002C16.875 11.551 16.9343 11.4079 17.0398 11.3024C17.1452 11.197 17.2883 11.1377 17.4375 11.1377C17.5867 11.1377 17.7298 11.197 17.8352 11.3024C17.9407 11.4079 18 11.551 18 11.7002V14.5127C18 15.1094 17.7629 15.6817 17.341 16.1037C16.919 16.5256 16.3467 16.7627 15.75 16.7627H2.25C1.65326 16.7627 1.08097 16.5256 0.65901 16.1037C0.237053 15.6817 0 15.1094 0 14.5127V11.7002C0 11.551 0.0592632 11.4079 0.164752 11.3024C0.270242 11.197 0.413316 11.1377 0.5625 11.1377Z" fill="#989898"/>
<path d="M8.53996 13.7108C8.59221 13.7631 8.65428 13.8047 8.72262 13.8331C8.79096 13.8614 8.86422 13.876 8.93821 13.876C9.0122 13.876 9.08546 13.8614 9.1538 13.8331C9.22214 13.8047 9.28421 13.7631 9.33646 13.7108L12.7115 10.3358C12.8171 10.2301 12.8764 10.0869 12.8764 9.9375C12.8764 9.78813 12.8171 9.64487 12.7115 9.53925C12.6058 9.43363 12.4626 9.37429 12.3132 9.37429C12.1638 9.37429 12.0206 9.43363 11.915 9.53925L9.50071 11.9546V2.0625C9.50071 1.91332 9.44145 1.77024 9.33596 1.66475C9.23047 1.55926 9.0874 1.5 8.93821 1.5C8.78903 1.5 8.64595 1.55926 8.54046 1.66475C8.43497 1.77024 8.37571 1.91332 8.37571 2.0625V11.9546L5.96146 9.53925C5.85584 9.43363 5.71258 9.37429 5.56321 9.37429C5.41384 9.37429 5.27058 9.43363 5.16496 9.53925C5.05934 9.64487 5 9.78813 5 9.9375C5 10.0869 5.05934 10.2301 5.16496 10.3358L8.53996 13.7108Z" fill="#989898"/>
</g>
<defs>
<clipPath id="clip0_180_2359">
<rect width="18" height="18" fill="white"/>
</clipPath>
</defs>
</svg>
