<svg width="171" height="170" viewBox="0 0 171 170" fill="none" xmlns="http://www.w3.org/2000/svg">
<g clip-path="url(#clip0_334_241)">
<rect x="0.5" width="170" height="170" rx="85" fill="#12344F"/>
<path d="M70.9147 112.915H75.149C78.6135 112.915 81.4221 115.723 81.4221 119.188V122.952C81.4221 124.337 82.5455 125.461 83.9313 125.461C85.3171 125.461 86.4405 126.584 86.4405 127.97V136.125C86.4405 139.936 89.5299 143.025 93.3409 143.025H95.4862C98.1124 143.025 100.241 140.897 100.241 138.27V135.985C100.241 134.383 101.628 133.135 103.221 133.302C104.814 133.47 106.201 132.221 106.201 130.62V122.021C106.201 119.194 108.398 116.855 111.219 116.679L111.689 116.649C114.246 116.489 116.238 114.369 116.238 111.807C116.238 109.128 114.065 106.955 111.386 106.955H108.396C105.105 106.955 102.437 104.287 102.437 100.996C102.437 97.7047 99.7687 95.0366 96.4774 95.0366H87.852C86.2063 95.0366 84.8723 93.7025 84.8723 92.0569C84.8723 90.4112 83.5382 89.0771 81.8926 89.0771H70.2874C68.6417 89.0771 67.3077 90.4112 67.3077 92.0569V92.3705C67.3077 93.8429 66.1141 95.0366 64.6416 95.0366C63.1692 95.0366 61.9756 96.2302 61.9756 97.7026V103.976C61.9756 108.913 65.9778 112.915 70.9147 112.915Z" fill="url(#paint0_linear_334_241)" stroke="#2E2E2E" stroke-width="0.627306"/>
<path d="M116.865 129.538V125.931C116.865 124.805 115.952 123.893 114.826 123.893H114.669C113.63 123.893 112.787 124.735 112.787 125.774C112.787 126.814 111.945 127.656 110.906 127.656H110.749C109.623 127.656 108.71 128.569 108.71 129.695V135.811C108.71 137.197 109.833 138.321 111.219 138.321C112.605 138.321 113.728 137.197 113.728 135.811V132.675C113.728 131.809 114.431 131.107 115.297 131.107C116.163 131.107 116.865 130.404 116.865 129.538Z" fill="url(#paint1_linear_334_241)" stroke="#2E2E2E" stroke-width="0.627306"/>
<path d="M69.5035 87.8233H74.2083C75.0745 87.8233 75.7766 87.1212 75.7766 86.2551V85.9414C75.7766 85.2485 76.3383 84.6868 77.0312 84.6868C77.7241 84.6868 78.2858 84.1251 78.2858 83.4322C78.2858 82.7393 78.8475 82.1776 79.5404 82.1776H81.4178C82.0175 82.1776 82.5867 82.4416 82.9741 82.8994L84.291 84.4558C84.8922 85.1662 84.3872 86.2551 83.4565 86.2551H83.1475C82.7144 86.2551 82.3633 86.6061 82.3633 87.0392C82.3633 87.4723 82.7144 87.8233 83.1475 87.8233H86.7322C87.9571 87.8233 88.95 86.8304 88.95 85.6055C88.95 85.0173 88.7164 84.4531 88.3004 84.0372L84.903 80.6398C84.5558 80.2926 84.5967 79.7184 84.9894 79.4239C85.2886 79.1995 85.7027 79.2101 85.99 79.4495L90.1464 82.9132C90.7796 83.4408 91.1456 84.2223 91.1456 85.0465V86.5687C91.1456 87.2616 91.7073 87.8233 92.4002 87.8233C93.0931 87.8233 93.6548 87.2616 93.6548 86.5687V85.8487C93.6548 85.1316 94.0436 84.4708 94.6705 84.1225L95.6441 83.5816C96.1375 83.3075 96.7529 83.3937 97.152 83.7928C97.6457 84.2866 97.6457 85.087 97.152 85.5808L96.9324 85.8003C96.6413 86.0915 96.4777 86.4864 96.4777 86.8981C96.4777 87.7556 97.1728 88.4506 98.0302 88.4506H99.9279C101.833 88.4506 103.378 89.9953 103.378 91.9008V94.1444C103.378 95.1405 103.639 96.1191 104.136 96.9826L107.698 103.178C109.309 105.979 112.857 106.987 115.699 105.45L119.019 103.656C120.654 102.772 121.055 100.605 119.846 99.1948L119.451 98.7342C118.847 98.0294 117.852 97.8049 117.004 98.1818C116.173 98.5512 115.199 98.3436 114.59 97.6677L113.941 96.946C113.294 96.2277 113.323 95.129 114.007 94.4457C114.584 93.8685 115.475 93.747 116.186 94.1487L120.564 96.6236C121.64 97.2315 122.836 97.5957 124.068 97.6904L124.497 97.7235C128.13 98.0029 131.349 100.168 132.978 103.426L133.393 104.255C133.868 105.206 134.116 106.255 134.116 107.319V109.309C134.116 111.994 136.293 114.17 138.978 114.17C141.663 114.17 143.839 111.994 143.839 109.309V107.513C143.839 105.938 144.397 104.415 145.415 103.213L146.801 101.575C147.116 101.201 147.29 100.721 147.29 100.233C147.29 99.1066 148.202 98.1739 149.328 98.1739C150.454 98.1739 151.367 99.0867 151.367 100.213V104.604C151.367 105.037 151.718 105.388 152.151 105.388C152.584 105.388 152.935 105.739 152.935 106.172V109.018C152.935 109.315 152.972 109.611 153.044 109.899L153.491 111.69C153.737 112.673 154.374 113.514 155.254 114.016L157.2 115.129C157.801 115.472 158.565 115.292 158.949 114.716C159.286 114.211 159.234 113.542 158.824 113.095L156.282 110.322C156.147 110.175 156.072 109.982 156.072 109.782C156.072 109.128 156.813 108.75 157.342 109.135L158.619 110.063C159.162 110.458 159.893 110.473 160.451 110.1L161.333 109.513C162.879 108.482 163.19 106.339 162 104.912L161.782 104.65C161.339 104.118 161.125 103.432 161.188 102.743C161.31 101.399 162.437 100.369 163.787 100.369H167.243C170.774 100.369 173.636 97.5069 173.636 93.9758V75.2356C173.636 72.9736 173.331 70.7219 172.729 68.5416L170.031 58.7772C168.074 51.6971 164.383 45.2166 159.292 39.9218L152.345 32.6968C151.704 32.0295 150.903 31.5366 150.018 31.2643L149.191 31.0097C148 30.6434 146.705 30.884 145.726 31.6537L145.678 31.6911C144.119 32.9163 143.788 35.1463 144.925 36.7708L145.547 37.6581C146.48 38.9918 146.059 40.84 144.641 41.6381L143.671 42.1835C142.895 42.62 142.614 43.5993 143.04 44.381C143.581 45.3726 142.972 46.6 141.855 46.7692L136.405 47.5951C134.979 47.8112 133.655 46.8091 133.476 45.3779C133.307 44.0275 132.113 43.0442 130.755 43.1378L127.101 43.3899C125.399 43.5072 124.079 44.9215 124.079 46.6267C124.079 48.4187 122.627 49.8713 120.835 49.8713H119.374H118.59C117.811 49.8713 117.179 49.2394 117.179 48.4599V47.9622C117.179 47.4575 116.77 47.0484 116.265 47.0484C116.045 47.0484 115.833 47.1277 115.667 47.2717L107.376 54.4573C106.82 54.9385 106.11 55.2034 105.375 55.2034H104.324C103.749 55.2034 103.229 54.8632 102.999 54.3367L102.897 54.1033C102.364 52.8851 103.71 51.7013 104.85 52.3854C105.442 52.7407 106.206 52.5979 106.63 52.0529L106.97 51.6152C107.601 50.8045 107.511 49.647 106.763 48.9431L103.529 45.899C103.029 45.4285 102.369 45.1665 101.682 45.1665H100.869C99.8295 45.1665 98.9869 44.3239 98.9869 43.2846C98.9869 42.2452 98.1444 41.4027 97.105 41.4027H94.7057C93.4428 41.4027 92.2443 41.9602 91.4309 42.9262L78.5229 58.2545C77.9646 58.9174 77.6585 59.7561 77.6585 60.6227V61.9469C77.6585 63.2461 78.7117 64.2993 80.0109 64.2993H81.736C82.0825 64.2993 82.3633 64.0185 82.3633 63.672C82.3633 63.3256 82.6442 63.0447 82.9906 63.0447H87.0681C88.6271 63.0447 89.891 64.3086 89.891 65.8676V66.0244C89.891 67.4969 88.6974 68.6905 87.2249 68.6905H86.1272C85.261 68.6905 84.5589 67.9883 84.5589 67.1222V66.9654C84.5589 66.1859 83.927 65.554 83.1475 65.554C82.3679 65.554 81.736 66.1859 81.736 66.9654V67.1222C81.736 67.9883 81.0339 68.6905 80.1677 68.6905H79.2268C77.841 68.6905 76.7176 69.8139 76.7176 71.1997V73.2385C76.7176 74.3644 75.8048 75.2772 74.6788 75.2772C73.5529 75.2772 72.6401 76.19 72.6401 77.3159V79.1979C72.6401 80.8435 71.306 82.1776 69.6604 82.1776H69.5035C67.9445 82.1776 66.6807 83.4414 66.6807 85.0005C66.6807 86.5595 67.9445 87.8233 69.5035 87.8233Z" fill="url(#paint2_linear_334_241)" stroke="#2E2E2E" stroke-width="0.627306"/>
<path d="M61.0358 56.4575H55.8588C55.0792 56.4575 54.4482 55.8255 54.4482 55.046V54.4187C54.4482 53.9856 54.7993 53.6346 55.2324 53.6346C55.6654 53.6346 56.0165 53.2835 56.0165 52.8504V52.0663C56.0165 51.2002 56.7186 50.498 57.5848 50.498H62.4464C63.5724 50.498 64.4851 51.4108 64.4851 52.5368V53.3209C64.4851 54.0138 63.9234 54.5755 63.2305 54.5755H62.9169C62.3972 54.5755 61.9759 54.9968 61.9759 55.5165C61.9759 56.0362 61.5555 56.4575 61.0358 56.4575Z" fill="url(#paint3_linear_334_241)" stroke="#2E2E2E" stroke-width="0.627306"/>
<path d="M66.6806 70.1011V69.6306C66.6806 68.9377 67.2423 68.376 67.9352 68.376C68.6281 68.376 69.1898 68.9377 69.1898 69.6306V71.6693C69.1898 72.1024 68.8387 72.4535 68.4057 72.4535C67.9726 72.4535 67.6215 72.8045 67.6215 73.2376V73.3944C67.6215 73.9141 67.2002 74.3354 66.6806 74.3354H66.3669C65.674 74.3354 65.1123 73.7737 65.1123 73.0808V71.6693C65.1123 71.2363 65.4634 70.8852 65.8964 70.8852C66.3295 70.8852 66.6806 70.5341 66.6806 70.1011Z" fill="url(#paint4_linear_334_241)" stroke="#2E2E2E" stroke-width="0.627306"/>
<path d="M67.9355 64.9262V66.3418C67.9355 66.9458 68.4252 67.4354 69.0292 67.4354C69.4999 67.4354 69.9179 67.7367 70.0667 68.1833L70.6338 69.8844C70.7163 70.1321 70.7584 70.3914 70.7584 70.6525V72.2971C70.7584 72.7301 70.4074 73.0812 69.9743 73.0812C69.5412 73.0812 69.1902 73.4323 69.1902 73.8653C69.1902 74.2984 69.5412 74.6495 69.9743 74.6495H72.1699C73.8155 74.6495 75.1496 73.3154 75.1496 71.6698V69.631C75.1496 68.9381 74.5879 68.3764 73.895 68.3764C73.2021 68.3764 72.6403 67.8147 72.6403 67.1218V63.8284C72.6403 63.0489 72.0084 62.417 71.2289 62.417H70.6016C70.1685 62.417 69.8175 62.7681 69.8175 63.2011C69.8175 63.6342 69.4664 63.9853 69.0333 63.9853H68.8765C68.3568 63.9853 67.9355 64.4065 67.9355 64.9262Z" fill="url(#paint5_linear_334_241)" stroke="#2E2E2E" stroke-width="0.627306"/>
<path d="M35.5261 20.9526L35.0491 20.5189C34.289 19.828 34.1131 18.7008 34.6264 17.8111L38.4387 11.2032C39.9655 8.55674 42.4704 6.61569 45.4143 5.79796L62.635 1.01442C64.5529 0.481677 66.4932 1.78783 66.7214 3.76521L66.8307 4.7132C66.9281 5.55659 66.4662 6.36541 65.6904 6.71021C65.1712 6.94098 64.7791 7.38759 64.6174 7.93231L58.8096 27.5067C58.6176 28.1541 58.7313 28.8537 59.1185 29.4069C59.7224 30.2695 59.6371 31.4359 58.9147 32.202C56.2934 34.982 52.7615 38.7698 50.1728 41.5523C48.3243 43.5391 45.1623 43.4862 43.3816 41.4385C42.5049 40.4302 42.1141 39.0885 42.3123 37.7671L43.2185 31.7255C43.3119 31.1031 42.7423 30.5858 42.1317 30.7384C41.7699 30.8289 41.3902 30.6821 41.1833 30.3718L39.8956 28.4401C39.4739 27.8076 39.5573 26.9654 40.0948 26.4279C40.537 25.9857 40.68 25.3258 40.4604 24.7403L39.3228 21.7067C39.0067 20.8638 37.9803 20.5456 37.2428 21.0618C36.7154 21.431 36.0025 21.3857 35.5261 20.9526Z" fill="url(#paint6_linear_334_241)" stroke="#2E2E2E" stroke-width="0.471592"/>
<path d="M19.431 52.3893L17.4975 54.5458C15.6305 56.6282 12.517 57.0224 10.1899 55.471C7.88557 53.9348 4.80589 54.3047 2.93081 56.3428L0.500838 58.9841C-1.48584 61.1435 -2.40288 64.0781 -1.99921 66.9845L0.639891 85.986C0.889645 87.7843 2.9877 88.6431 4.4267 87.5362C5.41668 86.7747 6.82803 86.9136 7.6505 87.8536L9.17633 89.5974C11.5228 92.279 15.8652 91.5873 17.2623 88.3094L22.7803 75.3635C23.5485 73.5611 25.7121 72.8255 27.4197 73.786C29.031 74.6923 31.0724 74.0936 31.9389 72.4606L38.5355 60.0286C39.5708 58.0774 39.0316 55.6628 37.2644 54.3375L30.4822 50.5474C26.821 48.5014 22.2307 49.2665 19.431 52.3893Z" fill="url(#paint7_linear_334_241)" stroke="#2E2E2E" stroke-width="0.76733"/>
<path d="M1.83425 100.369H1.67243C0.331863 100.369 -0.754883 101.456 -0.754883 102.796V104.415C-0.754883 105.04 -0.247735 105.547 0.377864 105.547C1.00346 105.547 1.51061 106.055 1.51061 106.68V107.166C1.51061 108.059 2.23511 108.784 3.12882 108.784H3.29064C4.27373 108.784 5.07067 109.581 5.07067 110.564V110.726C5.07067 111.798 5.94007 112.668 7.01253 112.668H10.7434C11.1853 112.668 11.5435 113.026 11.5435 113.468C11.5435 113.771 11.3723 114.048 11.1012 114.183L9.92531 114.771C8.93356 115.267 8.30709 116.281 8.30709 117.39V118.903C8.30709 120.3 8.85163 121.643 9.82522 122.646L13.6472 126.584C17.0718 130.113 18.9873 134.836 18.9873 139.753V147.945C18.9873 149.732 20.4363 151.181 22.2237 151.181H28.0493C30.1942 151.181 31.933 149.442 31.933 147.297V145.841C31.933 144.5 33.0197 143.414 34.3603 143.414C35.7008 143.414 36.7876 142.327 36.7876 140.986V139.861C36.7876 138.024 38.1886 136.49 40.0184 136.323L40.3477 136.293C42.3639 136.11 43.9077 134.42 43.9077 132.395V127.07C43.9077 126.265 44.5598 125.613 45.3641 125.613C46.1684 125.613 46.8205 124.961 46.8205 124.157V122.215C46.8205 120.338 45.2991 118.817 43.4223 118.817H36.0104C33.7585 118.817 31.933 116.991 31.933 114.739V114.302C31.933 112.455 30.5338 110.909 28.6965 110.726L27.377 110.594C26.2888 110.485 25.4601 109.569 25.4601 108.476C25.4601 107.3 24.5071 106.347 23.3315 106.347H13.7329C13.0599 106.347 12.5144 106.893 12.5144 107.565C12.5144 108.238 11.9689 108.784 11.296 108.784H9.60166C8.52921 108.784 7.65981 107.914 7.65981 106.842V106.68C7.65981 105.697 6.86286 104.9 5.87978 104.9C4.8967 104.9 4.09975 104.103 4.09975 103.12V102.635C4.09975 101.383 3.08545 100.369 1.83425 100.369Z" fill="url(#paint8_linear_334_241)" stroke="#2E2E2E" stroke-width="0.647284"/>
</g>
<defs>
<linearGradient id="paint0_linear_334_241" x1="89.1066" y1="89.0771" x2="89.1066" y2="143.025" gradientUnits="userSpaceOnUse">
<stop stop-color="#D2FA79"/>
<stop offset="1" stop-color="#16CA3D"/>
</linearGradient>
<linearGradient id="paint1_linear_334_241" x1="112.787" y1="123.893" x2="112.787" y2="138.321" gradientUnits="userSpaceOnUse">
<stop stop-color="#D2FA79"/>
<stop offset="1" stop-color="#16CA3D"/>
</linearGradient>
<linearGradient id="paint2_linear_334_241" x1="120.159" y1="30.4248" x2="120.159" y2="115.738" gradientUnits="userSpaceOnUse">
<stop stop-color="#D2FA79"/>
<stop offset="1" stop-color="#16CA3D"/>
</linearGradient>
<linearGradient id="paint3_linear_334_241" x1="59.4667" y1="50.498" x2="59.4667" y2="56.4575" gradientUnits="userSpaceOnUse">
<stop stop-color="#D2FA79"/>
<stop offset="1" stop-color="#16CA3D"/>
</linearGradient>
<linearGradient id="paint4_linear_334_241" x1="67.1511" y1="68.376" x2="67.1511" y2="74.3354" gradientUnits="userSpaceOnUse">
<stop stop-color="#D2FA79"/>
<stop offset="1" stop-color="#16CA3D"/>
</linearGradient>
<linearGradient id="paint5_linear_334_241" x1="71.5426" y1="62.417" x2="71.5426" y2="74.6495" gradientUnits="userSpaceOnUse">
<stop stop-color="#D2FA79"/>
<stop offset="1" stop-color="#16CA3D"/>
</linearGradient>
<linearGradient id="paint6_linear_334_241" x1="50.3707" y1="0" x2="50.3707" y2="45.2728" gradientUnits="userSpaceOnUse">
<stop stop-color="#D2FA79"/>
<stop offset="1" stop-color="#16CA3D"/>
</linearGradient>
<linearGradient id="paint7_linear_334_241" x1="18.8485" y1="47.0479" x2="18.8485" y2="95.3896" gradientUnits="userSpaceOnUse">
<stop stop-color="#D2FA79"/>
<stop offset="1" stop-color="#16CA3D"/>
</linearGradient>
<linearGradient id="paint8_linear_334_241" x1="23.0328" y1="100.369" x2="23.0328" y2="151.181" gradientUnits="userSpaceOnUse">
<stop stop-color="#D2FA79"/>
<stop offset="1" stop-color="#16CA3D"/>
</linearGradient>
<clipPath id="clip0_334_241">
<rect x="0.5" width="170" height="170" rx="85" fill="white"/>
</clipPath>
</defs>
</svg>
