<svg width="33" height="24" viewBox="0 0 33 24" fill="none" xmlns="http://www.w3.org/2000/svg">
<g clip-path="url(#clip0_108_909)">
<path d="M0.121338 0H32.1213V24H0.121338V0Z" fill="#012169"/>
<path d="M3.87134 0L16.0713 9.05L28.2213 0H32.1213V3.1L20.1213 12.05L32.1213 20.95V24H28.1213L16.1213 15.05L4.17134 24H0.121338V21L12.0713 12.1L0.121338 3.2V0H3.87134Z" fill="white"/>
<path d="M21.3213 14.05L32.1213 22V24L18.5713 14.05H21.3213ZM12.1213 15.05L12.4213 16.8L2.82134 24H0.121338L12.1213 15.05ZM32.1213 0V0.15L19.6713 9.55L19.7713 7.35L29.6213 0H32.1213ZM0.121338 0L12.0713 8.8H9.07134L0.121338 2.1V0Z" fill="#C8102E"/>
<path d="M12.1713 0V24H20.1713V0H12.1713ZM0.121338 8V16H32.1213V8H0.121338Z" fill="white"/>
<path d="M0.121338 9.65V14.45H32.1213V9.65H0.121338ZM13.7713 0V24H18.5713V0H13.7713Z" fill="#C8102E"/>
</g>
<defs>
<clipPath id="clip0_108_909">
<rect width="32" height="24" fill="white" transform="translate(0.121338)"/>
</clipPath>
</defs>
</svg>
