<svg width="60" height="60" viewBox="0 0 60 60" fill="none" xmlns="http://www.w3.org/2000/svg">
<path d="M30.7594 7.06875C30.2311 7.50859 29.8891 8.13219 29.8021 8.81405C29.7152 9.49591 29.8897 10.1854 30.2906 10.7438C31.2281 12.3844 34.7813 12.1875 34.5938 9.3375C34.4063 6.4875 31.875 6 30.7594 7.06875ZM33.5063 9.25313C33.519 9.53371 33.4395 9.81075 33.2798 10.0418C33.1201 10.2729 32.889 10.4452 32.6221 10.5324C32.3551 10.6197 32.0668 10.617 31.8015 10.5247C31.5362 10.4325 31.3085 10.2559 31.1531 10.0219C30.9365 9.71576 30.8432 9.33924 30.8918 8.96739C30.9405 8.59554 31.1275 8.2557 31.4156 8.01563C32.0156 7.43438 33.3938 7.69688 33.5063 9.25313ZM5.68125 23.9062C5.87813 23.9062 6.61875 24.1781 7.05 23.8219C7.48125 23.4656 7.20938 23.475 7.28438 22.3781C7.58626 20.2441 8.16292 18.158 9 16.1719C9.9375 14.175 13.6125 9.80625 18.7313 7.41563C23.85 5.025 29.9063 4.95937 35.4469 6.32812C40.9875 7.69688 46.7812 12.5344 49.6875 17.2594C52.5937 21.9844 50.1187 31.2469 48.4781 34.9594C46.8375 38.6719 39.375 43.0031 33.75 43.2375C31.4134 43.2904 29.0954 42.8115 26.971 41.837C24.8467 40.8626 22.9716 39.418 21.4875 37.6125C19.6125 35.0719 17.8875 28.7438 20.2312 24.4875C21.0466 23.062 22.2244 21.8775 23.6454 21.0543C25.0663 20.231 26.6797 19.7983 28.3219 19.8C29.9625 19.6781 31.2844 21.2438 31.6406 21.3656C31.8027 21.3624 31.9621 21.3234 32.1073 21.2512C32.2525 21.179 32.3799 21.0756 32.4804 20.9482C32.5808 20.8209 32.6517 20.6729 32.6881 20.5149C32.7244 20.3569 32.7253 20.1928 32.6906 20.0344C32.5031 19.1719 29.2969 16.6781 22.6594 19.8375C16.0219 22.9969 16.875 29.4469 17.25 32.3062C17.625 35.1656 19.2 42.8063 28.9687 44.6063C32.3512 45.2561 35.843 45.0418 39.1206 43.9831C42.3982 42.9245 45.3555 41.0557 47.7188 38.55C49.8281 36.1312 52.9594 31.9875 52.8375 23.9062C52.7156 15.825 50.175 13.3594 43.6875 8.20313C37.2 3.04688 26.8125 2.69063 21.1875 4.65C15.5625 6.60937 8.4375 11.5594 6.74063 16.2469C5.04375 20.9344 5.48438 23.9062 5.68125 23.9062ZM8.38125 31.9875C7.9875 30.3094 6.5625 29.5406 5.25 30.1969C3.9375 30.8531 4.125 32.3812 4.94063 33.75C5.75625 35.1187 8.76562 33.6656 8.38125 31.9875ZM5.625 32.9531C5.2125 32.2594 5.09063 31.4812 5.78438 31.1344C5.94998 31.0585 6.13143 31.0236 6.31337 31.0326C6.49531 31.0417 6.6724 31.0944 6.82965 31.1864C6.9869 31.2783 7.1197 31.4068 7.2168 31.5609C7.3139 31.7151 7.37245 31.8903 7.3875 32.0719C7.58438 32.9156 6.04688 33.6563 5.625 32.9531ZM34.5469 29.2969C35.2969 23.9437 30.2531 23.7656 28.1812 24.2531C23.1094 25.4625 23.6906 30.4312 25.6406 32.3437C27.5906 34.2562 33.8062 34.6875 34.5469 29.2969ZM28.65 31.6781C28.0477 31.5593 27.5009 31.2466 27.093 30.7879C26.685 30.3291 26.4383 29.7495 26.3906 29.1375C26.2233 28.4021 26.3502 27.6305 26.7444 26.9875C27.1386 26.3445 27.7687 25.8813 28.5 25.6969C29.3719 25.3594 31.6594 25.5844 32.4375 26.6344C33.2156 27.6844 32.7937 29.7188 32.7937 29.7188C32.7937 29.7188 32.325 28.9031 32.2031 28.9031C32.0812 28.9031 31.5844 29.0625 31.6219 29.2125C31.8463 29.6887 32.0161 30.1888 32.1281 30.7031C32.0531 30.8906 31.5469 31.4812 31.425 31.3219C31.3031 31.1625 30.4125 28.7062 30.1781 28.6687C29.9437 28.6312 29.4375 28.6688 29.475 28.8656C29.5125 29.0625 30.7969 31.5562 30.6094 31.7531C30.4219 31.95 29.9063 32.1094 29.7844 31.8281C29.6625 31.5469 28.8469 29.3344 28.7344 29.2969C28.6219 29.2594 27.8719 29.4844 27.9469 29.7656C28.0219 30.0469 28.8094 31.6406 28.65 31.6781ZM34.125 47.025C32.7938 47.8125 32.3625 49.3687 33.0656 51.2906C33.7688 53.2125 37.9125 53.55 38.4938 50.5875C38.6222 50.0163 38.589 49.4207 38.3978 48.8674C38.2066 48.3141 37.8649 47.825 37.4112 47.455C36.9575 47.0851 36.4097 46.8488 35.8292 46.7729C35.2488 46.6969 34.6586 46.7842 34.125 47.025ZM37.5 50.2781C37.125 52.1531 34.4719 51.9563 34.0219 50.7281C33.5719 49.5 33.8437 48.5063 34.6969 48C35.0385 47.844 35.4169 47.7866 35.7895 47.8342C36.162 47.8818 36.5138 48.0325 36.8052 48.2694C37.0967 48.5062 37.3162 48.8198 37.4389 49.1747C37.5617 49.5297 37.5828 49.9118 37.5 50.2781ZM23.025 33.2812C21.6562 33.9469 21.8906 35.4656 22.7156 36.8344C23.5406 38.2031 26.5406 36.7594 26.1562 35.0719C25.7719 33.3844 24.375 32.625 23.025 33.2812ZM23.4 36.0375C22.9875 35.3437 22.8656 34.5656 23.5594 34.2281C23.7248 34.1499 23.9067 34.1132 24.0895 34.1212C24.2722 34.1292 24.4503 34.1817 24.6082 34.274C24.7661 34.3664 24.8992 34.4958 24.9957 34.6512C25.0923 34.8066 25.1496 34.9831 25.1625 35.1656C25.3594 36 23.8219 36.7406 23.4375 36.0375H23.4ZM46.4625 19.1625C46.4625 17.4 44.5875 16.2 43.5 17.0062C43.2576 17.1655 43.0507 17.3729 42.8921 17.6157C42.7335 17.8585 42.6267 18.1314 42.5783 18.4173C42.5299 18.7033 42.541 18.9961 42.6108 19.2776C42.6807 19.559 42.8079 19.823 42.9844 20.0531C43.8094 21.2062 46.5 20.9344 46.4625 19.1812V19.1625ZM44.0062 17.8781C44.5406 17.475 45.4594 18.075 45.4781 18.9469C45.4969 19.8187 44.1562 19.9594 43.7531 19.3969C43.6665 19.2835 43.6041 19.1536 43.5698 19.0151C43.5356 18.8766 43.5301 18.7326 43.5539 18.5919C43.5776 18.4512 43.63 18.3169 43.7078 18.1974C43.7857 18.0778 43.8872 17.9755 44.0062 17.8969V17.8781ZM14.3625 26.5406C14.1775 26.6622 14.0196 26.8208 13.8989 27.0064C13.7782 27.1919 13.6973 27.4005 13.6611 27.6189C13.625 27.8374 13.6346 28.0609 13.6891 28.2755C13.7437 28.49 13.8421 28.691 13.9781 28.8656C14.5969 29.7281 16.65 29.5125 16.6219 28.1812C16.5938 26.85 15.1781 25.9312 14.3625 26.5406ZM15.8719 28.0219C15.8719 28.6875 14.8688 28.7906 14.55 28.3594C14.4799 28.2718 14.4291 28.1704 14.4009 28.0619C14.3727 27.9533 14.3677 27.84 14.3863 27.7294C14.4049 27.6188 14.4466 27.5133 14.5087 27.4199C14.5709 27.3266 14.652 27.2474 14.7469 27.1875C15.1594 26.8969 15.8531 27.3562 15.8719 28.0219ZM52.875 35.1938C51.7031 35.7 51.4219 37.575 52.0125 38.8219C52.6031 40.0687 55.6875 39.7594 55.7625 37.4625C55.8375 35.1656 53.925 34.7344 52.875 35.1938ZM52.7812 38.1375C52.5993 37.8039 52.5466 37.415 52.633 37.045C52.7195 36.675 52.9391 36.3497 53.25 36.1313C53.4392 36.0507 53.6465 36.0227 53.8503 36.0501C54.054 36.0775 54.2466 36.1593 54.4078 36.2869C54.569 36.4145 54.6928 36.5832 54.7662 36.7752C54.8397 36.9673 54.86 37.1755 54.825 37.3781C54.8062 38.6531 53.1 38.8219 52.7812 38.1375ZM54.6562 9.68438C54.4594 6.87188 51.9375 6.35625 50.8313 7.41563C50.303 7.85547 49.961 8.47907 49.874 9.16093C49.787 9.84278 49.9616 10.5323 50.3625 11.0906C51.2719 12.7312 54.825 12.5344 54.6281 9.68438H54.6562ZM51.4781 8.37188C52.0875 7.79063 53.4656 8.04375 53.5687 9.60938C53.5858 9.8907 53.5091 10.1697 53.3508 10.4029C53.1924 10.636 52.9613 10.8101 52.6935 10.898C52.4257 10.9858 52.1363 10.9824 51.8706 10.8884C51.6049 10.7943 51.3779 10.6149 51.225 10.3781C51.0019 10.0772 50.901 9.70299 50.9428 9.33073C50.9845 8.95848 51.1658 8.61586 51.45 8.37188H51.4781ZM8.76563 47.3062C7.44375 48.0844 7.0125 49.6875 7.71562 51.5625C8.41875 53.4375 12.5625 53.8219 13.1438 50.8594C13.2712 50.2877 13.2368 49.6919 13.0443 49.1387C12.8519 48.5856 12.509 48.097 12.0542 47.728C11.5995 47.3589 11.0508 47.1239 10.4699 47.0494C9.88898 46.9749 9.2988 47.0639 8.76563 47.3062ZM12.1219 50.55C11.7469 52.425 9.09375 52.2281 8.64375 51C8.39715 50.5427 8.32967 50.0099 8.45446 49.5056C8.57924 49.0012 8.88736 48.5614 9.31875 48.2719C9.6605 48.1197 10.0377 48.0651 10.4086 48.1142C10.7795 48.1633 11.1295 48.3142 11.4198 48.5502C11.7102 48.7862 11.9295 49.0979 12.0534 49.4509C12.1773 49.8039 12.201 50.1843 12.1219 50.55ZM52.6781 44.3344C52.3219 44.3344 52.05 45 51.7406 45.4687C51.4312 45.9375 48.225 50.5406 44.5875 52.575C40.95 54.6094 34.275 55.275 27.9094 53.6719C21.5438 52.0687 15.3656 44.7281 12.9094 37.3406C10.4531 29.9531 13.5375 25.3875 15.0938 22.5C16.65 19.6125 20.3344 15.7406 24.5906 15.3469C28.8469 14.9531 35.625 14.6438 38.7281 19.3313C40.1179 21.242 40.9194 23.517 41.0343 25.8769C41.1492 28.2368 40.5725 30.5789 39.375 32.6156C37.1531 36.8719 31.3969 36.1406 31.1719 36.3656C30.9469 36.5906 30.975 37.9313 31.4062 38.0438C33.7542 38.0492 36.0702 37.4999 38.1656 36.4406C40.5844 35.0344 43.5563 31.3687 42.4969 23.7469C41.4375 16.125 34.9969 13.5562 29.1375 13.4344C23.2781 13.3125 17.5031 14.9156 13.5563 21.1687C11.9397 23.5733 10.8847 26.3107 10.4693 29.1782C10.0539 32.0457 10.2886 34.9699 11.1562 37.7344C12.5156 42.6562 16.0312 50.4281 23.6531 54.2531C31.275 58.0781 39.5906 56.1281 44.9437 54.2531C50.2969 52.3781 54.0469 45.3844 54 45.15C53.9531 44.9156 53.025 44.3344 52.6781 44.3344Z" fill="#CD482B"/>
</svg>
