<svg width="57" height="57" viewBox="0 0 57 57" fill="none" xmlns="http://www.w3.org/2000/svg">
<path d="M4.18323 28.3036C4.18323 41.6248 14.9822 52.4239 28.3035 52.4239C41.6247 52.4239 52.4237 41.6248 52.4237 28.3036C52.4237 14.9824 41.6247 4.18335 28.3035 4.18335C14.9822 4.18335 4.18323 14.9824 4.18323 28.3036Z" fill="#3E3E3E" fill-opacity="0.1"/>
<path d="M0.904755 28.3035C0.904755 43.4354 13.1716 55.7023 28.3035 55.7023C43.4354 55.7023 55.7022 43.4354 55.7022 28.3035C55.7022 13.1716 43.4354 0.904785 28.3035 0.904785C13.1716 0.904785 0.904755 13.1716 0.904755 28.3035Z" fill="#3E3E3E" fill-opacity="0.1"/>
<path d="M7.46173 28.3036C7.46173 39.5555 16.5832 48.677 27.8351 48.677C39.0871 48.677 48.2086 39.5555 48.2086 28.3036C48.2086 17.0517 39.0871 7.93018 27.8351 7.93018C16.5832 7.93018 7.46173 17.0517 7.46173 28.3036Z" fill="#3E3E3E" fill-opacity="0.1"/>
<path d="M7.47861 28.3827C7.66218 39.4984 16.822 48.3605 27.9376 48.177C39.0533 47.9934 47.9154 38.8336 47.7319 27.7179C47.5483 16.6023 38.3885 7.74013 27.2728 7.92371C16.1572 8.10728 7.29503 17.2671 7.47861 28.3827Z" fill="white" fill-opacity="0.01"/>
<path d="M5.24244 28.4197C5.44641 40.7704 15.624 50.6172 27.9747 50.4133C40.3254 50.2093 50.1722 40.0317 49.9683 27.681C49.7643 15.3303 39.5867 5.48346 27.236 5.68743C14.8853 5.89141 5.03846 16.069 5.24244 28.4197Z" fill="#FFF500" fill-opacity="0.01"/>
<path d="M12.6837 28.2096C12.821 36.5211 19.67 43.1476 27.9815 43.0104C36.2931 42.8731 42.9196 36.024 42.7823 27.7125C42.645 19.401 35.796 12.7745 27.4845 12.9117C19.173 13.049 12.5464 19.8981 12.6837 28.2096Z" fill="#898989"/>
<path d="M21.7414 19.9954L16.3667 20.0841L14.4318 20.1161L13.6912 24.1067L18.3135 24.0304C18.8478 24.0216 19.2738 23.5813 19.265 23.0469C19.2562 22.5126 19.6822 22.0723 20.2165 22.0635L21.7752 22.0378C22.3392 22.0285 22.7888 21.5637 22.7795 20.9997C22.7702 20.4357 22.3054 19.986 21.7414 19.9954Z" fill="#434343"/>
<path d="M37.237 24.0965L42.4405 24.023C42.8941 25.4492 42.5123 28.3766 42.5159 28.5916C42.5194 28.8066 42.394 30.977 41.9815 32.0412L39.0075 32.0758L36.2664 32.1211C35.7024 32.1304 35.2377 31.6807 35.2283 31.1167C35.219 30.5527 35.6687 30.088 36.2327 30.0787L36.5014 30.0742L38.0063 30.0494C38.5407 30.0405 38.9666 29.6002 38.9578 29.0659C38.949 28.5316 38.5087 28.1056 37.9744 28.1144L36.4695 28.1393L34.0508 28.1792C33.3978 28.19 32.8596 27.6694 32.8488 27.0163C32.8381 26.3633 33.3587 25.8251 34.0118 25.8144L35.5983 25.7882C36.0579 25.7806 36.4242 25.4019 36.4167 24.9423C36.4091 24.482 36.7767 24.103 37.237 24.0965Z" fill="#5A5A5A"/>
<path d="M33.3628 36.2547L40.2337 36.1412L39.0058 38.6393L33.3835 38.6393C32.7326 38.6393 32.202 38.1174 32.1913 37.4666C32.1804 36.8082 32.7044 36.2656 33.3628 36.2547Z" fill="#5A5A5A"/>
<path d="M27.9431 39.0325L17.3817 39.2069L20.9011 40.7079L27.9689 40.5912C28.3993 40.5841 28.7425 40.2294 28.7353 39.799C28.7282 39.3685 28.3736 39.0254 27.9431 39.0325Z" fill="#5A5A5A"/>
<path d="M30.1643 20.1967L40.8037 20.1967L42.7865 24.7016L28.8611 24.9316L22.5344 25.0361C21.8161 25.0479 21.2241 24.4752 21.2123 23.7569C21.2004 23.0385 21.7731 22.4465 22.4915 22.4347L28.0709 22.3425C28.6538 22.3329 29.1185 21.8526 29.1089 21.2697C29.0992 20.68 29.5745 20.1967 30.1643 20.1967Z" fill="#5A5A5A"/>
<path d="M32.1534 15.6302L37.3131 15.545L37.3486 17.6949L32.1889 17.7801C31.5952 17.7899 31.106 17.3166 31.0962 16.7229C31.0863 16.1292 31.5597 15.64 32.1534 15.6302Z" fill="#434343"/>
<path d="M23.436 13.8635C22.6848 14.1141 21.9065 14.509 21.7585 14.5115L17.9673 16.0794L15.9791 19.3917L23.45 19.2684C23.8359 19.262 24.1435 18.944 24.1372 18.5581C24.1308 18.1722 24.4384 17.8542 24.8243 17.8478L25.7918 17.8319C26.4151 17.8216 26.9121 17.3079 26.9018 16.6845C26.8915 16.0612 26.3779 15.5642 25.7545 15.5745L25.3783 15.5807C24.844 15.5895 24.4037 15.1635 24.3948 14.6292C24.386 14.0949 23.9429 13.6944 23.436 13.8635Z" fill="#5A5A5A"/>
<path d="M24.2772 26.62L12.8996 26.8079L13.0056 33.2234L14.9424 36.5589L25.6133 36.3827L29.0975 36.3251C29.7991 36.3135 30.3585 35.7354 30.3469 35.0338C30.3353 34.3321 29.7572 33.7727 29.0556 33.7843L18.4117 33.9601C17.5873 33.9737 16.9079 33.3165 16.8943 32.4921C16.8807 31.6677 17.538 30.9883 18.3624 30.9747L29.0698 30.7979C29.7363 30.7868 30.2677 30.2376 30.2567 29.571C30.2457 28.9045 29.6964 28.3731 29.0299 28.3841L26.1497 28.4317C25.641 28.4401 25.2218 28.0345 25.2134 27.5258C25.205 27.0172 24.7858 26.6116 24.2772 26.62Z" fill="#434343"/>
<path d="M37.7525 21.8056L36.5726 16.3099L39.6195 20.1533C41.8178 22.9262 42.8303 26.4558 42.4363 29.9724C41.9214 34.5665 39.0754 38.571 34.906 40.5678L34.1714 40.9196C30.5317 42.6628 26.3398 42.8519 22.5579 41.4436L19.7666 40.4042L23.018 40.3505C27.5031 40.2764 31.7308 38.2415 34.5864 34.7822C37.5699 31.168 38.7362 26.3877 37.7525 21.8056Z" fill="#313030" fill-opacity="0.5"/>
<path d="M12.5764 28.2112C12.7137 36.5227 19.5627 43.1492 27.8742 43.0119C36.1858 42.8747 42.8123 36.0256 42.675 27.7141C42.5377 19.4026 35.6887 12.7761 27.3772 12.9133C19.0657 13.0506 12.4391 19.8997 12.5764 28.2112Z" stroke="#3D3D3D" stroke-width="1.61003"/>
</svg>
