<svg width="82" height="57" viewBox="0 0 82 57" fill="none" xmlns="http://www.w3.org/2000/svg">
<path d="M36.4592 39.8954C36.9034 39.8954 37.2634 40.2554 37.2634 40.6996C37.2634 41.1437 36.9034 41.5038 36.4592 41.5038C36.0151 41.5038 35.655 41.1437 35.655 40.6996C35.655 40.2554 36.0151 39.8954 36.4592 39.8954Z" fill="white"/>
<path d="M34.7954 40.7204V40.6788C34.7954 39.7484 35.5497 38.9941 36.4801 38.9941C37.4105 38.9941 38.1647 39.7484 38.1647 40.6788V40.7204C38.1647 41.6508 37.4105 42.4051 36.4801 42.4051C35.5497 42.4051 34.7954 41.6508 34.7954 40.7204Z" fill="white" fill-opacity="0.03"/>
<path d="M36.4595 38.2874C37.792 38.2874 38.8721 39.3675 38.8721 40.7C38.8721 42.0324 37.792 43.1126 36.4595 43.1126C35.1271 43.1126 34.0469 42.0324 34.0469 40.7C34.0469 39.3675 35.1271 38.2874 36.4595 38.2874Z" fill="white" fill-opacity="0.03"/>
<path d="M25.3595 36.1959C25.8036 36.1959 26.1637 36.556 26.1637 37.0001C26.1637 37.4443 25.8036 37.8043 25.3595 37.8043C24.9153 37.8043 24.5553 37.4443 24.5553 37.0001C24.5553 36.556 24.9153 36.1959 25.3595 36.1959Z" fill="white"/>
<path d="M23.6957 37.0211V36.9795C23.6957 36.049 24.4499 35.2948 25.3803 35.2948C26.3107 35.2948 27.065 36.049 27.065 36.9795V37.0211C27.065 37.9515 26.3107 38.7057 25.3803 38.7057C24.4499 38.7057 23.6957 37.9515 23.6957 37.0211Z" fill="white" fill-opacity="0.03"/>
<path d="M25.3595 34.5874C26.692 34.5874 27.7721 35.6676 27.7721 37C27.7721 38.3324 26.692 39.4126 25.3595 39.4126C24.0271 39.4126 22.9469 38.3324 22.9469 37C22.9469 35.6676 24.0271 34.5874 25.3595 34.5874Z" fill="white" fill-opacity="0.03"/>
<path d="M32.7593 20.6555C33.2035 20.6555 33.5635 21.0156 33.5635 21.4597C33.5635 21.9039 33.2035 22.2639 32.7593 22.2639C32.3152 22.2639 31.9551 21.9039 31.9551 21.4597C31.9551 21.0156 32.3152 20.6555 32.7593 20.6555Z" fill="white"/>
<path d="M31.0956 21.4806V21.4391C31.0956 20.5086 31.8498 19.7544 32.7802 19.7544C33.7106 19.7544 34.4649 20.5086 34.4649 21.4391V21.4807C34.4649 22.4111 33.7106 23.1653 32.7802 23.1653C31.8498 23.1653 31.0956 22.4111 31.0956 21.4806Z" fill="white" fill-opacity="0.03"/>
<path d="M32.7595 19.0474C34.092 19.0474 35.1721 20.1275 35.1721 21.46C35.1721 22.7924 34.092 23.8726 32.7595 23.8726C31.4271 23.8726 30.3469 22.7924 30.3469 21.46C30.3469 20.1275 31.4271 19.0474 32.7595 19.0474Z" fill="white" fill-opacity="0.03"/>
<path d="M25.3593 13.9956C25.8034 13.9956 26.1635 14.3557 26.1635 14.7998C26.1635 15.244 25.8034 15.604 25.3593 15.604C24.9152 15.604 24.5551 15.244 24.5551 14.7998C24.5551 14.3557 24.9152 13.9956 25.3593 13.9956Z" fill="white"/>
<path d="M23.6953 14.821V14.7794C23.6953 13.849 24.4496 13.0947 25.38 13.0947C26.3104 13.0947 27.0646 13.849 27.0646 14.7794V14.821C27.0646 15.7514 26.3104 16.5056 25.38 16.5056C24.4496 16.5056 23.6953 15.7514 23.6953 14.821Z" fill="white" fill-opacity="0.03"/>
<path d="M25.3595 12.3873C26.692 12.3873 27.7721 13.4675 27.7721 14.7999C27.7721 16.1324 26.692 17.2125 25.3595 17.2125C24.0271 17.2125 22.9469 16.1324 22.9469 14.7999C22.9469 13.4675 24.0271 12.3873 25.3595 12.3873Z" fill="white" fill-opacity="0.03"/>
<path d="M20.1794 25.8354C20.6236 25.8354 20.9836 26.1955 20.9836 26.6396C20.9836 27.0838 20.6236 27.4438 20.1794 27.4438C19.7353 27.4438 19.3752 27.0838 19.3752 26.6396C19.3752 26.1955 19.7353 25.8354 20.1794 25.8354Z" fill="white"/>
<path d="M18.5154 26.6606V26.619C18.5154 25.6886 19.2697 24.9343 20.2001 24.9343C21.1305 24.9343 21.8848 25.6886 21.8848 26.619V26.6606C21.8848 27.591 21.1305 28.3452 20.2001 28.3452C19.2697 28.3452 18.5154 27.591 18.5154 26.6606Z" fill="white" fill-opacity="0.03"/>
<path d="M20.1795 24.2274C21.512 24.2274 22.5921 25.3076 22.5921 26.64C22.5921 27.9725 21.512 29.0526 20.1795 29.0526C18.8471 29.0526 17.7669 27.9725 17.7669 26.64C17.7669 25.3076 18.8471 24.2274 20.1795 24.2274Z" fill="white" fill-opacity="0.03"/>
<path d="M13.5191 39.8955C13.9633 39.8955 14.3233 40.2556 14.3233 40.6997C14.3233 41.1439 13.9633 41.5039 13.5191 41.5039C13.075 41.5039 12.715 41.1439 12.715 40.6997C12.715 40.2556 13.075 39.8955 13.5191 39.8955Z" fill="white"/>
<path d="M11.8553 40.7206V40.679C11.8553 39.7486 12.6096 38.9944 13.54 38.9944C14.4704 38.9944 15.2247 39.7486 15.2247 40.679V40.7206C15.2247 41.6511 14.4704 42.4053 13.54 42.4053C12.6096 42.4053 11.8553 41.6511 11.8553 40.7206Z" fill="white" fill-opacity="0.03"/>
<path d="M13.5195 38.2874C14.852 38.2874 15.9321 39.3675 15.9321 40.7C15.9321 42.0324 14.852 43.1126 13.5195 43.1126C12.1871 43.1126 11.1069 42.0324 11.1069 40.7C11.1069 39.3675 12.1871 38.2874 13.5195 38.2874Z" fill="white" fill-opacity="0.03"/>
<path d="M3.15926 25.8354C3.6034 25.8354 3.96345 26.1955 3.96345 26.6396C3.96345 27.0838 3.6034 27.4438 3.15926 27.4438C2.71511 27.4438 2.35506 27.0838 2.35506 26.6396C2.35506 26.1955 2.71511 25.8354 3.15926 25.8354Z" fill="white"/>
<path d="M1.49545 26.6607V26.6191C1.49545 25.6887 2.2497 24.9344 3.18011 24.9344C4.11052 24.9344 4.86477 25.6887 4.86477 26.6191V26.6607C4.86477 27.5911 4.11052 28.3454 3.18011 28.3454C2.2497 28.3454 1.49545 27.5911 1.49545 26.6607Z" fill="white" fill-opacity="0.03"/>
<path d="M3.15952 24.2274C4.49196 24.2274 5.57211 25.3076 5.57211 26.64C5.57211 27.9725 4.49196 29.0526 3.15952 29.0526C1.82708 29.0526 0.746918 27.9725 0.746918 26.64C0.746918 25.3076 1.82708 24.2274 3.15952 24.2274Z" fill="white" fill-opacity="0.03"/>
<path d="M9.81929 18.4358C10.2634 18.4358 10.6235 18.7958 10.6235 19.24C10.6235 19.6841 10.2634 20.0442 9.81929 20.0442C9.37514 20.0442 9.01509 19.6841 9.01509 19.24C9.01509 18.7958 9.37514 18.4358 9.81929 18.4358Z" fill="white"/>
<path d="M8.1553 19.261V19.2194C8.1553 18.289 8.90955 17.5348 9.83996 17.5348C10.7704 17.5348 11.5246 18.289 11.5246 19.2194V19.261C11.5246 20.1915 10.7704 20.9457 9.83996 20.9457C8.90955 20.9457 8.1553 20.1915 8.1553 19.261Z" fill="white" fill-opacity="0.03"/>
<path d="M9.81952 16.8274C11.152 16.8274 12.2321 17.9075 12.2321 19.24C12.2321 20.5724 11.152 21.6526 9.81952 21.6526C8.48708 21.6526 7.40692 20.5724 7.40692 19.24C7.40692 17.9075 8.48708 16.8274 9.81952 16.8274Z" fill="white" fill-opacity="0.03"/>
<path d="M29.2785 28.3958C29.2785 41.717 40.0775 52.516 53.3987 52.516C66.72 52.516 77.519 41.717 77.519 28.3958C77.519 15.0745 66.72 4.27551 53.3987 4.27551C40.0775 4.27551 29.2785 15.0745 29.2785 28.3958Z" fill="#3E3E3E" fill-opacity="0.1"/>
<path d="M26 28.3957C26 43.5276 38.2668 55.7944 53.3987 55.7944C68.5306 55.7944 80.7975 43.5276 80.7975 28.3957C80.7975 13.2638 68.5306 0.996948 53.3987 0.996948C38.2668 0.996948 26 13.2638 26 28.3957Z" fill="#3E3E3E" fill-opacity="0.1"/>
<path d="M32.557 28.3958C32.557 39.6477 41.6785 48.7692 52.9304 48.7692C64.1823 48.7692 73.3038 39.6477 73.3038 28.3958C73.3038 17.1438 64.1823 8.02234 52.9304 8.02234C41.6785 8.02234 32.557 17.1438 32.557 28.3958Z" fill="#3E3E3E" fill-opacity="0.1"/>
<path d="M32.5739 28.4749C32.7574 39.5905 41.9173 48.4527 53.0329 48.2691C64.1485 48.0855 73.0107 38.9257 72.8271 27.8101C72.6435 16.6945 63.4837 7.83229 52.3681 8.01587C41.2525 8.19945 32.3903 17.3593 32.5739 28.4749Z" fill="white" fill-opacity="0.01"/>
<path d="M30.3377 28.5118C30.5417 40.8625 40.7192 50.7094 53.0699 50.5054C65.4206 50.3015 75.2675 40.1239 75.0635 27.7732C74.8595 15.4225 64.682 5.57562 52.3313 5.7796C39.9806 5.98357 30.1337 16.1611 30.3377 28.5118Z" fill="#FFF500" fill-opacity="0.01"/>
<path d="M37.779 28.3018C37.9162 36.6133 44.7653 43.2398 53.0768 43.1025C61.3883 42.9653 68.0148 36.1162 67.8776 27.8047C67.7403 19.4932 60.8912 12.8666 52.5797 13.0039C44.2682 13.1412 37.6417 19.9902 37.779 28.3018Z" fill="#898989"/>
<path d="M46.8367 20.0875L41.4619 20.1763L39.527 20.2082L38.7865 24.1989L43.4088 24.1225C43.9431 24.1137 44.3691 23.6734 44.3603 23.1391C44.3514 22.6048 44.7774 22.1645 45.3117 22.1557L46.8704 22.1299C47.4344 22.1206 47.8841 21.6559 47.8748 21.0919C47.8654 20.5279 47.4007 20.0782 46.8367 20.0875Z" fill="#434343"/>
<path d="M62.3322 24.1886L67.5357 24.1152C67.9894 25.5414 67.6076 28.4687 67.6111 28.6837C67.6147 28.8987 67.4892 31.0692 67.0767 32.1333L64.1028 32.168L61.3617 32.2132C60.7977 32.2225 60.3329 31.7729 60.3236 31.2089C60.3143 30.6449 60.7639 30.1801 61.3279 30.1708L61.5967 30.1664L63.1016 30.1415C63.6359 30.1327 64.0619 29.6924 64.0531 29.1581C64.0442 28.6238 63.6039 28.1978 63.0696 28.2066L61.5647 28.2315L59.1461 28.2714C58.493 28.2822 57.9549 27.7615 57.9441 27.1085C57.9333 26.4554 58.454 25.9173 59.107 25.9065L60.6936 25.8803C61.1531 25.8727 61.5195 25.494 61.5119 25.0345C61.5043 24.5742 61.8719 24.1951 62.3322 24.1886Z" fill="#5A5A5A"/>
<path d="M58.4581 36.3469L65.329 36.2334L64.101 38.7314L58.4788 38.7314C57.8279 38.7314 57.2973 38.2095 57.2866 37.5588C57.2757 36.9003 57.7997 36.3577 58.4581 36.3469Z" fill="#5A5A5A"/>
<path d="M53.0384 39.1246L42.477 39.2991L45.9963 40.8001L53.0641 40.6833C53.4946 40.6762 53.8377 40.3215 53.8306 39.8911C53.8235 39.4607 53.4688 39.1175 53.0384 39.1246Z" fill="#5A5A5A"/>
<path d="M55.2596 20.2889L65.899 20.2889L67.8818 24.7938L53.9564 25.0237L47.6297 25.1282C46.9114 25.1401 46.3194 24.5674 46.3075 23.849C46.2957 23.1307 46.8684 22.5387 47.5867 22.5268L53.1662 22.4347C53.7491 22.4251 54.2138 21.9447 54.2042 21.3619C54.1944 20.7721 54.6698 20.2889 55.2596 20.2889Z" fill="#5A5A5A"/>
<path d="M57.2486 15.7224L62.4084 15.6371L62.4439 17.787L57.2841 17.8723C56.6905 17.8821 56.2012 17.4087 56.1914 16.8151C56.1816 16.2214 56.6549 15.7322 57.2486 15.7224Z" fill="#434343"/>
<path d="M48.5313 13.9557C47.7801 14.2063 47.0018 14.6012 46.8538 14.6036L43.0626 16.1716L41.0743 19.4839L48.5452 19.3605C48.9311 19.3542 49.2388 19.0362 49.2324 18.6503C49.226 18.2644 49.5337 17.9464 49.9196 17.94L50.887 17.924C51.5104 17.9137 52.0074 17.4001 51.9971 16.7767C51.9868 16.1533 51.4731 15.6563 50.8498 15.6666L50.4735 15.6728C49.9392 15.6817 49.4989 15.2557 49.4901 14.7214C49.4813 14.1871 49.0382 13.7866 48.5313 13.9557Z" fill="#5A5A5A"/>
<path d="M49.3724 26.7122L37.9949 26.9001L38.1008 33.3156L40.0376 36.6511L50.7086 36.4748L54.1928 36.4173C54.8944 36.4057 55.4538 35.8275 55.4422 35.1259C55.4306 34.4243 54.8524 33.8649 54.1508 33.8765L43.5069 34.0523C42.6825 34.0659 42.0032 33.4086 41.9896 32.5842C41.976 31.7598 42.6332 31.0805 43.4576 31.0669L54.165 30.89C54.8316 30.879 55.363 30.3297 55.352 29.6632C55.341 28.9967 54.7917 28.4653 54.1252 28.4763L51.2449 28.5238C50.7362 28.5322 50.317 28.1267 50.3086 27.618C50.3002 27.1093 49.8811 26.7038 49.3724 26.7122Z" fill="#434343"/>
<path d="M62.8478 21.8978L61.6679 16.4021L64.7148 20.2455C66.9131 23.0183 67.9256 26.548 67.5315 30.0645C67.0167 34.6587 64.1707 38.6632 60.0012 40.66L59.2667 41.0118C55.6269 42.7549 51.4351 42.9441 47.6531 41.5357L44.8619 40.4963L48.1133 40.4426C52.5984 40.3686 56.826 38.3336 59.6817 34.8743C62.6652 31.2602 63.8315 26.4799 62.8478 21.8978Z" fill="#313030" fill-opacity="0.5"/>
<path d="M37.6717 28.3033C37.8089 36.6148 44.658 43.2414 52.9695 43.1041C61.281 42.9668 67.9075 36.1178 67.7703 27.8063C67.633 19.4948 60.7839 12.8682 52.4724 13.0055C44.1609 13.1428 37.5344 19.9918 37.6717 28.3033Z" stroke="#3D3D3D" stroke-width="1.61003"/>
</svg>
