<svg width="81" height="57" viewBox="0 0 81 57" fill="none" xmlns="http://www.w3.org/2000/svg">
<path d="M35.7123 39.8032C36.1565 39.8032 36.5165 40.1633 36.5165 40.6074C36.5165 41.0516 36.1565 41.4116 35.7123 41.4116C35.2682 41.4116 34.9081 41.0516 34.9081 40.6074C34.9081 40.1633 35.2682 39.8032 35.7123 39.8032Z" fill="white"/>
<path d="M34.0486 40.6282V40.5866C34.0486 39.6562 34.8028 38.902 35.7332 38.902C36.6636 38.902 37.4179 39.6562 37.4179 40.5866V40.6282C37.4179 41.5586 36.6636 42.3129 35.7332 42.3129C34.8028 42.3129 34.0486 41.5586 34.0486 40.6282Z" fill="white" fill-opacity="0.03"/>
<path d="M35.7126 38.1952C37.0451 38.1952 38.1252 39.2753 38.1252 40.6078C38.1252 41.9402 37.0451 43.0204 35.7126 43.0204C34.3802 43.0204 33.3 41.9402 33.3 40.6078C33.3 39.2753 34.3802 38.1952 35.7126 38.1952Z" fill="white" fill-opacity="0.03"/>
<path d="M24.6126 36.1038C25.0568 36.1038 25.4168 36.4638 25.4168 36.908C25.4168 37.3521 25.0568 37.7122 24.6126 37.7122C24.1685 37.7122 23.8084 37.3521 23.8084 36.908C23.8084 36.4638 24.1685 36.1038 24.6126 36.1038Z" fill="white"/>
<path d="M22.9488 36.9289V36.8873C22.9488 35.9569 23.7031 35.2026 24.6335 35.2026C25.5639 35.2026 26.3181 35.9569 26.3181 36.8873V36.9289C26.3181 37.8593 25.5639 38.6136 24.6335 38.6136C23.7031 38.6136 22.9488 37.8593 22.9488 36.9289Z" fill="white" fill-opacity="0.03"/>
<path d="M24.6126 34.4952C25.9451 34.4952 27.0252 35.5754 27.0252 36.9078C27.0252 38.2403 25.9451 39.3204 24.6126 39.3204C23.2802 39.3204 22.2 38.2403 22.2 36.9078C22.2 35.5754 23.2802 34.4952 24.6126 34.4952Z" fill="white" fill-opacity="0.03"/>
<path d="M32.0125 20.5634C32.4566 20.5634 32.8167 20.9234 32.8167 21.3676C32.8167 21.8117 32.4566 22.1718 32.0125 22.1718C31.5683 22.1718 31.2083 21.8117 31.2083 21.3676C31.2083 20.9234 31.5683 20.5634 32.0125 20.5634Z" fill="white"/>
<path d="M30.3487 21.3885V21.3469C30.3487 20.4165 31.1029 19.6622 32.0333 19.6622C32.9637 19.6622 33.718 20.4165 33.718 21.3469V21.3885C33.718 22.3189 32.9637 23.0731 32.0333 23.0731C31.1029 23.0731 30.3487 22.3189 30.3487 21.3885Z" fill="white" fill-opacity="0.03"/>
<path d="M32.0126 18.9552C33.3451 18.9552 34.4252 20.0354 34.4252 21.3678C34.4252 22.7002 33.3451 23.7804 32.0126 23.7804C30.6802 23.7804 29.6 22.7002 29.6 21.3678C29.6 20.0354 30.6802 18.9552 32.0126 18.9552Z" fill="white" fill-opacity="0.03"/>
<path d="M24.6124 13.9034C25.0566 13.9034 25.4166 14.2635 25.4166 14.7076C25.4166 15.1518 25.0566 15.5118 24.6124 15.5118C24.1683 15.5118 23.8082 15.1518 23.8082 14.7076C23.8082 14.2635 24.1683 13.9034 24.6124 13.9034Z" fill="white"/>
<path d="M22.9485 14.7288V14.6872C22.9485 13.7568 23.7027 13.0026 24.6331 13.0026C25.5635 13.0026 26.3178 13.7568 26.3178 14.6872V14.7288C26.3178 15.6592 25.5635 16.4135 24.6331 16.4135C23.7027 16.4135 22.9485 15.6592 22.9485 14.7288Z" fill="white" fill-opacity="0.03"/>
<path d="M24.6126 12.2952C25.9451 12.2952 27.0252 13.3753 27.0252 14.7078C27.0252 16.0402 25.9451 17.1204 24.6126 17.1204C23.2802 17.1204 22.2 16.0402 22.2 14.7078C22.2 13.3753 23.2802 12.2952 24.6126 12.2952Z" fill="white" fill-opacity="0.03"/>
<path d="M19.4326 25.7433C19.8767 25.7433 20.2368 26.1033 20.2368 26.5475C20.2368 26.9916 19.8767 27.3517 19.4326 27.3517C18.9884 27.3517 18.6284 26.9916 18.6284 26.5475C18.6284 26.1033 18.9884 25.7433 19.4326 25.7433Z" fill="white"/>
<path d="M17.7686 26.5684V26.5268C17.7686 25.5964 18.5228 24.8422 19.4532 24.8422C20.3837 24.8422 21.1379 25.5964 21.1379 26.5268V26.5684C21.1379 27.4988 20.3837 28.2531 19.4532 28.2531C18.5228 28.2531 17.7686 27.4988 17.7686 26.5684Z" fill="white" fill-opacity="0.03"/>
<path d="M19.4326 24.1353C20.7651 24.1353 21.8452 25.2154 21.8452 26.5479C21.8452 27.8803 20.7651 28.9605 19.4326 28.9605C18.1002 28.9605 17.0201 27.8803 17.0201 26.5479C17.0201 25.2154 18.1002 24.1353 19.4326 24.1353Z" fill="white" fill-opacity="0.03"/>
<path d="M12.7723 39.8033C13.2164 39.8033 13.5765 40.1634 13.5765 40.6075C13.5765 41.0517 13.2164 41.4117 12.7723 41.4117C12.3281 41.4117 11.9681 41.0517 11.9681 40.6075C11.9681 40.1634 12.3281 39.8033 12.7723 39.8033Z" fill="white"/>
<path d="M11.1085 40.6285V40.5869C11.1085 39.6565 11.8627 38.9022 12.7931 38.9022C13.7236 38.9022 14.4778 39.6565 14.4778 40.5869V40.6285C14.4778 41.5589 13.7236 42.3131 12.7931 42.3131C11.8627 42.3131 11.1085 41.5589 11.1085 40.6285Z" fill="white" fill-opacity="0.03"/>
<path d="M12.7726 38.1952C14.1051 38.1952 15.1852 39.2753 15.1852 40.6078C15.1852 41.9402 14.1051 43.0204 12.7726 43.0204C11.4402 43.0204 10.36 41.9402 10.36 40.6078C10.36 39.2753 11.4402 38.1952 12.7726 38.1952Z" fill="white" fill-opacity="0.03"/>
<path d="M2.41241 25.7433C2.85656 25.7433 3.21661 26.1033 3.21661 26.5475C3.21661 26.9916 2.85656 27.3517 2.41241 27.3517C1.96827 27.3517 1.60822 26.9916 1.60822 26.5475C1.60822 26.1033 1.96827 25.7433 2.41241 25.7433Z" fill="white"/>
<path d="M0.748596 26.5685V26.5269C0.748596 25.5965 1.50284 24.8423 2.43325 24.8423C3.36367 24.8423 4.11791 25.5965 4.11791 26.5269V26.5685C4.11791 27.499 3.36367 28.2532 2.43325 28.2532C1.50284 28.2532 0.748596 27.499 0.748596 26.5685Z" fill="white" fill-opacity="0.03"/>
<path d="M2.41266 24.1353C3.7451 24.1353 4.82526 25.2154 4.82526 26.5479C4.82526 27.8803 3.7451 28.9605 2.41266 28.9605C1.08022 28.9605 6.10352e-05 27.8803 6.10352e-05 26.5479C6.10352e-05 25.2154 1.08022 24.1353 2.41266 24.1353Z" fill="white" fill-opacity="0.03"/>
<path d="M9.07239 18.3436C9.51653 18.3436 9.87659 18.7037 9.87659 19.1478C9.87659 19.592 9.51653 19.952 9.07239 19.952C8.62824 19.952 8.26819 19.592 8.26819 19.1478C8.26819 18.7037 8.62824 18.3436 9.07239 18.3436Z" fill="white"/>
<path d="M7.40842 19.1689V19.1273C7.40842 18.1969 8.16266 17.4426 9.09308 17.4426C10.0235 17.4426 10.7777 18.1969 10.7777 19.1273V19.1689C10.7777 20.0993 10.0235 20.8535 9.09308 20.8535C8.16266 20.8535 7.40842 20.0993 7.40842 19.1689Z" fill="white" fill-opacity="0.03"/>
<path d="M9.07263 16.7352C10.4051 16.7352 11.4852 17.8154 11.4852 19.1478C11.4852 20.4803 10.4051 21.5604 9.07263 21.5604C7.74019 21.5604 6.66003 20.4803 6.66003 19.1478C6.66003 17.8154 7.74019 16.7352 9.07263 16.7352Z" fill="white" fill-opacity="0.03"/>
<path d="M28.5316 28.3036C28.5316 41.6248 39.3306 52.4239 52.6519 52.4239C65.9731 52.4239 76.7721 41.6248 76.7721 28.3036C76.7721 14.9824 65.9731 4.18335 52.6519 4.18335C39.3306 4.18335 28.5316 14.9824 28.5316 28.3036Z" fill="#3E3E3E" fill-opacity="0.1"/>
<path d="M25.2531 28.3035C25.2531 43.4354 37.52 55.7023 52.6519 55.7023C67.7838 55.7023 80.0506 43.4354 80.0506 28.3035C80.0506 13.1716 67.7838 0.904785 52.6519 0.904785C37.52 0.904785 25.2531 13.1716 25.2531 28.3035Z" fill="#3E3E3E" fill-opacity="0.1"/>
<path d="M31.8101 28.3036C31.8101 39.5555 40.9316 48.677 52.1835 48.677C63.4355 48.677 72.557 39.5555 72.557 28.3036C72.557 17.0517 63.4355 7.93018 52.1835 7.93018C40.9316 7.93018 31.8101 17.0517 31.8101 28.3036Z" fill="#3E3E3E" fill-opacity="0.1"/>
<path d="M31.827 28.3827C32.0106 39.4984 41.1704 48.3605 52.286 48.177C63.4016 47.9934 72.2638 38.8336 72.0803 27.7179C71.8967 16.6023 62.7369 7.74013 51.6212 7.92371C40.5056 8.10728 31.6434 17.2671 31.827 28.3827Z" fill="white" fill-opacity="0.01"/>
<path d="M29.5908 28.4197C29.7948 40.7704 39.9724 50.6172 52.3231 50.4133C64.6738 50.2093 74.5206 40.0317 74.3167 27.681C74.1127 15.3303 63.9351 5.48346 51.5844 5.68743C39.2337 5.89141 29.3869 16.069 29.5908 28.4197Z" fill="#FFF500" fill-opacity="0.01"/>
<path d="M37.0321 28.2096C37.1693 36.5211 44.0184 43.1476 52.3299 43.0104C60.6414 42.8731 67.268 36.024 67.1307 27.7125C66.9934 19.401 60.1444 12.7745 51.8329 12.9117C43.5213 13.049 36.8948 19.8981 37.0321 28.2096Z" fill="#898989"/>
<path d="M46.0898 19.9954L40.7151 20.0841L38.7802 20.1161L38.0396 24.1067L42.6619 24.0304C43.1962 24.0216 43.6222 23.5813 43.6134 23.0469C43.6046 22.5126 44.0306 22.0723 44.5649 22.0635L46.1235 22.0378C46.6875 22.0285 47.1372 21.5637 47.1279 20.9997C47.1186 20.4357 46.6538 19.986 46.0898 19.9954Z" fill="#434343"/>
<path d="M61.5854 24.0965L66.7889 24.023C67.2425 25.4492 66.8607 28.3766 66.8643 28.5916C66.8678 28.8066 66.7424 30.977 66.3299 32.0412L63.3559 32.0758L60.6148 32.1211C60.0508 32.1304 59.586 31.6807 59.5767 31.1167C59.5674 30.5527 60.0171 30.088 60.5811 30.0787L60.8498 30.0742L62.3547 30.0494C62.889 30.0405 63.315 29.6002 63.3062 29.0659C63.2974 28.5316 62.8571 28.1056 62.3228 28.1144L60.8178 28.1393L58.3992 28.1792C57.7462 28.19 57.208 27.6694 57.1972 27.0163C57.1864 26.3633 57.7071 25.8251 58.3601 25.8144L59.9467 25.7882C60.4063 25.7806 60.7726 25.4019 60.765 24.9423C60.7574 24.482 61.125 24.103 61.5854 24.0965Z" fill="#5A5A5A"/>
<path d="M57.7112 36.2547L64.5821 36.1412L63.3542 38.6393L57.7319 38.6393C57.081 38.6393 56.5504 38.1174 56.5397 37.4666C56.5288 36.8082 57.0528 36.2656 57.7112 36.2547Z" fill="#5A5A5A"/>
<path d="M52.2915 39.0325L41.7301 39.2069L45.2495 40.7079L52.3173 40.5912C52.7477 40.5841 53.0908 40.2294 53.0837 39.799C53.0766 39.3685 52.7219 39.0254 52.2915 39.0325Z" fill="#5A5A5A"/>
<path d="M54.5127 20.1967L65.1521 20.1967L67.1349 24.7016L53.2095 24.9316L46.8828 25.0361C46.1645 25.0479 45.5725 24.4752 45.5607 23.7569C45.5488 23.0385 46.1215 22.4465 46.8399 22.4347L52.4193 22.3425C53.0022 22.3329 53.4669 21.8526 53.4573 21.2697C53.4476 20.68 53.9229 20.1967 54.5127 20.1967Z" fill="#5A5A5A"/>
<path d="M56.5017 15.6302L61.6615 15.545L61.697 17.6949L56.5372 17.7801C55.9436 17.7899 55.4543 17.3166 55.4445 16.7229C55.4347 16.1292 55.9081 15.64 56.5017 15.6302Z" fill="#434343"/>
<path d="M47.7844 13.8635C47.0332 14.1141 46.2549 14.509 46.1069 14.5115L42.3157 16.0794L40.3275 19.3917L47.7984 19.2684C48.1843 19.262 48.4919 18.944 48.4855 18.5581C48.4792 18.1722 48.7868 17.8542 49.1727 17.8478L50.1402 17.8319C50.7635 17.8216 51.2605 17.3079 51.2502 16.6845C51.2399 16.0612 50.7263 15.5642 50.1029 15.5745L49.7267 15.5807C49.1923 15.5895 48.7521 15.1635 48.7432 14.6292C48.7344 14.0949 48.2913 13.6944 47.7844 13.8635Z" fill="#5A5A5A"/>
<path d="M48.6255 26.62L37.248 26.8079L37.354 33.2234L39.2908 36.5589L49.9617 36.3827L53.4459 36.3251C54.1475 36.3135 54.7069 35.7354 54.6953 35.0338C54.6837 34.3321 54.1056 33.7727 53.4039 33.7843L42.7601 33.9601C41.9357 33.9737 41.2563 33.3165 41.2427 32.4921C41.2291 31.6677 41.8864 30.9883 42.7108 30.9747L53.4182 30.7979C54.0847 30.7868 54.6161 30.2376 54.6051 29.571C54.5941 28.9045 54.0448 28.3731 53.3783 28.3841L50.498 28.4317C49.9894 28.4401 49.5702 28.0345 49.5618 27.5258C49.5534 27.0172 49.1342 26.6116 48.6255 26.62Z" fill="#434343"/>
<path d="M62.1009 21.8056L60.921 16.3099L63.9679 20.1533C66.1662 22.9262 67.1787 26.4558 66.7847 29.9724C66.2698 34.5665 63.4238 38.571 59.2544 40.5678L58.5198 40.9196C54.8801 42.6628 50.6882 42.8519 46.9063 41.4436L44.115 40.4042L47.3664 40.3505C51.8515 40.2764 56.0791 38.2415 58.9348 34.7822C61.9183 31.168 63.0846 26.3877 62.1009 21.8056Z" fill="#313030" fill-opacity="0.5"/>
<path d="M36.9248 28.2112C37.062 36.5227 43.9111 43.1492 52.2226 43.0119C60.5341 42.8747 67.1607 36.0256 67.0234 27.7141C66.8861 19.4026 60.0371 12.7761 51.7256 12.9133C43.414 13.0506 36.7875 19.8997 36.9248 28.2112Z" stroke="#3D3D3D" stroke-width="1.61003"/>
</svg>
