<svg width="66" height="167" viewBox="0 0 66 167" fill="none" xmlns="http://www.w3.org/2000/svg">
<path d="M33 167L33 70" stroke="url(#paint0_linear_380_7)" stroke-width="12"/>
<g filter="url(#filter0_d_380_7)">
<path d="M49.1538 60.1979H36.0769V65.5825H46.0769H48.8352C49.5318 65.5825 50.1998 65.3058 50.6923 64.8133C51.1848 64.3208 51.4615 63.6528 51.4615 62.9562V60.1979H49.1538Z" fill="white"/>
<path d="M29.9231 60.1979H16.8462H14.5385V62.9562C14.5385 63.6528 14.8152 64.3208 15.3077 64.8133C15.8002 65.3058 16.4682 65.5825 17.1648 65.5825H19.9231H29.9231V60.1979Z" fill="white"/>
<path d="M19.9231 65.5825V68.4266C19.9231 69.5332 20.4762 70.5666 21.397 71.1805C21.9407 71.543 22.5795 71.7364 23.2329 71.7364H29.9231V65.5825H19.9231Z" fill="white"/>
<path d="M46.0769 68.4266V65.5825H36.0769V71.7364H42.7671C43.4205 71.7364 44.0593 71.543 44.603 71.1805C45.5238 70.5666 46.0769 69.5332 46.0769 68.4266Z" fill="white"/>
<path fill-rule="evenodd" clip-rule="evenodd" d="M21.6911 11.6276C21.1071 12.5487 20.634 13.5346 20.2387 14.5512L19.2421 17.1139C17.6586 21.1857 16.8462 25.5164 16.8462 29.8853V31.7364V60.1979H29.9231L29.9231 50.911C29.9231 50.4421 30.0323 49.9795 30.242 49.5601C30.5343 48.9755 31.0083 48.5014 31.593 48.2091C32.0124 47.9994 32.4749 47.8902 32.9439 47.8902H33.0561C33.5251 47.8902 33.9876 47.9994 34.407 48.2091C34.9917 48.5014 35.4657 48.9755 35.758 49.5601C35.9677 49.9795 36.0769 50.4421 36.0769 50.911V60.1979H49.1538V31.7364V29.8853C49.1538 25.5164 48.3414 21.1857 46.7579 17.1139L45.7561 14.5377C45.3641 13.5298 44.9027 12.5491 44.3368 11.6276V11.6276H33L21.6911 11.6276V11.6276ZM29.1539 24.8133L29.6045 24.3627C30.301 23.6662 31.7311 22.9908 32.7161 22.9908H33.2564C34.2415 22.9908 35.699 23.6662 36.3955 24.3627L36.8461 24.8133C37.8312 25.7984 38.3846 27.1344 38.3846 28.5275V29.5607C38.3846 30.9538 37.8312 32.2898 36.8461 33.2748L36.3955 33.7254C35.699 34.422 34.2415 34.8773 33.2564 34.8773H32.7161C31.7311 34.8773 30.301 34.422 29.6045 33.7254L29.1539 33.2748C28.1688 32.2898 27.6154 30.9538 27.6154 29.5607V28.5275C27.6154 27.1344 28.1688 25.7984 29.1539 24.8133Z" fill="white"/>
<path d="M16.8462 60.1979V31.7364M16.8462 60.1979H29.9231M16.8462 60.1979H14.5385M16.8462 31.7364V29.8853C16.8462 25.5164 17.6586 21.1857 19.2421 17.1139L20.2387 14.5512C20.634 13.5346 21.1071 12.5487 21.6911 11.6276V11.6276M16.8462 31.7364L3 46.3518L3 56.8881C3 57.9947 3.55308 59.0282 4.47387 59.642C5.01756 60.0045 5.65639 60.1979 6.30983 60.1979H14.5385M29.9231 60.1979L29.9231 50.911C29.9231 50.4421 30.0323 49.9795 30.242 49.5601C30.5343 48.9755 31.0083 48.5014 31.593 48.2091C32.0124 47.9994 32.4749 47.8902 32.9439 47.8902H33.0561C33.5251 47.8902 33.9876 47.9994 34.407 48.2091C34.9917 48.5014 35.4657 48.9755 35.758 49.5601C35.9677 49.9795 36.0769 50.4421 36.0769 50.911V60.1979M29.9231 60.1979V65.5825M29.9231 71.7364L31.0349 73.404C31.3014 73.8039 31.7502 74.0441 32.2308 74.0441H33.7692C34.2498 74.0441 34.6986 73.8039 34.9651 73.404L36.0769 71.7364M29.9231 71.7364V65.5825M29.9231 71.7364H23.2329C22.5795 71.7364 21.9407 71.543 21.397 71.1805C20.4762 70.5666 19.9231 69.5332 19.9231 68.4266V65.5825M19.9231 65.5825H17.1648C16.4682 65.5825 15.8002 65.3058 15.3077 64.8133C14.8152 64.3208 14.5385 63.6528 14.5385 62.9562V60.1979M19.9231 65.5825H29.9231M49.1538 60.1979V31.7364M49.1538 60.1979H36.0769M49.1538 60.1979H51.4615M49.1538 31.7364V29.8853C49.1538 25.5164 48.3414 21.1857 46.7579 17.1139L45.7561 14.5377C45.3641 13.5298 44.9027 12.5491 44.3368 11.6276V11.6276M49.1538 31.7364L63 46.3518V56.8881C63 57.9947 62.4469 59.0282 61.5261 59.642C60.9824 60.0045 60.3436 60.1979 59.6902 60.1979H51.4615M36.0769 60.1979V65.5825M36.0769 71.7364V65.5825M36.0769 71.7364H42.7671C43.4205 71.7364 44.0593 71.543 44.603 71.1805C45.5238 70.5666 46.0769 69.5332 46.0769 68.4266V65.5825M46.0769 65.5825H48.8352C49.5318 65.5825 50.1998 65.3058 50.6923 64.8133C51.1848 64.3208 51.4615 63.6528 51.4615 62.9562V60.1979M46.0769 65.5825H36.0769M44.3368 11.6276C43.7065 10.601 43.0834 9.67017 42.3313 8.6524C41.4188 7.41779 40.3518 6.30733 39.2183 5.27201V5.27201C37.9808 4.14172 36.4427 3.39368 34.7895 3.11815C34.3177 3.03952 33.8402 3 33.3619 3H33H32.6381C32.1598 3 31.6823 3.03952 31.2105 3.11815C29.5573 3.39368 28.0192 4.14172 26.7817 5.27201V5.27201C25.6487 6.30686 24.5989 7.43231 23.6984 8.67475C22.9889 9.65359 22.3412 10.6023 21.6911 11.6276M44.3368 11.6276H33L21.6911 11.6276M29.6045 24.3627L29.1539 24.8133C28.1688 25.7984 27.6154 27.1344 27.6154 28.5275V29.5607C27.6154 30.9538 28.1688 32.2898 29.1539 33.2748L29.6045 33.7254C30.301 34.422 31.7311 34.8773 32.7161 34.8773H33.2564C34.2415 34.8773 35.699 34.422 36.3955 33.7254L36.8461 33.2748C37.8312 32.2898 38.3846 30.9538 38.3846 29.5607V28.5275C38.3846 27.1344 37.8312 25.7984 36.8461 24.8133L36.3955 24.3627C35.699 23.6662 34.2415 22.9908 33.2564 22.9908H32.7161C31.7311 22.9908 30.301 23.6662 29.6045 24.3627Z" stroke="#383535" stroke-width="1.34901"/>
</g>
<g filter="url(#filter1_d_380_7)">
<path d="M29.6038 24.3633L29.1532 24.8139C28.1681 25.799 27.6147 27.135 27.6147 28.5281V29.5613C27.6147 30.9544 28.1681 32.2904 29.1532 33.2755L29.6038 33.7261C30.3004 34.4226 31.7304 34.8779 32.7155 34.8779H33.2558C34.2408 34.8779 35.6983 34.4226 36.3949 33.7261L36.8455 33.2755C37.8305 32.2904 38.3839 30.9544 38.3839 29.5613V28.5281C38.3839 27.135 37.8305 25.799 36.8455 24.8139L36.3949 24.3633C35.6983 23.6668 34.2408 22.9915 33.2558 22.9915H32.7155C31.7304 22.9915 30.3004 23.6668 29.6038 24.3633Z" fill="url(#paint1_linear_380_7)"/>
<path d="M29.6038 24.3633L29.1532 24.8139C28.1681 25.799 27.6147 27.135 27.6147 28.5281V29.5613C27.6147 30.9544 28.1681 32.2904 29.1532 33.2755L29.6038 33.7261C30.3004 34.4226 31.7304 34.8779 32.7155 34.8779H33.2558C34.2408 34.8779 35.6983 34.4226 36.3949 33.7261L36.8455 33.2755C37.8305 32.2904 38.3839 30.9544 38.3839 29.5613V28.5281C38.3839 27.135 37.8305 25.799 36.8455 24.8139L36.3949 24.3633C35.6983 23.6668 34.2408 22.9915 33.2558 22.9915H32.7155C31.7304 22.9915 30.3004 23.6668 29.6038 24.3633Z" stroke="#2E2D5F" stroke-width="2.75968"/>
</g>
<path d="M3 46.3518L3 56.8881C3 57.9947 3.55308 59.0282 4.47387 59.642C5.01756 60.0045 5.65639 60.1979 6.30983 60.1979H14.5385H16.8462V31.7364L3 46.3518Z" fill="url(#paint2_linear_380_7)"/>
<path d="M63 56.8881V46.3518L49.1538 31.7364V60.1979H51.4615H59.6902C60.3436 60.1979 60.9824 60.0045 61.5261 59.642C62.4469 59.0282 63 57.9947 63 56.8881Z" fill="url(#paint3_linear_380_7)"/>
<path d="M29.9231 50.911L29.9231 60.1979V65.5825V71.7364L31.0349 73.404C31.3014 73.8039 31.7502 74.0441 32.2308 74.0441H33.7692C34.2498 74.0441 34.6986 73.8039 34.9651 73.404L36.0769 71.7364V65.5825V60.1979V50.911C36.0769 50.4421 35.9677 49.9795 35.758 49.5601C35.4657 48.9755 34.9917 48.5014 34.407 48.2091C33.9876 47.9994 33.5251 47.8902 33.0561 47.8902H32.9439C32.4749 47.8902 32.0124 47.9994 31.593 48.2091C31.0083 48.5014 30.5343 48.9755 30.242 49.5601C30.0323 49.9795 29.9231 50.4421 29.9231 50.911Z" fill="url(#paint4_linear_380_7)"/>
<path d="M26.7817 5.27201C25.6487 6.30686 24.5989 7.43231 23.6984 8.67475C22.9889 9.65359 22.3412 10.6023 21.6911 11.6276L33 11.6276H44.3368C43.7065 10.601 43.0834 9.67017 42.3312 8.6524C41.4188 7.41779 40.3518 6.30733 39.2183 5.27201C37.9808 4.14172 36.4427 3.39368 34.7895 3.11815C34.3177 3.03952 33.8402 3 33.3619 3H33H32.6381C32.1598 3 31.6823 3.03952 31.2105 3.11815C29.5573 3.39368 28.0192 4.14172 26.7817 5.27201Z" fill="url(#paint5_linear_380_7)"/>
<path d="M3 46.3518L3 56.8881C3 57.9947 3.55308 59.0282 4.47387 59.642C5.01756 60.0045 5.65639 60.1979 6.30983 60.1979H14.5385H16.8462V31.7364L3 46.3518Z" stroke="#383535" stroke-width="1.34901"/>
<path d="M63 56.8881V46.3518L49.1538 31.7364V60.1979H51.4615H59.6902C60.3436 60.1979 60.9824 60.0045 61.5261 59.642C62.4469 59.0282 63 57.9947 63 56.8881Z" stroke="#383535" stroke-width="1.34901"/>
<path d="M29.9231 50.911L29.9231 60.1979V65.5825V71.7364L31.0349 73.404C31.3014 73.8039 31.7502 74.0441 32.2308 74.0441H33.7692C34.2498 74.0441 34.6986 73.8039 34.9651 73.404L36.0769 71.7364V65.5825V60.1979V50.911C36.0769 50.4421 35.9677 49.9795 35.758 49.5601C35.4657 48.9755 34.9917 48.5014 34.407 48.2091C33.9876 47.9994 33.5251 47.8902 33.0561 47.8902H32.9439C32.4749 47.8902 32.0124 47.9994 31.593 48.2091C31.0083 48.5014 30.5343 48.9755 30.242 49.5601C30.0323 49.9795 29.9231 50.4421 29.9231 50.911Z" stroke="#383535" stroke-width="1.34901"/>
<path d="M26.7817 5.27201C25.6487 6.30686 24.5989 7.43231 23.6984 8.67475C22.9889 9.65359 22.3412 10.6023 21.6911 11.6276L33 11.6276H44.3368C43.7065 10.601 43.0834 9.67017 42.3312 8.6524C41.4188 7.41779 40.3518 6.30733 39.2183 5.27201C37.9808 4.14172 36.4427 3.39368 34.7895 3.11815C34.3177 3.03952 33.8402 3 33.3619 3H33H32.6381C32.1598 3 31.6823 3.03952 31.2105 3.11815C29.5573 3.39368 28.0192 4.14172 26.7817 5.27201Z" stroke="#383535" stroke-width="1.34901"/>
<path d="M48.6037 30.2903L43.4976 35.3964V59.6945" stroke="#D7D7D7" stroke-width="0.449669"/>
<path d="M17.4378 30.2891L22.5439 35.3952V59.6933" stroke="#D7D7D7" stroke-width="0.449669"/>
<path d="M20.7246 14.7957H33.2871H45.2601" stroke="#D7D7D7" stroke-width="0.449669"/>
<defs>
<filter id="filter0_d_380_7" x="0.527009" y="0.526765" width="64.946" height="75.9904" filterUnits="userSpaceOnUse" color-interpolation-filters="sRGB">
<feFlood flood-opacity="0" result="BackgroundImageFix"/>
<feColorMatrix in="SourceAlpha" type="matrix" values="0 0 0 0 0 0 0 0 0 0 0 0 0 0 0 0 0 0 127 0" result="hardAlpha"/>
<feOffset/>
<feGaussianBlur stdDeviation="0.899337"/>
<feComposite in2="hardAlpha" operator="out"/>
<feColorMatrix type="matrix" values="0 0 0 0 0 0 0 0 0 0 0 0 0 0 0 0 0 0 0.5 0"/>
<feBlend mode="normal" in2="BackgroundImageFix" result="effect1_dropShadow_380_7"/>
<feBlend mode="normal" in="SourceGraphic" in2="effect1_dropShadow_380_7" result="shape"/>
</filter>
<filter id="filter1_d_380_7" x="24.4362" y="19.8129" width="17.1262" height="18.2436" filterUnits="userSpaceOnUse" color-interpolation-filters="sRGB">
<feFlood flood-opacity="0" result="BackgroundImageFix"/>
<feColorMatrix in="SourceAlpha" type="matrix" values="0 0 0 0 0 0 0 0 0 0 0 0 0 0 0 0 0 0 127 0" result="hardAlpha"/>
<feOffset/>
<feGaussianBlur stdDeviation="0.899337"/>
<feComposite in2="hardAlpha" operator="out"/>
<feColorMatrix type="matrix" values="0 0 0 0 0 0 0 0 0 0 0 0 0 0 0 0 0 0 0.5 0"/>
<feBlend mode="normal" in2="BackgroundImageFix" result="effect1_dropShadow_380_7"/>
<feBlend mode="normal" in="SourceGraphic" in2="effect1_dropShadow_380_7" result="shape"/>
</filter>
<linearGradient id="paint0_linear_380_7" x1="33" y1="66.0609" x2="33" y2="157.152" gradientUnits="userSpaceOnUse">
<stop stop-color="#F5F5F5"/>
<stop offset="0.432292" stop-color="#CD482B"/>
<stop offset="1" stop-color="#CD482B" stop-opacity="0"/>
</linearGradient>
<linearGradient id="paint1_linear_380_7" x1="32.9993" y1="22.9915" x2="32.9993" y2="34.8779" gradientUnits="userSpaceOnUse">
<stop stop-color="#4779FB"/>
<stop offset="1" stop-color="#B9CDFF"/>
</linearGradient>
<linearGradient id="paint2_linear_380_7" x1="33" y1="3" x2="33" y2="74.0441" gradientUnits="userSpaceOnUse">
<stop stop-color="#FF5631"/>
<stop offset="0.916667" stop-color="#A83E27"/>
<stop offset="1" stop-color="#863423"/>
</linearGradient>
<linearGradient id="paint3_linear_380_7" x1="33" y1="3" x2="33" y2="74.0441" gradientUnits="userSpaceOnUse">
<stop stop-color="#FF5631"/>
<stop offset="0.916667" stop-color="#A83E27"/>
<stop offset="1" stop-color="#863423"/>
</linearGradient>
<linearGradient id="paint4_linear_380_7" x1="33" y1="3" x2="33" y2="74.0441" gradientUnits="userSpaceOnUse">
<stop stop-color="#FF5631"/>
<stop offset="0.916667" stop-color="#A83E27"/>
<stop offset="1" stop-color="#863423"/>
</linearGradient>
<linearGradient id="paint5_linear_380_7" x1="33" y1="3" x2="33" y2="74.0441" gradientUnits="userSpaceOnUse">
<stop stop-color="#FF5631"/>
<stop offset="0.916667" stop-color="#A83E27"/>
<stop offset="1" stop-color="#863423"/>
</linearGradient>
</defs>
</svg>
