<svg width="29" height="26" viewBox="0 0 29 26" fill="none" xmlns="http://www.w3.org/2000/svg">
<g filter="url(#filter0_d_180_1376)">
<path d="M6.26217 19.4205V14.4506H4.21577V18.2511V19.2994C4.21577 19.5641 4.32093 19.818 4.50811 20.0051C4.6953 20.1923 4.94918 20.2975 5.21389 20.2975H6.26217V19.4205Z" fill="white"/>
<path d="M6.26217 12.1119V7.14206V6.26503H5.21389C4.94918 6.26503 4.6953 6.37019 4.50811 6.55737C4.32093 6.74456 4.21577 6.99843 4.21577 7.26315V8.31143V12.1119H6.26217Z" fill="white"/>
<path d="M4.21577 8.31143H3.13491C2.71434 8.31143 2.32159 8.52163 2.08829 8.87157C1.95054 9.0782 1.87703 9.32098 1.87703 9.56932V12.1119H4.21577V8.31143Z" fill="white"/>
<path d="M3.13491 18.2511H4.21577V14.4506H1.87703V16.9932C1.87703 17.2415 1.95054 17.4843 2.08829 17.6909C2.32159 18.0409 2.71434 18.2511 3.13491 18.2511Z" fill="white"/>
<path fill-rule="evenodd" clip-rule="evenodd" d="M24.7211 8.98336C24.371 8.7614 23.9964 8.58162 23.61 8.43138L22.6361 8.05263C21.0886 7.45083 19.4427 7.14206 17.7823 7.14206H17.0789L6.26217 7.14206V12.1119H9.79161C9.96984 12.1119 10.1456 12.1534 10.305 12.2331C10.5272 12.3442 10.7074 12.5243 10.8185 12.7465C10.8982 12.9059 10.9397 13.0817 10.9397 13.2599V13.3026C10.9397 13.4808 10.8982 13.6566 10.8185 13.816C10.7074 14.0382 10.5272 14.2183 10.305 14.3294C10.1456 14.4091 9.96984 14.4506 9.79161 14.4506H6.26217V19.4205L17.0789 19.4205H17.7823C19.4427 19.4205 21.0886 19.1117 22.6361 18.5099L23.6152 18.1291C23.9982 17.9802 24.3709 17.8048 24.7211 17.5898L24.7211 13.2813V8.98336ZM19.7099 11.8195L19.8812 11.9908C20.1459 12.2555 20.4026 12.799 20.4026 13.1734V13.3787C20.4026 13.7531 20.1459 14.307 19.8812 14.5717L19.7099 14.743C19.3356 15.1173 18.8278 15.3276 18.2984 15.3276H17.9057C17.3763 15.3276 16.8685 15.1173 16.4942 14.743L16.3229 14.5717C16.0582 14.307 15.8852 13.7531 15.8852 13.3787V13.1734C15.8852 12.799 16.0582 12.2555 16.3229 11.9908L16.4942 11.8195C16.8685 11.4452 17.3763 11.2349 17.9057 11.2349H18.2984C18.8278 11.2349 19.3356 11.4452 19.7099 11.8195Z" fill="white"/>
<path d="M6.26217 7.14206L17.0789 7.14206M6.26217 7.14206V12.1119M6.26217 7.14206V6.26503M17.0789 7.14206H17.7823C19.4427 7.14206 21.0886 7.45083 22.6361 8.05263L23.61 8.43138C23.9964 8.58162 24.371 8.7614 24.7211 8.98336V8.98336M17.0789 7.14206L11.5243 1.87988L7.52006 1.87988C7.09948 1.87988 6.70673 2.09008 6.47343 2.44002C6.33568 2.64665 6.26217 2.88943 6.26217 3.13777V6.26503M6.26217 12.1119H9.79161C9.96984 12.1119 10.1456 12.1534 10.305 12.2331C10.5272 12.3442 10.7074 12.5243 10.8185 12.7465C10.8982 12.9059 10.9397 13.0817 10.9397 13.2599V13.3026C10.9397 13.4808 10.8982 13.6566 10.8185 13.816C10.7074 14.0382 10.5272 14.2183 10.305 14.3294C10.1456 14.4091 9.96984 14.4506 9.79161 14.4506H6.26217M6.26217 12.1119H4.21577M1.87703 12.1119L1.24324 12.5344C1.09128 12.6357 1 12.8063 1 12.9889V13.5736C1 13.7562 1.09128 13.9268 1.24324 14.0281L1.87703 14.4506M1.87703 12.1119H4.21577M1.87703 12.1119V9.56932C1.87703 9.32098 1.95054 9.0782 2.08829 8.87157C2.32159 8.52163 2.71434 8.31143 3.13491 8.31143H4.21577M4.21577 8.31143V7.26315C4.21577 6.99843 4.32093 6.74456 4.50811 6.55737C4.6953 6.37019 4.94918 6.26503 5.21389 6.26503H6.26217M4.21577 8.31143V12.1119M6.26217 19.4205L17.0789 19.4205M6.26217 19.4205V14.4506M6.26217 19.4205V20.2975M17.0789 19.4205H17.7823C19.4427 19.4205 21.0886 19.1117 22.6361 18.5099L23.6152 18.1291C23.9982 17.9802 24.3709 17.8048 24.7211 17.5898V17.5898M17.0789 19.4205L11.5243 24.6826H7.52006C7.09948 24.6826 6.70673 24.4724 6.47343 24.1225C6.33568 23.9159 6.26217 23.6731 6.26217 23.4247V20.2975M6.26217 14.4506H4.21577M1.87703 14.4506H4.21577M1.87703 14.4506V16.9932C1.87703 17.2415 1.95054 17.4843 2.08829 17.6909C2.32159 18.0409 2.71434 18.2511 3.13491 18.2511H4.21577M4.21577 18.2511V19.2994C4.21577 19.5641 4.32093 19.818 4.50811 20.0051C4.6953 20.1923 4.94918 20.2975 5.21389 20.2975H6.26217M4.21577 18.2511V14.4506M24.7211 17.5898C25.1113 17.3502 25.465 17.1134 25.8518 16.8276C26.321 16.4808 26.7431 16.0753 27.1365 15.6445V15.6445C27.5661 15.1742 27.8504 14.5896 27.9551 13.9613C27.985 13.782 28 13.6006 28 13.4188V13.2813V13.1437C28 12.9619 27.985 12.7805 27.9551 12.6012C27.8504 11.9729 27.5661 11.3883 27.1365 10.918V10.918C26.7432 10.4874 26.3155 10.0885 25.8433 9.74622C25.4713 9.47659 25.1108 9.23041 24.7211 8.98336M24.7211 17.5898V13.2813V8.98336M19.8812 11.9908L19.7099 11.8195C19.3356 11.4452 18.8278 11.2349 18.2984 11.2349H17.9057C17.3763 11.2349 16.8685 11.4452 16.4942 11.8195L16.3229 11.9908C16.0582 12.2555 15.8852 12.799 15.8852 13.1734V13.3787C15.8852 13.7531 16.0582 14.307 16.3229 14.5717L16.4942 14.743C16.8685 15.1173 17.3763 15.3276 17.9057 15.3276H18.2984C18.8278 15.3276 19.3356 15.1173 19.7099 14.743L19.8812 14.5717C20.1459 14.307 20.4026 13.7531 20.4026 13.3787V13.1734C20.4026 12.799 20.1459 12.2555 19.8812 11.9908Z" stroke="#383535" stroke-width="0.512684"/>
</g>
<g filter="url(#filter1_d_180_1376)">
<path d="M19.881 11.9906L19.7097 11.8193C19.3354 11.4449 18.8276 11.2346 18.2982 11.2346H17.9055C17.3761 11.2346 16.8683 11.4449 16.494 11.8193L16.3227 11.9906C16.058 12.2553 15.8849 12.7988 15.8849 13.1731V13.3785C15.8849 13.7528 16.058 14.3068 16.3227 14.5715L16.494 14.7427C16.8683 15.1171 17.3761 15.3274 17.9055 15.3274H18.2982C18.8276 15.3274 19.3354 15.1171 19.7097 14.7427L19.881 14.5715C20.1457 14.3068 20.4023 13.7528 20.4023 13.3785V13.1731C20.4023 12.7988 20.1457 12.2553 19.881 11.9906Z" fill="url(#paint0_linear_180_1376)"/>
<path d="M19.881 11.9906L19.7097 11.8193C19.3354 11.4449 18.8276 11.2346 18.2982 11.2346H17.9055C17.3761 11.2346 16.8683 11.4449 16.494 11.8193L16.3227 11.9906C16.058 12.2553 15.8849 12.7988 15.8849 13.1731V13.3785C15.8849 13.7528 16.058 14.3068 16.3227 14.5715L16.494 14.7427C16.8683 15.1171 17.3761 15.3274 17.9055 15.3274H18.2982C18.8276 15.3274 19.3354 15.1171 19.7097 14.7427L19.881 14.5715C20.1457 14.3068 20.4023 13.7528 20.4023 13.3785V13.1731C20.4023 12.7988 20.1457 12.2553 19.881 11.9906Z" stroke="#2E2D5F" stroke-width="1.0488"/>
</g>
<path d="M11.5243 1.87988L7.52006 1.87988C7.09948 1.87988 6.70673 2.09008 6.47343 2.44002C6.33568 2.64665 6.26217 2.88943 6.26217 3.13777V6.26503V7.14206L17.0789 7.14206L11.5243 1.87988Z" fill="url(#paint1_linear_180_1376)"/>
<path d="M7.52006 24.6826H11.5243L17.0789 19.4205L6.26217 19.4205V20.2975V23.4247C6.26217 23.6731 6.33568 23.9159 6.47343 24.1225C6.70673 24.4724 7.09948 24.6826 7.52006 24.6826Z" fill="url(#paint2_linear_180_1376)"/>
<path d="M9.79161 12.1119H6.26217H4.21577H1.87703L1.24324 12.5344C1.09128 12.6357 1 12.8063 1 12.9889V13.5736C1 13.7562 1.09128 13.9268 1.24324 14.0281L1.87703 14.4506H4.21577H6.26217H9.79161C9.96984 14.4506 10.1456 14.4091 10.305 14.3294C10.5272 14.2183 10.7074 14.0382 10.8185 13.816C10.8982 13.6566 10.9397 13.4808 10.9397 13.3026V13.2599C10.9397 13.0817 10.8982 12.9059 10.8185 12.7465C10.7074 12.5243 10.5272 12.3442 10.305 12.2331C10.1456 12.1534 9.96984 12.1119 9.79161 12.1119Z" fill="url(#paint3_linear_180_1376)"/>
<path d="M27.1365 10.918C26.7432 10.4874 26.3155 10.0885 25.8433 9.74621C25.4713 9.47658 25.1108 9.23041 24.7211 8.98336V13.2813L24.7211 17.5898C25.1113 17.3502 25.465 17.1134 25.8518 16.8276C26.321 16.4808 26.7431 16.0753 27.1365 15.6445C27.5661 15.1742 27.8504 14.5896 27.9551 13.9613C27.985 13.782 28 13.6006 28 13.4188V13.2813V13.1437C28 12.9619 27.985 12.7805 27.9551 12.6012C27.8504 11.9729 27.5661 11.3883 27.1365 10.918Z" fill="url(#paint4_linear_180_1376)"/>
<path d="M11.5243 1.87988L7.52006 1.87988C7.09948 1.87988 6.70673 2.09008 6.47343 2.44002C6.33568 2.64665 6.26217 2.88943 6.26217 3.13777V6.26503V7.14206L17.0789 7.14206L11.5243 1.87988Z" stroke="#383535" stroke-width="0.512684"/>
<path d="M7.52006 24.6826H11.5243L17.0789 19.4205L6.26217 19.4205V20.2975V23.4247C6.26217 23.6731 6.33568 23.9159 6.47343 24.1225C6.70673 24.4724 7.09948 24.6826 7.52006 24.6826Z" stroke="#383535" stroke-width="0.512684"/>
<path d="M9.79161 12.1119H6.26217H4.21577H1.87703L1.24324 12.5344C1.09128 12.6357 1 12.8063 1 12.9889V13.5736C1 13.7562 1.09128 13.9268 1.24324 14.0281L1.87703 14.4506H4.21577H6.26217H9.79161C9.96984 14.4506 10.1456 14.4091 10.305 14.3294C10.5272 14.2183 10.7074 14.0382 10.8185 13.816C10.8982 13.6566 10.9397 13.4808 10.9397 13.3026V13.2599C10.9397 13.0817 10.8982 12.9059 10.8185 12.7465C10.7074 12.5243 10.5272 12.3442 10.305 12.2331C10.1456 12.1534 9.96984 12.1119 9.79161 12.1119Z" stroke="#383535" stroke-width="0.512684"/>
<path d="M27.1365 10.918C26.7432 10.4874 26.3155 10.0885 25.8433 9.74621C25.4713 9.47658 25.1108 9.23041 24.7211 8.98336V13.2813L24.7211 17.5898C25.1113 17.3502 25.465 17.1134 25.8518 16.8276C26.321 16.4808 26.7431 16.0753 27.1365 15.6445C27.5661 15.1742 27.8504 14.5896 27.9551 13.9613C27.985 13.782 28 13.6006 28 13.4188V13.2813V13.1437C28 12.9619 27.985 12.7805 27.9551 12.6012C27.8504 11.9729 27.5661 11.3883 27.1365 10.918Z" stroke="#383535" stroke-width="0.512684"/>
<path d="M17.6282 19.2113L15.6876 17.2708H6.45323" stroke="#D7D7D7" stroke-width="0.170895"/>
<path d="M17.6288 7.36706L15.6882 9.30762L6.45384 9.30762" stroke="#D7D7D7" stroke-width="0.170895"/>
<path d="M23.5172 8.61598V13.3903V17.9406" stroke="#D7D7D7" stroke-width="0.170895"/>
<defs>
<filter id="filter0_d_180_1376" x="0.0600739" y="0.939957" width="28.8799" height="24.6826" filterUnits="userSpaceOnUse" color-interpolation-filters="sRGB">
<feFlood flood-opacity="0" result="BackgroundImageFix"/>
<feColorMatrix in="SourceAlpha" type="matrix" values="0 0 0 0 0 0 0 0 0 0 0 0 0 0 0 0 0 0 127 0" result="hardAlpha"/>
<feOffset/>
<feGaussianBlur stdDeviation="0.341789"/>
<feComposite in2="hardAlpha" operator="out"/>
<feColorMatrix type="matrix" values="0 0 0 0 0 0 0 0 0 0 0 0 0 0 0 0 0 0 0.5 0"/>
<feBlend mode="normal" in2="BackgroundImageFix" result="effect1_dropShadow_180_1376"/>
<feBlend mode="normal" in="SourceGraphic" in2="effect1_dropShadow_180_1376" result="shape"/>
</filter>
<filter id="filter1_d_180_1376" x="14.677" y="10.0266" width="6.93332" height="6.50876" filterUnits="userSpaceOnUse" color-interpolation-filters="sRGB">
<feFlood flood-opacity="0" result="BackgroundImageFix"/>
<feColorMatrix in="SourceAlpha" type="matrix" values="0 0 0 0 0 0 0 0 0 0 0 0 0 0 0 0 0 0 127 0" result="hardAlpha"/>
<feOffset/>
<feGaussianBlur stdDeviation="0.341789"/>
<feComposite in2="hardAlpha" operator="out"/>
<feColorMatrix type="matrix" values="0 0 0 0 0 0 0 0 0 0 0 0 0 0 0 0 0 0 0.5 0"/>
<feBlend mode="normal" in2="BackgroundImageFix" result="effect1_dropShadow_180_1376"/>
<feBlend mode="normal" in="SourceGraphic" in2="effect1_dropShadow_180_1376" result="shape"/>
</filter>
<linearGradient id="paint0_linear_180_1376" x1="20.4023" y1="13.281" x2="15.8849" y2="13.281" gradientUnits="userSpaceOnUse">
<stop stop-color="#4779FB"/>
<stop offset="1" stop-color="#B9CDFF"/>
</linearGradient>
<linearGradient id="paint1_linear_180_1376" x1="28" y1="13.2813" x2="1" y2="13.2813" gradientUnits="userSpaceOnUse">
<stop stop-color="#FF5631"/>
<stop offset="0.916667" stop-color="#A83E27"/>
<stop offset="1" stop-color="#863423"/>
</linearGradient>
<linearGradient id="paint2_linear_180_1376" x1="28" y1="13.2813" x2="1" y2="13.2813" gradientUnits="userSpaceOnUse">
<stop stop-color="#FF5631"/>
<stop offset="0.916667" stop-color="#A83E27"/>
<stop offset="1" stop-color="#863423"/>
</linearGradient>
<linearGradient id="paint3_linear_180_1376" x1="28" y1="13.2813" x2="1" y2="13.2813" gradientUnits="userSpaceOnUse">
<stop stop-color="#FF5631"/>
<stop offset="0.916667" stop-color="#A83E27"/>
<stop offset="1" stop-color="#863423"/>
</linearGradient>
<linearGradient id="paint4_linear_180_1376" x1="28" y1="13.2813" x2="1" y2="13.2813" gradientUnits="userSpaceOnUse">
<stop stop-color="#FF5631"/>
<stop offset="0.916667" stop-color="#A83E27"/>
<stop offset="1" stop-color="#863423"/>
</linearGradient>
</defs>
</svg>
