<svg width="39" height="31" viewBox="0 0 39 31" fill="none" xmlns="http://www.w3.org/2000/svg">
<path d="M35.7123 27.5081C36.1565 27.5081 36.5165 27.8681 36.5165 28.3123C36.5165 28.7564 36.1565 29.1165 35.7123 29.1165C35.2682 29.1165 34.9081 28.7564 34.9081 28.3123C34.9081 27.8681 35.2682 27.5081 35.7123 27.5081Z" fill="white"/>
<path d="M34.0486 28.3331V28.2915C34.0486 27.3611 34.8028 26.6068 35.7332 26.6068C36.6636 26.6068 37.4179 27.3611 37.4179 28.2915V28.3331C37.4179 29.2635 36.6636 30.0177 35.7332 30.0177C34.8028 30.0177 34.0486 29.2635 34.0486 28.3331Z" fill="white" fill-opacity="0.03"/>
<path d="M35.7126 25.9C37.0451 25.9 38.1252 26.9802 38.1252 28.3126C38.1252 29.6451 37.0451 30.7252 35.7126 30.7252C34.3802 30.7252 33.3 29.6451 33.3 28.3126C33.3 26.9802 34.3802 25.9 35.7126 25.9Z" fill="white" fill-opacity="0.03"/>
<path d="M24.6126 23.8086C25.0568 23.8086 25.4168 24.1686 25.4168 24.6128C25.4168 25.0569 25.0568 25.417 24.6126 25.417C24.1685 25.417 23.8084 25.0569 23.8084 24.6128C23.8084 24.1686 24.1685 23.8086 24.6126 23.8086Z" fill="white"/>
<path d="M22.9488 24.6337V24.5921C22.9488 23.6617 23.7031 22.9075 24.6335 22.9075C25.5639 22.9075 26.3181 23.6617 26.3181 24.5921V24.6337C26.3181 25.5641 25.5639 26.3184 24.6335 26.3184C23.7031 26.3184 22.9488 25.5641 22.9488 24.6337Z" fill="white" fill-opacity="0.03"/>
<path d="M24.6126 22.2001C25.9451 22.2001 27.0252 23.2802 27.0252 24.6127C27.0252 25.9451 25.9451 27.0253 24.6126 27.0253C23.2802 27.0253 22.2 25.9451 22.2 24.6127C22.2 23.2802 23.2802 22.2001 24.6126 22.2001Z" fill="white" fill-opacity="0.03"/>
<path d="M32.0125 8.26819C32.4566 8.26819 32.8167 8.62824 32.8167 9.07239C32.8167 9.51653 32.4566 9.87659 32.0125 9.87659C31.5683 9.87659 31.2083 9.51653 31.2083 9.07239C31.2083 8.62824 31.5683 8.26819 32.0125 8.26819Z" fill="white"/>
<path d="M30.3487 9.09332V9.05172C30.3487 8.12131 31.1029 7.36707 32.0333 7.36707C32.9637 7.36707 33.718 8.12131 33.718 9.05172V9.09332C33.718 10.0237 32.9637 10.778 32.0333 10.778C31.1029 10.778 30.3487 10.0237 30.3487 9.09332Z" fill="white" fill-opacity="0.03"/>
<path d="M32.0126 6.66003C33.3451 6.66003 34.4252 7.74019 34.4252 9.07263C34.4252 10.4051 33.3451 11.4852 32.0126 11.4852C30.6802 11.4852 29.6 10.4051 29.6 9.07263C29.6 7.74019 30.6802 6.66003 32.0126 6.66003Z" fill="white" fill-opacity="0.03"/>
<path d="M24.6124 1.60828C25.0566 1.60828 25.4166 1.96833 25.4166 2.41248C25.4166 2.85662 25.0566 3.21667 24.6124 3.21667C24.1683 3.21667 23.8082 2.85662 23.8082 2.41248C23.8082 1.96833 24.1683 1.60828 24.6124 1.60828Z" fill="white"/>
<path d="M22.9485 2.43365V2.39206C22.9485 1.46164 23.7027 0.707397 24.6331 0.707397C25.5635 0.707397 26.3178 1.46165 26.3178 2.39206V2.43365C26.3178 3.36406 25.5635 4.11831 24.6331 4.11831C23.7027 4.11831 22.9485 3.36406 22.9485 2.43365Z" fill="white" fill-opacity="0.03"/>
<path d="M24.6126 0C25.9451 0 27.0252 1.08016 27.0252 2.4126C27.0252 3.74504 25.9451 4.8252 24.6126 4.8252C23.2802 4.8252 22.2 3.74504 22.2 2.4126C22.2 1.08016 23.2802 0 24.6126 0Z" fill="white" fill-opacity="0.03"/>
<path d="M19.4326 13.4481C19.8767 13.4481 20.2368 13.8082 20.2368 14.2523C20.2368 14.6965 19.8767 15.0565 19.4326 15.0565C18.9884 15.0565 18.6284 14.6965 18.6284 14.2523C18.6284 13.8082 18.9884 13.4481 19.4326 13.4481Z" fill="white"/>
<path d="M17.7686 14.2733V14.2317C17.7686 13.3012 18.5228 12.547 19.4532 12.547C20.3837 12.547 21.1379 13.3012 21.1379 14.2317V14.2733C21.1379 15.2037 20.3837 15.9579 19.4532 15.9579C18.5228 15.9579 17.7686 15.2037 17.7686 14.2733Z" fill="white" fill-opacity="0.03"/>
<path d="M19.4326 11.8401C20.7651 11.8401 21.8452 12.9202 21.8452 14.2527C21.8452 15.5851 20.7651 16.6653 19.4326 16.6653C18.1002 16.6653 17.0201 15.5851 17.0201 14.2527C17.0201 12.9202 18.1002 11.8401 19.4326 11.8401Z" fill="white" fill-opacity="0.03"/>
<path d="M12.7723 27.5082C13.2164 27.5082 13.5765 27.8682 13.5765 28.3124C13.5765 28.7565 13.2164 29.1166 12.7723 29.1166C12.3281 29.1166 11.9681 28.7565 11.9681 28.3124C11.9681 27.8682 12.3281 27.5082 12.7723 27.5082Z" fill="white"/>
<path d="M11.1085 28.3333V28.2917C11.1085 27.3613 11.8627 26.6071 12.7931 26.6071C13.7236 26.6071 14.4778 27.3613 14.4778 28.2917V28.3333C14.4778 29.2637 13.7236 30.018 12.7931 30.018C11.8627 30.018 11.1085 29.2637 11.1085 28.3333Z" fill="white" fill-opacity="0.03"/>
<path d="M12.7726 25.9C14.1051 25.9 15.1852 26.9802 15.1852 28.3126C15.1852 29.6451 14.1051 30.7252 12.7726 30.7252C11.4402 30.7252 10.36 29.6451 10.36 28.3126C10.36 26.9802 11.4402 25.9 12.7726 25.9Z" fill="white" fill-opacity="0.03"/>
<path d="M2.41241 13.4481C2.85656 13.4481 3.21661 13.8082 3.21661 14.2523C3.21661 14.6965 2.85656 15.0565 2.41241 15.0565C1.96827 15.0565 1.60822 14.6965 1.60822 14.2523C1.60822 13.8082 1.96827 13.4481 2.41241 13.4481Z" fill="white"/>
<path d="M0.748596 14.2734V14.2318C0.748596 13.3014 1.50284 12.5471 2.43325 12.5471C3.36367 12.5471 4.11791 13.3014 4.11791 14.2318V14.2734C4.11791 15.2038 3.36367 15.958 2.43325 15.958C1.50284 15.958 0.748596 15.2038 0.748596 14.2734Z" fill="white" fill-opacity="0.03"/>
<path d="M2.41266 11.8401C3.7451 11.8401 4.82526 12.9202 4.82526 14.2527C4.82526 15.5851 3.7451 16.6653 2.41266 16.6653C1.08022 16.6653 6.10352e-05 15.5851 6.10352e-05 14.2527C6.10352e-05 12.9202 1.08022 11.8401 2.41266 11.8401Z" fill="white" fill-opacity="0.03"/>
<path d="M9.07239 6.04846C9.51653 6.04846 9.87659 6.40851 9.87659 6.85266C9.87659 7.29681 9.51653 7.65686 9.07239 7.65686C8.62824 7.65686 8.26819 7.29681 8.26819 6.85266C8.26819 6.40851 8.62824 6.04846 9.07239 6.04846Z" fill="white"/>
<path d="M7.40842 6.87372V6.83212C7.40842 5.90171 8.16266 5.14746 9.09308 5.14746C10.0235 5.14746 10.7777 5.90171 10.7777 6.83212V6.87372C10.7777 7.80413 10.0235 8.55838 9.09308 8.55838C8.16266 8.55838 7.40842 7.80413 7.40842 6.87372Z" fill="white" fill-opacity="0.03"/>
<path d="M9.07263 4.44006C10.4051 4.44006 11.4852 5.52022 11.4852 6.85266C11.4852 8.1851 10.4051 9.26526 9.07263 9.26526C7.74019 9.26526 6.66003 8.1851 6.66003 6.85266C6.66003 5.52022 7.74019 4.44006 9.07263 4.44006Z" fill="white" fill-opacity="0.03"/>
</svg>
