<svg width="56" height="56" viewBox="0 0 56 56" fill="none" xmlns="http://www.w3.org/2000/svg">
<path d="M3.35617 27.5092C3.35617 40.8863 14.2005 51.7306 27.5776 51.7306C40.9548 51.7306 51.7991 40.8863 51.7991 27.5092C51.7991 14.132 40.9548 3.28772 27.5776 3.28772C14.2005 3.28772 3.35617 14.132 3.35617 27.5092Z" fill="#FFC700" fill-opacity="0.1"/>
<path d="M0.0639343 27.5092C0.0639343 42.7046 12.3822 55.0229 27.5776 55.0229C42.773 55.0229 55.0913 42.7046 55.0913 27.5092C55.0913 12.3138 42.773 -0.0045166 27.5776 -0.0045166C12.3822 -0.0045166 0.0639343 12.3138 0.0639343 27.5092Z" fill="#FFC700" fill-opacity="0.1"/>
<path d="M6.64841 27.5092C6.64841 38.8083 15.8082 47.9681 27.1073 47.9681C38.4065 47.9681 47.5662 38.8083 47.5662 27.5092C47.5662 16.2101 38.4065 7.05029 27.1073 7.05029C15.8082 7.05029 6.64841 16.2101 6.64841 27.5092Z" fill="#FFC700" fill-opacity="0.1"/>
<path d="M12.7547 27.4491C12.7547 35.9894 19.678 42.9128 28.2184 42.9128C36.7587 42.9128 43.6821 35.9894 43.6821 27.4491C43.6821 18.9087 36.7587 11.9854 28.2184 11.9854C19.678 11.9854 12.7547 18.9087 12.7547 27.4491Z" fill="#FFC90D"/>
<path d="M23.4134 17.3428H17.8906H16.2899L13.7032 21.4296H19.8236C20.3726 21.4296 20.8177 20.9845 20.8177 20.4355C20.8177 19.8865 21.2628 19.4414 21.8118 19.4414H23.4134C23.9929 19.4414 24.4627 18.9716 24.4627 18.3921C24.4627 17.8126 23.9929 17.3428 23.4134 17.3428Z" fill="#E1960C"/>
<path d="M17.6425 23.9697H13.1967C12.7549 25.4425 12.7626 28.6641 12.7626 28.885C12.7626 29.1059 13.0262 31.1125 13.4681 32.1986H15.9581H18.7747C19.3542 32.1986 19.824 31.7288 19.824 31.1493C19.824 30.5698 19.3542 30.1 18.7747 30.1H18.4985H16.9522C16.4032 30.1 15.9581 29.6549 15.9581 29.1059C15.9581 28.5569 16.4032 28.1118 16.9522 28.1118H18.4985H20.9838C21.6548 28.1118 22.1988 27.5678 22.1988 26.8968C22.1988 26.2258 21.6548 25.6818 20.9838 25.6818H19.3546C18.8818 25.6818 18.4985 25.2985 18.4985 24.8258C18.4985 24.353 18.1153 23.9697 17.6425 23.9697Z" fill="#E1960C"/>
<path d="M22.1724 34.905H14.5559L16.2899 37.0589H22.171C22.7658 37.0589 23.248 36.5767 23.248 35.982C23.248 35.3872 22.7672 34.905 22.1724 34.905Z" fill="#E1960C"/>
<path d="M28.2458 39.1576H18.1088L20.2876 40.7592H28.2458C28.6881 40.7592 29.0466 40.4007 29.0466 39.9584C29.0466 39.5161 28.6881 39.1576 28.2458 39.1576Z" fill="#E1960C"/>
<path d="M30.8388 19.8278H41.6873L43.3334 24.6878H29.4286H22.9277C22.1896 24.6878 21.5912 24.0894 21.5912 23.3513C21.5912 22.6131 22.1896 22.0148 22.9277 22.0148H28.6518C29.2557 22.0148 29.7453 21.5252 29.7453 20.9213C29.7453 20.3173 30.2349 19.8278 30.8388 19.8278Z" fill="#E1960C"/>
<path d="M32.9676 15.1888H37.6895L40.0411 17.3979H32.9676C32.3576 17.3979 31.8631 16.9034 31.8631 16.2934C31.8631 15.6834 32.3576 15.1888 32.9676 15.1888Z" fill="#E1960C"/>
<path d="M30.9969 26.3448H43.5685L42.6877 32.937L40.5114 36.3963H29.7899H26.2098C25.4888 36.3963 24.9044 35.8118 24.9044 35.0909C24.9044 34.3699 25.4888 33.7855 26.2098 33.7855H32.3599C33.207 33.7855 33.8937 33.0988 33.8937 32.2517C33.8937 31.4046 33.207 30.7179 32.3599 30.7179H26.1445C25.4596 30.7179 24.9044 30.1626 24.9044 29.4778C24.9044 28.7929 25.4596 28.2376 26.1445 28.2376H29.1041C29.6267 28.2376 30.0505 27.8139 30.0505 27.2912C30.0505 26.7686 30.4742 26.3448 30.9969 26.3448Z" fill="#E1960C"/>
<path d="M38.8648 22.1244L37.331 14.8575L39.2794 17.0545C42.9602 21.2047 44.1866 26.985 42.5081 32.2723L42.3357 32.8154C41.1686 36.4915 38.5749 39.5454 35.1361 41.292L33.9767 41.881C29.0511 44.3828 23.071 43.3914 19.2164 39.4338H24.8276C28.0608 39.4338 31.1992 38.3416 33.734 36.3344C38.0018 32.9549 39.9891 27.4509 38.8648 22.1244Z" fill="#99571A" fill-opacity="0.5"/>
<path d="M12.6444 27.4491C12.6444 35.9894 19.5677 42.9128 28.1081 42.9128C36.6485 42.9128 43.5718 35.9894 43.5718 27.4491C43.5718 18.9087 36.6485 11.9854 28.1081 11.9854C19.5677 11.9854 12.6444 18.9087 12.6444 27.4491Z" stroke="#3E2931" stroke-width="0.621227"/>
</svg>
