<svg width="102" height="72" viewBox="0 0 102 72" fill="none" xmlns="http://www.w3.org/2000/svg">
<path d="M11.3562 35.5092C11.3562 48.8863 22.2005 59.7306 35.5776 59.7306C48.9548 59.7306 59.7991 48.8863 59.7991 35.5092C59.7991 22.132 48.9548 11.2877 35.5776 11.2877C22.2005 11.2877 11.3562 22.132 11.3562 35.5092Z" fill="#FFC700" fill-opacity="0.1"/>
<path d="M8.06393 35.5092C8.06393 50.7046 20.3822 63.0229 35.5776 63.0229C50.773 63.0229 63.0913 50.7046 63.0913 35.5092C63.0913 20.3138 50.773 7.99548 35.5776 7.99548C20.3822 7.99548 8.06393 20.3138 8.06393 35.5092Z" fill="#FFC700" fill-opacity="0.1"/>
<path d="M14.6484 35.5092C14.6484 46.8083 23.8082 55.9681 35.1073 55.9681C46.4065 55.9681 55.5662 46.8083 55.5662 35.5092C55.5662 24.2101 46.4065 15.0503 35.1073 15.0503C23.8082 15.0503 14.6484 24.2101 14.6484 35.5092Z" fill="#FFC700" fill-opacity="0.1"/>
<path d="M0.0684814 35.7443C0.0684814 55.4853 16.0717 71.4886 35.8128 71.4886C55.5538 71.4886 71.5571 55.4853 71.5571 35.7443C71.5571 16.0033 55.5538 0 35.8128 0C16.0717 0 0.0684814 16.0033 0.0684814 35.7443Z" fill="url(#paint0_radial_288_178)" fill-opacity="0.1"/>
<path d="M20.7547 35.4491C20.7547 43.9894 27.678 50.9128 36.2184 50.9128C44.7587 50.9128 51.6821 43.9894 51.6821 35.4491C51.6821 26.9087 44.7587 19.9854 36.2184 19.9854C27.678 19.9854 20.7547 26.9087 20.7547 35.4491Z" fill="#FFC90D"/>
<path d="M31.4134 25.3428H25.8906H24.2899L21.7032 29.4296H27.8236C28.3726 29.4296 28.8177 28.9845 28.8177 28.4355C28.8177 27.8865 29.2628 27.4414 29.8118 27.4414H31.4134C31.9929 27.4414 32.4627 26.9716 32.4627 26.3921C32.4627 25.8126 31.9929 25.3428 31.4134 25.3428Z" fill="#E1960C"/>
<path d="M25.6425 31.9697H21.1967C20.7549 33.4425 20.7626 36.6641 20.7626 36.885C20.7626 37.1059 21.0262 39.1125 21.4681 40.1986H23.9581H26.7747C27.3542 40.1986 27.824 39.7288 27.824 39.1493C27.824 38.5698 27.3542 38.1 26.7747 38.1H26.4985H24.9522C24.4032 38.1 23.9581 37.6549 23.9581 37.1059C23.9581 36.5569 24.4032 36.1118 24.9522 36.1118H26.4985H28.9838C29.6548 36.1118 30.1988 35.5678 30.1988 34.8968C30.1988 34.2258 29.6548 33.6818 28.9838 33.6818H27.3546C26.8818 33.6818 26.4985 33.2985 26.4985 32.8258C26.4985 32.353 26.1153 31.9697 25.6425 31.9697Z" fill="#E1960C"/>
<path d="M30.1724 42.905H22.5559L24.2899 45.0589H30.171C30.7658 45.0589 31.248 44.5767 31.248 43.982C31.248 43.3872 30.7672 42.905 30.1724 42.905Z" fill="#E1960C"/>
<path d="M36.2458 47.1576H26.1088L28.2876 48.7592H36.2458C36.6881 48.7592 37.0466 48.4007 37.0466 47.9584C37.0466 47.5161 36.6881 47.1576 36.2458 47.1576Z" fill="#E1960C"/>
<path d="M38.8388 27.8278H49.6873L51.3334 32.6878H37.4286H30.9277C30.1896 32.6878 29.5912 32.0894 29.5912 31.3513C29.5912 30.6131 30.1896 30.0148 30.9277 30.0148H36.6518C37.2557 30.0148 37.7453 29.5252 37.7453 28.9213C37.7453 28.3173 38.2349 27.8278 38.8388 27.8278Z" fill="#E1960C"/>
<path d="M40.9676 23.1888H45.6895L48.0411 25.3979H40.9676C40.3576 25.3979 39.8631 24.9034 39.8631 24.2934C39.8631 23.6834 40.3576 23.1888 40.9676 23.1888Z" fill="#E1960C"/>
<path d="M38.9969 34.3448H51.5685L50.6877 40.937L48.5114 44.3963H37.7899H34.2098C33.4888 44.3963 32.9044 43.8118 32.9044 43.0909C32.9044 42.3699 33.4888 41.7855 34.2098 41.7855H40.3599C41.207 41.7855 41.8937 41.0988 41.8937 40.2517C41.8937 39.4046 41.207 38.7179 40.3599 38.7179H34.1445C33.4596 38.7179 32.9044 38.1626 32.9044 37.4778C32.9044 36.7929 33.4596 36.2376 34.1445 36.2376H37.1041C37.6267 36.2376 38.0505 35.8139 38.0505 35.2912C38.0505 34.7686 38.4742 34.3448 38.9969 34.3448Z" fill="#E1960C"/>
<path d="M46.8648 30.1244L45.331 22.8575L47.2794 25.0545C50.9602 29.2047 52.1866 34.985 50.5081 40.2723L50.3357 40.8154C49.1686 44.4915 46.5749 47.5454 43.1361 49.292L41.9767 49.881C37.0511 52.3828 31.071 51.3914 27.2164 47.4338H32.8276C36.0608 47.4338 39.1992 46.3416 41.734 44.3344C46.0018 40.9549 47.9891 35.4509 46.8648 30.1244Z" fill="#99571A" fill-opacity="0.5"/>
<path d="M20.6444 35.4491C20.6444 43.9894 27.5677 50.9128 36.1081 50.9128C44.6485 50.9128 51.5718 43.9894 51.5718 35.4491C51.5718 26.9087 44.6485 19.9854 36.1081 19.9854C27.5677 19.9854 20.6444 26.9087 20.6444 35.4491Z" stroke="#3E2931" stroke-width="0.621227"/>
<path d="M73.0083 25.6521H57.2467H50L50.6329 25.3069C50.8749 25.175 51.1059 25.0239 51.3239 24.8551L52.2403 24.1457C53.2019 23.4012 54.4974 23.2522 55.6029 23.7589C55.7947 23.8468 56.0182 23.7327 56.0596 23.5259L56.0876 23.3855C56.1948 22.8496 56.4155 22.3428 56.7349 21.8993L57.204 21.2477C57.629 20.6575 58.3118 20.3077 59.0391 20.3077C59.7878 20.3077 60.488 20.6783 60.909 21.2974L61.7759 22.5723L62.106 21.5269C62.2454 21.0855 62.5074 20.6929 62.8614 20.3948L63.0737 20.216C63.6643 19.7187 64.4883 19.6054 65.1912 19.9249C65.7255 20.1678 66.1263 20.6329 66.2875 21.1972L66.9392 23.4781L67.4318 22.9308C67.6443 22.6947 67.9061 22.5081 68.1987 22.3843L68.7443 22.1535C69.5079 21.8304 70.3905 22.1658 70.747 22.9144C70.9193 23.2761 70.9447 23.6904 70.818 24.0705L70.5626 24.8369L70.7318 24.8707C71.5213 25.0286 72.2882 25.2921 73.0083 25.6521Z" fill="url(#paint1_linear_288_178)"/>
<path d="M93.3247 47.6029C93.3247 47.6029 89.687 43.4365 84.3861 43.4365C84.3861 43.4365 84.2087 40.2004 80.5911 39.5009C76.9734 38.8015 76.2673 42.0343 76.2673 42.0343C76.2673 42.0343 73.5901 40.6153 70.0026 42.0343C66.4151 43.4532 67.1379 47.5929 67.1379 47.5929C67.1379 47.5929 56.7636 47.2582 55 49.1557H101.564C101.564 49.1557 100.624 46.8299 93.3247 47.6029Z" fill="url(#paint2_linear_288_178)"/>
<path d="M76.7003 34.0804C76.7003 34.0804 78.7756 31.7035 81.7997 31.7035C81.7997 31.7035 81.9008 29.8574 83.9646 29.4584C86.0284 29.0594 86.4313 30.9036 86.4313 30.9036C86.4313 30.9036 87.9586 30.0941 90.0052 30.9036C92.0518 31.7131 91.6394 34.0747 91.6394 34.0747C91.6394 34.0747 97.5578 33.8838 98.5639 34.9663H72C72 34.9663 72.5365 33.6394 76.7003 34.0804Z" fill="url(#paint3_linear_288_178)"/>
<defs>
<radialGradient id="paint0_radial_288_178" cx="0" cy="0" r="1" gradientUnits="userSpaceOnUse" gradientTransform="translate(35.8128 35.7443) rotate(90) scale(37.1948)">
<stop offset="0.370896" stop-color="#FFB800"/>
<stop offset="1" stop-color="#F84006" stop-opacity="0"/>
</radialGradient>
<linearGradient id="paint1_linear_288_178" x1="61.5042" y1="19.4019" x2="61.5042" y2="25.6521" gradientUnits="userSpaceOnUse">
<stop stop-color="white"/>
<stop offset="1" stop-color="#DFDFDF" stop-opacity="0.2"/>
</linearGradient>
<linearGradient id="paint2_linear_288_178" x1="78.2819" y1="39.4019" x2="78.2819" y2="49.1557" gradientUnits="userSpaceOnUse">
<stop stop-color="white"/>
<stop offset="1" stop-color="#DFDFDF" stop-opacity="0.2"/>
</linearGradient>
<linearGradient id="paint3_linear_288_178" x1="85.2819" y1="29.4019" x2="85.2819" y2="34.9663" gradientUnits="userSpaceOnUse">
<stop stop-color="white"/>
<stop offset="1" stop-color="#DFDFDF" stop-opacity="0.2"/>
</linearGradient>
</defs>
</svg>
