<svg width="72" height="37" viewBox="0 0 72 37" fill="none" xmlns="http://www.w3.org/2000/svg">
<path d="M-5.64383 18.1073C-5.64383 31.4845 5.20049 42.3288 18.5776 42.3288C31.9548 42.3288 42.7991 31.4845 42.7991 18.1073C42.7991 4.73019 31.9548 -6.11414 18.5776 -6.11414C5.20049 -6.11414 -5.64383 4.73019 -5.64383 18.1073Z" fill="#FFC700" fill-opacity="0.1"/>
<path d="M-8.93607 18.1073C-8.93607 33.3027 3.38224 45.621 18.5776 45.621C33.773 45.621 46.0913 33.3027 46.0913 18.1073C46.0913 2.91194 33.773 -9.40637 18.5776 -9.40637C3.38224 -9.40637 -8.93607 2.91194 -8.93607 18.1073Z" fill="#FFC700" fill-opacity="0.1"/>
<path d="M-2.35159 18.1073C-2.35159 29.4065 6.80817 38.5662 18.1073 38.5662C29.4065 38.5662 38.5662 29.4065 38.5662 18.1073C38.5662 6.8082 29.4065 -2.35156 18.1073 -2.35156C6.80817 -2.35156 -2.35159 6.8082 -2.35159 18.1073Z" fill="#FFC700" fill-opacity="0.1"/>
<path d="M-16.9315 18.3424C-16.9315 38.0835 -0.928259 54.0867 18.8128 54.0867C38.5538 54.0867 54.5571 38.0835 54.5571 18.3424C54.5571 -1.3986 38.5538 -17.4019 18.8128 -17.4019C-0.928259 -17.4019 -16.9315 -1.3986 -16.9315 18.3424Z" fill="url(#paint0_radial_288_58)" fill-opacity="0.1"/>
<path d="M3.75467 18.0472C3.75467 26.5876 10.678 33.5109 19.2184 33.5109C27.7587 33.5109 34.6821 26.5876 34.6821 18.0472C34.6821 9.50683 27.7587 2.5835 19.2184 2.5835C10.678 2.5835 3.75467 9.50683 3.75467 18.0472Z" fill="#FFC90D"/>
<path d="M14.4134 7.94092H8.89064H7.28991L4.70316 12.0278H10.8236C11.3726 12.0278 11.8177 11.5827 11.8177 11.0337C11.8177 10.4846 12.2628 10.0396 12.8118 10.0396H14.4134C14.9929 10.0396 15.4627 9.56977 15.4627 8.99024C15.4627 8.41072 14.9929 7.94092 14.4134 7.94092Z" fill="#E1960C"/>
<path d="M8.64252 14.5679H4.19671C3.75489 16.0406 3.76257 19.2622 3.76257 19.4831C3.76257 19.704 4.02623 21.7106 4.46805 22.7968H6.95808H9.77469C10.3542 22.7968 10.824 22.327 10.824 21.7474C10.824 21.1679 10.3542 20.6981 9.77469 20.6981H9.49855H7.95218C7.40315 20.6981 6.95808 20.2531 6.95808 19.704C6.95808 19.155 7.40315 18.7099 7.95218 18.7099H9.49855H11.9838C12.6548 18.7099 13.1988 18.166 13.1988 17.4949C13.1988 16.8239 12.6548 16.2799 11.9838 16.2799H10.3546C9.8818 16.2799 9.49855 15.8967 9.49855 15.4239C9.49855 14.9511 9.11529 14.5679 8.64252 14.5679Z" fill="#E1960C"/>
<path d="M13.1724 25.5032H5.55588L7.28992 27.657H13.171C13.7658 27.657 14.248 27.1749 14.248 26.5801C14.248 25.9853 13.7672 25.5032 13.1724 25.5032Z" fill="#E1960C"/>
<path d="M19.2458 29.7557H9.10883L11.2876 31.3573H19.2458C19.6881 31.3573 20.0466 30.9988 20.0466 30.5565C20.0466 30.1143 19.6881 29.7557 19.2458 29.7557Z" fill="#E1960C"/>
<path d="M21.8388 10.4259H32.6873L34.3334 15.2859H20.4286H13.9277C13.1896 15.2859 12.5912 14.6876 12.5912 13.9494C12.5912 13.2113 13.1896 12.6129 13.9277 12.6129H19.6518C20.2557 12.6129 20.7453 12.1233 20.7453 11.5194C20.7453 10.9155 21.2349 10.4259 21.8388 10.4259Z" fill="#E1960C"/>
<path d="M23.9676 5.78699H28.6895L31.0411 7.99609H23.9676C23.3576 7.99609 22.8631 7.50156 22.8631 6.89154C22.8631 6.28151 23.3576 5.78699 23.9676 5.78699Z" fill="#E1960C"/>
<path d="M21.9969 16.943H34.5685L33.6877 23.5352L31.5114 26.9944H20.7899H17.2098C16.4888 26.9944 15.9044 26.41 15.9044 25.689C15.9044 24.9681 16.4888 24.3836 17.2098 24.3836H23.3599C24.207 24.3836 24.8937 23.6969 24.8937 22.8498C24.8937 22.0027 24.207 21.316 23.3599 21.316H17.1445C16.4596 21.316 15.9044 20.7608 15.9044 20.0759C15.9044 19.391 16.4596 18.8358 17.1445 18.8358H20.1041C20.6267 18.8358 21.0505 18.4121 21.0505 17.8894C21.0505 17.3667 21.4742 16.943 21.9969 16.943Z" fill="#E1960C"/>
<path d="M29.8648 12.7225L28.331 5.45569L30.2794 7.65261C33.9602 11.8028 35.1866 17.5832 33.5081 22.8704L33.3357 23.4135C32.1686 27.0896 29.5749 30.1435 26.1361 31.8902L24.9767 32.4791C20.0511 34.981 14.071 33.9895 10.2164 30.0319H15.8276C19.0608 30.0319 22.1992 28.9398 24.734 26.9326C29.0018 23.553 30.9891 18.049 29.8648 12.7225Z" fill="#99571A" fill-opacity="0.5"/>
<path d="M3.64441 18.0472C3.64441 26.5876 10.5677 33.5109 19.1081 33.5109C27.6485 33.5109 34.5718 26.5876 34.5718 18.0472C34.5718 9.50683 27.6485 2.5835 19.1081 2.5835C10.5677 2.5835 3.64441 9.50683 3.64441 18.0472Z" stroke="#3E2931" stroke-width="0.621227"/>
<path d="M56.0083 8.25029H40.2467H33L33.6329 7.90509C33.8749 7.7731 34.1059 7.62201 34.3239 7.45327L35.2403 6.74382C36.2019 5.99933 37.4974 5.85032 38.6029 6.35703C38.7947 6.44492 39.0182 6.33085 39.0596 6.12401L39.0876 5.98366C39.1948 5.44773 39.4155 4.94095 39.7349 4.49741L40.204 3.84584C40.629 3.25563 41.3118 2.90584 42.0391 2.90584C42.7878 2.90584 43.488 3.27644 43.909 3.89558L44.7759 5.17044L45.106 4.12502C45.2454 3.68368 45.5074 3.29105 45.8614 2.99293L46.0737 2.81418C46.6643 2.31683 47.4883 2.20353 48.1912 2.52304C48.7255 2.7659 49.1263 3.23101 49.2875 3.79532L49.9392 6.07628L50.4318 5.52899C50.6443 5.29284 50.9061 5.10627 51.1987 4.98248L51.7443 4.75165C52.5079 4.42859 53.3905 4.7639 53.747 5.5125C53.9193 5.87422 53.9447 6.28859 53.818 6.66867L53.5626 7.43504L53.7318 7.46888C54.5213 7.62678 55.2882 7.89023 56.0083 8.25029Z" fill="url(#paint1_linear_288_58)"/>
<path d="M76.3247 30.2011C76.3247 30.2011 72.687 26.0346 67.3861 26.0346C67.3861 26.0346 67.2087 22.7985 63.5911 22.0991C59.9734 21.3997 59.2673 24.6324 59.2673 24.6324C59.2673 24.6324 56.5901 23.2135 53.0026 24.6324C49.4151 26.0514 50.1379 30.191 50.1379 30.191C50.1379 30.191 39.7636 29.8564 38 31.7539H84.5639C84.5639 31.7539 83.6235 29.428 76.3247 30.2011Z" fill="url(#paint2_linear_288_58)"/>
<path d="M59.7003 16.6786C59.7003 16.6786 61.7756 14.3017 64.7997 14.3017C64.7997 14.3017 64.9008 12.4555 66.9646 12.0565C69.0284 11.6575 69.4313 13.5017 69.4313 13.5017C69.4313 13.5017 70.9586 12.6923 73.0052 13.5017C75.0518 14.3112 74.6394 16.6728 74.6394 16.6728C74.6394 16.6728 80.5578 16.4819 81.5639 17.5644H55C55 17.5644 55.5365 16.2376 59.7003 16.6786Z" fill="url(#paint3_linear_288_58)"/>
<defs>
<radialGradient id="paint0_radial_288_58" cx="0" cy="0" r="1" gradientUnits="userSpaceOnUse" gradientTransform="translate(18.8128 18.3424) rotate(90) scale(37.1948)">
<stop offset="0.370896" stop-color="#FFB800"/>
<stop offset="1" stop-color="#F84006" stop-opacity="0"/>
</radialGradient>
<linearGradient id="paint1_linear_288_58" x1="44.5042" y1="2" x2="44.5042" y2="8.25029" gradientUnits="userSpaceOnUse">
<stop stop-color="white"/>
<stop offset="1" stop-color="#DFDFDF" stop-opacity="0.2"/>
</linearGradient>
<linearGradient id="paint2_linear_288_58" x1="61.2819" y1="22" x2="61.2819" y2="31.7539" gradientUnits="userSpaceOnUse">
<stop stop-color="white"/>
<stop offset="1" stop-color="#DFDFDF" stop-opacity="0.2"/>
</linearGradient>
<linearGradient id="paint3_linear_288_58" x1="68.2819" y1="12" x2="68.2819" y2="17.5644" gradientUnits="userSpaceOnUse">
<stop stop-color="white"/>
<stop offset="1" stop-color="#DFDFDF" stop-opacity="0.2"/>
</linearGradient>
</defs>
</svg>
