<svg width="69" height="77" viewBox="0 0 69 77" fill="none" xmlns="http://www.w3.org/2000/svg">
<path d="M43.5057 75.5002H45.0635L39.1071 48.376H37.4577L43.5057 75.5002Z" fill="url(#paint0_linear_334_359)" stroke="#CD482B" stroke-width="1.14176"/>
<path d="M25.7277 75.4084H24.1699L30.1263 48.2842H31.7757L25.7277 75.4084Z" fill="url(#paint1_linear_334_359)" stroke="#CD482B" stroke-width="1.14176"/>
<path d="M40.3896 48.3755H34.6166H28.7519V47.4592H29.2101L29.2427 47.1597C29.534 44.4894 31.9325 42.4992 34.6166 42.6025C37.3007 42.4992 39.6075 44.4894 39.8988 47.1597L39.9315 47.4592H40.3896V48.3755Z" fill="url(#paint2_linear_334_359)" stroke="#CD482B" stroke-width="1.14176"/>
<path d="M2.21509 7.68828C3.22211 4.53528 6.04727 2.51942 8.68419 3.07231L4.2999 15.4532C1.90267 14.2234 1.01344 10.7724 2.21509 7.68828Z" stroke="#2E7DC7" stroke-width="1.14176"/>
<path d="M35.3496 29.5908V42.9697H33.5169V29.5908H35.3496Z" fill="url(#paint3_linear_334_359)" stroke="#CD482B" stroke-width="1.14176"/>
<path d="M38.7402 21.8369L35.2986 28.3097L33.6804 27.4493L37.122 20.9765L38.7402 21.8369Z" fill="url(#paint4_linear_334_359)" stroke="#CD482B" stroke-width="1.14176"/>
<path d="M38.1904 29.4983C38.1904 31.5733 36.5083 33.2554 34.4334 33.2554C32.3584 33.2554 30.6763 31.5733 30.6763 29.4983C30.6763 27.4233 32.3584 25.7412 34.4334 25.7412C36.5083 25.7412 38.1904 27.4233 38.1904 29.4983Z" fill="url(#paint5_linear_334_359)" stroke="#CD482B" stroke-width="1.14176"/>
<path d="M65.0344 25.8537L64.9944 25.3733C64.9072 24.3261 64.3717 23.3677 63.5258 22.7444C63.2539 22.5441 62.9555 22.3825 62.6391 22.2644L11.0668 3.01562L6.30174 16.8526L60.2753 30.4148C61.2599 30.6464 62.2965 30.4181 63.0927 29.7941L63.4307 29.5292C64.5498 28.652 65.1525 27.2707 65.0344 25.8537Z" fill="black" stroke="#CD482B" stroke-width="1.14176"/>
<path d="M65.5158 22.2956L64.2834 23.2479C63.9271 23.5232 63.8236 24.0166 64.0392 24.4118L64.299 24.8882C64.5516 25.3512 65.1419 25.506 65.5891 25.2264L66.8131 24.4614C66.8971 24.409 66.9242 24.2992 66.8743 24.2137L65.7861 22.3483C65.7304 22.2527 65.6033 22.228 65.5158 22.2956Z" fill="black" stroke="#CD482B" stroke-width="1.14176"/>
<path d="M67.0939 24.5727L65.6512 22.0668C65.5651 21.9173 65.6098 21.7267 65.7533 21.631C65.9122 21.5251 66.1276 21.5771 66.2208 21.7437L67.6313 24.2678C67.7172 24.4216 67.6573 24.616 67.4998 24.6948C67.3535 24.768 67.1755 24.7144 67.0939 24.5727Z" fill="black" stroke="#CD482B" stroke-width="1.14176"/>
<path d="M60.7179 30.6317L63.2372 22.228C63.3774 21.7604 63.1483 21.2615 62.7022 21.0631C62.1642 20.8238 61.5388 21.1151 61.3758 21.6809L58.9467 30.1111C58.8162 30.5639 59.0477 31.0422 59.4837 31.2208C59.9884 31.4276 60.5613 31.1541 60.7179 30.6317Z" fill="black" stroke="#CD482B" stroke-width="1.14176"/>
<path d="M46.0481 27.1109L49.2224 16.9611C49.4105 16.3596 49.1123 15.7135 48.5327 15.4664C47.86 15.1796 47.0873 15.5414 46.8768 16.2417L43.8153 26.4262C43.6404 27.0082 43.9411 27.6271 44.5068 27.8493C45.1375 28.0969 45.8459 27.7576 46.0481 27.1109Z" fill="black" stroke="#CD482B" stroke-width="1.14176"/>
<path d="M26.1211 21.9644L30.1512 10.72C30.4425 9.90741 30.026 9.01166 29.2169 8.71067C28.3868 8.40186 27.4653 8.83732 27.1768 9.67471L23.2862 20.9682C23.0157 21.7536 23.4339 22.6095 24.2197 22.8788C24.9969 23.1451 25.8439 22.7378 26.1211 21.9644Z" fill="black" stroke="#CD482B" stroke-width="1.14176"/>
<path d="M7.28639 16.8328L11.6556 3.78994C11.942 2.93507 11.5107 2.00539 10.673 1.67199C9.75954 1.30841 8.7291 1.79383 8.42777 2.72969L4.21201 15.823C3.94583 16.6497 4.37981 17.5391 5.19524 17.838C6.05099 18.1517 6.99688 17.697 7.28639 16.8328Z" fill="black" stroke="#CD482B" stroke-width="1.14176"/>
<defs>
<linearGradient id="paint0_linear_334_359" x1="41.2606" y1="48.376" x2="41.2606" y2="75.5002" gradientUnits="userSpaceOnUse">
<stop stop-color="#1D1D1D"/>
<stop offset="1"/>
</linearGradient>
<linearGradient id="paint1_linear_334_359" x1="27.9728" y1="48.2842" x2="27.9728" y2="75.4084" gradientUnits="userSpaceOnUse">
<stop stop-color="#1D1D1D"/>
<stop offset="1"/>
</linearGradient>
<linearGradient id="paint2_linear_334_359" x1="34.5708" y1="42.5986" x2="34.5708" y2="48.3755" gradientUnits="userSpaceOnUse">
<stop stop-color="#0C0C0C"/>
<stop offset="1" stop-color="#1D1D1D"/>
</linearGradient>
<linearGradient id="paint3_linear_334_359" x1="34.4333" y1="29.5908" x2="34.4333" y2="42.9697" gradientUnits="userSpaceOnUse">
<stop stop-color="#1D1D1D"/>
<stop offset="1"/>
</linearGradient>
<linearGradient id="paint4_linear_334_359" x1="37.9311" y1="21.4067" x2="34.4895" y2="27.8795" gradientUnits="userSpaceOnUse">
<stop stop-color="#1D1D1D"/>
<stop offset="1"/>
</linearGradient>
<linearGradient id="paint5_linear_334_359" x1="34.4334" y1="25.7412" x2="34.4334" y2="33.2554" gradientUnits="userSpaceOnUse">
<stop stop-color="#0C0C0C"/>
<stop offset="1" stop-color="#1D1D1D"/>
</linearGradient>
</defs>
</svg>
