<svg width="250" height="19" viewBox="0 0 250 19" fill="none" xmlns="http://www.w3.org/2000/svg">
<path d="M0.963849 12.0711V3.43501L2.81444 1.00611H13.2818L15.1324 3.43501V12.0711L13.2818 14.5H10.3132V10.8567L9.50355 11.4735H5.51322L4.02889 10.2205V5.61331L5.51322 4.37959H9.56138L10.3132 5.2085V4.36031H11.3734V13.459H12.7806L14.0915 11.7048V3.80128L12.7806 2.0278H3.33492L2.00481 3.80128V11.7048L3.33492 13.459H7.13248V14.5H2.81444L0.963849 12.0711ZM9.36861 10.4518L10.3132 9.71931V6.50005L9.31078 5.40127H5.89876L5.05057 6.09524V9.73859L5.89876 10.4518H9.36861ZM26.0424 8.11932L18.6208 12.1482V13.459H27.546V14.5H17.5991V11.4928L25.3485 7.34824L26.775 5.24705V3.80128L25.4641 2.00852H19.0449L17.6955 3.80128L16.8666 3.18441L18.5244 0.986838H25.9461L27.7967 3.45429V5.59404L26.0424 8.11932ZM38.3693 14.5H31.179L29.3477 12.0904V3.47357L31.1983 1.00611H38.35L40.2199 3.47357V12.0904L38.3693 14.5ZM39.1982 3.82055L37.8488 2.0278H31.6802L30.3501 3.82055V11.7048L31.6995 13.459H37.8488L39.1982 11.7048V3.82055ZM50.9293 8.11932L43.5077 12.1482V13.459H52.4329V14.5H42.486V11.4928L50.2354 7.34824L51.6618 5.24705V3.80128L50.351 2.00852H43.9318L42.5824 3.80128L41.7535 3.18441L43.4113 0.986838H50.8329L52.6835 3.45429V5.59404L50.9293 8.11932ZM61.6177 14.5H56.2779L54.2346 12.9964V11.3579H55.2755V12.4566L56.6249 13.459H61.2514L62.4273 12.4759V9.41088L60.249 7.77233L62.4273 6.05668V2.97237L61.2321 1.98924H56.6442L55.2755 2.97237V4.09043H54.2346V2.47117L56.2779 0.967561H61.6177L63.4682 2.49044V6.57716L61.9454 7.75306L63.4682 8.8904V12.9964L61.6177 14.5ZM83.6317 3.82055L82.2823 2.0278H75.2462L73.9161 3.82055V11.6856L75.2462 13.459H82.263L83.6124 11.6663L84.4413 12.3024L82.7642 14.5H74.7257L72.8751 12.0518V3.45429L74.7257 1.00611H82.7835L84.4606 3.20369L83.6317 3.82055ZM93.7801 14.5V7.29041L92.45 6.28801H88.6331L87.2259 7.77233V14.4807H86.2042V1.02539H87.2259V6.34584L88.2476 5.2856H92.797L94.821 6.76993V14.5H93.7801ZM102.515 6.86632L101.782 6.32656H98.9291L97.599 7.30969V14.5H96.5581V5.2856H97.599V6.19162L98.7364 5.2856H102.129L103.132 6.03741L102.515 6.86632ZM104.86 3.87839V2.70249H105.843V3.87839H104.86ZM104.86 14.5V5.2856H105.824V14.5H104.86ZM113.947 14.5H107.739V13.5362H113.6L114.756 12.553V11.4928L113.58 10.4133H109.301L107.585 8.87112V6.84704L109.301 5.32416H115.257V6.28801H109.667L108.568 7.25186V8.46631L109.667 9.44943H113.966L115.739 11.0494V13.0157L113.947 14.5ZM120.75 6.28801V14.5H119.709V6.28801H117.28V5.2856H119.709V1.02539H120.75V5.2856H123.256V6.28801H120.75ZM131.789 14.5386H126.835L124.791 13.0349V6.78921L126.835 5.30488H131.789L133.813 6.78921V13.0349L131.789 14.5386ZM132.772 7.30969L131.423 6.30728H127.182L125.832 7.30969V12.4952L127.182 13.4976H131.423L132.772 12.4952V7.30969ZM142.87 14.5H137.704L136.547 13.6518V18.7795H135.545V5.30488H136.547V6.4615L137.8 5.2856H142.87L144.702 6.78921V12.9964L142.87 14.5ZM143.699 7.29041L142.504 6.30728H138.109L136.547 7.81089V12.4952L137.897 13.459H142.504L143.699 12.4952V7.29041ZM154.021 14.5V7.29041L152.691 6.28801H148.874L147.466 7.77233V14.4807H146.445V1.02539H147.466V6.34584L148.488 5.2856H153.038L155.062 6.76993V14.5H154.021ZM157.647 10.1434V12.4566L158.977 13.459H163.584L164.799 12.4374L165.493 13.247L163.931 14.5H158.649L156.606 12.9964V6.78921L158.63 5.30488H163.931L165.782 6.80849V10.1434H157.647ZM164.741 7.29041L163.584 6.30728H158.977L157.647 7.32896V9.16028H164.741V7.29041ZM173.467 6.86632L172.734 6.32656H169.881L168.551 7.30969V14.5H167.51V5.2856H168.551V6.19162L169.688 5.2856H173.081L174.084 6.03741L173.467 6.86632ZM191.8 14.5H186.171L183.338 12.0518V10.3554H184.359V11.5892L186.557 13.459H191.415L193.67 11.5892V9.62292L192.282 8.44703H185.381L183.338 6.7121V3.43501L186.229 1.00611H191.858L194.692 3.43501V5.035H193.67V3.89766L191.453 2.0278H186.595L184.359 3.89766V6.2109L185.747 7.40607H192.629L194.692 9.141V12.0711L191.8 14.5ZM204.387 14.4807V13.6904L203.308 14.5H198.083L196.233 12.9578V6.80849L198.083 5.30488H203.327L204.387 6.38439V5.30488H205.389V14.4807H204.387ZM204.387 7.83017L202.98 6.30728H198.45L197.274 7.29041V12.4952L198.45 13.459H203.038L204.387 12.4181V7.83017ZM210.468 6.30728V14.5H209.427V6.30728H206.998V5.2856H209.427V3.41574L211.316 1.00611H212.974V2.00852H211.836L210.468 3.782V5.2856H212.974V6.30728H210.468ZM217.659 6.30728V14.5H216.618V6.30728H214.189V5.2856H216.618V3.41574L218.507 1.00611H220.165V2.00852H219.027L217.659 3.782V5.2856H220.165V6.30728H217.659ZM227.664 6.86632L226.932 6.32656H224.079L222.749 7.30969V14.5H221.708V5.2856H222.749V6.19162L223.886 5.2856H227.279L228.281 6.03741L227.664 6.86632ZM236.664 14.5386H231.71L229.666 13.0349V6.78921L231.71 5.30488H236.664L238.688 6.78921V13.0349L236.664 14.5386ZM237.647 7.30969L236.298 6.30728H232.057L230.707 7.30969V12.4952L232.057 13.4976H236.298L237.647 12.4952V7.30969ZM248.015 14.5V7.32896L246.666 6.30728H242.81L241.461 7.32896V14.4807H240.42V5.30488H241.461V6.17235L242.579 5.30488H247.013L249.056 6.78921V14.5H248.015Z" fill="black"/>
</svg>
