<svg xmlns="http://www.w3.org/2000/svg" version="1.1" xmlns:xlink="http://www.w3.org/1999/xlink" xmlns:svgjs="http://svgjs.dev/svgjs" width="1920" height="1080" preserveAspectRatio="none" viewBox="0 0 1920 1080"><g mask="url(&quot;#SvgjsMask1157&quot;)" fill="none"><path d="M2016 1080L0 1080 L0 708.71Q26.57 575.28, 160 601.85Q254.18 536.03, 320 630.2Q346.41 560.62, 416 587.03Q469.42 544.45, 512 597.87Q606.92 596.79, 608 691.71Q675.38 599.1, 768 666.48Q831.5 569.98, 928 633.47Q1033.56 579.03, 1088 684.59Q1141.08 641.66, 1184 694.74Q1197.93 548.67, 1344 562.6Q1429.93 488.53, 1504 574.45Q1657.62 568.07, 1664 721.69Q1712.42 610.11, 1824 658.53Q1889.28 627.81, 1920 693.09Q1986.51 663.6, 2016 730.1z" fill="rgba(155, 34, 9, 1)"></path><path d="M2080 1080L0 1080 L0 771.4Q20.32 695.72, 96 716.04Q198.55 658.59, 256 761.14Q327.85 672.99, 416 744.83Q488.24 721.07, 512 793.31Q549.11 734.42, 608 771.53Q647.84 651.37, 768 691.21Q868.26 631.47, 928 731.73Q1069.47 713.2, 1088 854.68Q1129.51 800.19, 1184 841.71Q1213.35 775.06, 1280 804.41Q1347.54 711.95, 1440 779.5Q1500.37 679.87, 1600 740.23Q1729.07 709.3, 1760 838.36Q1782.36 700.72, 1920 723.08Q2011.03 654.11, 2080 745.14z" fill="rgba(173, 49, 23, 1)"></path><path d="M2016 1080L0 1080 L0 886.93Q124.53 851.46, 160 975.99Q232.6 888.59, 320 961.18Q343 824.18, 480 847.18Q515.2 786.38, 576 821.57Q645.17 794.75, 672 863.92Q781.8 813.72, 832 923.52Q860.47 791.99, 992 820.45Q1095.55 764, 1152 867.56Q1224.31 843.87, 1248 916.18Q1289.05 797.23, 1408 838.29Q1445.17 779.46, 1504 816.64Q1582.05 798.68, 1600 876.73Q1680.67 861.4, 1696 942.07Q1798.41 884.48, 1856 986.89Q1906.2 877.09, 2016 927.29z" fill="rgba(187, 64, 38, 1)"></path><path d="M2080 1080L0 1080 L0 1087.68Q39.64 1031.32, 96 1070.96Q100.36 979.32, 192 983.68Q259.79 891.47, 352 959.26Q420.73 931.99, 448 1000.72Q518.84 975.56, 544 1046.39Q575.54 917.93, 704 949.47Q797.77 883.24, 864 977.01Q962.73 915.74, 1024 1014.46Q1079.73 910.19, 1184 965.92Q1276.72 898.64, 1344 991.37Q1473.28 960.64, 1504 1089.92Q1512.97 938.89, 1664 947.87Q1751.47 875.35, 1824 962.82Q1938.45 981.27, 1920 1095.71Q2006.88 1022.6, 2080 1109.48z" fill="rgba(217, 77, 48, 1)"></path></g><defs><mask id="SvgjsMask1157"><rect width="1920" height="1080" fill="#ffffff"></rect></mask></defs></svg>