<svg width="169" height="62" viewBox="0 0 169 62" fill="none" xmlns="http://www.w3.org/2000/svg">
<g filter="url(#filter0_d_446_2)">
<path d="M37.2353 47.5181H27.2701V51.6214H34.8905H36.9925C37.5233 51.6214 38.0323 51.4106 38.4077 51.0352C38.783 50.6599 38.9939 50.1508 38.9939 49.62V47.5181H37.2353Z" fill="white"/>
<path d="M22.5806 47.5181H12.6154H10.8568V49.62C10.8568 50.1508 11.0677 50.6599 11.443 51.0352C11.8183 51.4106 12.3274 51.6214 12.8582 51.6214H14.9601H22.5806V47.5181Z" fill="white"/>
<path d="M14.9601 51.6214L14.9601 53.7887C14.9601 54.632 15.3816 55.4195 16.0833 55.8873C16.4976 56.1635 16.9844 56.3109 17.4824 56.3109H22.5806V51.6214H14.9601Z" fill="white"/>
<path d="M34.8905 53.7887V51.6214H27.2701V56.3109H32.3683C32.8663 56.3109 33.3531 56.1635 33.7674 55.8873C34.4691 55.4195 34.8905 54.632 34.8905 53.7887Z" fill="white"/>
<path fill-rule="evenodd" clip-rule="evenodd" d="M16.3075 10.5053C15.8624 11.2072 15.5019 11.9585 15.2006 12.7332L14.4412 14.6861C13.2345 17.789 12.6154 21.0892 12.6154 24.4185V25.8291L12.6154 47.5181H22.5806V40.4411C22.5806 40.0837 22.6638 39.7312 22.8236 39.4116C23.0464 38.9661 23.4076 38.6048 23.8531 38.3821C24.1727 38.2223 24.5252 38.1391 24.8826 38.1391H24.9681C25.3255 38.1391 25.6779 38.2223 25.9976 38.3821C26.4431 38.6048 26.8043 38.9661 27.0271 39.4116C27.1869 39.7312 27.2701 40.0837 27.2701 40.4411V47.5181H37.2353L37.2353 25.8291V24.4185C37.2353 21.0892 36.6162 17.789 35.4095 14.6861L34.646 12.7229C34.3474 11.9549 33.9957 11.2075 33.5645 10.5053V10.5053L24.9253 10.5053L16.3075 10.5053V10.5053ZM21.9944 20.5534L22.3378 20.21C22.8686 19.6792 23.9584 19.1646 24.709 19.1646H25.1207C25.8714 19.1646 26.9821 19.6792 27.5129 20.21L27.8563 20.5534C28.6069 21.3041 29.0286 22.3222 29.0286 23.3838L29.0286 24.1711C29.0286 25.2327 28.6069 26.2508 27.8563 27.0015L27.5129 27.3449C26.9821 27.8757 25.8714 28.2226 25.1207 28.2226H24.709C23.9584 28.2226 22.8686 27.8757 22.3378 27.3449L21.9944 27.0015C21.2437 26.2508 20.822 25.2327 20.822 24.1711L20.822 23.3838C20.822 22.3222 21.2437 21.3041 21.9944 20.5534Z" fill="white"/>
<path d="M12.6154 47.5181L12.6154 25.8291M12.6154 47.5181H22.5806M12.6154 47.5181H10.8568M12.6154 25.8291V24.4185C12.6154 21.0892 13.2345 17.789 14.4412 14.6861L15.2006 12.7332C15.5019 11.9585 15.8624 11.2072 16.3075 10.5053V10.5053M12.6154 25.8291L2.06396 36.9667L2.06396 44.9959C2.06396 45.8392 2.48543 46.6267 3.18712 47.0945C3.60144 47.3707 4.08825 47.5181 4.58621 47.5181H10.8568M22.5806 47.5181V40.4411C22.5806 40.0837 22.6638 39.7312 22.8236 39.4116C23.0464 38.9661 23.4076 38.6048 23.8531 38.3821C24.1727 38.2223 24.5252 38.1391 24.8826 38.1391H24.9681C25.3255 38.1391 25.6779 38.2223 25.9976 38.3821C26.4431 38.6048 26.8043 38.9661 27.0271 39.4116C27.1869 39.7312 27.2701 40.0837 27.2701 40.4411V47.5181M22.5806 47.5181V51.6214M22.5806 56.3109L23.4278 57.5818C23.631 57.8865 23.9729 58.0695 24.3392 58.0695H25.5115C25.8777 58.0695 26.2197 57.8865 26.4229 57.5818L27.2701 56.3109M22.5806 56.3109V51.6214M22.5806 56.3109H17.4824C16.9844 56.3109 16.4976 56.1635 16.0833 55.8873C15.3816 55.4195 14.9601 54.632 14.9601 53.7887L14.9601 51.6214M14.9601 51.6214H12.8582C12.3274 51.6214 11.8183 51.4106 11.443 51.0352C11.0677 50.6599 10.8568 50.1508 10.8568 49.62V47.5181M14.9601 51.6214H22.5806M37.2353 47.5181L37.2353 25.8291M37.2353 47.5181H27.2701M37.2353 47.5181H38.9939M37.2353 25.8291V24.4185C37.2353 21.0892 36.6162 17.789 35.4095 14.6861L34.646 12.7229C34.3474 11.9549 33.9957 11.2075 33.5645 10.5053V10.5053M37.2353 25.8291L47.7867 36.9667L47.7867 44.9959C47.7867 45.8392 47.3652 46.6267 46.6636 47.0945C46.2492 47.3707 45.7624 47.5181 45.2645 47.5181L38.9939 47.5181M27.2701 47.5181V51.6214M27.2701 56.3109V51.6214M27.2701 56.3109H32.3683C32.8663 56.3109 33.3531 56.1635 33.7674 55.8873C34.4691 55.4195 34.8905 54.632 34.8905 53.7887V51.6214M34.8905 51.6214H36.9925C37.5233 51.6214 38.0323 51.4106 38.4077 51.0352C38.783 50.6599 38.9939 50.1508 38.9939 49.62V47.5181M34.8905 51.6214H27.2701M33.5645 10.5053C33.0842 9.72301 32.6094 9.01364 32.0362 8.23805C31.3409 7.29722 30.5278 6.451 29.664 5.66204V5.66204C28.7209 4.80071 27.5488 4.23067 26.289 4.0207C25.9295 3.96078 25.5656 3.93066 25.2011 3.93066H24.9253H24.6496C24.2851 3.93066 23.9212 3.96078 23.5616 4.0207C22.3019 4.23067 21.1297 4.80071 20.1867 5.66204V5.66204C19.3233 6.45065 18.5233 7.30829 17.8371 8.25509C17.2964 9.001 16.8028 9.72397 16.3075 10.5053M33.5645 10.5053L24.9253 10.5053L16.3075 10.5053M22.3378 20.21L21.9944 20.5534C21.2437 21.3041 20.822 22.3222 20.822 23.3838L20.822 24.1711C20.822 25.2327 21.2437 26.2508 21.9944 27.0015L22.3378 27.3449C22.8686 27.8757 23.9584 28.2226 24.709 28.2226H25.1207C25.8714 28.2226 26.9821 27.8757 27.5129 27.3449L27.8563 27.0015C28.6069 26.2508 29.0286 25.2327 29.0286 24.1711L29.0286 23.3838C29.0286 22.3222 28.6069 21.3041 27.8563 20.5534L27.5129 20.21C26.9821 19.6792 25.8714 19.1646 25.1207 19.1646H24.709C23.9584 19.1646 22.8686 19.6792 22.3378 20.21Z" stroke="#383535" stroke-width="1.028"/>
</g>
<g filter="url(#filter1_d_446_2)">
<path d="M22.337 20.21L21.9937 20.5533C21.243 21.304 20.8213 22.3221 20.8213 23.3837V24.1711C20.8213 25.2327 21.243 26.2508 21.9937 27.0014L22.3371 27.3448C22.8678 27.8756 23.9576 28.2226 24.7083 28.2226H25.12C25.8707 28.2226 26.9814 27.8756 27.5121 27.3448L27.8555 27.0014C28.6062 26.2508 29.0279 25.2327 29.0279 24.1711V23.3837C29.0279 22.3221 28.6062 21.304 27.8555 20.5533L27.5122 20.21C26.9814 19.6792 25.8707 19.1646 25.12 19.1646H24.7083C23.9576 19.1646 22.8678 19.6792 22.337 20.21Z" fill="url(#paint0_linear_446_2)"/>
<path d="M22.337 20.21L21.9937 20.5533C21.243 21.304 20.8213 22.3221 20.8213 23.3837V24.1711C20.8213 25.2327 21.243 26.2508 21.9937 27.0014L22.3371 27.3448C22.8678 27.8756 23.9576 28.2226 24.7083 28.2226H25.12C25.8707 28.2226 26.9814 27.8756 27.5121 27.3448L27.8555 27.0014C28.6062 26.2508 29.0279 25.2327 29.0279 24.1711V23.3837C29.0279 22.3221 28.6062 21.304 27.8555 20.5533L27.5122 20.21C26.9814 19.6792 25.8707 19.1646 25.12 19.1646H24.7083C23.9576 19.1646 22.8678 19.6792 22.337 20.21Z" stroke="#2E2D5F" stroke-width="2.103"/>
</g>
<path d="M2.06396 36.9667L2.06396 44.9959C2.06396 45.8392 2.48543 46.6267 3.18712 47.0945C3.60144 47.3707 4.08825 47.5181 4.58621 47.5181H10.8568H12.6154L12.6154 25.8291L2.06396 36.9667Z" fill="url(#paint1_linear_446_2)"/>
<path d="M47.7867 44.9959L47.7867 36.9667L37.2353 25.8291L37.2353 47.5181H38.9939L45.2645 47.5181C45.7624 47.5181 46.2492 47.3707 46.6636 47.0945C47.3652 46.6267 47.7867 45.8392 47.7867 44.9959Z" fill="url(#paint2_linear_446_2)"/>
<path d="M22.5806 40.4411V47.5181V51.6214V56.3109L23.4278 57.5818C23.631 57.8865 23.9729 58.0695 24.3392 58.0695H25.5115C25.8777 58.0695 26.2197 57.8865 26.4229 57.5818L27.2701 56.3109V51.6214V47.5181V40.4411C27.2701 40.0837 27.1869 39.7312 27.0271 39.4116C26.8043 38.9661 26.4431 38.6048 25.9976 38.3821C25.6779 38.2223 25.3255 38.1391 24.9681 38.1391H24.8826C24.5252 38.1391 24.1727 38.2223 23.8531 38.3821C23.4076 38.6048 23.0464 38.9661 22.8236 39.4116C22.6638 39.7312 22.5806 40.0837 22.5806 40.4411Z" fill="url(#paint3_linear_446_2)"/>
<path d="M20.1867 5.66204C19.3233 6.45065 18.5233 7.30829 17.8371 8.25509C17.2964 9.00101 16.8028 9.72397 16.3074 10.5053L24.9253 10.5053L33.5645 10.5053C33.0842 9.72301 32.6094 9.01364 32.0362 8.23805C31.3409 7.29722 30.5278 6.451 29.664 5.66204C28.7209 4.80071 27.5488 4.23067 26.289 4.0207C25.9295 3.96078 25.5656 3.93066 25.2011 3.93066H24.9253H24.6496C24.2851 3.93066 23.9212 3.96078 23.5616 4.0207C22.3018 4.23067 21.1297 4.80071 20.1867 5.66204Z" fill="url(#paint4_linear_446_2)"/>
<path d="M2.06396 36.9667L2.06396 44.9959C2.06396 45.8392 2.48543 46.6267 3.18712 47.0945C3.60144 47.3707 4.08825 47.5181 4.58621 47.5181H10.8568H12.6154L12.6154 25.8291L2.06396 36.9667Z" stroke="#383535" stroke-width="1.028"/>
<path d="M47.7867 44.9959L47.7867 36.9667L37.2353 25.8291L37.2353 47.5181H38.9939L45.2645 47.5181C45.7624 47.5181 46.2492 47.3707 46.6636 47.0945C47.3652 46.6267 47.7867 45.8392 47.7867 44.9959Z" stroke="#383535" stroke-width="1.028"/>
<path d="M22.5806 40.4411V47.5181V51.6214V56.3109L23.4278 57.5818C23.631 57.8865 23.9729 58.0695 24.3392 58.0695H25.5115C25.8777 58.0695 26.2197 57.8865 26.4229 57.5818L27.2701 56.3109V51.6214V47.5181V40.4411C27.2701 40.0837 27.1869 39.7312 27.0271 39.4116C26.8043 38.9661 26.4431 38.6048 25.9976 38.3821C25.6779 38.2223 25.3255 38.1391 24.9681 38.1391H24.8826C24.5252 38.1391 24.1727 38.2223 23.8531 38.3821C23.4076 38.6048 23.0464 38.9661 22.8236 39.4116C22.6638 39.7312 22.5806 40.0837 22.5806 40.4411Z" stroke="#383535" stroke-width="1.028"/>
<path d="M20.1867 5.66204C19.3233 6.45065 18.5233 7.30829 17.8371 8.25509C17.2964 9.00101 16.8028 9.72397 16.3074 10.5053L24.9253 10.5053L33.5645 10.5053C33.0842 9.72301 32.6094 9.01364 32.0362 8.23805C31.3409 7.29722 30.5278 6.451 29.664 5.66204C28.7209 4.80071 27.5488 4.23067 26.289 4.0207C25.9295 3.96078 25.5656 3.93066 25.2011 3.93066H24.9253H24.6496C24.2851 3.93066 23.9212 3.96078 23.5616 4.0207C22.3018 4.23067 21.1297 4.80071 20.1867 5.66204Z" stroke="#383535" stroke-width="1.028"/>
<path d="M36.8161 24.7275L32.925 28.6186V47.1349" stroke="#D7D7D7" stroke-width="0.342668"/>
<path d="M13.0657 24.7266L16.9568 28.6177V47.1339" stroke="#D7D7D7" stroke-width="0.342668"/>
<path d="M15.5703 12.9197H25.1435H34.2675" stroke="#D7D7D7" stroke-width="0.342668"/>
<path d="M77.4685 15.3206L76.1191 13.5278H69.083L67.7529 15.3206V23.1856L69.083 24.959H76.0998L77.4492 23.1663L78.2781 23.8024L76.601 26H68.5625L66.7119 23.5518V14.9543L68.5625 12.5061H76.6203L78.2974 14.7037L77.4685 15.3206ZM87.6169 26V18.7904L86.2868 17.788H82.4699L81.0627 19.2723V25.9807H80.041V12.5254H81.0627V17.8458L82.0844 16.7856H86.6338L88.6579 18.2699V26H87.6169ZM96.3515 18.3663L95.6189 17.8266H92.766L91.4358 18.8097V26H90.3949V16.7856H91.4358V17.6916L92.5732 16.7856H95.9659L96.9683 17.5374L96.3515 18.3663ZM98.6968 15.3784V14.2025H99.6799V15.3784H98.6968ZM98.6968 26V16.7856H99.6606V26H98.6968ZM107.783 26H101.576V25.0362H107.436L108.593 24.053V22.9928L107.417 21.9133H103.138L101.422 20.3711V18.347L103.138 16.8242H109.094V17.788H103.504L102.405 18.7519V19.9663L103.504 20.9494H107.803L109.576 22.5494V24.5157L107.783 26ZM114.587 17.788V26H113.546V17.788H111.117V16.7856H113.546V12.5254H114.587V16.7856H117.093V17.788H114.587ZM125.626 26.0386H120.671L118.628 24.5349V18.2892L120.671 16.8049H125.626L127.65 18.2892V24.5349L125.626 26.0386ZM126.609 18.8097L125.259 17.8073H121.018L119.669 18.8097V23.9952L121.018 24.9976H125.259L126.609 23.9952V18.8097ZM136.707 26H131.541L130.384 25.1518V30.2795H129.382V16.8049H130.384V17.9615L131.637 16.7856H136.707L138.538 18.2892V24.4964L136.707 26ZM137.536 18.7904L136.341 17.8073H131.946L130.384 19.3109V23.9952L131.734 24.959H136.341L137.536 23.9952V18.7904ZM147.857 26V18.7904L146.527 17.788H142.71L141.303 19.2723V25.9807H140.282V12.5254H141.303V17.8458L142.325 16.7856H146.874L148.898 18.2699V26H147.857ZM151.484 21.6434V23.9566L152.814 24.959H157.421L158.635 23.9374L159.329 24.747L157.768 26H152.486L150.443 24.4964V18.2892L152.467 16.8049H157.768L159.619 18.3085V21.6434H151.484ZM158.578 18.7904L157.421 17.8073H152.814L151.484 18.829V20.6603H158.578V18.7904ZM167.304 18.3663L166.571 17.8266H163.718L162.388 18.8097V26H161.347V16.7856H162.388V17.6916L163.525 16.7856H166.918L167.92 17.5374L167.304 18.3663Z" fill="black"/>
<path d="M75.0203 47H69.3914L66.5577 44.5518V42.8554H67.5794V44.0892L69.777 45.959H74.6348L76.8902 44.0892V42.1229L75.5022 40.947H68.6011L66.5577 39.2121V35.935L69.4492 33.5061H75.0781L77.9118 35.935V37.535H76.8902V36.3977L74.6733 34.5278H69.8155L67.5794 36.3977V38.7109L68.9673 39.9061H75.8492L77.9118 41.641V44.5711L75.0203 47ZM87.6071 46.9807V46.1904L86.5276 47H81.3035L79.4529 45.4578V39.3085L81.3035 37.8049H86.5469L87.6071 38.8844V37.8049H88.6095V46.9807H87.6071ZM87.6071 40.3302L86.1999 38.8073H81.6698L80.4939 39.7904V44.9952L81.6698 45.959H86.2577L87.6071 44.9181V40.3302ZM93.6876 38.8073V47H92.6467V38.8073H90.2178V37.7856H92.6467V35.9157L94.5358 33.5061H96.1936V34.5085H95.0563L93.6876 36.282V37.7856H96.1936V38.8073H93.6876ZM100.879 38.8073V47H99.8379V38.8073H97.409V37.7856H99.8379V35.9157L101.727 33.5061H103.385V34.5085H102.248L100.879 36.282V37.7856H103.385V38.8073H100.879ZM110.885 39.3663L110.152 38.8266H107.299L105.969 39.8097V47H104.928V37.7856H105.969V38.6916L107.106 37.7856H110.499L111.501 38.5374L110.885 39.3663Z" fill="black"/>
<path d="M120.035 47.0386H115.08L113.037 45.5349V39.2892L115.08 37.8049H120.035L122.059 39.2892V45.5349L120.035 47.0386ZM121.018 39.8097L119.668 38.8073H115.427L114.078 39.8097V44.9952L115.427 45.9976H119.668L121.018 44.9952V39.8097ZM131.386 47V39.829L130.036 38.8073H126.181L124.832 39.829V46.9807H123.791V37.8049H124.832V38.6723L125.95 37.8049H130.383L132.427 39.2892V47H131.386Z" fill="#F3684A"/>
<path d="M101.11 1.28101L56.4488 1.28101L56.4488 60.5965L101.11 60.5965" stroke="black" stroke-width="2" stroke-linejoin="bevel" stroke-dasharray="4 4"/>
<defs>
<filter id="filter0_d_446_2" x="0.179133" y="2.04595" width="49.4923" height="57.9082" filterUnits="userSpaceOnUse" color-interpolation-filters="sRGB">
<feFlood flood-opacity="0" result="BackgroundImageFix"/>
<feColorMatrix in="SourceAlpha" type="matrix" values="0 0 0 0 0 0 0 0 0 0 0 0 0 0 0 0 0 0 127 0" result="hardAlpha"/>
<feOffset/>
<feGaussianBlur stdDeviation="0.685336"/>
<feComposite in2="hardAlpha" operator="out"/>
<feColorMatrix type="matrix" values="0 0 0 0 0 0 0 0 0 0 0 0 0 0 0 0 0 0 0.5 0"/>
<feBlend mode="normal" in2="BackgroundImageFix" result="effect1_dropShadow_446_2"/>
<feBlend mode="normal" in="SourceGraphic" in2="effect1_dropShadow_446_2" result="shape"/>
</filter>
<filter id="filter1_d_446_2" x="18.3991" y="16.7424" width="13.0509" height="13.9024" filterUnits="userSpaceOnUse" color-interpolation-filters="sRGB">
<feFlood flood-opacity="0" result="BackgroundImageFix"/>
<feColorMatrix in="SourceAlpha" type="matrix" values="0 0 0 0 0 0 0 0 0 0 0 0 0 0 0 0 0 0 127 0" result="hardAlpha"/>
<feOffset/>
<feGaussianBlur stdDeviation="0.685336"/>
<feComposite in2="hardAlpha" operator="out"/>
<feColorMatrix type="matrix" values="0 0 0 0 0 0 0 0 0 0 0 0 0 0 0 0 0 0 0.5 0"/>
<feBlend mode="normal" in2="BackgroundImageFix" result="effect1_dropShadow_446_2"/>
<feBlend mode="normal" in="SourceGraphic" in2="effect1_dropShadow_446_2" result="shape"/>
</filter>
<linearGradient id="paint0_linear_446_2" x1="24.9246" y1="19.1646" x2="24.9246" y2="28.2226" gradientUnits="userSpaceOnUse">
<stop stop-color="#4779FB"/>
<stop offset="1" stop-color="#B9CDFF"/>
</linearGradient>
<linearGradient id="paint1_linear_446_2" x1="24.9253" y1="3.93066" x2="24.9253" y2="58.0695" gradientUnits="userSpaceOnUse">
<stop stop-color="#FF5631"/>
<stop offset="0.916667" stop-color="#A83E27"/>
<stop offset="1" stop-color="#863423"/>
</linearGradient>
<linearGradient id="paint2_linear_446_2" x1="24.9253" y1="3.93066" x2="24.9253" y2="58.0695" gradientUnits="userSpaceOnUse">
<stop stop-color="#FF5631"/>
<stop offset="0.916667" stop-color="#A83E27"/>
<stop offset="1" stop-color="#863423"/>
</linearGradient>
<linearGradient id="paint3_linear_446_2" x1="24.9253" y1="3.93066" x2="24.9253" y2="58.0695" gradientUnits="userSpaceOnUse">
<stop stop-color="#FF5631"/>
<stop offset="0.916667" stop-color="#A83E27"/>
<stop offset="1" stop-color="#863423"/>
</linearGradient>
<linearGradient id="paint4_linear_446_2" x1="24.9253" y1="3.93066" x2="24.9253" y2="58.0695" gradientUnits="userSpaceOnUse">
<stop stop-color="#FF5631"/>
<stop offset="0.916667" stop-color="#A83E27"/>
<stop offset="1" stop-color="#863423"/>
</linearGradient>
</defs>
</svg>
