<svg width="169" height="62" viewBox="0 0 169 62" fill="none" xmlns="http://www.w3.org/2000/svg">
<g filter="url(#filter0_d_180_277)">
<path d="M37.2355 47.5181H27.2703V51.6214H34.8908H36.9927C37.5235 51.6214 38.0326 51.4106 38.4079 51.0352C38.7833 50.6599 38.9941 50.1508 38.9941 49.62V47.5181H37.2355Z" fill="white"/>
<path d="M22.5808 47.5181H12.6156H10.857V49.62C10.857 50.1508 11.0679 50.6599 11.4432 51.0352C11.8186 51.4106 12.3276 51.6214 12.8584 51.6214H14.9604H22.5808V47.5181Z" fill="white"/>
<path d="M14.9604 51.6214L14.9604 53.7887C14.9604 54.632 15.3818 55.4195 16.0835 55.8873C16.4979 56.1635 16.9847 56.3109 17.4826 56.3109H22.5808V51.6214H14.9604Z" fill="white"/>
<path d="M34.8908 53.7887V51.6214H27.2703V56.3109H32.3685C32.8665 56.3109 33.3533 56.1635 33.7676 55.8873C34.4693 55.4195 34.8908 54.632 34.8908 53.7887Z" fill="white"/>
<path fill-rule="evenodd" clip-rule="evenodd" d="M16.3077 10.5053C15.8626 11.2072 15.5021 11.9585 15.2009 12.7332L14.4414 14.6861C13.2347 17.789 12.6156 21.0892 12.6156 24.4185V25.8291L12.6156 47.5181H22.5808V40.4411C22.5808 40.0837 22.664 39.7312 22.8239 39.4116C23.0466 38.9661 23.4078 38.6048 23.8533 38.3821C24.173 38.2223 24.5255 38.1391 24.8828 38.1391H24.9683C25.3257 38.1391 25.6782 38.2223 25.9978 38.3821C26.4433 38.6048 26.8045 38.9661 27.0273 39.4116C27.1871 39.7312 27.2703 40.0837 27.2703 40.4411V47.5181H37.2355L37.2355 25.8291V24.4185C37.2355 21.0892 36.6164 17.789 35.4097 14.6861L34.6463 12.7229C34.3476 11.9549 33.996 11.2075 33.5648 10.5053L24.9256 10.5053L16.3077 10.5053ZM21.9946 20.5534L22.338 20.21C22.8688 19.6792 23.9586 19.1646 24.7093 19.1646H25.121C25.8717 19.1646 26.9823 19.6792 27.5131 20.21L27.8565 20.5534C28.6072 21.3041 29.0289 22.3222 29.0289 23.3838L29.0289 24.1711C29.0289 25.2327 28.6072 26.2508 27.8565 27.0015L27.5131 27.3449C26.9823 27.8757 25.8717 28.2226 25.121 28.2226H24.7093C23.9586 28.2226 22.8688 27.8757 22.338 27.3449L21.9946 27.0015C21.244 26.2508 20.8223 25.2327 20.8223 24.1711L20.8223 23.3838C20.8223 22.3222 21.244 21.3041 21.9946 20.5534Z" fill="white"/>
<path d="M12.6156 47.5181L12.6156 25.8291M12.6156 47.5181H22.5808M12.6156 47.5181H10.857M12.6156 25.8291V24.4185C12.6156 21.0892 13.2347 17.789 14.4414 14.6861L15.2009 12.7332C15.5021 11.9585 15.8626 11.2072 16.3077 10.5053V10.5053M12.6156 25.8291L2.06421 36.9667L2.06421 44.9959C2.06421 45.8392 2.48568 46.6267 3.18736 47.0945C3.60168 47.3707 4.0885 47.5181 4.58645 47.5181H10.857M22.5808 47.5181V40.4411C22.5808 40.0837 22.664 39.7312 22.8239 39.4116C23.0466 38.9661 23.4078 38.6048 23.8533 38.3821C24.173 38.2223 24.5255 38.1391 24.8828 38.1391H24.9683C25.3257 38.1391 25.6782 38.2223 25.9978 38.3821C26.4433 38.6048 26.8045 38.9661 27.0273 39.4116C27.1871 39.7312 27.2703 40.0837 27.2703 40.4411V47.5181M22.5808 47.5181V51.6214M22.5808 56.3109L23.4281 57.5818C23.6312 57.8865 23.9732 58.0695 24.3394 58.0695H25.5118C25.878 58.0695 26.22 57.8865 26.4231 57.5818L27.2703 56.3109M22.5808 56.3109V51.6214M22.5808 56.3109H17.4826C16.9847 56.3109 16.4979 56.1635 16.0835 55.8873C15.3818 55.4195 14.9604 54.632 14.9604 53.7887L14.9604 51.6214M14.9604 51.6214H12.8584C12.3276 51.6214 11.8186 51.4106 11.4432 51.0352C11.0679 50.6599 10.857 50.1508 10.857 49.62V47.5181M14.9604 51.6214H22.5808M37.2355 47.5181L37.2355 25.8291M37.2355 47.5181H27.2703M37.2355 47.5181H38.9941M37.2355 25.8291V24.4185C37.2355 21.0892 36.6164 17.789 35.4097 14.6861L34.6463 12.7229C34.3476 11.9549 33.996 11.2075 33.5648 10.5053V10.5053M37.2355 25.8291L47.787 36.9667L47.787 44.9959C47.787 45.8392 47.3655 46.6267 46.6638 47.0945C46.2495 47.3707 45.7627 47.5181 45.2647 47.5181L38.9941 47.5181M27.2703 47.5181V51.6214M27.2703 56.3109V51.6214M27.2703 56.3109H32.3685C32.8665 56.3109 33.3533 56.1635 33.7676 55.8873C34.4693 55.4195 34.8908 54.632 34.8908 53.7887V51.6214M34.8908 51.6214H36.9927C37.5235 51.6214 38.0326 51.4106 38.4079 51.0352C38.7833 50.6599 38.9941 50.1508 38.9941 49.62V47.5181M34.8908 51.6214H27.2703M33.5648 10.5053C33.0844 9.72301 32.6096 9.01364 32.0364 8.23805C31.3411 7.29722 30.528 6.451 29.6642 5.66204V5.66204C28.7212 4.80071 27.5491 4.23067 26.2893 4.0207C25.9297 3.96078 25.5659 3.93066 25.2014 3.93066H24.9256H24.6498C24.2853 3.93066 23.9214 3.96078 23.5619 4.0207C22.3021 4.23067 21.13 4.80071 20.1869 5.66204V5.66204C19.3235 6.45065 18.5236 7.30829 17.8373 8.25509C17.2967 9.001 16.8031 9.72397 16.3077 10.5053M33.5648 10.5053L24.9256 10.5053L16.3077 10.5053M22.338 20.21L21.9946 20.5534C21.244 21.3041 20.8223 22.3222 20.8223 23.3838L20.8223 24.1711C20.8223 25.2327 21.244 26.2508 21.9946 27.0015L22.338 27.3449C22.8688 27.8757 23.9586 28.2226 24.7093 28.2226H25.121C25.8717 28.2226 26.9823 27.8757 27.5131 27.3449L27.8565 27.0015C28.6072 26.2508 29.0289 25.2327 29.0289 24.1711L29.0289 23.3838C29.0289 22.3222 28.6072 21.3041 27.8565 20.5534L27.5131 20.21C26.9823 19.6792 25.8717 19.1646 25.121 19.1646H24.7093C23.9586 19.1646 22.8688 19.6792 22.338 20.21Z" stroke="#383535" stroke-width="1.028"/>
</g>
<g filter="url(#filter1_d_180_277)">
<path d="M22.3372 20.21L21.9938 20.5533C21.2431 21.304 20.8214 22.3221 20.8214 23.3837V24.1711C20.8214 25.2327 21.2431 26.2508 21.9938 27.0014L22.3372 27.3448C22.868 27.8756 23.9577 28.2226 24.7084 28.2226H25.1201C25.8708 28.2226 26.9815 27.8756 27.5123 27.3448L27.8557 27.0014C28.6063 26.2508 29.028 25.2327 29.028 24.1711V23.3837C29.028 22.3221 28.6063 21.304 27.8557 20.5533L27.5123 20.21C26.9815 19.6792 25.8708 19.1646 25.1201 19.1646H24.7084C23.9577 19.1646 22.868 19.6792 22.3372 20.21Z" fill="url(#paint0_linear_180_277)"/>
<path d="M22.3372 20.21L21.9938 20.5533C21.2431 21.304 20.8214 22.3221 20.8214 23.3837V24.1711C20.8214 25.2327 21.2431 26.2508 21.9938 27.0014L22.3372 27.3448C22.868 27.8756 23.9577 28.2226 24.7084 28.2226H25.1201C25.8708 28.2226 26.9815 27.8756 27.5123 27.3448L27.8557 27.0014C28.6063 26.2508 29.028 25.2327 29.028 24.1711V23.3837C29.028 22.3221 28.6063 21.304 27.8557 20.5533L27.5123 20.21C26.9815 19.6792 25.8708 19.1646 25.1201 19.1646H24.7084C23.9577 19.1646 22.868 19.6792 22.3372 20.21Z" stroke="#2E2D5F" stroke-width="2.103"/>
</g>
<path d="M2.06421 36.9667L2.06421 44.9959C2.06421 45.8392 2.48568 46.6267 3.18736 47.0945C3.60168 47.3707 4.0885 47.5181 4.58645 47.5181H10.857H12.6156L12.6156 25.8291L2.06421 36.9667Z" fill="url(#paint1_linear_180_277)"/>
<path d="M47.787 44.9959L47.787 36.9667L37.2355 25.8291L37.2355 47.5181H38.9941L45.2647 47.5181C45.7627 47.5181 46.2495 47.3707 46.6638 47.0945C47.3655 46.6267 47.787 45.8392 47.787 44.9959Z" fill="url(#paint2_linear_180_277)"/>
<path d="M22.5808 40.4411V47.5181V51.6214V56.3109L23.4281 57.5818C23.6312 57.8865 23.9732 58.0695 24.3394 58.0695H25.5118C25.878 58.0695 26.22 57.8865 26.4231 57.5818L27.2703 56.3109V51.6214V47.5181V40.4411C27.2703 40.0837 27.1871 39.7312 27.0273 39.4116C26.8045 38.9661 26.4433 38.6048 25.9978 38.3821C25.6782 38.2223 25.3257 38.1391 24.9683 38.1391H24.8828C24.5255 38.1391 24.173 38.2223 23.8533 38.3821C23.4078 38.6048 23.0466 38.9661 22.8239 39.4116C22.664 39.7312 22.5808 40.0837 22.5808 40.4411Z" fill="url(#paint3_linear_180_277)"/>
<path d="M20.1869 5.66204C19.3235 6.45065 18.5236 7.30829 17.8373 8.25509C17.2967 9.00101 16.8031 9.72397 16.3077 10.5053L24.9256 10.5053L33.5648 10.5053C33.0844 9.72301 32.6096 9.01364 32.0364 8.23805C31.3411 7.29722 30.528 6.451 29.6642 5.66204C28.7212 4.80071 27.5491 4.23067 26.2893 4.0207C25.9297 3.96078 25.5658 3.93066 25.2013 3.93066H24.9256H24.6498C24.2853 3.93066 23.9214 3.96078 23.5619 4.0207C22.3021 4.23067 21.13 4.80071 20.1869 5.66204Z" fill="url(#paint4_linear_180_277)"/>
<path d="M2.06421 36.9667L2.06421 44.9959C2.06421 45.8392 2.48568 46.6267 3.18736 47.0945C3.60168 47.3707 4.0885 47.5181 4.58645 47.5181H10.857H12.6156L12.6156 25.8291L2.06421 36.9667Z" stroke="#383535" stroke-width="1.028"/>
<path d="M47.787 44.9959L47.787 36.9667L37.2355 25.8291L37.2355 47.5181H38.9941L45.2647 47.5181C45.7627 47.5181 46.2495 47.3707 46.6638 47.0945C47.3655 46.6267 47.787 45.8392 47.787 44.9959Z" stroke="#383535" stroke-width="1.028"/>
<path d="M22.5808 40.4411V47.5181V51.6214V56.3109L23.4281 57.5818C23.6312 57.8865 23.9732 58.0695 24.3394 58.0695H25.5118C25.878 58.0695 26.22 57.8865 26.4231 57.5818L27.2703 56.3109V51.6214V47.5181V40.4411C27.2703 40.0837 27.1871 39.7312 27.0273 39.4116C26.8045 38.9661 26.4433 38.6048 25.9978 38.3821C25.6782 38.2223 25.3257 38.1391 24.9683 38.1391H24.8828C24.5255 38.1391 24.173 38.2223 23.8533 38.3821C23.4078 38.6048 23.0466 38.9661 22.8239 39.4116C22.664 39.7312 22.5808 40.0837 22.5808 40.4411Z" stroke="#383535" stroke-width="1.028"/>
<path d="M20.1869 5.66204C19.3235 6.45065 18.5236 7.30829 17.8373 8.25509C17.2967 9.00101 16.8031 9.72397 16.3077 10.5053L24.9256 10.5053L33.5648 10.5053C33.0844 9.72301 32.6096 9.01364 32.0364 8.23805C31.3411 7.29722 30.528 6.451 29.6642 5.66204C28.7212 4.80071 27.5491 4.23067 26.2893 4.0207C25.9297 3.96078 25.5658 3.93066 25.2013 3.93066H24.9256H24.6498C24.2853 3.93066 23.9214 3.96078 23.5619 4.0207C22.3021 4.23067 21.13 4.80071 20.1869 5.66204Z" stroke="#383535" stroke-width="1.028"/>
<path d="M36.8163 24.7275L32.9252 28.6186V47.1349" stroke="#D7D7D7" stroke-width="0.342668"/>
<path d="M13.0661 24.7266L16.9572 28.6177V47.1339" stroke="#D7D7D7" stroke-width="0.342668"/>
<path d="M15.5708 12.9197H25.144H34.268" stroke="#D7D7D7" stroke-width="0.342668"/>
<path d="M77.4688 15.3206L76.1194 13.5278H69.0834L67.7532 15.3206V23.1856L69.0834 24.959H76.1002L77.4496 23.1663L78.2785 23.8024L76.6014 26H68.5629L66.7123 23.5518V14.9543L68.5629 12.5061H76.6206L78.2977 14.7037L77.4688 15.3206ZM87.6173 26V18.7904L86.2871 17.788H82.4703L81.0631 19.2723V25.9807H80.0414V12.5254H81.0631V17.8458L82.0848 16.7856H86.6341L88.6582 18.2699V26H87.6173ZM96.3518 18.3663L95.6193 17.8266H92.7663L91.4362 18.8097V26H90.3953V16.7856H91.4362V17.6916L92.5736 16.7856H95.9663L96.9687 17.5374L96.3518 18.3663ZM98.6972 15.3784V14.2025H99.6803V15.3784H98.6972ZM98.6972 26V16.7856H99.661V26H98.6972ZM107.784 26H101.577V25.0362H107.437L108.593 24.053V22.9928L107.417 21.9133H103.138L101.422 20.3711V18.347L103.138 16.8242H109.095V17.788H103.504L102.405 18.7519V19.9663L103.504 20.9494H107.803L109.576 22.5494V24.5157L107.784 26ZM114.587 17.788V26H113.546V17.788H111.117V16.7856H113.546V12.5254H114.587V16.7856H117.093V17.788H114.587ZM125.626 26.0386H120.672L118.628 24.5349V18.2892L120.672 16.8049H125.626L127.65 18.2892V24.5349L125.626 26.0386ZM126.609 18.8097L125.26 17.8073H121.019L119.669 18.8097V23.9952L121.019 24.9976H125.26L126.609 23.9952V18.8097ZM136.707 26H131.541L130.385 25.1518V30.2795H129.382V16.8049H130.385V17.9615L131.638 16.7856H136.707L138.539 18.2892V24.4964L136.707 26ZM137.536 18.7904L136.341 17.8073H131.946L130.385 19.3109V23.9952L131.734 24.959H136.341L137.536 23.9952V18.7904ZM147.858 26V18.7904L146.528 17.788H142.711L141.304 19.2723V25.9807H140.282V12.5254H141.304V17.8458L142.325 16.7856H146.875L148.899 18.2699V26H147.858ZM151.484 21.6434V23.9566L152.814 24.959H157.421L158.636 23.9374L159.33 24.747L157.768 26H152.486L150.443 24.4964V18.2892L152.467 16.8049H157.768L159.619 18.3085V21.6434H151.484ZM158.578 18.7904L157.421 17.8073H152.814L151.484 18.829V20.6603H158.578V18.7904ZM167.304 18.3663L166.571 17.8266H163.718L162.388 18.8097V26H161.347V16.7856H162.388V17.6916L163.526 16.7856H166.918L167.921 17.5374L167.304 18.3663Z" fill="white"/>
<path d="M75.0207 47H69.3918L66.5581 44.5518V42.8554H67.5797V44.0892L69.7773 45.959H74.6351L76.8905 44.0892V42.1229L75.5026 40.947H68.6014L66.5581 39.2121V35.935L69.4496 33.5061H75.0785L77.9122 35.935V37.535H76.8905V36.3977L74.6737 34.5278H69.8159L67.5797 36.3977V38.7109L68.9677 39.9061H75.8496L77.9122 41.641V44.5711L75.0207 47ZM87.6075 46.9807V46.1904L86.528 47H81.3039L79.4533 45.4578V39.3085L81.3039 37.8049H86.5472L87.6075 38.8844V37.8049H88.6099V46.9807H87.6075ZM87.6075 40.3302L86.2003 38.8073H81.6702L80.4943 39.7904V44.9952L81.6702 45.959H86.2581L87.6075 44.9181V40.3302ZM93.688 38.8073V47H92.647V38.8073H90.2181V37.7856H92.647V35.9157L94.5362 33.5061H96.194V34.5085H95.0567L93.688 36.282V37.7856H96.194V38.8073H93.688ZM100.879 38.8073V47H99.8383V38.8073H97.4094V37.7856H99.8383V35.9157L101.727 33.5061H103.385V34.5085H102.248L100.879 36.282V37.7856H103.385V38.8073H100.879ZM110.885 39.3663L110.152 38.8266H107.299L105.969 39.8097V47H104.928V37.7856H105.969V38.6916L107.107 37.7856H110.499L111.502 38.5374L110.885 39.3663Z" fill="white"/>
<path d="M120.035 47.0386H115.081L113.037 45.5349V39.2892L115.081 37.8049H120.035L122.059 39.2892V45.5349L120.035 47.0386ZM121.018 39.8097L119.669 38.8073H115.428L114.078 39.8097V44.9952L115.428 45.9976H119.669L121.018 44.9952V39.8097ZM131.386 47V39.829L130.037 38.8073H126.181L124.832 39.829V46.9807H123.791V37.8049H124.832V38.6723L125.95 37.8049H130.384L132.427 39.2892V47H131.386Z" fill="#F3684A"/>
<path d="M101.11 1.28101L56.4492 1.28101L56.4492 60.5965L101.11 60.5965" stroke="white" stroke-width="2" stroke-linejoin="bevel" stroke-dasharray="4 4"/>
<defs>
<filter id="filter0_d_180_277" x="0.179499" y="2.04595" width="49.4921" height="57.9082" filterUnits="userSpaceOnUse" color-interpolation-filters="sRGB">
<feFlood flood-opacity="0" result="BackgroundImageFix"/>
<feColorMatrix in="SourceAlpha" type="matrix" values="0 0 0 0 0 0 0 0 0 0 0 0 0 0 0 0 0 0 127 0" result="hardAlpha"/>
<feOffset/>
<feGaussianBlur stdDeviation="0.685336"/>
<feComposite in2="hardAlpha" operator="out"/>
<feColorMatrix type="matrix" values="0 0 0 0 0 0 0 0 0 0 0 0 0 0 0 0 0 0 0.5 0"/>
<feBlend mode="normal" in2="BackgroundImageFix" result="effect1_dropShadow_180_277"/>
<feBlend mode="normal" in="SourceGraphic" in2="effect1_dropShadow_180_277" result="shape"/>
</filter>
<filter id="filter1_d_180_277" x="18.3992" y="16.7424" width="13.051" height="13.9024" filterUnits="userSpaceOnUse" color-interpolation-filters="sRGB">
<feFlood flood-opacity="0" result="BackgroundImageFix"/>
<feColorMatrix in="SourceAlpha" type="matrix" values="0 0 0 0 0 0 0 0 0 0 0 0 0 0 0 0 0 0 127 0" result="hardAlpha"/>
<feOffset/>
<feGaussianBlur stdDeviation="0.685336"/>
<feComposite in2="hardAlpha" operator="out"/>
<feColorMatrix type="matrix" values="0 0 0 0 0 0 0 0 0 0 0 0 0 0 0 0 0 0 0.5 0"/>
<feBlend mode="normal" in2="BackgroundImageFix" result="effect1_dropShadow_180_277"/>
<feBlend mode="normal" in="SourceGraphic" in2="effect1_dropShadow_180_277" result="shape"/>
</filter>
<linearGradient id="paint0_linear_180_277" x1="24.9247" y1="19.1646" x2="24.9247" y2="28.2226" gradientUnits="userSpaceOnUse">
<stop stop-color="#4779FB"/>
<stop offset="1" stop-color="#B9CDFF"/>
</linearGradient>
<linearGradient id="paint1_linear_180_277" x1="24.9256" y1="3.93066" x2="24.9256" y2="58.0695" gradientUnits="userSpaceOnUse">
<stop stop-color="#FF5631"/>
<stop offset="0.916667" stop-color="#A83E27"/>
<stop offset="1" stop-color="#863423"/>
</linearGradient>
<linearGradient id="paint2_linear_180_277" x1="24.9256" y1="3.93066" x2="24.9256" y2="58.0695" gradientUnits="userSpaceOnUse">
<stop stop-color="#FF5631"/>
<stop offset="0.916667" stop-color="#A83E27"/>
<stop offset="1" stop-color="#863423"/>
</linearGradient>
<linearGradient id="paint3_linear_180_277" x1="24.9256" y1="3.93066" x2="24.9256" y2="58.0695" gradientUnits="userSpaceOnUse">
<stop stop-color="#FF5631"/>
<stop offset="0.916667" stop-color="#A83E27"/>
<stop offset="1" stop-color="#863423"/>
</linearGradient>
<linearGradient id="paint4_linear_180_277" x1="24.9256" y1="3.93066" x2="24.9256" y2="58.0695" gradientUnits="userSpaceOnUse">
<stop stop-color="#FF5631"/>
<stop offset="0.916667" stop-color="#A83E27"/>
<stop offset="1" stop-color="#863423"/>
</linearGradient>
</defs>
</svg>
